<svg width="348" height="108" viewBox="0 0 348 108" fill="none" xmlns="http://www.w3.org/2000/svg">
<g clip-path="url(#clip0_6470_16150)">
<rect width="348" height="108" rx="8" fill="white"/>
<rect opacity="0.16" width="348" height="108" fill="url(#paint0_linear_6470_16150)"/>
<circle opacity="0.08" cx="36.5" cy="53.5" r="216.5" fill="url(#paint1_linear_6470_16150)"/>
<circle opacity="0.08" cx="36.5" cy="53.5" r="159.5" fill="url(#paint2_linear_6470_16150)"/>
<circle opacity="0.24" cx="36.5" cy="53.5" r="106.5" fill="url(#paint3_linear_6470_16150)"/>
<circle opacity="0.8" cx="36.5" cy="53.5" r="67.5" fill="url(#paint4_linear_6470_16150)"/>
<rect x="62.0391" y="19.4189" width="8.55469" height="8.42285" transform="rotate(27.6908 62.0391 19.4189)" fill="url(#paint5_linear_6470_16150)"/>
<rect x="62.1863" y="19.8915" width="7.85469" height="7.72285" transform="rotate(27.6908 62.1863 19.8915)" stroke="white" stroke-opacity="0.31" stroke-width="0.7"/>
<rect x="61.334" y="16.2266" width="12.7656" height="5.52734" rx="2.76367" transform="rotate(27.6908 61.334 16.2266)" fill="url(#paint6_linear_6470_16150)"/>
<rect x="61.4813" y="16.6991" width="12.0656" height="4.82734" rx="2.41367" transform="rotate(27.6908 61.4813 16.6991)" stroke="white" stroke-opacity="0.31" stroke-width="0.7"/>
<circle cx="53" cy="57.7754" r="30" fill="#FF8A59" fill-opacity="0.6"/>
<circle cx="53" cy="57.7754" r="29.5" stroke="white" stroke-opacity="0.1"/>
<circle cx="49" cy="53.7754" r="29.5" fill="url(#paint7_linear_6470_16150)" stroke="white"/>
<circle cx="48" cy="52.7754" r="26.5" stroke="white"/>
<circle cx="49" cy="53.7754" r="26.5" stroke="#FFB69B"/>
<path d="M52.0491 42.3313C51.7626 42.7285 51.2111 43.0111 50.9123 43.1931C50.7611 43.2864 50.6806 43.2917 50.6692 43.4701C50.6584 43.6373 50.7596 43.7815 50.9173 43.8337C51.0749 43.8859 51.2477 43.8647 51.4125 43.8447C51.5903 43.8222 51.768 43.7997 51.9474 43.7773C52.0572 43.764 52.177 43.7448 52.2507 43.6601C52.3227 43.5753 52.3157 43.6153 52.3457 43.5072C52.3757 43.3992 52.4346 43.4073 52.5773 43.3216C52.6489 43.4803 52.687 43.5163 52.7394 43.4966C52.9853 43.402 53.1296 43.3454 53.3255 43.169C53.3407 43.1554 53.4468 42.6241 53.3947 42.4341C53.3425 42.2442 53.2137 42.1049 53.16 41.9148C52.9493 42.1275 52.6024 41.2262 52.3572 41.3966C52.1586 41.5357 52.3885 41.8499 52.0491 42.3313Z" fill="#FFA782"/>
<path d="M47.5502 40.2683C47.7444 40.2676 47.8379 40.3776 47.9312 40.5488C48.0493 40.765 48.177 40.9236 48.1268 41.166C48.0854 41.3637 47.9357 41.52 47.7915 41.6605C47.7611 41.6895 47.7224 41.7212 47.6829 41.711C47.6385 41.7005 47.6204 41.6495 47.5884 41.6187C47.5182 41.5536 47.3798 41.6186 47.3874 41.7142C47.3889 41.7465 47.4033 41.7763 47.4112 41.8074C47.433 41.907 47.3731 42.0053 47.3078 42.084C47.1342 42.2938 46.9089 42.4524 46.6795 42.5963C46.5183 42.6971 46.3462 42.7925 46.1578 42.8048C45.9695 42.8154 45.7615 42.7153 45.7072 42.5349C45.7005 42.5119 45.6969 42.4892 45.7014 42.4652C45.7078 42.4365 45.7267 42.4134 45.744 42.3917C46.0778 41.981 46.3965 41.5243 46.4543 40.9985C46.4575 40.968 46.4609 40.9359 46.4752 40.9093C46.5054 40.8561 46.5737 40.8389 46.6343 40.8454C46.695 40.852 46.7514 40.876 46.8103 40.8857C47.0107 40.9177 47.3678 40.8728 47.5596 40.5946C47.6156 40.5089 47.5876 40.3768 47.5502 40.2683Z" fill="#FFA782"/>
<path d="M47.6175 40.371C47.3882 39.8423 47.4381 39.137 47.3932 39.4297C47.3885 39.4568 47.3694 39.4542 47.3442 39.4447C47.3222 39.4354 47.2549 39.5221 47.2337 39.529C46.9227 39.6393 46.5205 39.3076 46.2152 39.4312C46.4037 39.9447 46.6698 40.5061 46.7821 41.3832C47.0316 41.3114 47.234 41.1322 47.4295 40.9607C47.4717 40.9227 47.5156 40.8831 47.5471 40.8365C47.6066 40.7462 47.6192 40.6324 47.63 40.5249C47.6335 40.4896 47.6372 40.4511 47.6247 40.4165C47.612 40.3836 47.6289 40.3974 47.6175 40.371Z" fill="#FFA782"/>
<path d="M46.3846 21.1767C46.2924 21.2781 46.2058 21.3943 46.1759 21.5298C46.1478 21.6621 46.1739 21.799 46.202 21.9312C46.6813 24.2511 47.1605 26.5725 47.7796 28.8597C48.0662 28.6383 48.3721 28.3857 48.4477 28.0318C48.4822 27.8708 48.4657 27.7038 48.449 27.5399C48.2057 25.2169 47.8948 22.8999 47.5173 20.5953C47.4083 20.6232 46.6458 20.8911 46.3846 21.1767Z" fill="#FFA782"/>
<path d="M53.149 27.466C53.6264 28.1809 53.5767 29.1169 53.4752 29.9726C53.2722 31.684 52.9353 33.3785 52.4561 35.0344C53.7572 37.8493 53.1843 38.1711 53.4151 42.0967C53.0045 42.4435 52.2647 42.59 51.8813 42.3544C51.6131 40.9543 50.6165 36.8593 50.2475 35.9229C50.0855 35.5124 49.8487 33.8027 49.8306 31.0904C48.9378 31.7737 47.1582 32.5922 46.179 33.0368C46.842 34.2038 47.0139 35.0762 47.0815 36.4186C47.1298 37.3809 47.5456 38.8408 47.7426 39.7839C47.3631 40.2663 46.8589 40.3596 46.2711 40.3386C45.8117 39.3812 45.447 38.1031 45.157 37.2469C44.419 35.079 43.9546 33.8035 43.6339 32.5698C43.5771 32.3489 43.5547 32.1138 43.5943 31.8886C43.6745 31.4495 44.0209 31.1023 44.3879 30.8483C46.4178 29.4451 48.11 28.6976 48.2225 27.4958C48.222 27.5054 49.3213 25.748 49.3207 25.7592" fill="#FFA782"/>
<path d="M49.1135 18.6968C49.2692 19.4263 49.4249 20.1574 49.579 20.8868C49.5894 20.9325 49.5978 20.983 49.5716 21.0219C49.5505 21.0562 49.5094 21.0733 49.4716 21.0906C49.1782 21.2326 48.9987 21.5195 48.8929 21.8105C48.7871 22.1014 48.7397 22.4101 48.6227 22.6989C48.6099 22.7288 48.5969 22.7603 48.5716 22.7831C48.467 22.8758 48.3073 22.7445 48.2334 22.6291C47.9094 22.1291 47.5144 21.1687 47.5129 21.1073C47.4821 19.8847 47.6308 20.0122 47.5728 19.4606C47.5664 19.4006 47.5603 19.3374 47.5905 19.2842C47.6188 19.2357 47.6719 19.2048 47.7246 19.1786C48.1638 18.9543 48.6411 18.7951 49.1135 18.6968Z" fill="#FFA782"/>
<path d="M47.5206 20.7408C47.6202 20.914 47.8787 21.1169 48.1603 21.1324C48.2387 21.1367 48.318 21.3878 48.3428 21.4617C48.4258 21.7034 48.4352 21.8249 48.5198 22.0666C48.5405 21.6887 48.5284 21.1203 48.6873 21.0322C48.8263 20.9544 49.3091 20.7244 49.4545 20.1808C49.4626 20.1506 50.0264 20.4331 50.0526 20.4523C50.0788 20.4715 50.1965 20.7537 50.2061 20.7849C50.6292 22.2275 50.4373 23.6186 50.4914 25.1199C50.5139 25.7631 50.5052 26.4174 50.6897 27.034C50.7235 27.1487 50.7589 27.2926 50.6709 27.3749C50.6287 27.4129 50.5703 27.4258 50.5152 27.4357C49.7614 27.5734 48.9828 27.5807 48.2256 27.4585C47.6957 25.3294 47.2073 23.0591 47.5206 20.7408Z" fill="#FFA782"/>
<path d="M42.3589 24.1503C42.3299 23.918 42.2317 23.632 42.2229 23.4122C42.2187 23.3135 42.2514 23.1847 42.3513 23.1773C42.4399 23.1708 42.4938 23.2706 42.5245 23.3545C42.6362 23.659 42.8911 24.1907 43.0505 24.4737C43.3426 24.9978 43.1409 25.1657 43.6074 25.5252C43.7306 25.6191 43.0155 26.2524 42.8787 26.1997C42.7138 26.1358 42.2901 25.8433 42.1568 25.7279C42.0726 25.6539 41.6305 25.3474 41.5914 25.3001C41.5582 25.2612 41.5563 25.2078 41.5381 25.1601C41.347 24.6351 41.4054 24.1851 41.6773 23.9096C41.8287 23.7534 42.2232 23.9912 42.3589 24.1503Z" fill="#FFA782"/>
<path d="M42.7898 26.3542C42.67 26.2864 42.6026 26.1988 42.5136 26.0939C42.4308 25.9958 42.5905 25.6578 42.6956 25.5265C42.8301 25.3565 43.0162 25.1812 43.2207 25.1102C43.2583 25.0977 43.2973 25.0885 43.3354 25.0971C43.3813 25.1077 43.6876 25.3164 43.7194 25.3504C43.847 25.4816 43.6865 25.4534 43.7756 25.6132C43.7828 25.6281 43.7916 25.6431 43.7892 25.6591C43.7866 25.6767 43.7699 25.6887 43.7549 25.6991C43.4541 25.9165 43.1183 26.2158 42.7898 26.3542Z" fill="#FFA782"/>
<path d="M57.5806 25.059C57.6936 25.4861 57.7105 25.9387 57.6337 26.3732C57.6152 26.4754 57.6372 26.6298 57.7392 26.6144C57.7699 26.6097 57.7969 26.5869 57.819 26.564C57.9449 26.4338 58.0327 26.266 58.0697 26.089C58.1339 26.1183 58.1404 26.2042 58.1397 26.2751C58.1349 26.5684 58.1301 26.8601 58.1252 27.1533C58.1219 27.3015 58.5637 27.2338 58.923 26.6519C59.1571 26.2745 59.0037 25.2693 58.5228 24.5574C58.3476 24.2994 58.3195 24.5189 58.0146 24.5779C57.7633 24.6254 57.538 24.9002 57.5806 25.059Z" fill="#FFA782"/>
<path d="M57.3349 24.654C57.3798 24.8016 57.4878 25.172 57.5251 25.195C57.6072 25.2479 58.4365 25.166 58.7442 24.8232C58.714 24.6425 58.6723 24.5257 58.5682 24.3748C58.5459 24.343 58.522 24.311 58.4877 24.2914C58.4426 24.2663 58.3862 24.2697 58.3346 24.2749C58.0115 24.3137 57.6991 24.4514 57.453 24.6669C57.4244 24.6911 57.3924 24.7184 57.3541 24.7131C57.3158 24.7094 57.2985 24.6455 57.3349 24.654Z" fill="#FFA782"/>
<path d="M50.2719 20.3362C51.4233 19.8816 52.33 19.4136 53.5347 19.1281C54.068 19.0009 55.0461 18.782 55.5623 18.9667C57.0368 19.4976 58.753 23.8417 58.7198 24.4464C58.6989 24.8275 57.8212 24.9422 57.2981 24.8845C56.3624 23.659 56.2393 22.8893 55.1367 21.8111C55.027 21.7035 54.8693 21.5658 54.7205 21.5286C54.5638 21.4893 53.5245 21.9759 53.3795 22.0453C49.4588 23.9254 52.399 22.5432 50.2719 20.3362Z" fill="#FFA782"/>
<path d="M46.5034 21.1997C46.2592 21.2347 45.942 21.6044 45.865 21.8389C45.7879 22.0734 45.7644 22.6479 45.7508 22.8955C45.6351 25.0053 45.3568 26.3045 45.1437 26.1815C44.2618 25.6719 43.6675 25.1844 43.6055 25.2036C42.9836 25.3953 42.4972 26.0138 42.6095 26.3651C42.8522 27.1171 45.1555 28.4531 45.6556 28.6983C45.7618 28.7509 45.8781 28.796 45.9932 28.7749C46.0904 28.7576 46.1725 28.6944 46.2512 28.6342C47.0104 28.0468 47.3385 26.4245 47.5175 25.8521C47.2082 24.8496 46.8976 23.8423 46.7411 22.8047C46.6675 22.3039 46.7512 21.6262 46.5034 21.1997Z" fill="#FFA782"/>
<path d="M49.3962 20.0798C49.9597 20.0462 50.4458 20.1664 51.0439 19.9105C51.2395 19.8261 51.5297 19.7436 51.7149 19.8473C51.9563 19.9815 52.0208 20.327 52.1108 20.5884C53.2581 23.9239 52.8803 25.4854 53.9993 28.05C54.0222 28.1013 54.0268 28.1628 54.0095 28.2151C53.9823 28.3023 53.0608 29.1001 52.5676 29.2553C51.9749 29.4422 51.3346 29.12 50.8883 28.6858C50.605 28.409 50.3676 28.0847 50.1913 27.7298C49.9816 27.3103 49.8576 26.8519 49.7592 26.3932C49.5405 25.378 49.589 23.4694 49.5631 22.1567C49.5342 20.6358 49.4112 20.129 49.3962 20.0798Z" fill="#FFA782"/>
<path d="M37.4323 19.2027C37.0854 19.7643 36.7299 20.3351 36.2297 20.7657C36.0024 20.9613 35.7495 21.1249 35.5207 21.3172C35.1843 21.5987 34.9025 21.9381 34.6208 22.2758C34.5727 22.3345 34.5228 22.3947 34.5028 22.4678C34.4749 22.5662 34.5059 22.6744 34.5605 22.7612C34.7166 23.0166 35.0317 23.1226 35.3263 23.1645C35.6208 23.2065 35.929 23.2057 36.2015 23.3271C36.4615 23.4446 36.7345 23.674 36.9947 23.5528C37.0721 23.5168 35.7444 22.6504 35.8284 22.6695C37.8895 23.1552 37.1108 21.7286 38.1001 21.1877C39.6553 20.3359 39.2448 19.2182 38.6148 19.2353C38.3947 19.241 38.5079 18.931 38.3056 18.8458C38.1205 18.7679 37.902 18.8317 37.7429 18.9536C37.5836 19.0771 37.4747 19.2502 37.4323 19.2027Z" fill="#FFA782"/>
<path d="M49.0006 18.2035C49.1805 18.0843 49.4657 18.2096 49.5005 18.4228C49.5462 18.7011 49.2515 18.8962 49.0803 19.1207C48.8833 19.3777 48.8404 19.7205 48.6899 20.0058C48.4694 20.4275 47.9213 20.7071 47.5034 20.4858C47.2883 20.3708 47.1448 20.1484 47.0742 19.9139C47.0021 19.6793 46.9932 19.432 46.9858 19.1865C46.9821 19.0782 46.9785 18.9683 46.9748 18.8601C46.9634 18.5127 46.9504 18.1636 47.0013 17.8212C47.0216 17.6852 47.0518 17.5449 47.1363 17.4367C47.2418 17.2989 47.414 17.2309 47.5804 17.1804C47.7827 17.1205 47.989 17.0754 48.1974 17.0497C48.4688 17.0162 48.795 17.0373 48.9395 17.2711C49.1131 17.558 48.8818 17.9421 49.0006 18.2035Z" fill="#FFA782"/>
<path d="M47.9194 16.5795C49.6124 15.8466 49.3948 17.854 49.2751 18.2216C49.1717 18.1756 49.0497 18.2641 49.0102 18.37C48.9707 18.4759 49.005 18.6116 48.9955 18.7256C48.9861 18.8396 48.9224 18.9474 48.8202 18.9966C48.7382 18.7954 48.7571 18.5674 48.7866 18.3513C48.8161 18.1351 48.6856 18.2038 48.7196 17.5831C48.7315 17.366 48.5818 17.2868 48.3641 17.2765C48.1818 17.2665 48.021 17.3883 47.8634 17.4829C47.6111 17.6352 47.3137 17.7334 47.0204 17.6963C46.7272 17.6593 46.405 17.5077 46.3536 17.1855C46.3071 16.8927 46.4272 16.3718 47.3233 16.4758C47.4508 16.4909 47.6449 16.6983 47.9194 16.5795Z" fill="#FFA782"/>
<path d="M48.784 18.5093C48.7422 18.599 48.762 18.8226 48.6435 18.9951C48.6086 19.0448 48.3714 19.3334 47.948 19.0941C47.7659 18.9906 47.499 19.0598 47.3082 19.1735C47.1357 19.2753 47.0216 19.0739 46.9628 19.0933C46.9238 19.1895 46.9259 19.2977 46.9346 19.4014C46.96 19.6996 47.037 19.9925 47.1585 20.2637C47.1813 20.3165 47.2074 20.368 47.2418 20.4134C47.3284 20.5311 47.4656 20.6047 47.6083 20.6351C47.751 20.6671 47.8991 20.6591 48.0446 20.6397C48.2935 20.6066 48.6524 20.4118 48.8435 19.9416C48.9973 19.5646 49.0423 18.9493 48.9767 18.6247C48.9665 18.5758 48.9268 18.6268 48.8794 18.6436C48.8646 18.6492 48.8543 18.6616 48.8456 18.674C48.8175 18.7192 48.7737 18.5217 48.784 18.5093Z" fill="#FFA782"/>
<path d="M29.3059 36.3195C31.0143 35.9794 32.6726 35.3833 34.2086 34.5579C34.822 34.2286 35.4491 33.8259 35.7406 33.1919C35.8662 32.9214 35.9211 32.6228 35.9566 32.3263C35.9803 32.1276 35.9967 31.9173 35.9186 31.7323C35.8548 31.5788 35.7346 31.4577 35.6158 31.3415C34.4864 30.2247 33.357 29.1079 32.2292 27.9912C32.0739 27.8376 31.9156 27.6821 31.722 27.5844C31.5283 27.4867 31.2895 27.4526 31.0948 27.55C30.7565 27.7201 30.7012 28.1735 30.6899 28.5536C30.6504 29.9756 30.6093 31.3975 30.5698 32.8211C30.5582 33.2366 30.5465 33.6553 30.4648 34.0621C30.2952 34.9303 29.8227 35.7027 29.3059 36.3195Z" fill="#FFA782"/>
<path d="M36.9576 23.534C37.1383 24.4229 37.5453 25.3404 37.8507 26.2975C39.368 25.2565 40.258 24.1279 40.5934 23.9221C40.904 23.7311 41.2314 23.6716 41.8597 23.8319C42.0712 23.9242 42.4965 24.0991 42.7081 24.1914C42.6595 24.3742 42.4318 24.6649 42.2049 24.675C41.544 24.7017 41.048 24.3229 40.9841 24.4065C39.9813 25.7192 39.2659 26.9428 38.0048 27.7882C37.9098 27.8523 37.794 27.9153 37.6749 27.8926C37.5574 27.8701 37.504 27.7607 37.4231 27.6853C36.316 26.6584 35.7292 25.6553 35.3733 24.6245C35.6556 24.1303 36.1933 23.7469 36.9576 23.534Z" fill="#FFA782"/>
<path d="M34.3974 21.1851C35.3509 20.947 36.2181 20.3785 36.8952 19.5898C37.0505 19.9177 37.2726 20.5202 37.4694 20.8229C36.9326 21.5112 36.4004 21.882 36.154 22.8927C35.7898 22.6566 35.3576 22.2861 35.0075 22.0282C34.8857 21.9376 34.7624 21.8454 34.6745 21.7212C34.6269 21.6525 34.5909 21.5779 34.555 21.5018C34.5091 21.4025 34.4601 21.3014 34.3974 21.1851Z" fill="#FFA782"/>
<path d="M33.2895 20.3972C32.5932 19.2816 32.0369 18.864 32.1257 18.7366C32.5598 18.1072 33.238 17.5331 34.3327 15.9481C34.226 15.8148 34.1177 15.683 34.0111 15.5498C32.6273 16.6416 31.3711 17.4275 30.6429 18.5617C30.5886 18.6459 30.5431 18.7434 30.5472 18.8436C30.5512 18.9164 30.5844 18.9843 30.6177 19.0507C31.2656 20.3443 31.7599 21.4262 32.5553 22.636" fill="#FFA782"/>
<path d="M33.8423 15.727C34.2458 15.3346 34.3305 15.136 34.5253 14.9483C34.6999 14.7788 34.991 14.7368 35.2273 14.7884C35.3859 14.8229 35.6154 14.8807 35.7142 15.0103C35.7996 15.1214 35.7902 15.1161 35.715 15.1716C35.6632 15.2091 35.5697 15.1879 35.5053 15.1908C35.3364 15.1992 35.0237 15.3402 34.9063 15.4627C34.9068 15.5128 35.1125 15.4773 35.1623 15.4768C35.212 15.4763 35.2613 15.4564 35.3108 15.4607C35.3603 15.4651 35.4122 15.5131 35.3937 15.5588C35.3844 15.5809 35.3644 15.5943 35.3445 15.6061C34.9968 15.8016 34.6488 15.768 34.3324 15.978C34.0692 16.1539 34.0245 16.1499 33.8423 15.727Z" fill="#FFA782"/>
<path d="M33.1295 28.0485C33.186 28.4823 33.2439 28.9177 33.3004 29.3515C33.3285 29.5691 33.3567 29.7868 33.3671 30.0067C33.3784 30.2686 33.3608 30.5322 33.3448 30.7942C33.2883 31.6766 33.232 32.5574 33.174 33.4397C33.1484 33.8479 33.1189 34.2689 32.9414 34.6366C32.7531 35.0278 32.4191 35.324 32.1209 35.6399C31.6011 36.1937 31.184 36.8353 30.7687 37.4738C30.0623 38.5609 29.3354 39.7016 29.194 40.9922C29.1502 41.3818 29.1619 41.7824 29.0419 42.1565C28.7351 41.6654 28.4366 41.1684 28.1496 40.6656C28.0999 40.5774 28.0487 40.4875 28.0381 40.3869C28.014 40.1549 28.2057 39.9654 28.3567 39.7866C28.9302 39.102 29.0163 38.147 29.2562 37.2844C29.6005 36.0404 30.3128 34.902 31.279 34.0502C31.3246 34.0092 31.3752 33.9652 31.3881 33.9046C31.4008 33.8488 31.3783 33.7911 31.3571 33.7384C30.5839 31.775 30.2633 29.6332 30.482 27.4888C30.5746 27.5858 30.6976 27.6538 30.8294 27.6788C30.95 27.7032 31.0742 27.6922 31.1959 27.6973C31.3192 27.7025 31.4415 27.7253 31.5622 27.748C32.0815 27.8459 32.6041 27.9439 33.1295 28.0485Z" fill="#FFA782"/>
<path d="M35.7913 31.692C35.2664 33.2455 35.3377 34.9284 35.0852 36.5484C35.075 36.6172 35.0615 36.6874 35.0215 36.7433C34.9765 36.8038 34.9041 36.8369 34.8484 36.887C34.7571 36.9707 34.7182 37.0944 34.6892 37.2138C34.5941 37.6021 34.5672 38.0055 34.6111 38.4031C34.6231 38.5069 34.6783 38.6406 34.7806 38.6188C34.8261 38.61 34.8588 38.5683 34.8865 38.5311C35.204 38.0969 35.5251 37.6564 35.732 37.1597C35.8649 36.8444 35.9489 36.5119 36.0519 36.1853C36.4417 34.9583 37.1025 33.8236 37.4055 32.5709C37.4679 32.3114 37.5124 32.0268 37.3956 31.7865C37.2528 31.4932 36.9027 31.353 36.5773 31.3464C36.2518 31.3415 35.8586 31.4893 35.7913 31.692Z" fill="#FFA782"/>
<path d="M33.4829 37.6807C33.773 37.4224 33.8804 37.3525 34.0799 37.0199C34.1312 36.934 34.1703 36.8362 34.2445 36.7693C34.6159 36.4348 35.0251 36.5234 35.0641 36.5723C35.1183 36.6382 35.0381 36.9289 34.9987 37.0042C34.8169 37.3636 34.6999 37.741 34.7064 37.9156C34.7142 38.1241 34.6175 38.4236 34.93 38.4311C34.8004 38.8352 34.9227 39.179 35.0109 39.4436C35.055 39.5766 34.9875 39.6068 34.9148 39.6738C34.8237 39.7559 34.7012 39.6185 34.5991 39.55C34.1952 39.2778 33.9974 38.846 33.9706 38.78C33.9057 38.6168 34.0576 38.3348 34.1022 38.1647C34.1858 37.8402 34.2799 37.6744 34.2918 37.459C34.2955 37.3898 34.2777 37.423 34.2088 37.4209C34.1719 37.4205 34.1416 37.4462 34.1145 37.4721C33.8298 37.7446 33.7922 37.717 33.6369 37.8569C33.5425 37.9388 33.4374 37.7201 33.4829 37.6807Z" fill="#FFA782"/>
<path d="M28.3125 39.8484C28.4727 40.0281 28.4807 40.2931 28.4931 40.5341C28.5088 40.8333 28.6843 41.4365 29.1684 41.4453C29.348 41.4487 29.1649 41.8613 29.4473 42.0671C29.5568 42.1473 29.7835 42.1984 29.8376 42.3224C29.8489 42.3504 29.8086 42.4998 29.8007 42.5284C29.771 42.63 28.7455 42.4866 28.4534 42.1948C28.2055 41.9457 28.3582 41.5896 27.9898 41.1387C27.9461 41.0863 27.8066 41.669 27.7648 42.0216C27.753 42.1193 27.5743 42.1305 27.511 42.056C27.7194 40.861 27.6215 40.7734 27.6303 40.6997C27.6579 40.4318 27.7502 40.1821 27.8731 40.0469C27.9961 39.9117 28.2641 39.7941 28.3125 39.8484Z" fill="#FFA782"/>
<path d="M31.4806 28.2665C31.5063 30.2275 31.7618 31.3609 32.6808 33.271C32.9099 33.7465 33.0573 34.3352 33.546 34.5249C34.0613 34.7257 34.6202 34.4242 35.1619 34.32C35.762 34.2045 36.4074 34.3448 36.9063 34.6996C36.9634 34.7398 37.0266 34.7868 37.0977 34.7778C37.1979 34.7656 37.2505 34.6555 37.2846 34.559C37.6928 33.4088 38.1008 32.2603 38.5089 31.1101C38.5811 30.906 38.6551 30.6971 38.6573 30.4811C38.6629 30.1153 38.4637 29.7689 38.1982 29.5189C37.9327 29.2688 37.6052 29.096 37.2806 28.9282C36.6082 28.5784 35.9373 28.2303 35.2648 27.8805C34.9747 27.7291 34.6814 27.5759 34.4416 27.3547C34.2002 27.1334 34.0146 26.8313 34.002 26.5048C33.3829 26.2644 32.7973 25.9419 32.2604 25.548C32.0645 25.405 32.0598 25.1266 31.8236 25.0733C31.5059 25.1347 31.0591 25.3619 30.7707 25.6461C30.2871 26.1244 29.9253 26.7335 29.8098 27.4062C29.6943 28.0789 29.5907 28.7854 29.6417 29.4656C29.663 29.749 29.6876 30.0326 29.7462 30.31C29.852 30.8094 30.065 31.2856 30.1125 31.7946C30.1561 32.2567 30.06 32.7208 29.9471 33.171C29.6476 34.3594 29.2183 35.5165 28.6719 36.6123C29.5051 36.5774 30.2996 36.0468 30.6557 35.2889C30.861 34.8518 30.923 34.3649 30.9846 33.886C31.0441 33.4167 31.1036 32.9458 31.1151 32.4722C31.1316 31.7634 31.0404 31.0552 31.0312 30.3466C31.0219 29.6381 31.1038 28.9055 31.4806 28.2665Z" fill="#FFA782"/>
<path d="M34.3671 20.7589C35.3646 21.2959 35.559 21.4969 36.114 21.9386C36.4369 22.1967 36.951 22.42 37.1411 22.7869C37.4746 23.4342 37.2781 24.3251 37.2996 24.723C36.7906 24.4661 35.7507 25.2268 35.7443 25.4909C35.6811 25.4133 35.5574 25.2113 35.4818 25.0394C34.925 25.7121 34.1629 25.4042 33.9986 26.6855C33.8781 27.0982 33.681 27.5019 33.3817 27.8097C33.3256 27.8679 33.26 27.9224 33.1805 27.9374C33.0913 27.955 33.0018 27.9195 32.9188 27.8827C32.2514 27.5864 31.6429 27.153 31.1461 26.6161C31.0764 26.5397 31.0041 26.4551 30.9936 26.3529C30.9759 26.1793 30.6371 26.2995 30.7318 26.153C30.9545 25.8072 31.4737 25.4301 31.667 25.0649C32.2758 23.9128 32.4486 22.9972 32.5567 22.6354C32.4504 22.4683 32.4165 22.4423 32.302 22.2473C32.195 21.6817 32.5991 20.8684 33.2744 20.3764C33.2788 20.3831 33.834 20.4716 34.3671 20.7589Z" fill="#FFA782"/>
<path d="M36.6623 19.208C36.4832 19.8982 36.1701 19.8713 36.3962 20.5482C36.4706 20.7717 36.924 21.7788 37.2577 21.839C37.3896 21.8624 37.6282 21.7255 37.7731 21.5415C38.1528 21.0559 38.6702 20.3698 38.6141 19.8135C38.4934 18.5907 37.9028 18.4164 37.2851 18.6196C37.1887 18.6514 37.0658 18.9011 36.9723 18.9395C36.7769 19.0191 36.6533 19.2253 36.6623 19.208Z" fill="#FFA782"/>
<path d="M35.0129 21.4994C33.8866 21.2924 34.5265 22.0307 32.657 22.3814C30.76 22.737 30.1284 18.8346 32.8516 19.3614C33.8741 19.5595 35.1836 19.412 35.8105 18.6625C37.2047 16.9987 38.8938 18.4445 39.0348 18.8587C39.2352 19.4471 39.0596 19.7214 38.7912 19.9921C38.2545 20.532 37.5892 19.2052 36.8765 20.4371C36.3766 21.3016 36.7938 21.8277 35.0129 21.4994Z" fill="#FFA782"/>
<path d="M33.9762 26.6883C34.082 26.6247 34.1871 26.4011 34.1981 26.1995C32.4108 25.7905 31.7071 24.8208 31.6893 24.8289C31.4697 24.93 31.392 25.2291 31.4319 25.3052C31.4532 25.3456 32.3506 26.3154 33.9762 26.6883Z" fill="#FFA782"/>
<mask id="path-49-inside-1_6470_16150" fill="white">
<path fill-rule="evenodd" clip-rule="evenodd" d="M54.1915 59.4663L63.0811 40.7787L62.1801 38.4785L44.3936 49.6683L44.3984 49.6731L44.3912 49.6683L34.7031 65.9663L35.5016 68.3558L54.1891 59.4662L54.1848 59.4595L54.1915 59.4663Z"/>
</mask>
<path fill-rule="evenodd" clip-rule="evenodd" d="M54.1915 59.4663L63.0811 40.7787L62.1801 38.4785L44.3936 49.6683L44.3984 49.6731L44.3912 49.6683L34.7031 65.9663L35.5016 68.3558L54.1891 59.4662L54.1848 59.4595L54.1915 59.4663Z" fill="#FF8A59" fill-opacity="0.6"/>
<path d="M63.0811 40.7787L63.9841 41.2083L64.1702 40.8172L64.0122 40.414L63.0811 40.7787ZM54.1915 59.4663L53.4844 60.1734L54.486 61.175L55.0945 59.8958L54.1915 59.4663ZM62.1801 38.4785L63.1113 38.1138L62.6705 36.9886L61.6476 37.6321L62.1801 38.4785ZM44.3936 49.6683L43.8611 48.8219L42.8003 49.4892L43.6864 50.3754L44.3936 49.6683ZM44.3984 49.6731L43.8402 50.5028L45.1055 48.966L44.3984 49.6731ZM44.3912 49.6683L44.9493 48.8386L44.0719 48.2483L43.5316 49.1573L44.3912 49.6683ZM34.7031 65.9663L33.8435 65.4553L33.6096 65.8489L33.7547 66.2832L34.7031 65.9663ZM35.5016 68.3558L34.5531 68.6728L34.9111 69.7441L35.9311 69.2589L35.5016 68.3558ZM54.1891 59.4662L54.6187 60.3693L55.6487 59.8793L55.0282 58.9222L54.1891 59.4662ZM54.1848 59.4595L54.8919 58.7524L53.3457 60.0036L54.1848 59.4595ZM62.1781 40.3491L53.2885 59.0367L55.0945 59.8958L63.9841 41.2083L62.1781 40.3491ZM61.249 38.8432L62.15 41.1434L64.0122 40.414L63.1113 38.1138L61.249 38.8432ZM44.9261 50.5147L62.7126 39.3249L61.6476 37.6321L43.8611 48.8219L44.9261 50.5147ZM45.1055 48.966L45.1007 48.9612L43.6864 50.3754L43.6912 50.3802L45.1055 48.966ZM43.833 50.498L43.8402 50.5028L44.9565 48.8434L44.9493 48.8386L43.833 50.498ZM35.5627 66.4772L45.2508 50.1793L43.5316 49.1573L33.8435 65.4553L35.5627 66.4772ZM36.45 68.0389L35.6516 65.6494L33.7547 66.2832L34.5531 68.6728L36.45 68.0389ZM53.7596 58.5632L35.072 67.4528L35.9311 69.2589L54.6187 60.3693L53.7596 58.5632ZM53.3457 60.0036L53.35 60.0103L55.0282 58.9222L55.0239 58.9155L53.3457 60.0036ZM54.8986 58.7592L54.8919 58.7524L53.4777 60.1666L53.4844 60.1734L54.8986 58.7592Z" fill="white" fill-opacity="0.1" mask="url(#path-49-inside-1_6470_16150)"/>
<path d="M62.235 38.4322L53.3454 57.1198L43.5474 47.3218L62.235 38.4322Z" fill="url(#paint8_linear_6470_16150)"/>
<path d="M44.1455 47.4249L61.4957 39.1715L53.2423 56.5217L44.1455 47.4249Z" stroke="white" stroke-opacity="0.31" stroke-width="0.7"/>
<path d="M34.6556 66.0092L43.5453 47.3216L53.3432 57.1196L34.6556 66.0092Z" fill="url(#paint9_linear_6470_16150)"/>
<path d="M52.7451 57.0165L35.3949 65.2699L43.6483 47.9197L52.7451 57.0165Z" stroke="white" stroke-opacity="0.31" stroke-width="0.7"/>
</g>
<defs>
<linearGradient id="paint0_linear_6470_16150" x1="329.858" y1="92.2598" x2="284.028" y2="-42.4198" gradientUnits="userSpaceOnUse">
<stop stop-color="#FF8A59"/>
<stop offset="1" stop-color="#FFE3D7"/>
</linearGradient>
<linearGradient id="paint1_linear_6470_16150" x1="230.427" y1="206.894" x2="-69.5452" y2="-66.6813" gradientUnits="userSpaceOnUse">
<stop stop-color="#FF8A59"/>
<stop offset="1" stop-color="#FFE3D7"/>
</linearGradient>
<linearGradient id="paint2_linear_6470_16150" x1="179.37" y1="166.508" x2="-41.6257" y2="-35.04" gradientUnits="userSpaceOnUse">
<stop stop-color="#FF8A59"/>
<stop offset="1" stop-color="#FFE3D7"/>
</linearGradient>
<linearGradient id="paint3_linear_6470_16150" x1="131.896" y1="128.957" x2="-15.6654" y2="-5.6192" gradientUnits="userSpaceOnUse">
<stop stop-color="#FF8A59"/>
<stop offset="1" stop-color="#FFE3D7"/>
</linearGradient>
<linearGradient id="paint4_linear_6470_16150" x1="96.9623" y1="101.325" x2="3.43741" y2="16.0301" gradientUnits="userSpaceOnUse">
<stop stop-color="#FF8A59"/>
<stop offset="1" stop-color="#FFE3D7"/>
</linearGradient>
<linearGradient id="paint5_linear_6470_16150" x1="70.1478" y1="26.6142" x2="64.305" y2="21.2022" gradientUnits="userSpaceOnUse">
<stop stop-color="#FF8A59"/>
<stop offset="1" stop-color="#FFE3D7"/>
</linearGradient>
<linearGradient id="paint6_linear_6470_16150" x1="73.4341" y1="20.9483" x2="70.4544" y2="14.6721" gradientUnits="userSpaceOnUse">
<stop stop-color="#FF8A59"/>
<stop offset="1" stop-color="#FFE3D7"/>
</linearGradient>
<linearGradient id="paint7_linear_6470_16150" x1="53.321" y1="24.0592" x2="49.4698" y2="83.8057" gradientUnits="userSpaceOnUse">
<stop offset="0.24972" stop-color="white"/>
<stop offset="0.774476" stop-color="#FDF2FF"/>
<stop offset="0.933117" stop-color="white"/>
</linearGradient>
<linearGradient id="paint8_linear_6470_16150" x1="51.5967" y1="59.2046" x2="46.8062" y2="42.1591" gradientUnits="userSpaceOnUse">
<stop stop-color="#FF8A59"/>
<stop offset="1" stop-color="#FFE3D7"/>
</linearGradient>
<linearGradient id="paint9_linear_6470_16150" x1="45.2939" y1="45.2368" x2="50.0844" y2="62.2823" gradientUnits="userSpaceOnUse">
<stop stop-color="#FF8A59"/>
<stop offset="1" stop-color="#FFE3D7"/>
</linearGradient>
<clipPath id="clip0_6470_16150">
<rect width="348" height="108" rx="8" fill="white"/>
</clipPath>
</defs>
</svg>
