<svg width="348" height="108" viewBox="0 0 348 108" fill="none" xmlns="http://www.w3.org/2000/svg">
<g clipPath="url(#clip0_6265_12134)">
<rect width="348" height="108" rx="8" fill="white"/>
<rect opacity="0.16" width="348" height="108" fill="url(#paint0_linear_6265_12134)"/>
<circle opacity="0.08" cx="36.5" cy="53.5" r="216.5" fill="url(#paint1_linear_6265_12134)"/>
<circle opacity="0.08" cx="36.5" cy="53.5" r="159.5" fill="url(#paint2_linear_6265_12134)"/>
<circle opacity="0.24" cx="36.5" cy="53.5" r="106.5" fill="url(#paint3_linear_6265_12134)"/>
<circle opacity="0.8" cx="36.5" cy="53.5" r="67.5" fill="url(#paint4_linear_6265_12134)"/>
<path d="M35.8873 26.6781C37.4696 22.6817 41.6568 20.3619 45.884 21.1398L72.8756 26.1063C74.6562 26.434 76.2966 27.291 77.5825 28.5655L80.4884 31.4457C82.7823 33.7193 83.6821 37.0477 82.8462 40.1673L69.963 88.2483C68.5335 93.583 63.0502 96.7488 57.7155 95.3194L26.8059 87.0372C24.9249 86.5332 23.2581 85.4327 22.0558 83.9009L19.3809 80.4932C17.4049 77.9759 16.9143 74.5986 18.0924 71.6231L35.8873 26.6781Z" fill="#FF8A59" fill-opacity="0.6"/>
<path d="M36.3522 26.8621C37.8466 23.0878 41.8012 20.8969 45.7935 21.6315L72.7851 26.5981C74.4668 26.9075 76.016 27.7169 77.2305 28.9206L80.1365 31.8009C82.3029 33.9481 83.1527 37.0916 82.3633 40.0379L69.48 88.1189C68.122 93.1868 62.9128 96.1944 57.8449 94.8364L26.9353 86.5542C25.1588 86.0782 23.5846 85.0389 22.4491 83.5922L19.7742 80.1845C17.908 77.807 17.4447 74.6173 18.5573 71.8071L36.3522 26.8621Z" stroke="white" stroke-opacity="0.1"/>
<rect x="33.462" y="15.8331" width="49" height="67" rx="8.5" transform="rotate(15 33.462 15.8331)" fill="url(#paint5_linear_6265_12134)" stroke="white"/>
<g opacity="0.7">
<rect x="37.54" y="25.7266" width="36" height="16" rx="3" transform="rotate(15 37.54 25.7266)" fill="url(#paint6_linear_6265_12134)"/>
<rect x="37.7875" y="26.1552" width="35.3" height="15.3" rx="2.65" transform="rotate(15 37.7875 26.1552)" stroke="white" stroke-opacity="0.31" stroke-width="0.7"/>
</g>
<g opacity="0.7">
<rect x="32.623" y="44.0801" width="10" height="6" rx="3" transform="rotate(15 32.623 44.0801)" fill="url(#paint7_linear_6265_12134)"/>
<rect x="32.8705" y="44.5087" width="9.3" height="5.3" rx="2.65" transform="rotate(15 32.8705 44.5087)" stroke="white" stroke-opacity="0.31" stroke-width="0.7"/>
</g>
<g opacity="0.6">
<rect x="30.293" y="52.7734" width="10" height="6" rx="3" transform="rotate(15 30.293 52.7734)" fill="url(#paint8_linear_6265_12134)"/>
<rect x="30.5405" y="53.2021" width="9.3" height="5.3" rx="2.65" transform="rotate(15 30.5405 53.2021)" stroke="white" stroke-opacity="0.31" stroke-width="0.7"/>
</g>
<g opacity="0.6">
<rect x="27.9639" y="61.4668" width="10" height="6" rx="3" transform="rotate(15 27.9639 61.4668)" fill="url(#paint9_linear_6265_12134)"/>
<rect x="28.2114" y="61.8955" width="9.3" height="5.3" rx="2.65" transform="rotate(15 28.2114 61.8955)" stroke="white" stroke-opacity="0.31" stroke-width="0.7"/>
</g>
<g opacity="0.5">
<rect x="25.6348" y="70.1582" width="10" height="6" rx="3" transform="rotate(15 25.6348 70.1582)" fill="url(#paint10_linear_6265_12134)"/>
<rect x="25.8823" y="70.5869" width="9.3" height="5.3" rx="2.65" transform="rotate(15 25.8823 70.5869)" stroke="white" stroke-opacity="0.31" stroke-width="0.7"/>
</g>
<g opacity="0.7">
<rect x="45.1797" y="47.4434" width="10" height="6" rx="3" transform="rotate(15 45.1797 47.4434)" fill="url(#paint11_linear_6265_12134)"/>
<rect x="45.4272" y="47.872" width="9.3" height="5.3" rx="2.65" transform="rotate(15 45.4272 47.872)" stroke="white" stroke-opacity="0.31" stroke-width="0.7"/>
</g>
<g opacity="0.6">
<rect x="42.8506" y="56.1367" width="10" height="6" rx="3" transform="rotate(15 42.8506 56.1367)" fill="url(#paint12_linear_6265_12134)"/>
<rect x="43.0981" y="56.5654" width="9.3" height="5.3" rx="2.65" transform="rotate(15 43.0981 56.5654)" stroke="white" stroke-opacity="0.31" stroke-width="0.7"/>
</g>
<g opacity="0.6">
<rect x="40.5205" y="64.8301" width="10" height="6" rx="3" transform="rotate(15 40.5205 64.8301)" fill="url(#paint13_linear_6265_12134)"/>
<rect x="40.768" y="65.2587" width="9.3" height="5.3" rx="2.65" transform="rotate(15 40.768 65.2587)" stroke="white" stroke-opacity="0.31" stroke-width="0.7"/>
</g>
<g opacity="0.5">
<rect x="38.1914" y="73.5234" width="10" height="6" rx="3" transform="rotate(15 38.1914 73.5234)" fill="url(#paint14_linear_6265_12134)"/>
<rect x="38.4389" y="73.9521" width="9.3" height="5.3" rx="2.65" transform="rotate(15 38.4389 73.9521)" stroke="white" stroke-opacity="0.31" stroke-width="0.7"/>
</g>
<g opacity="0.7">
<rect x="57.7363" y="50.8086" width="10" height="6" rx="3" transform="rotate(15 57.7363 50.8086)" fill="url(#paint15_linear_6265_12134)"/>
<rect x="57.9838" y="51.2373" width="9.3" height="5.3" rx="2.65" transform="rotate(15 57.9838 51.2373)" stroke="white" stroke-opacity="0.31" stroke-width="0.7"/>
</g>
<g opacity="0.6">
<rect x="55.4072" y="59.502" width="10" height="6" rx="3" transform="rotate(15 55.4072 59.502)" fill="url(#paint16_linear_6265_12134)"/>
<rect x="55.6547" y="59.9306" width="9.3" height="5.3" rx="2.65" transform="rotate(15 55.6547 59.9306)" stroke="white" stroke-opacity="0.31" stroke-width="0.7"/>
</g>
<g opacity="0.5">
<rect x="53.0781" y="68.1953" width="10" height="15" rx="3" transform="rotate(15 53.0781 68.1953)" fill="url(#paint17_linear_6265_12134)"/>
<rect x="53.3256" y="68.624" width="9.3" height="14.3" rx="2.65" transform="rotate(15 53.3256 68.624)" stroke="white" stroke-opacity="0.31" stroke-width="0.7"/>
</g>
<rect opacity="0.47" x="46.1973" y="31" width="2" height="4.84706" rx="1" transform="rotate(60 46.1973 31)" fill="white"/>
<rect opacity="0.47" x="52.2324" y="32" width="2" height="14.1243" rx="1" transform="rotate(60 52.2324 32)" fill="white"/>
<path d="M65.6748 39.132C65.3519 39.5795 64.7305 39.898 64.3937 40.1031C64.2234 40.2083 64.1327 40.2142 64.1198 40.4152C64.1077 40.6036 64.2217 40.7662 64.3993 40.825C64.5769 40.8838 64.7717 40.8599 64.9574 40.8374C65.1577 40.8121 65.358 40.7867 65.5601 40.7614C65.6839 40.7464 65.8189 40.7247 65.9019 40.6293C65.9831 40.5338 65.9752 40.5788 66.009 40.4571C66.0428 40.3353 66.1092 40.3444 66.27 40.2479C66.3506 40.4268 66.3936 40.4673 66.4527 40.4451C66.7297 40.3385 66.8924 40.2747 67.113 40.076C67.1302 40.0606 67.2498 39.4619 67.191 39.2479C67.1322 39.0338 66.9871 38.8768 66.9266 38.6627C66.6892 38.9023 66.2983 37.8867 66.0219 38.0787C65.7981 38.2354 66.0572 38.5895 65.6748 39.132Z" fill="#F1BBA4"/>
<path d="M60.6048 36.8067C60.8237 36.806 60.929 36.9299 61.0341 37.1229C61.1672 37.3665 61.3111 37.5452 61.2546 37.8184C61.208 38.0412 61.0392 38.2173 60.8768 38.3756C60.8425 38.4083 60.7989 38.444 60.7543 38.4325C60.7044 38.4207 60.684 38.3632 60.6479 38.3285C60.5688 38.2551 60.4129 38.3283 60.4214 38.436C60.423 38.4725 60.4393 38.5061 60.4482 38.5411C60.4728 38.6533 60.4052 38.7641 60.3317 38.8528C60.1361 39.0892 59.8821 39.268 59.6237 39.4301C59.4421 39.5437 59.2481 39.6512 59.0358 39.665C58.8236 39.677 58.5893 39.5642 58.5281 39.3609C58.5205 39.335 58.5164 39.3094 58.5215 39.2824C58.5287 39.2501 58.5501 39.224 58.5695 39.1996C58.9457 38.7368 59.3048 38.2221 59.3699 37.6296C59.3736 37.5952 59.3773 37.5591 59.3935 37.5291C59.4275 37.4691 59.5045 37.4497 59.5728 37.4571C59.6411 37.4645 59.7047 37.4916 59.771 37.5025C59.9969 37.5385 60.3993 37.4879 60.6154 37.1744C60.6786 37.0779 60.647 36.929 60.6048 36.8067Z" fill="#F1BBA4"/>
<path d="M60.6802 36.9224C60.4218 36.3266 60.478 35.5318 60.4274 35.8617C60.4221 35.8923 60.4006 35.8893 60.3722 35.8786C60.3475 35.8682 60.2716 35.9658 60.2477 35.9736C59.8973 36.0979 59.444 35.7241 59.1 35.8634C59.3124 36.4421 59.6122 37.0746 59.7388 38.063C60.0199 37.9821 60.248 37.7802 60.4684 37.5869C60.5159 37.5441 60.5654 37.4995 60.6008 37.4469C60.6679 37.3452 60.6822 37.2169 60.6942 37.0958C60.6982 37.0561 60.7024 37.0127 60.6883 36.9737C60.674 36.9366 60.6931 36.9522 60.6802 36.9224Z" fill="#F1BBA4"/>
<path d="M59.2906 15.2937C59.1867 15.4079 59.0891 15.5389 59.0554 15.6915C59.0237 15.8406 59.0533 15.9949 59.0849 16.1439C59.625 18.758 60.165 21.3739 60.8626 23.9512C61.1855 23.7018 61.5303 23.4172 61.6154 23.0183C61.6543 22.8369 61.6357 22.6487 61.6169 22.4641C61.3428 19.8464 60.9924 17.2354 60.567 14.6385C60.4442 14.6699 59.585 14.9718 59.2906 15.2937Z" fill="#F1BBA4"/>
<path d="M66.9142 22.3811C67.4522 23.1867 67.3962 24.2414 67.2818 25.2057C67.053 27.1342 66.6734 29.0436 66.1335 30.9096C67.5995 34.0816 66.954 34.4442 67.214 38.8677C66.7514 39.2586 65.9177 39.4237 65.4857 39.1582C65.1834 37.5804 64.0605 32.966 63.6446 31.9108C63.4621 31.4483 63.1952 29.5216 63.1749 26.4653C62.1688 27.2352 60.1635 28.1576 59.0601 28.6587C59.8071 29.9737 60.0009 30.9567 60.077 32.4694C60.1315 33.5538 60.6 35.1989 60.8219 36.2616C60.3943 36.8052 59.8262 36.9103 59.1638 36.8867C58.6462 35.8078 58.2352 34.3676 57.9083 33.4028C57.0768 30.9599 56.5535 29.5226 56.1921 28.1324C56.128 27.8835 56.1028 27.6186 56.1474 27.3647C56.2379 26.8699 56.6282 26.4787 57.0417 26.1924C59.3291 24.6113 61.236 23.769 61.3628 22.4146C61.3622 22.4255 62.601 20.4452 62.6003 20.4578" fill="#F1BBA4"/>
<path d="M62.3668 12.4992C62.5423 13.3213 62.7177 14.1451 62.8914 14.9671C62.903 15.0186 62.9126 15.0755 62.8831 15.1193C62.8592 15.158 62.813 15.1773 62.7703 15.1967C62.4397 15.3567 62.2375 15.68 62.1182 16.0079C61.999 16.3358 61.9455 16.6836 61.8138 17.009C61.7993 17.0427 61.7847 17.0783 61.7561 17.104C61.6383 17.2084 61.4583 17.0604 61.3751 16.9304C61.01 16.3669 60.5648 15.2847 60.5632 15.2156C60.5285 13.8378 60.696 13.9815 60.6306 13.36C60.6235 13.2924 60.6166 13.2211 60.6506 13.1612C60.6825 13.1066 60.7423 13.0717 60.8018 13.0422C61.2966 12.7895 61.8345 12.61 62.3668 12.4992Z" fill="#F1BBA4"/>
<path d="M60.57 14.8022C60.6823 14.9974 60.9736 15.226 61.2908 15.2434C61.3792 15.2482 61.4685 15.5312 61.4965 15.6145C61.5901 15.8869 61.6007 16.0237 61.696 16.2961C61.7194 15.8703 61.7057 15.2298 61.8847 15.1306C62.0414 15.0429 62.5855 14.7837 62.7493 14.1711C62.7584 14.1371 63.3937 14.4555 63.4232 14.4771C63.4528 14.4987 63.5854 14.8168 63.5962 14.8519C64.073 16.4774 63.8568 18.045 63.9177 19.7368C63.943 20.4615 63.9333 21.1989 64.1411 21.8937C64.1792 22.023 64.2192 22.1851 64.12 22.2778C64.0725 22.3207 64.0066 22.3352 63.9445 22.3464C63.0951 22.5015 62.2177 22.5097 61.3645 22.372C60.7674 19.9729 60.217 17.4146 60.57 14.8022Z" fill="#F1BBA4"/>
<path d="M54.7545 18.644C54.7218 18.3823 54.6111 18.06 54.6012 17.8122C54.5965 17.7011 54.6334 17.5559 54.7459 17.5475C54.8458 17.5403 54.9065 17.6527 54.9411 17.7473C55.067 18.0904 55.3541 18.6896 55.5338 19.0084C55.863 19.599 55.6356 19.7883 56.1613 20.1933C56.3002 20.2991 55.4943 21.0128 55.3403 20.9534C55.1543 20.8814 54.677 20.5517 54.5268 20.4217C54.4319 20.3383 53.9337 19.993 53.8896 19.9396C53.8522 19.8958 53.8501 19.8357 53.8295 19.7819C53.6143 19.1903 53.68 18.6832 53.9864 18.3728C54.157 18.1968 54.6016 18.4647 54.7545 18.644Z" fill="#F1BBA4"/>
<path d="M55.241 21.1279C55.106 21.0514 55.03 20.9527 54.9298 20.8345C54.8364 20.724 55.0165 20.3431 55.1349 20.1951C55.2864 20.0035 55.4962 19.806 55.7266 19.726C55.769 19.7119 55.8129 19.7016 55.8558 19.7112C55.9076 19.7232 56.2527 19.9584 56.2886 19.9967C56.4324 20.1445 56.2515 20.1128 56.3519 20.2928C56.36 20.3096 56.37 20.3265 56.3672 20.3445C56.3643 20.3643 56.3454 20.3779 56.3285 20.3896C55.9896 20.6346 55.6112 20.9719 55.241 21.1279Z" fill="#F1BBA4"/>
<path d="M71.907 19.6689C72.0343 20.1502 72.0534 20.6602 71.9668 21.1498C71.9461 21.265 71.9709 21.439 72.0857 21.4217C72.1204 21.4163 72.1507 21.3907 72.1756 21.3648C72.3175 21.2181 72.4165 21.0291 72.4582 20.8296C72.5305 20.8626 72.5378 20.9594 72.5371 21.0393C72.5316 21.3698 72.5262 21.6985 72.5208 22.0289C72.517 22.196 73.0149 22.1197 73.4197 21.4639C73.6836 21.0386 73.5106 19.9059 72.9687 19.1037C72.7713 18.813 72.7397 19.0603 72.3961 19.1268C72.1129 19.1804 71.859 19.4899 71.907 19.6689Z" fill="#F1BBA4"/>
<path d="M71.6302 19.2119C71.6807 19.3782 71.8025 19.7956 71.8445 19.8216C71.937 19.8812 72.8716 19.7889 73.2182 19.4026C73.1842 19.199 73.1372 19.0673 73.0199 18.8973C72.9948 18.8614 72.9678 18.8254 72.9292 18.8033C72.8784 18.7751 72.8149 18.7789 72.7567 18.7848C72.3926 18.8284 72.0405 18.9836 71.7632 19.2264C71.731 19.2537 71.6949 19.2845 71.6519 19.2785C71.6087 19.2743 71.5891 19.2023 71.6302 19.2119Z" fill="#F1BBA4"/>
<path d="M63.6712 14.3469C64.9687 13.8347 65.9904 13.3073 67.3479 12.9856C67.9489 12.8422 69.051 12.5955 69.6327 12.8038C71.2942 13.402 73.2281 18.2972 73.1908 18.9785C73.1672 19.408 72.1782 19.5373 71.5887 19.4722C70.5343 18.0912 70.3956 17.224 69.1531 16.009C69.0295 15.8877 68.8518 15.7325 68.6841 15.6906C68.5075 15.6464 67.3364 16.1946 67.173 16.2729C62.7549 18.3915 66.0681 16.8339 63.6712 14.3469Z" fill="#F1BBA4"/>
<path d="M59.4258 15.3196C59.1506 15.3591 58.7932 15.7757 58.7064 16.0399C58.6196 16.3041 58.5931 16.9515 58.5778 17.2306C58.4474 19.608 58.1338 21.072 57.8937 20.9334C56.8999 20.3591 56.2302 19.8099 56.1603 19.8315C55.4595 20.0475 54.9114 20.7444 55.0379 21.1403C55.3115 21.9877 57.907 23.4932 58.4704 23.7695C58.5902 23.8288 58.7212 23.8796 58.8509 23.8558C58.9604 23.8363 59.0529 23.7651 59.1417 23.6973C59.9971 23.0354 60.3668 21.2072 60.5686 20.5622C60.2201 19.4326 59.8701 18.2974 59.6937 17.1282C59.6107 16.5639 59.7051 15.8002 59.4258 15.3196Z" fill="#F1BBA4"/>
<path d="M62.6835 14.0578C63.3185 14.0199 63.8662 14.1554 64.5402 13.867C64.7606 13.7719 65.0876 13.679 65.2964 13.7958C65.5683 13.9471 65.641 14.3364 65.7424 14.6309C67.0352 18.3895 66.6096 20.1492 67.8705 23.0391C67.8963 23.0968 67.9016 23.1662 67.882 23.2251C67.8513 23.3234 66.8129 24.2224 66.2572 24.3973C65.5893 24.6079 64.8678 24.2448 64.3648 23.7555C64.0456 23.4436 63.7781 23.0781 63.5795 22.6783C63.3432 22.2055 63.2034 21.6889 63.0925 21.1721C62.846 20.0281 62.9007 17.8774 62.8716 16.3982C62.839 14.6843 62.7004 14.1133 62.6835 14.0578Z" fill="#F1BBA4"/>
<path d="M49.2038 13.0692C48.8129 13.702 48.4123 14.3453 47.8487 14.8305C47.5925 15.0509 47.3075 15.2352 47.0497 15.4519C46.6706 15.7691 46.3531 16.1516 46.0357 16.5322C45.9814 16.5983 45.9252 16.6661 45.9026 16.7484C45.8712 16.8594 45.9061 16.9813 45.9677 17.0792C46.1436 17.3669 46.4987 17.4863 46.8306 17.5336C47.1625 17.5809 47.5098 17.58 47.8169 17.7168C48.1098 17.8492 48.4175 18.1078 48.7107 17.9712C48.7979 17.9305 47.3018 16.9542 47.3964 16.9758C49.719 17.523 48.8415 15.9155 49.9563 15.306C51.7087 14.3462 51.2462 13.0867 50.5363 13.1059C50.2882 13.1123 50.4159 12.7631 50.1879 12.667C49.9793 12.5792 49.7331 12.6511 49.5538 12.7885C49.3743 12.9277 49.2515 13.1227 49.2038 13.0692Z" fill="#F1BBA4"/>
<path d="M62.2383 11.9431C62.4409 11.8088 62.7623 11.95 62.8015 12.1903C62.853 12.5039 62.5209 12.7238 62.328 12.9767C62.106 13.2663 62.0577 13.6526 61.8881 13.974C61.6397 14.4493 61.022 14.7644 60.5511 14.515C60.3087 14.3854 60.147 14.1348 60.0675 13.8705C59.9861 13.6062 59.9761 13.3275 59.9678 13.0508C59.9636 12.9288 59.9596 12.805 59.9554 12.683C59.9425 12.2915 59.928 11.8982 59.9853 11.5124C60.0082 11.3591 60.0421 11.2011 60.1374 11.0791C60.2563 10.9238 60.4503 10.8472 60.6379 10.7903C60.8658 10.7228 61.0983 10.6719 61.3331 10.643C61.639 10.6053 62.0066 10.6291 62.1693 10.8925C62.365 11.2158 62.1043 11.6486 62.2383 11.9431Z" fill="#F1BBA4"/>
<path d="M61.02 10.1132C62.9279 9.28726 62.6826 11.5493 62.5478 11.9636C62.4313 11.9117 62.2938 12.0114 62.2493 12.1308C62.2048 12.2501 62.2434 12.4031 62.2327 12.5315C62.2221 12.66 62.1503 12.7815 62.0351 12.8369C61.9427 12.6101 61.964 12.3532 61.9973 12.1097C62.0305 11.8661 61.8834 11.9435 61.9218 11.244C61.9352 10.9994 61.7665 10.9102 61.5212 10.8985C61.3157 10.8873 61.1346 11.0246 60.957 11.1311C60.6727 11.3027 60.3375 11.4134 60.0071 11.3716C59.6767 11.3299 59.3135 11.1591 59.2557 10.7961C59.2033 10.466 59.3385 9.87914 60.3483 9.99634C60.4921 10.0133 60.7107 10.247 61.02 10.1132Z" fill="#F1BBA4"/>
<path d="M61.9938 12.2875C61.9467 12.3885 61.969 12.6406 61.8354 12.835C61.7961 12.891 61.5288 13.2162 61.0517 12.9465C60.8466 12.8298 60.5457 12.9078 60.3307 13.036C60.1364 13.1507 60.0078 12.9237 59.9415 12.9455C59.8976 13.054 59.8999 13.1759 59.9098 13.2928C59.9384 13.6288 60.0251 13.9588 60.1621 14.2644C60.1877 14.324 60.2171 14.382 60.2559 14.4332C60.3535 14.5657 60.5081 14.6487 60.6689 14.683C60.8297 14.7191 60.9966 14.7101 61.1605 14.6882C61.441 14.6508 61.8455 14.4313 62.0608 13.9015C62.2342 13.4766 62.2849 12.7833 62.2109 12.4176C62.1995 12.3624 62.1547 12.4199 62.1012 12.4388C62.0846 12.4452 62.073 12.4591 62.0632 12.4731C62.0315 12.524 61.9822 12.3014 61.9938 12.2875Z" fill="#F1BBA4"/>
<path d="M40.0456 32.3576C41.9707 31.9743 43.8394 31.3025 45.5703 30.3724C46.2615 30.0014 46.9681 29.5476 47.2966 28.8332C47.4381 28.5284 47.5 28.1919 47.54 27.8578C47.5667 27.6339 47.5852 27.3968 47.4971 27.1885C47.4253 27.0155 47.2899 26.879 47.156 26.7481C45.8833 25.4896 44.6106 24.2312 43.3398 22.9728C43.1648 22.7996 42.9864 22.6244 42.7682 22.5143C42.55 22.4042 42.2809 22.3658 42.0615 22.4756C41.6803 22.6673 41.6179 23.1782 41.6052 23.6065C41.5607 25.2089 41.5144 26.8112 41.4698 28.4154C41.4568 28.8836 41.4435 29.3554 41.3515 29.8138C41.1604 30.7921 40.628 31.6625 40.0456 32.3576Z" fill="#F1BBA4"/>
<path d="M48.6678 17.9499C48.8714 18.9516 49.33 19.9855 49.6741 21.064C51.384 19.891 52.3868 18.6192 52.7648 18.3873C53.1148 18.1721 53.4837 18.1051 54.1917 18.2857C54.4301 18.3896 54.9093 18.5868 55.1477 18.6907C55.093 18.8967 54.8364 19.2243 54.5808 19.2358C53.8359 19.2658 53.2771 18.8389 53.205 18.9331C52.0751 20.4123 51.2689 21.7912 49.8478 22.7438C49.7407 22.8161 49.6103 22.8871 49.476 22.8615C49.3436 22.8361 49.2835 22.7128 49.1923 22.6279C47.9448 21.4707 47.2835 20.3403 46.8825 19.1788C47.2006 18.6219 47.8065 18.1898 48.6678 17.9499Z" fill="#F1BBA4"/>
<path d="M45.7839 15.3036C46.8582 15.0353 47.8355 14.3947 48.5985 13.506C48.7735 13.8754 49.0238 14.5544 49.2456 14.8955C48.6406 15.6711 48.0409 16.0889 47.7632 17.2278C47.3529 16.9618 46.8659 16.5443 46.4713 16.2537C46.3341 16.1516 46.1951 16.0477 46.0961 15.9077C46.0425 15.8303 46.0019 15.7463 45.9614 15.6604C45.9097 15.5486 45.8544 15.4347 45.7839 15.3036Z" fill="#F1BBA4"/>
<path d="M44.5342 14.4148C43.7497 13.1577 43.1227 12.6871 43.2228 12.5436C43.712 11.8343 44.4762 11.1874 45.7098 9.40125C45.5896 9.25107 45.4676 9.10261 45.3474 8.95244C43.7881 10.1828 42.3725 11.0684 41.552 12.3465C41.4907 12.4413 41.4395 12.5512 41.4441 12.6641C41.4487 12.7461 41.4861 12.8227 41.5235 12.8975C42.2537 14.3552 42.8106 15.5744 43.7069 16.9376" fill="#F1BBA4"/>
<path d="M45.1575 9.15261C45.6121 8.71046 45.7075 8.48669 45.9271 8.27518C46.1238 8.08423 46.4519 8.0368 46.7182 8.09502C46.8968 8.13391 47.1555 8.19898 47.2668 8.34504C47.363 8.47027 47.3525 8.46424 47.2677 8.52684C47.2093 8.56907 47.1039 8.54512 47.0314 8.54841C46.841 8.55796 46.4888 8.71675 46.3564 8.85489C46.3569 8.91126 46.5888 8.87127 46.6449 8.87071C46.7009 8.87015 46.7564 8.84775 46.8122 8.85263C46.868 8.85751 46.9265 8.91161 46.9056 8.96317C46.8952 8.98804 46.8727 9.00316 46.8502 9.01647C46.4584 9.2367 46.0663 9.19884 45.7097 9.43554C45.4132 9.63374 45.3628 9.62916 45.1575 9.15261Z" fill="#F1BBA4"/>
<path d="M44.3536 23.0369C44.4172 23.5257 44.4825 24.0163 44.5461 24.5051C44.5778 24.7504 44.6096 24.9957 44.6213 25.2435C44.634 25.5386 44.6141 25.8356 44.5961 26.1309C44.5325 27.1252 44.469 28.1177 44.4036 29.1119C44.3748 29.572 44.3415 30.0463 44.1416 30.4607C43.9294 30.9016 43.553 31.2353 43.217 31.5913C42.6313 32.2153 42.1612 32.9383 41.6932 33.6578C40.8973 34.8828 40.0782 36.1682 39.9188 37.6226C39.8694 38.0615 39.8826 38.513 39.7474 38.9345C39.4016 38.3812 39.0653 37.8211 38.7419 37.2545C38.6859 37.1551 38.6282 37.0538 38.6163 36.9404C38.5891 36.679 38.8051 36.4655 38.9753 36.264C39.6216 35.4925 39.7186 34.4164 39.9889 33.4444C40.3768 32.0425 41.1795 30.7598 42.2683 29.7999C42.3197 29.7537 42.3766 29.7041 42.3912 29.6358C42.4055 29.573 42.3802 29.508 42.3563 29.4485C41.4849 27.2361 41.1237 24.8226 41.3702 22.4061C41.4745 22.5155 41.6131 22.5921 41.7617 22.6203C41.8976 22.6477 42.0375 22.6354 42.1746 22.6411C42.3135 22.6469 42.4514 22.6726 42.5874 22.6983C43.1726 22.8085 43.7615 22.919 44.3536 23.0369Z" fill="#F1BBA4"/>
<path d="M47.3532 27.1427C46.7617 28.8933 46.8421 30.7897 46.5575 32.6152C46.546 32.6927 46.5308 32.7719 46.4858 32.8348C46.435 32.9029 46.3534 32.9402 46.2906 32.9968C46.1878 33.0911 46.144 33.2305 46.1113 33.365C46.0041 33.8026 45.9738 34.2571 46.0233 34.7051C46.0368 34.8222 46.099 34.9728 46.2143 34.9482C46.2655 34.9383 46.3024 34.8913 46.3337 34.8494C46.6914 34.3601 47.0532 33.8638 47.2864 33.304C47.4361 32.9487 47.5308 32.5741 47.6468 32.206C48.0861 30.8234 48.8307 29.5447 49.1722 28.1331C49.2425 27.8407 49.2926 27.5199 49.161 27.2492C49.0001 26.9187 48.6055 26.7607 48.2389 26.7533C47.8721 26.7477 47.429 26.9143 47.3532 27.1427Z" fill="#F1BBA4"/>
<path d="M44.7519 33.8914C45.0788 33.6003 45.1998 33.5215 45.4247 33.1468C45.4824 33.05 45.5265 32.9397 45.6102 32.8643C46.0286 32.4874 46.4897 32.5872 46.5337 32.6423C46.5947 32.7166 46.5044 33.0442 46.46 33.129C46.2551 33.534 46.1233 33.9593 46.1306 34.156C46.1394 34.391 46.0305 34.7285 46.3826 34.7369C46.2365 35.1924 46.3744 35.5798 46.4737 35.8778C46.5234 36.0278 46.4474 36.0618 46.3655 36.1373C46.2628 36.2298 46.1248 36.075 46.0097 35.9978C45.5545 35.6911 45.3317 35.2045 45.3014 35.1302C45.2283 34.9462 45.3995 34.6284 45.4498 34.4367C45.5439 34.0711 45.65 33.8843 45.6634 33.6415C45.6676 33.5636 45.6475 33.601 45.5699 33.5986C45.5283 33.5981 45.4942 33.6271 45.4636 33.6564C45.1428 33.9634 45.1004 33.9323 44.9254 34.0899C44.8191 34.1822 44.7006 33.9358 44.7519 33.8914Z" fill="#F1BBA4"/>
<path d="M38.9268 36.334C39.1073 36.5366 39.1163 36.8352 39.1303 37.1067C39.148 37.4439 39.3458 38.1236 39.8913 38.1336C40.0936 38.1374 39.8873 38.6023 40.2055 38.8342C40.3289 38.9246 40.5843 38.9822 40.6454 39.1219C40.6581 39.1535 40.6127 39.3218 40.6037 39.354C40.5703 39.4685 39.4147 39.307 39.0855 38.9781C38.8062 38.6974 38.9783 38.2961 38.5631 37.7881C38.5139 37.729 38.3567 38.3856 38.3096 38.7829C38.2964 38.893 38.095 38.9056 38.0236 38.8217C38.2584 37.4751 38.1481 37.3764 38.1581 37.2933C38.1891 36.9915 38.2932 36.71 38.4317 36.5577C38.5703 36.4054 38.8723 36.2729 38.9268 36.334Z" fill="#F1BBA4"/>
<path d="M42.4959 23.2828C42.5248 25.4926 42.8128 26.7698 43.8483 28.9221C44.1065 29.4579 44.2726 30.1213 44.8232 30.3351C45.4039 30.5614 46.0338 30.2216 46.6442 30.1042C47.3204 29.9741 48.0477 30.1321 48.6098 30.5319C48.6742 30.5773 48.7454 30.6302 48.8256 30.6201C48.9384 30.6063 48.9977 30.4823 49.0362 30.3736C49.4961 29.0775 49.9558 27.7832 50.4157 26.4871C50.4971 26.2571 50.5805 26.0218 50.583 25.7784C50.5893 25.3661 50.3648 24.9758 50.0656 24.694C49.7665 24.4123 49.3974 24.2175 49.0317 24.0284C48.2739 23.6343 47.5179 23.242 46.7602 22.8479C46.4332 22.6773 46.1027 22.5046 45.8325 22.2554C45.5605 22.006 45.3513 21.6655 45.3371 21.2976C44.6395 21.0267 43.9795 20.6634 43.3746 20.2194C43.1538 20.0583 43.1485 19.7446 42.8824 19.6845C42.5244 19.7537 42.0209 20.0097 41.6959 20.33C41.151 20.8689 40.7433 21.5553 40.6131 22.3134C40.4829 23.0714 40.3663 23.8675 40.4237 24.634C40.4477 24.9534 40.4754 25.273 40.5414 25.5856C40.6607 26.1482 40.9007 26.6849 40.9542 27.2585C41.0034 27.7792 40.8951 28.3021 40.7678 28.8095C40.4304 30.1486 39.9465 31.4525 39.3309 32.6874C40.2697 32.648 41.1651 32.0501 41.5663 31.196C41.7977 30.7035 41.8676 30.1548 41.937 29.6152C42.004 29.0863 42.071 28.5557 42.084 28.022C42.1025 27.2233 41.9999 26.4253 41.9894 25.6268C41.979 24.8284 42.0713 24.0028 42.4959 23.2828Z" fill="#F1BBA4"/>
<path d="M45.749 14.823C46.873 15.4281 47.0921 15.6546 47.7176 16.1524C48.0813 16.4431 48.6606 16.6948 48.8748 17.1082C49.2507 17.8377 49.0293 18.8415 49.0535 19.29C48.4799 19.0004 47.3081 19.8576 47.3009 20.1553C47.2297 20.0678 47.0903 19.8402 47.0051 19.6465C46.3776 20.4045 45.5189 20.0575 45.3338 21.5014C45.1979 21.9665 44.9759 22.4214 44.6386 22.7682C44.5753 22.8338 44.5014 22.8952 44.4119 22.9121C44.3114 22.932 44.2105 22.8919 44.1169 22.8504C43.3649 22.5166 42.6793 22.0282 42.1193 21.4232C42.0409 21.3371 41.9593 21.2417 41.9476 21.1266C41.9275 20.931 41.5458 21.0664 41.6525 20.9014C41.9035 20.5117 42.4886 20.0867 42.7064 19.6752C43.3924 18.3769 43.5871 17.3452 43.709 16.9375C43.5891 16.7492 43.5509 16.7199 43.4219 16.5001C43.3014 15.8628 43.7567 14.9464 44.5177 14.392C44.5227 14.3995 45.1483 14.4993 45.749 14.823Z" fill="#F1BBA4"/>
<path d="M48.3361 13.0753C48.1343 13.8531 47.7815 13.8228 48.0363 14.5856C48.1201 14.8374 48.6311 15.9723 49.0071 16.0401C49.1557 16.0665 49.4246 15.9122 49.5878 15.7049C50.0157 15.1576 50.5987 14.3845 50.5355 13.7576C50.3995 12.3798 49.734 12.1833 49.0379 12.4123C48.9293 12.4481 48.7909 12.7295 48.6854 12.7728C48.4653 12.8625 48.326 13.0948 48.3361 13.0753Z" fill="#F1BBA4"/>
<path d="M46.4777 15.6575C45.2085 15.4243 45.9295 16.2563 43.8229 16.6514C41.6853 17.0521 40.9735 12.6547 44.0421 13.2484C45.1944 13.4715 46.67 13.3053 47.3764 12.4607C48.9476 10.5859 50.8509 12.2151 51.0097 12.6819C51.2355 13.3449 51.0378 13.654 50.7353 13.9591C50.1305 14.5675 49.3808 13.0723 48.5777 14.4605C48.0143 15.4346 48.4845 16.0275 46.4777 15.6575Z" fill="#F1BBA4"/>
<path d="M45.308 21.505C45.4272 21.4333 45.5456 21.1813 45.5581 20.9541C43.544 20.4933 42.751 19.4006 42.731 19.4097C42.4836 19.5237 42.3959 19.8607 42.4409 19.9465C42.465 19.992 43.4761 21.0848 45.308 21.505Z" fill="#F1BBA4"/>
</g>
<rect x="1" y="1" width="346" height="106" rx="7" stroke="#615EFF" stroke-width="2"/>
<defs>
<linearGradient id="paint0_linear_6265_12134" x1="329.858" y1="92.2598" x2="284.028" y2="-42.4198" gradientUnits="userSpaceOnUse">
<stop stop-color="#FF8A59"/>
<stop offset="1" stop-color="#FFE3D7"/>
</linearGradient>
<linearGradient id="paint1_linear_6265_12134" x1="230.427" y1="206.894" x2="-69.5452" y2="-66.6813" gradientUnits="userSpaceOnUse">
<stop stop-color="#FF8A59"/>
<stop offset="1" stop-color="#FFE3D7"/>
</linearGradient>
<linearGradient id="paint2_linear_6265_12134" x1="179.37" y1="166.508" x2="-41.6257" y2="-35.04" gradientUnits="userSpaceOnUse">
<stop stop-color="#FF8A59"/>
<stop offset="1" stop-color="#FFE3D7"/>
</linearGradient>
<linearGradient id="paint3_linear_6265_12134" x1="131.896" y1="128.957" x2="-15.6654" y2="-5.6192" gradientUnits="userSpaceOnUse">
<stop stop-color="#FF8A59"/>
<stop offset="1" stop-color="#FFE3D7"/>
</linearGradient>
<linearGradient id="paint4_linear_6265_12134" x1="96.9623" y1="101.325" x2="3.43741" y2="16.0301" gradientUnits="userSpaceOnUse">
<stop stop-color="#FF8A59"/>
<stop offset="1" stop-color="#FFE3D7"/>
</linearGradient>
<linearGradient id="paint5_linear_6265_12134" x1="61.7092" y1="15.5423" x2="55.7941" y2="83.0178" gradientUnits="userSpaceOnUse">
<stop offset="0.24972" stop-color="white"/>
<stop offset="0.774476" stop-color="#FDF2FF"/>
<stop offset="0.933117" stop-color="white"/>
</linearGradient>
<linearGradient id="paint6_linear_6265_12134" x1="71.6633" y1="39.3947" x2="62.8961" y2="21.4042" gradientUnits="userSpaceOnUse">
<stop stop-color="#FF8A59"/>
<stop offset="1" stop-color="#FFE3D7"/>
</linearGradient>
<linearGradient id="paint7_linear_6265_12134" x1="42.1017" y1="49.2056" x2="38.2684" y2="43.3789" gradientUnits="userSpaceOnUse">
<stop stop-color="#FF8A59"/>
<stop offset="1" stop-color="#FFE3D7"/>
</linearGradient>
<linearGradient id="paint8_linear_6265_12134" x1="39.7717" y1="57.899" x2="35.9383" y2="52.0723" gradientUnits="userSpaceOnUse">
<stop stop-color="#FF8A59"/>
<stop offset="1" stop-color="#FFE3D7"/>
</linearGradient>
<linearGradient id="paint9_linear_6265_12134" x1="37.4426" y1="66.5923" x2="33.6092" y2="60.7657" gradientUnits="userSpaceOnUse">
<stop stop-color="#FF8A59"/>
<stop offset="1" stop-color="#FFE3D7"/>
</linearGradient>
<linearGradient id="paint10_linear_6265_12134" x1="35.1135" y1="75.2837" x2="31.2801" y2="69.4571" gradientUnits="userSpaceOnUse">
<stop stop-color="#FF8A59"/>
<stop offset="1" stop-color="#FFE3D7"/>
</linearGradient>
<linearGradient id="paint11_linear_6265_12134" x1="54.6584" y1="52.5689" x2="50.825" y2="46.7422" gradientUnits="userSpaceOnUse">
<stop stop-color="#FF8A59"/>
<stop offset="1" stop-color="#FFE3D7"/>
</linearGradient>
<linearGradient id="paint12_linear_6265_12134" x1="52.3293" y1="61.2623" x2="48.4959" y2="55.4356" gradientUnits="userSpaceOnUse">
<stop stop-color="#FF8A59"/>
<stop offset="1" stop-color="#FFE3D7"/>
</linearGradient>
<linearGradient id="paint13_linear_6265_12134" x1="49.9992" y1="69.9556" x2="46.1659" y2="64.1289" gradientUnits="userSpaceOnUse">
<stop stop-color="#FF8A59"/>
<stop offset="1" stop-color="#FFE3D7"/>
</linearGradient>
<linearGradient id="paint14_linear_6265_12134" x1="47.6701" y1="78.649" x2="43.8368" y2="72.8223" gradientUnits="userSpaceOnUse">
<stop stop-color="#FF8A59"/>
<stop offset="1" stop-color="#FFE3D7"/>
</linearGradient>
<linearGradient id="paint15_linear_6265_12134" x1="67.215" y1="55.9341" x2="63.3817" y2="50.1075" gradientUnits="userSpaceOnUse">
<stop stop-color="#FF8A59"/>
<stop offset="1" stop-color="#FFE3D7"/>
</linearGradient>
<linearGradient id="paint16_linear_6265_12134" x1="64.8859" y1="64.6275" x2="61.0526" y2="58.8008" gradientUnits="userSpaceOnUse">
<stop stop-color="#FF8A59"/>
<stop offset="1" stop-color="#FFE3D7"/>
</linearGradient>
<linearGradient id="paint17_linear_6265_12134" x1="62.5568" y1="81.0092" x2="53.2918" y2="75.3761" gradientUnits="userSpaceOnUse">
<stop stop-color="#FF8A59"/>
<stop offset="1" stop-color="#FFE3D7"/>
</linearGradient>
<clipPath id="clip0_6265_12134">
<rect width="348" height="108" rx="8" fill="white"/>
</clipPath>
</defs>
</svg>
