<svg width="40" height="40" viewBox="0 0 40 40" fill="none" xmlns="http://www.w3.org/2000/svg">
<rect width="40" height="40" rx="20" fill="white"/>
<path fillRule="evenodd" clipRule="evenodd" d="M24.3931 13.7235C24.9138 13.2028 25.758 13.2028 26.2787 13.7235C26.7994 14.2442 26.7994 15.0885 26.2787 15.6092L21.8887 19.9992L26.2797 24.3902C26.8004 24.9109 26.8004 25.7551 26.2797 26.2758C25.759 26.7965 24.9148 26.7965 24.3941 26.2758L20.0031 21.8848L15.6121 26.2758C15.0914 26.7965 14.2472 26.7965 13.7265 26.2758C13.2058 25.7551 13.2058 24.9109 13.7265 24.3902L18.1175 19.9992L13.7274 15.6092C13.2067 15.0885 13.2067 14.2442 13.7274 13.7235C14.2481 13.2028 15.0924 13.2028 15.6131 13.7235L20.0031 18.1136L24.3931 13.7235Z" fill="#74747C"/>
</svg>
