<svg width="348" height="108" viewBox="0 0 348 108" fill="none" xmlns="http://www.w3.org/2000/svg">
<g clip-path="url(#clip0_6470_16152)">
<rect width="348" height="108" rx="8" fill="white"/>
<rect opacity="0.16" width="348" height="108" fill="url(#paint0_linear_6470_16152)"/>
<circle opacity="0.08" cx="36.5" cy="53.5" r="216.5" fill="url(#paint1_linear_6470_16152)"/>
<circle opacity="0.08" cx="36.5" cy="53.5" r="159.5" fill="url(#paint2_linear_6470_16152)"/>
<circle opacity="0.24" cx="36.5" cy="53.5" r="106.5" fill="url(#paint3_linear_6470_16152)"/>
<circle opacity="0.8" cx="36.5" cy="53.5" r="67.5" fill="url(#paint4_linear_6470_16152)"/>
<g opacity="0.8">
<path d="M19.7607 64.3949C16.8489 48.7104 15.3929 40.8681 19.0864 34.9468C19.3661 34.4985 19.6654 34.0626 19.9835 33.6407C24.1845 28.068 32.0268 26.6121 47.7113 23.7002C63.3958 20.7883 71.238 19.3324 77.1593 23.0259C77.6077 23.3055 78.0435 23.6049 78.4655 23.923C84.0382 28.124 85.4941 35.9663 88.406 51.6508C91.3178 67.3352 92.7737 75.1775 89.0803 81.0988C88.8006 81.5472 88.5013 81.983 88.1832 82.405C83.9822 87.9776 76.1399 89.4336 60.4554 92.3454C44.7709 95.2573 36.9287 96.7132 31.0074 93.0198C30.559 92.7401 30.1232 92.4408 29.7012 92.1226C24.1285 87.9216 22.6726 80.0794 19.7607 64.3949Z" fill="url(#paint5_linear_6470_16152)"/>
<path d="M20.2523 64.3036C18.794 56.4483 17.7098 50.6033 17.4458 45.9811C17.1824 41.3719 17.7405 38.0493 19.5106 35.2115C19.7825 34.7756 20.0735 34.3519 20.3828 33.9416C22.3961 31.2709 25.297 29.5574 29.6937 28.1488C34.1026 26.7362 39.9472 25.6502 47.8026 24.1918C55.6579 22.7335 61.5029 21.6493 66.125 21.3852C70.7343 21.1219 74.0569 21.68 76.8947 23.4501C77.3306 23.722 77.7543 24.013 78.1645 24.3223C80.8352 26.3356 82.5487 29.2365 83.9574 33.6331C85.37 38.0421 86.456 43.8867 87.9144 51.742C89.3727 59.5973 90.4569 65.4423 90.7209 70.0645C90.9843 74.6738 90.4262 77.9964 88.6561 80.8342C88.3842 81.2701 88.0932 81.6938 87.7839 82.104C85.7706 84.7747 82.8697 86.4882 78.473 87.8969C74.0641 89.3094 68.2194 90.3955 60.3641 91.8538C52.5088 93.3122 46.6638 94.3964 42.0417 94.6604C37.4324 94.9237 34.1098 94.3656 31.272 92.5955C30.8361 92.3236 30.4124 92.0326 30.0022 91.7234C27.3315 89.71 25.618 86.8092 24.2093 82.4125C22.7967 78.0036 21.7107 72.1589 20.2523 64.3036Z" stroke="white" stroke-opacity="0.2"/>
</g>
<g filter="url(#filter0_i_6470_16152)">
<path d="M21.69 60.2018C18.8908 45.1241 17.4912 37.5853 21.0417 31.893C21.3106 31.462 21.5984 31.043 21.9042 30.6374C25.9427 25.2803 33.4815 23.8807 48.5593 21.0815C63.637 18.2823 71.1759 16.8827 76.8681 20.4332C77.2991 20.7021 77.7181 20.9898 78.1237 21.2957C83.4808 25.3341 84.8804 32.873 87.6796 47.9507C90.4788 63.0285 91.8784 70.5673 88.3279 76.2595C88.059 76.6906 87.7713 77.1095 87.4654 77.5152C83.427 82.8723 75.8881 84.2719 60.8104 87.0711C45.7326 89.8703 38.1938 91.2699 32.5016 87.7194C32.0705 87.4505 31.6516 87.1627 31.2459 86.8569C25.8888 82.8184 24.4892 75.2796 21.69 60.2018Z" fill="url(#paint6_linear_6470_16152)"/>
</g>
<path d="M22.1816 60.1106C20.7796 52.5587 19.7376 46.9412 19.4839 42.4994C19.2309 38.0704 19.7673 34.8809 21.466 32.1577C21.7271 31.7391 22.0065 31.3323 22.3034 30.9384C24.2355 28.3754 27.0199 26.7299 31.2446 25.3764C35.4815 24.0189 41.0986 22.9751 48.6505 21.5731C56.2024 20.171 61.8199 19.1291 66.2617 18.8754C70.6907 18.6224 73.8802 19.1588 76.6034 20.8575C77.022 21.1185 77.4288 21.398 77.8227 21.6949C80.3857 23.627 82.0312 26.4114 83.3847 30.636C84.7422 34.873 85.786 40.4901 87.188 48.042C88.59 55.5939 89.632 61.2114 89.8857 65.6532C90.1387 70.0822 89.6023 73.2717 87.9036 75.9949C87.6426 76.4135 87.3631 76.8203 87.0662 77.2142C85.1341 79.7771 82.3497 81.4226 78.1251 82.7762C73.8881 84.1337 68.271 85.1775 60.7191 86.5795C53.1672 87.9815 47.5497 89.0235 43.1079 89.2772C38.6789 89.5302 35.4894 88.9938 32.7662 87.2951C32.3476 87.034 31.9408 86.7546 31.5469 86.4577C28.984 84.5256 27.3385 81.7412 25.9849 77.5165C24.6274 73.2796 23.5836 67.6625 22.1816 60.1106Z" stroke="white" stroke-opacity="0.15"/>
<path d="M75.7832 26.9546C77.2704 27.353 77.7685 29.212 76.6798 30.3006L71.2995 35.6809C70.2109 36.7696 68.3519 36.2715 67.9535 34.7843L65.9841 27.4347C65.5857 25.9476 66.9465 24.5868 68.4336 24.9852L75.7832 26.9546Z" fill="#A6D4F9"/>
<path fill-rule="evenodd" clip-rule="evenodd" d="M43.314 31.9691L43.3135 31.9668L41.6361 33.2616L41.6372 33.2632L41.072 35.0452L41.0734 35.0493L41.0715 35.0466L41.071 35.0482L41.0725 35.0486L41.0703 35.0491L41.6626 36.7011L41.6636 36.7031L42.2499 37.004L42.4706 38.1906L42.4716 38.1925L42.9449 38.1046L44.1486 39.3106L45.2549 38.2462L45.2558 38.2481L46.0243 38.4331L46.0247 38.4342L46.3162 38.9104L45.8626 39.9759L45.8619 39.977L45.8628 39.9745L44.5838 40.2956L44.5753 40.2988L44.5738 40.3016L44.5746 40.2998L43.2554 40.2173L43.2563 40.2157L43.2527 40.2163L43.252 40.2177L41.8704 40.8827L41.4133 41.9514L41.4144 41.9512L41.5978 42.9412L41.055 42.8787L39.4085 43.0205L38.2221 42.5475L38.2195 42.543L37.7856 42.6235L37.2662 43.7892L36.9118 43.853L36.911 43.8562L36.9106 43.8578L36.91 43.8542L36.168 46.4506L36.2709 47.0051L36.2713 47.0041L36.2719 47.0071L36.2723 47.006L36.5585 48.5476L36.5595 48.5495L39.4371 49.1141L39.3353 51.6367L39.3363 51.6375L39.3363 51.6387L40.4553 54.5937L40.4563 54.5957L40.4577 54.5973L40.4546 54.5953L40.4571 54.5983L40.4555 54.5973L42.0095 56.374L42.1946 57.3687L42.1947 57.3662L42.1956 57.3706L42.1958 57.3673L42.1965 57.3714L42.3027 55.7454L42.3015 55.7479L42.3017 55.744L39.3371 51.6394L42.6077 54.3171L43.2416 56.4157L43.241 56.4194L43.2424 56.4186L43.003 57.7661L43.0045 57.7636L43.0033 57.7708L43.0051 57.7679L43.0042 57.7727L44.754 55.0221L44.7486 55.0271L44.7531 55.0201L44.7504 55.0226L44.7537 55.0174L44.1307 51.6173L44.1299 51.6165L44.1297 51.6153L44.1268 51.6125L43.412 49.7773L43.4111 49.7754L41.3733 48.9686L41.3689 48.9645L40.5299 49.0274L41.4986 47.0184L42.6081 48.1635L42.8352 48.2442L42.8365 48.2446L43.0048 48.5393L43.7555 49.5063L47.559 51.0953L47.555 51.0921L47.5565 51.0927L47.5602 51.0957L49.0181 50.8251L48.2289 55.4932L48.2308 55.49L48.2272 55.4966L48.1984 55.6494L48.1998 55.6493L48.1994 55.6514L48.3996 55.6306L48.3998 55.6334L46.4615 73.7517L46.461 73.7534L45.3395 76.2816L45.3396 76.2842L45.1079 76.7944L44.3317 77.8826L44.2566 79.2456L44.2577 79.2459L44.2576 79.2476L44.775 79.3974L46.7808 78.3266L46.8939 77.4041L48.0194 76.1672L48.096 76.9313L48.0969 76.9333L48.9493 76.6115L48.9511 76.6124L48.7651 75.6075L48.7651 75.6029L50.2583 70.4697L50.2656 70.4554L50.2665 70.4573C50.2665 70.4573 50.6147 67.8931 50.8586 66.0859L50.8574 66.0858L50.8576 66.0839L50.853 66.0835C50.9779 65.1408 51.0778 64.4158 51.0861 64.3735C51.1035 64.2473 51.8516 60.5845 51.8516 60.5845L52.3788 58.8983L53.4858 63.0246L52.0549 66.5268L52.057 66.5338L52.3295 72.1733L52.3295 72.1748L52.3285 72.1728L50.9856 74.389L51.1841 75.4581L51.1851 75.4601L51.9578 75.8897L52.2633 77.7576L52.2642 77.7595L53.5378 78.4656L53.5396 78.4655C53.5396 78.4655 55.2876 78.2228 55.2357 78.1508L55.2347 78.1487C55.2105 78.1165 54.959 78.0448 54.6813 77.9656C54.3374 77.8675 53.9533 77.758 53.9106 77.6979L53.8979 77.6884C53.8739 77.5682 53.9247 76.7944 53.9831 75.9823L53.9818 75.9837L53.9821 75.9804L54.0123 75.6155C54.0794 74.7914 54.1418 74.025 54.1315 73.9698L53.8741 72.5834L53.8739 72.5824L55.4735 65.1596L56.412 62.7294L56.4107 62.7292L56.411 62.7275L56.4202 62.4743L56.4207 62.4753L56.581 58.3755L57.2291 59.5874L57.3005 56.7617C57.6076 57.4444 57.8355 57.9505 57.8966 58.0861L57.9693 58.2984L57.9702 58.3004L57.9863 57.4194L59.7185 59.5329L59.7174 59.5326L63.7107 66.668L63.7862 66.8093L63.8009 66.8458L63.8015 66.8468L63.8018 66.8478L63.8365 66.9057L63.8367 66.9076L65.4239 69.7435L65.4256 69.7419L67.5634 73.5672L67.5648 73.5654L67.5646 73.5676L68.0353 73.4804L68.2554 74.6662L68.2564 74.6682L70.5263 74.9849L71.7412 74.7594L71.7004 73.6606L71.6995 73.6597L71.702 73.6591L71.6996 73.6575L71.701 73.6572L70.517 72.8541L70.7403 71.9945L68.2148 67.0948L68.2138 67.0928L68.2131 67.0935L68.2124 67.0922L66.8625 64.4766L66.8615 64.4747L66.8223 64.3939L66.8213 64.3919L65.3318 61.5072L65.3309 61.5053L63.915 58.7544L63.914 58.7525L63.7138 58.3803L60.3388 52.1553L59.8445 51.2523L59.9742 50.5018L60.0399 50.4598L60.2303 50.3425L60.2308 50.3407L60.2328 50.3382L60.2309 50.3439L62.193 47.7259L63.3968 45.3307L63.3976 45.3276L64.2434 47.342L64.244 47.3428L64.2444 47.3439L66.723 51.47L66.7232 51.4712C66.7227 51.4986 66.7141 51.8821 66.6071 51.9415C66.4961 52.0031 66.0514 53.5638 66.0514 53.5638L66.5518 54.4975L67.9617 54.3996L69.4528 55.3937L69.5775 55.6303L70.2036 56.8107L72.3991 57.4275L71.4481 56.0448L71.2449 55.6503L71.2439 55.6484L70.4364 54.1082L70.4355 54.1062L68.7687 51.2624L68.7672 51.2543L68.7662 51.2524L68.7652 51.2538L67.6865 48.9568L67.6418 48.7602L67.6408 48.7582L67.6404 48.7594L66.2601 43.0373L66.2605 43.0341L66.1696 42.7642L66.1687 42.7625L65.7086 41.3756L65.7075 41.373L65.7066 41.371L65.7054 41.3729L64.2661 40.8667L64.2651 40.8647L62.9361 41.3983L62.9358 41.3995L62.9341 41.4011L62.9349 41.3975L59.2007 44.7946L59.1997 44.795L57.9858 45.8963L57.8751 45.7788L56.0695 43.7393L56.7446 43.2037L57.1477 41.8586L57.1467 41.8566L55.4053 38.4125L55.4043 38.4105L53.4629 35.8626L53.4626 35.861L52.3047 35.3384L51.1535 35.5111L49.8717 36.0792L49.2667 36.1097L49.2667 36.1078L49.2657 36.1059L48.3775 35.9444L48.03 36.0503L47.2713 35.7408L47.2703 35.741L47.0595 35.6576L47.0583 35.6568L46.647 33.4413L46.6494 33.4374L45.3288 32.0414L45.3279 32.0489L45.3277 32.047L43.3155 31.9701L43.314 31.9691ZM68.2131 67.0935L68.2116 67.0949L68.2098 67.0949L68.2107 67.094L68.2131 67.0935ZM70.517 72.8541L70.5162 72.8554L70.5142 72.8563L70.517 72.8541ZM53.9821 75.9804L53.9818 75.9837L53.982 75.9794L53.9821 75.9804ZM52.0549 66.5268L52.0585 66.5223L52.057 66.526L52.0549 66.5268ZM42.6081 48.1635L42.6081 48.1619L42.611 48.1629L42.6081 48.1635ZM41.4986 47.0184L41.4948 47.0223L41.4956 47.0206L41.4973 47.0189L41.4986 47.0184ZM39.3371 51.6394L39.3363 51.6387L39.3382 51.6421L39.3371 51.6394ZM37.7856 42.6235L37.7859 42.6294L37.7853 42.6308L37.7856 42.6235ZM41.5978 42.9412L41.5986 42.9424L41.5959 42.9429L41.5978 42.9412ZM41.0725 35.0486L41.072 35.0501L41.0734 35.0493L41.0725 35.0486ZM41.4961 47.018L41.4947 47.0186L41.4963 47.017L41.4961 47.018Z" fill="#239DFF"/>
<path d="M38.5854 53.0883L39.0765 49.5797L39.0768 49.5868L39.0775 49.5817L39.0776 49.5839L39.0781 49.5804L39.0784 49.587L39.0791 49.5823L39.2873 53.7806L39.2852 53.7788L39.2862 53.7798L39.2469 54.1993L39.2483 54.2377L39.0938 55.8235L39.0931 55.8193L39.0929 55.8215L38.5854 53.0883Z" fill="#239DFF"/>
<path d="M46.0338 52.9499L44.6528 50.8297L45.4296 52.8162L45.5962 54.2457L45.5968 54.2441L45.5972 54.2477L46.0343 52.9536L46.0348 52.9519L46.0338 52.9499Z" fill="#239DFF"/>
<path d="M51.7319 75.7734L51.1431 75.5467L50.9296 78.0449L50.9311 78.0406L50.9305 78.0468L51.7329 75.7753L51.7314 75.7747L51.7319 75.7734Z" fill="#239DFF"/>
<path d="M67.4899 54.5318L66.8584 54.5589L67.6349 56.9388L67.6348 56.9376L67.6359 56.9408L67.4909 54.5337L67.4899 54.5318Z" fill="#239DFF"/>
</g>
<defs>
<filter id="filter0_i_6470_16152" x="18.9238" y="18.3164" width="71.5215" height="73.5205" filterUnits="userSpaceOnUse" color-interpolation-filters="sRGB">
<feFlood flood-opacity="0" result="BackgroundImageFix"/>
<feBlend mode="normal" in="SourceGraphic" in2="BackgroundImageFix" result="shape"/>
<feColorMatrix in="SourceAlpha" type="matrix" values="0 0 0 0 0 0 0 0 0 0 0 0 0 0 0 0 0 0 127 0" result="hardAlpha"/>
<feOffset dy="2"/>
<feGaussianBlur stdDeviation="1.15"/>
<feComposite in2="hardAlpha" operator="arithmetic" k2="-1" k3="1"/>
<feColorMatrix type="matrix" values="0 0 0 0 1 0 0 0 0 1 0 0 0 0 1 0 0 0 1 0"/>
<feBlend mode="normal" in2="shape" result="effect1_innerShadow_6470_16152"/>
</filter>
<linearGradient id="paint0_linear_6470_16152" x1="329.858" y1="92.2598" x2="284.028" y2="-42.4198" gradientUnits="userSpaceOnUse">
<stop stop-color="#3D9DEB"/>
<stop offset="1" stop-color="#CFE9FF"/>
</linearGradient>
<linearGradient id="paint1_linear_6470_16152" x1="230.427" y1="206.894" x2="-69.5452" y2="-66.6813" gradientUnits="userSpaceOnUse">
<stop stop-color="#3D9DEB"/>
<stop offset="1" stop-color="#CFE9FF"/>
</linearGradient>
<linearGradient id="paint2_linear_6470_16152" x1="179.37" y1="166.508" x2="-41.6257" y2="-35.04" gradientUnits="userSpaceOnUse">
<stop stop-color="#3D9DEB"/>
<stop offset="1" stop-color="#CFE9FF"/>
</linearGradient>
<linearGradient id="paint3_linear_6470_16152" x1="131.896" y1="128.957" x2="-15.6654" y2="-5.6192" gradientUnits="userSpaceOnUse">
<stop stop-color="#3D9DEB"/>
<stop offset="1" stop-color="#CFE9FF"/>
</linearGradient>
<linearGradient id="paint4_linear_6470_16152" x1="96.9623" y1="101.325" x2="3.43741" y2="16.0301" gradientUnits="userSpaceOnUse">
<stop stop-color="#3D9DEB"/>
<stop offset="1" stop-color="#CFE9FF"/>
</linearGradient>
<linearGradient id="paint5_linear_6470_16152" x1="33.0871" y1="90.6638" x2="33.7344" y2="42.0911" gradientUnits="userSpaceOnUse">
<stop stop-color="#3D9DEB"/>
<stop offset="1" stop-color="#CFE9FF"/>
</linearGradient>
<linearGradient id="paint6_linear_6470_16152" x1="67.5576" y1="110.806" x2="75.9512" y2="39.0426" gradientUnits="userSpaceOnUse">
<stop stop-color="#76C2FF"/>
<stop offset="0.743256" stop-color="#EDF7FF"/>
</linearGradient>
<clipPath id="clip0_6470_16152">
<rect width="348" height="108" rx="8" fill="white"/>
</clipPath>
</defs>
</svg>
