<svg width="148" height="148" viewBox="0 0 148 148" fill="none" xmlns="http://www.w3.org/2000/svg">
<path fillRule="evenodd" clipRule="evenodd" d="M67.9387 35.081C80.2299 35.729 91.5011 43.6425 95.8299 55.9763L99.4875 66.3977C100.447 69.1312 102.637 71.2535 105.4 72.1261L109.963 73.5677C121.434 77.191 121.689 93.3309 110.338 97.3146L92.6249 103.532C94.9103 110.053 91.4784 117.193 84.9573 119.482C78.4361 121.771 71.2945 118.341 69.003 111.822L51.2837 118.041C39.9333 122.025 30.0455 109.266 36.7356 99.2686L39.3974 95.291C41.0086 92.8834 41.3922 89.8577 40.4328 87.1242L36.7752 76.7028C32.4457 64.367 36.3009 51.143 45.4943 42.9559C45.3912 37.6982 48.6348 32.738 53.8673 30.9016C59.1006 29.0648 64.7336 30.9108 67.9387 35.081Z" fill="#242428"/>
<path fillRule="evenodd" clipRule="evenodd" d="M67.9387 35.081C80.2299 35.729 91.5011 43.6425 95.8299 55.9763L99.4875 66.3977C100.447 69.1312 102.637 71.2535 105.4 72.1261L109.963 73.5677C121.434 77.191 121.689 93.3309 110.338 97.3146L92.6249 103.532C94.9103 110.053 91.4784 117.193 84.9573 119.482C78.4361 121.771 71.2945 118.341 69.003 111.822L51.2837 118.041C39.9333 122.025 30.0455 109.266 36.7356 99.2686L39.3974 95.291C41.0086 92.8834 41.3922 89.8577 40.4328 87.1242L36.7752 76.7028C32.4457 64.367 36.3009 51.143 45.4943 42.9559C45.3912 37.6982 48.6348 32.738 53.8673 30.9016C59.1006 29.0648 64.7336 30.9108 67.9387 35.081Z" fill="url(#paint0_linear_6637_24622)"/>
<path fillRule="evenodd" clipRule="evenodd" d="M70.7473 30.9706C83.0385 31.6186 94.3096 39.5321 98.6385 51.866L102.296 62.2874C103.255 65.0209 105.446 67.1432 108.208 68.0158L112.772 69.4574C124.243 73.0807 124.497 89.2205 113.147 93.2042L95.4335 99.4212C97.7189 105.943 94.287 113.083 87.7659 115.372C81.2447 117.661 74.1031 114.231 71.8116 107.712L54.0923 113.931C42.7419 117.914 32.8541 105.155 39.5442 95.1582L42.206 91.1807C43.8172 88.7731 44.2008 85.7474 43.2414 83.0139L39.5838 72.5925C35.2543 60.2566 39.1095 47.0327 48.3029 38.8456C48.1998 33.5879 51.4434 28.6277 56.6759 26.7912C61.9092 24.9545 67.5422 26.8004 70.7473 30.9706Z" fill="#242428"/>
<path fillRule="evenodd" clipRule="evenodd" d="M70.7473 30.9706C83.0385 31.6186 94.3096 39.5321 98.6385 51.866L102.296 62.2874C103.255 65.0209 105.446 67.1432 108.208 68.0158L112.772 69.4574C124.243 73.0807 124.497 89.2205 113.147 93.2042L95.4335 99.4212C97.7189 105.943 94.287 113.083 87.7659 115.372C81.2447 117.661 74.1031 114.231 71.8116 107.712L54.0923 113.931C42.7419 117.914 32.8541 105.155 39.5442 95.1582L42.206 91.1807C43.8172 88.7731 44.2008 85.7474 43.2414 83.0139L39.5838 72.5925C35.2543 60.2566 39.1095 47.0327 48.3029 38.8456C48.1998 33.5879 51.4434 28.6277 56.6759 26.7912C61.9092 24.9545 67.5422 26.8004 70.7473 30.9706Z" fill="url(#paint1_linear_6637_24622)"/>
<path fillRule="evenodd" clipRule="evenodd" d="M6.25417 85.1008C6.63156 83.6909 8.08051 82.8538 9.49049 83.2312L29.4272 88.5674C30.8371 88.9448 31.6742 90.3938 31.2968 91.8037C30.9194 93.2137 29.4705 94.0508 28.0605 93.6734L8.12383 88.3372C6.71385 87.9598 5.87678 86.5108 6.25417 85.1008Z" fill="#242428"/>
<path fillRule="evenodd" clipRule="evenodd" d="M6.25417 85.1008C6.63156 83.6909 8.08051 82.8538 9.49049 83.2312L29.4272 88.5674C30.8371 88.9448 31.6742 90.3938 31.2968 91.8037C30.9194 93.2137 29.4705 94.0508 28.0605 93.6734L8.12383 88.3372C6.71385 87.9598 5.87678 86.5108 6.25417 85.1008Z" fill="url(#paint2_linear_6637_24622)"/>
<path fillRule="evenodd" clipRule="evenodd" d="M7.93164 103.951C7.93164 102.492 9.11489 101.309 10.5745 101.309L24.6697 101.309C26.1293 101.309 27.3126 102.492 27.3126 103.951C27.3126 105.411 26.1293 106.594 24.6697 106.594L10.5745 106.594C9.11489 106.594 7.93164 105.411 7.93164 103.951Z" fill="#242428"/>
<path fillRule="evenodd" clipRule="evenodd" d="M7.93164 103.951C7.93164 102.492 9.11489 101.309 10.5745 101.309L24.6697 101.309C26.1293 101.309 27.3126 102.492 27.3126 103.951C27.3126 105.411 26.1293 106.594 24.6697 106.594L10.5745 106.594C9.11489 106.594 7.93164 105.411 7.93164 103.951Z" fill="url(#paint3_linear_6637_24622)"/>
<path fillRule="evenodd" clipRule="evenodd" d="M16.7426 120.005C16.1502 118.671 16.7513 117.11 18.0853 116.517L28.1911 112.029C29.5251 111.437 31.0867 112.038 31.6791 113.372C32.2715 114.706 31.6703 116.268 30.3363 116.86L20.2306 121.348C18.8966 121.94 17.335 121.339 16.7426 120.005Z" fill="#242428"/>
<path fillRule="evenodd" clipRule="evenodd" d="M16.7426 120.005C16.1502 118.671 16.7513 117.11 18.0853 116.517L28.1911 112.029C29.5251 111.437 31.0867 112.038 31.6791 113.372C32.2715 114.706 31.6703 116.268 30.3363 116.86L20.2306 121.348C18.8966 121.94 17.335 121.339 16.7426 120.005Z" fill="url(#paint4_linear_6637_24622)"/>
<circle cx="96.9015" cy="24.6671" r="10.5714" fill="#242428"/>
<circle cx="96.9015" cy="24.6671" r="10.5714" fill="url(#paint5_linear_6637_24622)"/>
<circle cx="98.6671" cy="22.9054" r="10.5714" fill="#242428"/>
<circle cx="98.6671" cy="22.9054" r="10.5714" fill="url(#paint6_linear_6637_24622)"/>
<defs>
<linearGradient id="paint0_linear_6637_24622" x1="53.8651" y1="30.9024" x2="132.067" y2="93.3234" gradientUnits="userSpaceOnUse">
<stop stop-color="#63F3F0"/>
<stop offset="1" stop-color="#009E9A"/>
</linearGradient>
<linearGradient id="paint1_linear_6637_24622" x1="56.6737" y1="26.792" x2="134.876" y2="89.2131" gradientUnits="userSpaceOnUse">
<stop stop-color="#CAFFFD"/>
<stop offset="1" stop-color="#0BDED9"/>
</linearGradient>
<linearGradient id="paint2_linear_6637_24622" x1="19.4588" y1="85.8993" x2="18.5193" y2="92.4331" gradientUnits="userSpaceOnUse">
<stop stop-color="#CAFFFD"/>
<stop offset="1" stop-color="#0BDED9"/>
</linearGradient>
<linearGradient id="paint3_linear_6637_24622" x1="17.6221" y1="101.309" x2="18.6564" y2="107.791" gradientUnits="userSpaceOnUse">
<stop stop-color="#CAFFFD"/>
<stop offset="1" stop-color="#0BDED9"/>
</linearGradient>
<linearGradient id="paint4_linear_6637_24622" x1="23.1382" y1="114.273" x2="26.8528" y2="119.646" gradientUnits="userSpaceOnUse">
<stop stop-color="#CAFFFD"/>
<stop offset="1" stop-color="#0BDED9"/>
</linearGradient>
<linearGradient id="paint5_linear_6637_24622" x1="96.9015" y1="14.0957" x2="108.491" y2="33.9073" gradientUnits="userSpaceOnUse">
<stop stop-color="#63F3F0"/>
<stop offset="1" stop-color="#009E9A"/>
</linearGradient>
<linearGradient id="paint6_linear_6637_24622" x1="98.6671" y1="12.334" x2="110.257" y2="32.1456" gradientUnits="userSpaceOnUse">
<stop stop-color="#CAFFFD"/>
<stop offset="1" stop-color="#0BDED9"/>
</linearGradient>
</defs>
</svg>
