<svg width="842" height="543" viewBox="0 0 842 543" fill="none" xmlns="http://www.w3.org/2000/svg">
<g clip-path="url(#clip0_6559_112897)">
<rect width="842" height="543" rx="16" fill="#FBF5FC"/>
<circle opacity="0.08" cx="18.9951" cy="271.995" r="868.995" fill="url(#paint0_linear_6559_112897)"/>
<circle opacity="0.08" cx="18.9957" cy="271.994" r="640.207" fill="url(#paint1_linear_6559_112897)"/>
<circle opacity="0.24" cx="18.9962" cy="271.997" r="427.473" fill="url(#paint2_linear_6559_112897)"/>
<circle opacity="0.8" cx="18.9979" cy="271.994" r="270.933" fill="url(#paint3_linear_6559_112897)"/>
<path fillRule="evenodd" clipRule="evenodd" d="M124.921 207.311C145.353 208.387 164.089 221.54 171.284 242.042L177.364 259.364C178.958 263.908 182.599 267.435 187.191 268.886L194.776 271.282C213.842 277.305 214.266 304.132 195.4 310.753L165.954 321.088C169.754 331.928 164.05 343.797 153.21 347.602C142.37 351.406 130.499 345.705 126.691 334.868L97.2412 345.204C78.3749 351.825 61.9398 330.618 73.0599 314.001L77.4842 307.39C80.1623 303.388 80.7999 298.359 79.2052 293.815L73.1257 276.493C65.9296 255.99 72.3369 234.01 87.6167 220.402C87.4454 211.663 92.8368 203.418 101.534 200.366C110.232 197.313 119.594 200.38 124.921 207.311Z" fill="#242428"/>
<path fillRule="evenodd" clipRule="evenodd" d="M124.921 207.311C145.353 208.387 164.089 221.54 171.284 242.042L177.364 259.364C178.958 263.908 182.599 267.435 187.191 268.886L194.776 271.282C213.842 277.305 214.266 304.132 195.4 310.753L165.954 321.088C169.754 331.928 164.05 343.797 153.21 347.602C142.37 351.406 130.499 345.705 126.691 334.868L97.2412 345.204C78.3749 351.825 61.9398 330.618 73.0599 314.001L77.4842 307.39C80.1623 303.388 80.7999 298.359 79.2052 293.815L73.1257 276.493C65.9296 255.99 72.3369 234.01 87.6167 220.402C87.4454 211.663 92.8368 203.418 101.534 200.366C110.232 197.313 119.594 200.38 124.921 207.311Z" fill="url(#paint4_linear_6559_112897)"/>
<path fillRule="evenodd" clipRule="evenodd" d="M129.589 200.481C150.021 201.556 168.757 214.71 175.952 235.212L182.032 252.534C183.626 257.078 187.267 260.605 191.859 262.056L199.444 264.452C218.51 270.474 218.934 297.302 200.068 303.923L170.622 314.258C174.422 325.098 168.718 336.967 157.878 340.772C147.038 344.576 135.167 338.875 131.359 328.038L101.909 338.374C83.0429 344.995 66.6078 323.788 77.7279 307.171L82.1522 300.56C84.8302 296.558 85.4678 291.529 83.8732 286.985L77.7936 269.663C70.5975 249.159 77.0048 227.18 92.2847 213.571C92.1134 204.832 97.5047 196.588 106.202 193.535C114.9 190.483 124.262 193.55 129.589 200.481Z" fill="#242428"/>
<path fillRule="evenodd" clipRule="evenodd" d="M129.589 200.481C150.021 201.556 168.757 214.71 175.952 235.212L182.032 252.534C183.626 257.078 187.267 260.605 191.859 262.056L199.444 264.452C218.51 270.474 218.934 297.302 200.068 303.923L170.622 314.258C174.422 325.098 168.718 336.967 157.878 340.772C147.038 344.576 135.167 338.875 131.359 328.038L101.909 338.374C83.0429 344.995 66.6078 323.788 77.7279 307.171L82.1522 300.56C84.8302 296.558 85.4678 291.529 83.8732 286.985L77.7936 269.663C70.5975 249.159 77.0048 227.18 92.2847 213.571C92.1134 204.832 97.5047 196.588 106.202 193.535C114.9 190.483 124.262 193.55 129.589 200.481Z" fill="url(#paint5_linear_6559_112897)"/>
<path fillRule="evenodd" clipRule="evenodd" d="M22.3954 290.451C23.0227 288.108 25.4311 286.717 27.7747 287.344L60.9127 296.213C63.2563 296.841 64.6477 299.249 64.0204 301.593C63.3931 303.936 60.9847 305.328 58.6411 304.7L25.5031 295.831C23.1595 295.203 21.7682 292.795 22.3954 290.451Z" fill="#242428"/>
<path fillRule="evenodd" clipRule="evenodd" d="M22.3954 290.451C23.0227 288.108 25.4311 286.717 27.7747 287.344L60.9127 296.213C63.2563 296.841 64.6477 299.249 64.0204 301.593C63.3931 303.936 60.9847 305.328 58.6411 304.7L25.5031 295.831C23.1595 295.203 21.7682 292.795 22.3954 290.451Z" fill="url(#paint6_linear_6559_112897)"/>
<path fillRule="evenodd" clipRule="evenodd" d="M25.1797 321.785C25.1797 319.359 27.1464 317.393 29.5725 317.393L53.0011 317.393C55.4272 317.393 57.394 319.359 57.394 321.785C57.394 324.212 55.4272 326.178 53.0011 326.178L29.5725 326.178C27.1464 326.178 25.1797 324.212 25.1797 321.785Z" fill="#242428"/>
<path fillRule="evenodd" clipRule="evenodd" d="M25.1797 321.785C25.1797 319.359 27.1464 317.393 29.5725 317.393L53.0011 317.393C55.4272 317.393 57.394 319.359 57.394 321.785C57.394 324.212 55.4272 326.178 53.0011 326.178L29.5725 326.178C27.1464 326.178 25.1797 324.212 25.1797 321.785Z" fill="url(#paint7_linear_6559_112897)"/>
<path fillRule="evenodd" clipRule="evenodd" d="M39.8298 348.468C38.8451 346.251 39.8444 343.655 42.0617 342.67L58.859 335.211C61.0763 334.226 63.6721 335.225 64.6567 337.443C65.6414 339.66 64.6421 342.256 62.4248 343.24L45.6275 350.7C43.4101 351.684 40.8144 350.685 39.8298 348.468Z" fill="#242428"/>
<path fillRule="evenodd" clipRule="evenodd" d="M39.8298 348.468C38.8451 346.251 39.8444 343.655 42.0617 342.67L58.859 335.211C61.0763 334.226 63.6721 335.225 64.6567 337.443C65.6414 339.66 64.6421 342.256 62.4248 343.24L45.6275 350.7C43.4101 351.684 40.8144 350.685 39.8298 348.468Z" fill="url(#paint8_linear_6559_112897)"/>
<circle cx="173.069" cy="189.999" r="17.5714" fill="#242428"/>
<circle cx="173.069" cy="189.999" r="17.5714" fill="url(#paint9_linear_6559_112897)"/>
<circle cx="176.001" cy="187.072" r="17.5714" fill="#242428"/>
<circle cx="176.001" cy="187.072" r="17.5714" fill="url(#paint10_linear_6559_112897)"/>
</g>
<rect x="0.5" y="0.5" width="841" height="542" rx="15.5" stroke="white"/>
<defs>
<linearGradient id="paint0_linear_6559_112897" x1="18.9952" y1="-597" x2="971.671" y2="1031.56" gradientUnits="userSpaceOnUse">
<stop stop-color="#0FEFEA"/>
<stop offset="1" stop-color="#03A7A3"/>
</linearGradient>
<linearGradient id="paint1_linear_6559_112897" x1="18.9957" y1="-368.213" x2="720.852" y2="831.582" gradientUnits="userSpaceOnUse">
<stop stop-color="#0FEFEA"/>
<stop offset="1" stop-color="#03A7A3"/>
</linearGradient>
<linearGradient id="paint2_linear_6559_112897" x1="18.9962" y1="-155.476" x2="487.633" y2="645.64" gradientUnits="userSpaceOnUse">
<stop stop-color="#0FEFEA"/>
<stop offset="1" stop-color="#03A7A3"/>
</linearGradient>
<linearGradient id="paint3_linear_6559_112897" x1="18.9979" y1="1.06054" x2="316.021" y2="508.81" gradientUnits="userSpaceOnUse">
<stop stop-color="#0FEFEA"/>
<stop offset="1" stop-color="#03A7A3"/>
</linearGradient>
<linearGradient id="paint4_linear_6559_112897" x1="101.532" y1="200.366" x2="231.517" y2="304.12" gradientUnits="userSpaceOnUse">
<stop stop-color="#63F3F0"/>
<stop offset="1" stop-color="#009E9A"/>
</linearGradient>
<linearGradient id="paint5_linear_6559_112897" x1="106.2" y1="193.536" x2="236.185" y2="297.29" gradientUnits="userSpaceOnUse">
<stop stop-color="#CAFFFD"/>
<stop offset="1" stop-color="#0BDED9"/>
</linearGradient>
<linearGradient id="paint6_linear_6559_112897" x1="44.3437" y1="291.779" x2="42.7821" y2="302.639" gradientUnits="userSpaceOnUse">
<stop stop-color="#CAFFFD"/>
<stop offset="1" stop-color="#0BDED9"/>
</linearGradient>
<linearGradient id="paint7_linear_6559_112897" x1="41.2868" y1="317.393" x2="43.0059" y2="328.168" gradientUnits="userSpaceOnUse">
<stop stop-color="#CAFFFD"/>
<stop offset="1" stop-color="#0BDED9"/>
</linearGradient>
<linearGradient id="paint8_linear_6559_112897" x1="50.4604" y1="338.941" x2="56.6346" y2="347.871" gradientUnits="userSpaceOnUse">
<stop stop-color="#CAFFFD"/>
<stop offset="1" stop-color="#0BDED9"/>
</linearGradient>
<linearGradient id="paint9_linear_6559_112897" x1="173.069" y1="172.428" x2="192.333" y2="205.358" gradientUnits="userSpaceOnUse">
<stop stop-color="#63F3F0"/>
<stop offset="1" stop-color="#009E9A"/>
</linearGradient>
<linearGradient id="paint10_linear_6559_112897" x1="176.001" y1="169.501" x2="195.265" y2="202.431" gradientUnits="userSpaceOnUse">
<stop stop-color="#CAFFFD"/>
<stop offset="1" stop-color="#0BDED9"/>
</linearGradient>
<clipPath id="clip0_6559_112897">
<rect width="842" height="543" rx="16" fill="white"/>
</clipPath>
</defs>
</svg>
