<svg width="152" height="26" viewBox="0 0 152 26" fill="none" xmlns="http://www.w3.org/2000/svg">
<rect y="0.5" width="152" height="25" rx="4" fill="#F2F2F7"/>
<rect y="0.5" width="152" height="25" rx="5" fill="white"/>
<path d="M29.0061 10.2229C28.8397 9.95287 28.6092 9.74715 28.3276 9.61858C28.0459 9.49001 27.7514 9.42572 27.4442 9.42572C27.2137 9.42572 26.9961 9.45144 26.7784 9.51572C26.5608 9.56715 26.3687 9.65715 26.1895 9.77287C26.0103 9.88858 25.8822 10.0429 25.767 10.2229C25.6646 10.4157 25.6134 10.6343 25.6134 10.8786C25.6134 11.0715 25.639 11.2515 25.703 11.3929C25.767 11.5472 25.8566 11.6757 25.9975 11.8043C26.1383 11.92 26.3175 12.0357 26.5608 12.1515C26.7912 12.2543 27.0857 12.3572 27.4186 12.4729C27.7514 12.5757 28.0715 12.6915 28.3788 12.82C28.686 12.9358 28.9677 13.09 29.1981 13.2829C29.4414 13.4758 29.6206 13.7072 29.7743 13.9772C29.9151 14.26 29.9919 14.6072 29.9919 15.0315C29.9919 15.4558 29.9023 15.8415 29.7359 16.1501C29.5694 16.4586 29.339 16.7286 29.0573 16.9344C28.7757 17.1401 28.4556 17.2944 28.0971 17.3972C27.7386 17.5001 27.3546 17.5515 26.9705 17.5515C26.7144 17.5515 26.4712 17.5258 26.2151 17.4872C25.9591 17.4486 25.7286 17.3715 25.4982 17.2815C25.2677 17.1915 25.0501 17.0629 24.8452 16.9215C24.6404 16.7672 24.4739 16.5872 24.3203 16.3686L25.1909 15.6486C25.3829 15.9701 25.639 16.2015 25.9719 16.3686C26.3047 16.5358 26.6504 16.6129 27.0217 16.6129C27.2393 16.6129 27.457 16.5744 27.6874 16.5101C27.9051 16.4458 28.1099 16.3558 28.2892 16.2272C28.4684 16.0986 28.6092 15.9443 28.7244 15.7643C28.8397 15.5715 28.8909 15.3658 28.8909 15.1215C28.8909 14.8515 28.8525 14.6329 28.7629 14.4658C28.6732 14.2986 28.5324 14.1572 28.3532 14.0286C28.1611 13.9129 27.9307 13.7972 27.649 13.6943C27.3674 13.5915 27.0345 13.4886 26.6504 13.3472C26.3431 13.2443 26.0615 13.1415 25.8054 13.0129C25.5494 12.8843 25.3189 12.73 25.1269 12.55C24.9348 12.37 24.7812 12.1515 24.6788 11.8943C24.5764 11.6372 24.5124 11.3286 24.5124 10.9686C24.5124 10.5572 24.5892 10.1972 24.7556 9.88858C24.922 9.58001 25.1397 9.32286 25.4085 9.11715C25.6774 8.91143 25.9975 8.75714 26.3431 8.65429C26.6888 8.55143 27.0601 8.5 27.4314 8.5C27.9179 8.5 28.3532 8.57714 28.7629 8.73143C29.1597 8.88572 29.5182 9.14286 29.8383 9.51572L29.0061 10.2229Z" fill="#242428"/>
<path d="M26.9702 17.7956C26.7014 17.7956 26.4325 17.7699 26.1765 17.7185C25.9076 17.667 25.6516 17.6028 25.4083 17.4999C25.1522 17.397 24.9218 17.2685 24.7041 17.1013C24.4737 16.9342 24.2817 16.7285 24.128 16.4842L24 16.2913L25.2803 15.237L25.4339 15.4942C25.6003 15.7642 25.818 15.9699 26.0996 16.1113C26.5605 16.3427 27.0983 16.3942 27.636 16.2399C27.828 16.1885 28.0072 16.0985 28.1609 15.9956C28.3145 15.8927 28.4297 15.7642 28.5322 15.597C28.6218 15.4556 28.6602 15.2884 28.6602 15.0827C28.6602 14.8642 28.6218 14.6842 28.5578 14.5556C28.4938 14.427 28.3785 14.3113 28.2249 14.2213C28.0585 14.1056 27.8408 14.0156 27.5848 13.9256C27.3031 13.8227 26.9702 13.7199 26.5861 13.5784C26.2789 13.4756 25.9716 13.3599 25.7028 13.2313C25.4211 13.0899 25.1778 12.9227 24.9602 12.717C24.7426 12.5113 24.5761 12.267 24.4481 11.9713C24.3201 11.6884 24.2689 11.3413 24.2689 10.9556C24.2689 10.5055 24.3585 10.0941 24.5377 9.74697C24.7169 9.39983 24.9602 9.11697 25.2675 8.88554C25.5619 8.66696 25.9076 8.48696 26.2789 8.37125C26.6502 8.25553 27.047 8.2041 27.4439 8.2041C27.956 8.2041 28.4297 8.28124 28.865 8.44839C29.3003 8.61553 29.6972 8.89839 30.0429 9.30982L30.2093 9.50268L28.9546 10.5955L28.801 10.3384C28.6602 10.107 28.4681 9.93983 28.2377 9.83697C27.8024 9.64411 27.3159 9.63126 26.855 9.74697C26.663 9.7984 26.4965 9.87554 26.3429 9.96554C26.2021 10.0555 26.0868 10.1713 26.01 10.3255C25.9332 10.467 25.882 10.647 25.882 10.8527C25.882 11.0198 25.9076 11.1613 25.9588 11.277C26.01 11.3927 26.074 11.4956 26.1893 11.5856C26.3045 11.6884 26.4709 11.7913 26.6886 11.8813C26.9062 11.9841 27.1879 12.087 27.5207 12.1898C27.8536 12.2927 28.1865 12.4084 28.5066 12.537C28.8394 12.6656 29.1339 12.8327 29.3899 13.0384C29.6588 13.2441 29.8764 13.5141 30.0301 13.8227C30.1837 14.1442 30.2733 14.5299 30.2733 14.9927C30.2733 15.4684 30.1709 15.8799 29.9917 16.2399C29.7996 16.587 29.5564 16.8827 29.2491 17.1142C28.9418 17.3327 28.5962 17.5127 28.1993 17.6156C27.7896 17.7442 27.3799 17.7956 26.9702 17.7956ZM24.6785 16.3813C24.781 16.497 24.8834 16.5999 24.9986 16.6899C25.1778 16.8313 25.3827 16.9342 25.5875 17.0242C25.8052 17.1142 26.0228 17.1785 26.2533 17.217C26.855 17.3199 27.4567 17.2942 28.0201 17.1399C28.3529 17.0499 28.6474 16.9085 28.9034 16.7156C29.1467 16.5356 29.3515 16.2913 29.5052 16.0085C29.6588 15.7256 29.7356 15.3913 29.7356 15.0056C29.7356 14.6327 29.6716 14.3113 29.5564 14.067C29.4284 13.8227 29.2619 13.617 29.0571 13.4499C28.8394 13.2827 28.5834 13.1413 28.3017 13.0256C27.9944 12.9099 27.6744 12.7941 27.3543 12.6913C27.0086 12.5884 26.7142 12.4727 26.4709 12.3698C26.2149 12.2541 26.01 12.1256 25.8436 11.9841C25.6772 11.8427 25.5491 11.6627 25.4723 11.4827C25.3955 11.3027 25.3571 11.097 25.3571 10.8656C25.3571 10.5698 25.4211 10.3127 25.5491 10.0813C25.6772 9.86269 25.8436 9.68268 26.0484 9.54125C26.2405 9.41268 26.4709 9.30982 26.7142 9.2584C27.2775 9.10411 27.892 9.12982 28.4297 9.37411C28.673 9.47697 28.8778 9.63126 29.0443 9.83697L29.4668 9.46411C29.2235 9.21982 28.9546 9.05268 28.673 8.93696C28.3017 8.79553 27.892 8.73125 27.4311 8.73125C27.0727 8.73125 26.7398 8.78268 26.4197 8.87268C26.0996 8.97554 25.818 9.11697 25.5619 9.29697C25.3187 9.47697 25.1266 9.7084 24.9858 9.9784C24.845 10.2484 24.7682 10.5698 24.7682 10.9427C24.7682 11.2641 24.8194 11.5341 24.909 11.7656C24.9986 11.9841 25.1394 12.177 25.2931 12.3441C25.4595 12.5113 25.6644 12.6527 25.8948 12.7556C26.1381 12.8713 26.4197 12.987 26.7142 13.077C27.0983 13.2056 27.4311 13.3213 27.7128 13.4241C28.02 13.527 28.2761 13.6427 28.4681 13.7841C28.6858 13.9256 28.8522 14.1056 28.9675 14.3113C29.0699 14.517 29.1339 14.7742 29.1339 15.0827C29.1339 15.3784 29.0699 15.6356 28.929 15.867C28.801 16.0856 28.6218 16.2656 28.4169 16.407C28.2121 16.5485 27.9944 16.6513 27.7384 16.7285C27.0855 16.9213 26.4197 16.857 25.8436 16.5613C25.5619 16.4199 25.3187 16.227 25.1266 15.9827L24.6785 16.3813Z" fill="#242428"/>
<path d="M36.5719 17.5382C35.9189 17.5382 35.3172 17.4224 34.7667 17.191C34.2162 16.9596 33.7425 16.651 33.3456 16.2524C32.9487 15.8539 32.6286 15.3653 32.411 14.8124C32.1933 14.2596 32.0781 13.6553 32.0781 12.9995C32.0781 12.3438 32.1933 11.7524 32.411 11.1867C32.6286 10.6338 32.9487 10.1452 33.3456 9.74666C33.7425 9.34809 34.2162 9.02666 34.7667 8.80808C35.3172 8.57665 35.9189 8.46094 36.5719 8.46094C37.2248 8.46094 37.8265 8.57665 38.3771 8.80808C38.9276 9.03951 39.4013 9.34809 39.7982 9.74666C40.195 10.1452 40.5151 10.6338 40.7328 11.1867C40.9504 11.7395 41.0656 12.3438 41.0656 12.9995C41.0656 13.6553 40.9504 14.2467 40.7328 14.8124C40.5151 15.3653 40.195 15.8539 39.7982 16.2524C39.4013 16.651 38.9276 16.9724 38.3771 17.191C37.8265 17.4224 37.2376 17.5382 36.5719 17.5382ZM36.5719 16.5867C37.0712 16.5867 37.5321 16.4967 37.9546 16.3039C38.3771 16.111 38.7227 15.8667 39.03 15.5324C39.3245 15.211 39.5677 14.8253 39.7213 14.3881C39.8878 13.951 39.9646 13.4881 39.9646 12.9995C39.9646 12.4981 39.8878 12.0353 39.7213 11.611C39.5549 11.1738 39.3245 10.801 39.03 10.4667C38.7355 10.1452 38.3771 9.88809 37.9546 9.69523C37.5321 9.50237 37.084 9.41237 36.5719 9.41237C36.0726 9.41237 35.6117 9.50237 35.1892 9.69523C34.7667 9.88809 34.421 10.1324 34.1138 10.4667C33.8193 10.7881 33.576 11.1738 33.4224 11.611C33.256 12.0481 33.1792 12.511 33.1792 12.9995C33.1792 13.501 33.256 13.9638 33.4224 14.3881C33.5888 14.8253 33.8193 15.1981 34.1138 15.5324C34.4082 15.8539 34.7667 16.111 35.1892 16.3039C35.6117 16.4967 36.0726 16.5867 36.5719 16.5867Z" fill="#242428"/>
<path d="M36.5719 17.7953C35.8805 17.7953 35.2532 17.6796 34.6771 17.4353C34.1009 17.191 33.6016 16.8567 33.1791 16.4324C32.7566 16.0081 32.4238 15.4938 32.1933 14.9153C31.9629 14.3367 31.8477 13.6938 31.8477 13.0124C31.8477 12.331 31.9629 11.6881 32.1933 11.1095C32.4238 10.5181 32.7566 10.0167 33.1791 9.59236C33.6016 9.16807 34.1009 8.83378 34.6771 8.5895C35.2532 8.34521 35.8933 8.22949 36.5719 8.22949C37.2632 8.22949 37.8905 8.34521 38.4667 8.5895C39.0428 8.83378 39.5421 9.16807 39.9646 9.59236C40.3871 10.0167 40.7199 10.5309 40.9504 11.1095C41.1808 11.6881 41.3089 12.331 41.3089 13.0124C41.3089 13.6938 41.1936 14.3367 40.9632 14.9153C40.7327 15.5067 40.3999 16.0081 39.9774 16.4324C39.5549 16.8567 39.0556 17.191 38.4795 17.4353C37.9033 17.6667 37.2632 17.7953 36.5719 17.7953ZM36.5719 8.73092C35.9573 8.73092 35.3812 8.83378 34.8691 9.05236C34.357 9.27093 33.9089 9.56665 33.5376 9.93951C33.1663 10.3124 32.8719 10.7752 32.6542 11.2895C32.4494 11.8167 32.3342 12.3824 32.3342 12.9995C32.3342 13.6167 32.4366 14.1953 32.6542 14.7095C32.8591 15.2367 33.1535 15.6867 33.5376 16.0596C33.9089 16.4324 34.357 16.7281 34.8691 16.9467C35.3812 17.1653 35.9573 17.2681 36.5719 17.2681C37.1864 17.2681 37.7625 17.1653 38.2746 16.9467C38.7867 16.7281 39.2348 16.4324 39.6061 16.0596C39.9774 15.6867 40.2718 15.2238 40.4895 14.7095C40.6943 14.1824 40.8096 13.6038 40.8096 12.9995C40.8096 12.3824 40.7071 11.8038 40.4895 11.2895C40.2846 10.7624 39.9902 10.3124 39.6061 9.93951C39.2348 9.56665 38.7867 9.27093 38.2746 9.05236C37.7625 8.83378 37.1992 8.73092 36.5719 8.73092ZM36.5719 16.8439C36.0341 16.8439 35.5348 16.741 35.0867 16.5353C34.6386 16.3296 34.2546 16.0596 33.9345 15.7124C33.6144 15.3653 33.3584 14.9538 33.1919 14.491C33.0127 14.0281 32.9231 13.5267 32.9231 12.9995C32.9231 12.4724 33.0127 11.971 33.1919 11.5081C33.3712 11.0452 33.6144 10.6338 33.9345 10.2867C34.2546 9.93951 34.6386 9.65665 35.0867 9.46379C35.5348 9.25807 36.0341 9.15521 36.5719 9.15521C37.1096 9.15521 37.6089 9.25807 38.057 9.46379C38.5051 9.66951 38.8891 9.93951 39.2092 10.2867C39.5293 10.6338 39.7853 11.0452 39.9518 11.5081C40.131 11.971 40.2206 12.4724 40.2206 12.9995C40.2206 13.5267 40.131 14.0281 39.9518 14.491C39.7725 14.9538 39.5293 15.3653 39.2092 15.7124C38.8891 16.0596 38.5051 16.3424 38.057 16.5353C37.6089 16.741 37.1096 16.8439 36.5719 16.8439ZM36.5719 9.68236C36.111 9.68236 35.6757 9.77236 35.3044 9.93951C34.9203 10.1067 34.5874 10.3509 34.3186 10.6467C34.0369 10.9424 33.8193 11.3024 33.6784 11.701C33.5248 12.0995 33.448 12.5367 33.448 12.9995C33.448 13.4624 33.5248 13.8995 33.6784 14.2981C33.8321 14.6967 34.0497 15.0567 34.3186 15.3524C34.5874 15.6481 34.9203 15.8924 35.3044 16.0596C35.6885 16.2267 36.111 16.3167 36.5719 16.3167C37.0328 16.3167 37.468 16.2267 37.8393 16.0596C38.2234 15.8924 38.5563 15.6481 38.8251 15.3524C39.1068 15.0567 39.3116 14.6967 39.4653 14.2981C39.6189 13.8995 39.6957 13.4624 39.6957 12.9995C39.6957 12.5367 39.6189 12.0995 39.4653 11.701C39.3116 11.3024 39.094 10.9424 38.8251 10.6467C38.5563 10.3509 38.2234 10.1067 37.8393 9.93951C37.468 9.77236 37.0328 9.68236 36.5719 9.68236Z" fill="#242428"/>
<path d="M49.6296 10.4665C49.3736 10.1194 49.0535 9.84936 48.6694 9.68222C48.2854 9.50221 47.8885 9.42507 47.4788 9.42507C47.0051 9.42507 46.557 9.52793 46.1601 9.72079C45.7632 9.91365 45.4176 10.1836 45.1231 10.5051C44.8286 10.8394 44.611 11.2122 44.4446 11.6494C44.2781 12.0865 44.2013 12.5365 44.2013 13.0122C44.2013 13.5137 44.2781 13.9894 44.4446 14.4137C44.611 14.8508 44.8286 15.2237 45.1231 15.5451C45.4048 15.8666 45.7504 16.1237 46.1601 16.3037C46.557 16.4966 47.0051 16.5866 47.4916 16.5866C48.0165 16.5866 48.4902 16.4837 48.8999 16.278C49.3096 16.0723 49.6681 15.7766 49.9753 15.378L50.7435 16.0208C50.3594 16.5351 49.8857 16.9208 49.348 17.1651C48.7975 17.4094 48.1829 17.5251 47.5044 17.5251C46.8899 17.5251 46.3137 17.4094 45.776 17.178C45.2383 16.9466 44.7774 16.638 44.3933 16.2394C43.9965 15.8408 43.6892 15.3651 43.4715 14.8123C43.2539 14.2594 43.1387 13.6551 43.1387 12.9994C43.1387 12.3694 43.2411 11.7779 43.4587 11.2251C43.6764 10.6722 43.9709 10.1965 44.3677 9.78507C44.7518 9.37364 45.2127 9.05221 45.7504 8.82078C46.2881 8.58935 46.8643 8.47363 47.5044 8.47363C48.0805 8.47363 48.6438 8.57649 49.1816 8.79506C49.7193 9.00078 50.1674 9.34793 50.5386 9.8365L49.6296 10.4665Z" fill="#242428"/>
<path d="M47.4792 17.7954C46.8391 17.7954 46.2245 17.6797 45.6612 17.4354C45.0979 17.1912 44.5986 16.8569 44.1889 16.4326C43.7792 16.0083 43.4463 15.494 43.2159 14.9154C42.9854 14.3368 42.8574 13.694 42.8574 12.9997C42.8574 12.3311 42.9726 11.7011 43.1903 11.1225C43.4207 10.544 43.7408 10.0297 44.1505 9.60538C44.5602 9.18109 45.0467 8.83395 45.61 8.58966C46.1733 8.34537 46.8007 8.2168 47.4664 8.2168C48.0809 8.2168 48.6699 8.33251 49.2332 8.55109C49.8093 8.78252 50.3086 9.15538 50.6927 9.66967L50.8463 9.87538L49.5404 10.8268L49.3868 10.6211C49.1564 10.3125 48.8619 10.0682 48.529 9.91396C48.1834 9.75967 47.8249 9.66967 47.4408 9.66967C47.0055 9.66967 46.5958 9.75967 46.2373 9.93967C45.8661 10.1197 45.546 10.364 45.2771 10.6597C45.0083 10.9682 44.7906 11.3154 44.6498 11.7268C44.4962 12.1254 44.4193 12.5625 44.4193 12.9997C44.4193 13.4754 44.4962 13.9126 44.6498 14.3111C44.8034 14.7097 45.0083 15.0697 45.2771 15.3654C45.5332 15.6611 45.8533 15.8926 46.2245 16.0597C46.583 16.2269 46.9927 16.3169 47.4408 16.3169C47.9273 16.3169 48.3626 16.2269 48.7339 16.034C49.1051 15.8411 49.4508 15.5711 49.7325 15.2111L49.8989 15.0054L51.0512 15.9826L50.9103 16.1754C50.5006 16.7283 49.9885 17.1397 49.4124 17.3969C48.8619 17.6669 48.1962 17.7954 47.4792 17.7954ZM47.4792 8.73109C46.8775 8.73109 46.327 8.8468 45.8276 9.06538C45.3283 9.28395 44.8931 9.59252 44.5218 9.96538C44.1633 10.3511 43.8688 10.8011 43.6768 11.3154C43.4719 11.8297 43.3695 12.3954 43.3695 12.9997C43.3695 13.6168 43.472 14.1954 43.6896 14.7226C43.8944 15.2369 44.1889 15.6997 44.5602 16.0726C44.9315 16.4454 45.3668 16.7412 45.8661 16.9597C46.3654 17.1783 46.9159 17.2812 47.492 17.2812C48.1449 17.2812 48.7211 17.1654 49.2332 16.934C49.6685 16.7412 50.0525 16.4454 50.3854 16.0597L50.0013 15.7383C49.7069 16.0597 49.374 16.3169 49.0027 16.4969C48.5546 16.7154 48.0425 16.8312 47.4792 16.8312C46.9543 16.8312 46.4806 16.7283 46.0453 16.5226C45.61 16.3169 45.2387 16.0469 44.9315 15.6997C44.6242 15.3526 44.3809 14.954 44.2145 14.4911C44.0481 14.0283 43.9585 13.5268 43.9585 12.9997C43.9585 12.4983 44.0481 12.0097 44.2145 11.5468C44.3809 11.084 44.637 10.6725 44.9443 10.3254C45.2515 9.97824 45.6356 9.68252 46.0581 9.47681C46.4934 9.27109 46.9671 9.15538 47.4792 9.15538C47.9273 9.15538 48.3626 9.24538 48.7723 9.43824C49.1179 9.59252 49.4124 9.82395 49.6685 10.1068L50.1422 9.75967C49.8349 9.42538 49.4764 9.16824 49.0667 9.01395C48.5546 8.83395 48.0297 8.73109 47.4792 8.73109Z" fill="#242428"/>
<path d="M53.0625 8.69238H54.0867V17.3196H53.0625V8.69238Z" fill="#242428"/>
<path d="M54.3293 17.5761H52.793V8.43457H54.3293V17.5761ZM53.3179 17.0618H53.83V8.94886H53.3179V17.0618Z" fill="#242428"/>
<path d="M59.9116 8.69238H60.8718L64.5205 17.3196H63.3299L62.4593 15.1981H58.1704L57.287 17.3196H56.1348L59.9116 8.69238ZM60.3725 10.0038H60.3469L58.5673 14.2467H62.0752L60.3725 10.0038Z" fill="#242428"/>
<path d="M64.905 17.5761H63.1639L62.2933 15.4546H58.3372L57.4538 17.5761H55.7383L59.7455 8.43457H61.0386L64.905 17.5761ZM63.4967 17.0618H64.1241L60.6929 8.94886H60.0656L56.5064 17.0618H57.0954L57.9788 14.9403H62.6133L63.4967 17.0618ZM62.4469 14.5032H58.1708L60.168 9.74601H60.5393L62.4469 14.5032ZM58.9518 13.9889H61.6915L60.3601 10.6589L58.9518 13.9889Z" fill="#242428"/>
<path d="M66.5684 8.69238H67.5926V16.3682H71.523V17.3196H66.5812V8.69238H66.5684Z" fill="#242428"/>
<path d="M71.7665 17.5761H66.3125V8.43457H67.8488V16.1103H71.7793V17.5761H71.7665ZM66.8246 17.0618H71.2544V16.6246H67.3239V8.94886H66.8118V17.0618H66.8246Z" fill="#242428"/>
<path d="M77.2695 8.67969H80.5726C80.8543 8.67969 81.1488 8.71826 81.4688 8.78255C81.7889 8.84683 82.0962 8.94969 82.4034 9.09112C82.7107 9.23255 83.0179 9.41255 83.2996 9.64398C83.5813 9.87541 83.8373 10.1454 84.055 10.4668C84.2726 10.7883 84.4519 11.1611 84.5799 11.5726C84.7079 11.9969 84.7719 12.4597 84.7719 12.9869C84.7719 13.514 84.7079 13.9897 84.5799 14.4012C84.4519 14.8255 84.2726 15.1855 84.055 15.5069C83.8373 15.8283 83.5813 16.0983 83.2996 16.3298C83.0179 16.5612 82.7107 16.7412 82.4034 16.8826C82.0962 17.024 81.7761 17.1269 81.4688 17.1912C81.1488 17.2555 80.8543 17.294 80.5726 17.294H77.2695V8.67969ZM78.2809 16.3555H80.227C80.7263 16.3555 81.1744 16.2912 81.5968 16.1626C82.0193 16.034 82.3778 15.8283 82.6851 15.5583C82.9923 15.2883 83.2356 14.9412 83.4148 14.5169C83.5941 14.0926 83.6837 13.5912 83.6837 12.9997C83.6837 12.4083 83.5941 11.894 83.4148 11.4826C83.2356 11.0583 82.9923 10.7111 82.6851 10.4411C82.3778 10.1711 82.0193 9.96541 81.5968 9.83684C81.1744 9.70827 80.7135 9.64398 80.227 9.64398H78.2809V16.3555Z" fill="#242428"/>
<path d="M80.5592 17.5517H77V8.41016H80.5592C80.8536 8.41016 81.1737 8.44873 81.5066 8.51301C81.8394 8.5773 82.1723 8.69301 82.5052 8.8473C82.838 9.00159 83.1581 9.19445 83.4526 9.43874C83.7598 9.68302 84.0287 9.97874 84.2591 10.313C84.4896 10.6473 84.6816 11.0459 84.8097 11.4959C84.9505 11.933 85.0145 12.4345 85.0145 12.9873C85.0145 13.5402 84.9505 14.0416 84.8097 14.4788C84.6688 14.9159 84.4896 15.3145 84.2591 15.6616C84.0287 16.0088 83.7598 16.3045 83.4526 16.5359C83.1453 16.7802 82.8252 16.9731 82.5052 17.1274C82.1723 17.2817 81.8394 17.3845 81.5066 17.4617C81.1865 17.5259 80.8664 17.5517 80.5592 17.5517ZM77.5249 17.0374H80.572C80.8408 17.0374 81.1225 17.0117 81.4169 16.9474C81.7114 16.8831 82.0059 16.7931 82.3003 16.6517C82.5948 16.5231 82.8764 16.3431 83.1453 16.1245C83.4142 15.9188 83.6446 15.6616 83.8494 15.3531C84.0543 15.0574 84.2207 14.7102 84.336 14.3116C84.4512 13.9259 84.5152 13.4631 84.5152 12.9745C84.5152 12.473 84.4512 12.023 84.336 11.6373C84.2207 11.2516 84.0543 10.8916 83.8494 10.5959C83.6446 10.3002 83.4142 10.043 83.1453 9.82445C82.8764 9.60588 82.5948 9.43874 82.3003 9.29731C82.0059 9.16873 81.7114 9.06587 81.4169 9.00159C81.1225 8.9373 80.8408 8.91159 80.572 8.91159H77.5249V17.0374ZM80.2263 16.6131H78.0242V9.37445H80.2263C80.7384 9.37445 81.2249 9.43873 81.673 9.58016C82.1211 9.72159 82.5308 9.94017 82.8636 10.2359C83.1965 10.5316 83.4654 10.9173 83.6574 11.3673C83.8494 11.8173 83.9391 12.3702 83.9391 12.9873C83.9391 13.6173 83.8366 14.1573 83.6574 14.6073C83.4654 15.0574 83.1965 15.4431 82.8636 15.7388C82.5308 16.0345 82.1339 16.2531 81.673 16.3945C81.2249 16.5359 80.7384 16.6131 80.2263 16.6131ZM78.5363 16.0988H80.2263C80.6872 16.0988 81.1225 16.0345 81.5194 15.9188C81.9034 15.8031 82.2363 15.6102 82.518 15.3659C82.7996 15.1216 83.0173 14.8002 83.1837 14.4145C83.3501 14.0288 83.427 13.5531 83.427 12.9873C83.427 12.4345 83.3501 11.9588 83.1837 11.5602C83.0173 11.1745 82.7996 10.853 82.518 10.6087C82.2363 10.3645 81.9034 10.1716 81.5194 10.0559C81.1225 9.94017 80.6872 9.87588 80.2263 9.87588H78.5363V16.0988Z" fill="#242428"/>
<path d="M90.1088 8.67969H91.069L94.7178 17.3069H93.5272L92.6566 15.1855H88.3677L87.4843 17.3069H86.332L90.1088 8.67969ZM90.5697 9.99113H90.5441L88.7645 14.234H92.2725L90.5697 9.99113Z" fill="#242428"/>
<path d="M95.1023 17.5517H93.3611L92.4905 15.4302H88.5345L87.6511 17.5517H85.9355L89.9428 8.41016H91.2359L95.1023 17.5517ZM93.694 17.0374H94.3213L90.8902 8.92445H90.2629L86.7037 17.0374H87.2926L88.176 14.9159H92.8106L93.694 17.0374ZM92.6442 14.4916H88.3681L90.3653 9.73445H90.7366L92.6442 14.4916ZM89.149 13.9773H91.8888L90.5573 10.6473L89.149 13.9773Z" fill="#242428"/>
<path d="M96.7676 8.67969H98.0478L103.015 15.8412H103.041V8.67969H104.065V17.3069H102.785L97.8174 10.1454H97.7918V17.3069H96.7676V8.67969Z" fill="#242428"/>
<path d="M104.321 17.5517H102.643L98.0344 10.9173V17.5517H96.498V8.41016H98.1752L102.784 15.0445V8.41016H104.321V17.5517ZM102.912 17.0374H103.808V8.92445H103.296V16.0988H102.887L97.9191 8.9373H97.023V17.0502H97.5351V9.88874H97.9448L102.912 17.0374Z" fill="#242428"/>
<path d="M113.13 10.4538C112.874 10.1067 112.554 9.83666 112.169 9.66952C111.785 9.48952 111.388 9.41237 110.979 9.41237C110.505 9.41237 110.057 9.51523 109.66 9.70809C109.263 9.90095 108.918 10.171 108.623 10.4924C108.329 10.8267 108.111 11.1995 107.945 11.6367C107.778 12.0738 107.701 12.5238 107.701 12.9995C107.701 13.501 107.778 13.9767 107.945 14.401C108.111 14.8381 108.329 15.211 108.623 15.5324C108.905 15.8539 109.25 16.111 109.66 16.291C110.057 16.4839 110.505 16.5739 110.992 16.5739C111.517 16.5739 111.99 16.471 112.4 16.2653C112.81 16.0596 113.168 15.7639 113.475 15.3653L114.243 16.0081C113.859 16.5224 113.386 16.9082 112.848 17.1524C112.297 17.3967 111.683 17.5124 111.004 17.5124C110.39 17.5124 109.814 17.3967 109.276 17.1653C108.738 16.9339 108.277 16.6253 107.893 16.2267C107.496 15.8281 107.189 15.3524 106.972 14.7996C106.754 14.2467 106.639 13.6424 106.639 12.9867C106.639 12.3567 106.741 11.7653 106.959 11.2124C107.176 10.6595 107.471 10.1838 107.868 9.77237C108.252 9.36094 108.713 9.03951 109.25 8.80808C109.788 8.57665 110.364 8.46094 111.004 8.46094C111.581 8.46094 112.144 8.5638 112.682 8.78237C113.219 8.98808 113.667 9.33523 114.039 9.82381L113.13 10.4538Z" fill="#242428"/>
<path d="M110.979 17.7828C110.339 17.7828 109.725 17.667 109.161 17.4227C108.598 17.1785 108.099 16.8442 107.689 16.4199C107.279 15.9956 106.946 15.4813 106.716 14.9027C106.485 14.3242 106.357 13.6813 106.357 12.987C106.357 12.3184 106.473 11.6884 106.69 11.1098C106.921 10.5313 107.241 10.017 107.65 9.59268C108.06 9.16839 108.547 8.82125 109.11 8.57696C109.673 8.33267 110.301 8.2041 110.966 8.2041C111.581 8.2041 112.17 8.31982 112.733 8.53839C113.309 8.76982 113.809 9.14268 114.193 9.65697L114.346 9.86269L113.04 10.8141L112.887 10.6084C112.656 10.2998 112.362 10.0555 112.029 9.90126C111.683 9.74697 111.325 9.65697 110.941 9.65697C110.506 9.65697 110.096 9.74697 109.737 9.92697C109.366 10.107 109.046 10.3513 108.777 10.647C108.508 10.9556 108.291 11.3027 108.15 11.7141C107.996 12.1127 107.919 12.5498 107.919 12.987C107.919 13.4627 107.996 13.8999 108.15 14.2984C108.303 14.697 108.508 15.057 108.777 15.3527C109.033 15.6485 109.353 15.8799 109.725 16.047C110.083 16.2142 110.493 16.3042 110.941 16.3042C111.427 16.3042 111.863 16.2142 112.234 16.0213C112.605 15.8284 112.951 15.5584 113.232 15.1984L113.399 14.9927L114.551 15.9699L114.41 16.1627C114.001 16.7156 113.489 17.127 112.912 17.3842C112.362 17.6413 111.696 17.7828 110.979 17.7828ZM110.979 8.71839C110.377 8.71839 109.827 8.83411 109.328 9.05268C108.828 9.27125 108.393 9.57983 108.022 9.95269C107.663 10.3384 107.369 10.7884 107.177 11.3027C106.972 11.817 106.87 12.3827 106.87 12.987C106.87 13.6041 106.972 14.1827 107.19 14.7099C107.394 15.2242 107.689 15.687 108.06 16.0599C108.431 16.4327 108.867 16.7285 109.366 16.947C109.865 17.1656 110.416 17.2685 110.992 17.2685C111.645 17.2685 112.221 17.1527 112.733 16.9213C113.168 16.7285 113.553 16.4327 113.885 16.047L113.501 15.7256C113.207 16.047 112.874 16.3042 112.503 16.4842C112.055 16.7027 111.543 16.8185 110.979 16.8185C110.454 16.8185 109.981 16.7156 109.545 16.5099C109.11 16.3042 108.739 16.0342 108.431 15.687C108.124 15.3399 107.881 14.9413 107.715 14.4784C107.548 14.0156 107.458 13.5141 107.458 12.987C107.458 12.4856 107.548 11.997 107.715 11.5341C107.881 11.0713 108.137 10.6598 108.444 10.3127C108.752 9.96554 109.136 9.66983 109.558 9.46411C109.993 9.25839 110.467 9.14268 110.979 9.14268C111.427 9.14268 111.863 9.23268 112.272 9.42554C112.618 9.57983 112.912 9.81126 113.168 10.0941L113.642 9.74697C113.335 9.41268 112.976 9.15554 112.567 9.00125C112.055 8.82125 111.53 8.71839 110.979 8.71839Z" fill="#242428"/>
<path d="M116.561 8.67969H121.963V9.63113H117.585V12.3311H121.669V13.2826H117.585V16.3555H122.181V17.3069H116.561V8.67969Z" fill="#242428"/>
<path d="M122.424 17.5517H116.291V8.41016H122.206V9.87588H117.827V12.0616H121.911V13.5273H117.827V16.0988H122.424V17.5517ZM116.816 17.0374H121.924V16.6131H117.328V13.0259H121.412V12.5888H117.328V9.37445H121.707V8.9373H116.816V17.0374Z" fill="#242428"/>
<path d="M135.964 9.39952H133.122V17.0753H132.098V9.39952H129.256V8.46094H135.952V9.39952H135.964Z" fill="#242428"/>
<path d="M133.379 17.3328H131.842V9.65697H129V8.2041H136.208V9.66983H133.366V17.3328H133.379ZM132.367 16.8185H132.879V9.14268H135.721V8.71839H129.538V9.15554H132.38V16.8185H132.367Z" fill="#242428"/>
<path d="M136.898 8.46094H138.051L140.688 15.5453H140.714L143.441 8.46094H144.516L141.162 17.0753H140.176L136.898 8.46094Z" fill="#242428"/>
<path d="M141.341 17.3328H140.01L136.527 8.2041H138.23L140.714 14.8642L143.274 8.2041H144.9L141.341 17.3328ZM140.355 16.8185H140.983L144.145 8.70553H143.62L140.893 15.7899H140.522L137.872 8.71839H137.27L140.355 16.8185Z" fill="#242428"/>
<path d="M7 6.5V19.5L16 13L7 6.5Z" fill="#FB4C4C"/>
<rect x="0.5" y="1" width="151" height="24" rx="3.5" stroke="#242428"/>
</svg>
