<svg width="375" height="212" viewBox="0 0 375 212" fill="none" xmlns="http://www.w3.org/2000/svg">
<g clipPath="url(#clip0_6033_92558)">
<rect width="375" height="218" fill="#6F6CFF"/>
<path d="M55.709 0.703892C54.1795 -0.0251722 52.4782 -0.391507 50.7797 -0.368722C49.1762 0.911182 46.37 1.07693 44.3224 1.04692C42.3986 -1.16465 40.0311 -3.28374 37.5327 -4.82456C35.8638 -5.8599 33.9064 -6.96654 33.5249 -8.884C32.9226 -11.9631 27.8755 -13.5994 24.7757 -13.1636C21.0019 -14.5284 16.4783 -13.5519 13.1662 -11.2837C11.7042 -10.2866 13.0164 -7.38379 14.0884 -5.97417C15.1604 -4.56456 16.5111 -2.96661 16.0843 -1.24644C14.5962 -0.640387 12.6501 -0.756187 11.053 -0.960596C10.1092 -1.08675 9.16453 -1.3426 8.22841 -1.13814C7.304 -0.932706 6.43878 -0.0270155 6.7163 0.88006C6.00606 1.90478 5.21023 2.4038 5.8504 3.48265C6.34538 4.32544 7.23921 5.04843 7.15789 6.01974C7.09323 6.79211 6.38611 7.35748 5.66641 7.65076C4.94672 7.94405 4.16078 8.04324 3.47031 8.40968C1.32575 9.53822 1.05939 12.4385 1.07987 14.8678C2.25507 16.5925 2.23249 19.3953 1.43413 21.3318C1.12475 22.0719 0.672031 22.8354 0.87843 23.6069C1.12281 24.4876 2.10061 24.9112 2.9595 25.207C4.80206 25.8562 6.97809 26.4627 8.57955 25.3476C12.7958 22.4127 18.7855 24.6111 23.6864 26.1645C25.3857 26.6956 27.1453 27.4911 28.0301 29.0265C29.2129 31.0817 28.4143 33.7253 27.1284 35.7153C25.8425 37.7053 24.1082 39.4221 23.2171 41.6219C22.3855 43.6735 22.371 45.9585 22.3847 48.1869C22.3914 50.9215 22.4332 53.8004 23.8265 56.1561C25.2812 58.623 26.0316 62.1859 25.6521 65.0295C25.3548 67.3144 24.3594 69.4937 24.3789 71.7933C24.4182 75.9684 27.7271 79.3683 31.211 81.6633C34.8508 84.0657 37.8417 87.8868 38.8169 92.1402C39.2978 94.2781 39.3125 96.4948 39.7211 98.6502C40.4226 102.374 42.3333 105.869 45.0964 108.469C47.1062 110.358 50.6004 111.263 53.261 111.993C54.6434 112.368 56.1478 112.694 57.1204 113.742C57.5746 114.227 57.8776 114.83 58.3074 115.326C60.3901 117.751 64.6317 117.187 66.7397 119.591C67.2767 120.213 67.6255 120.973 68.0981 121.661C69.3474 123.486 71.5485 124.636 73.7648 124.622C73.1089 126.264 74.9558 128.41 74.1985 129.996C73.5847 131.277 72.0264 131.735 70.9048 132.608C68.9629 134.13 68.444 136.951 69.0202 139.356C69.6092 141.75 71.0855 143.818 72.5824 145.782C75.352 149.431 78.8886 151.377 81.9479 154.803C84.782 157.963 85.0775 162.737 84.0618 166.847C83.0335 170.968 80.883 174.701 79.2356 178.617C76.1613 185.925 74.8846 194.138 76.581 201.881C78.2773 209.624 83.1779 216.811 90.2533 220.396C91.0332 220.792 92.0757 220.301 92.7253 219.719C93.3759 219.126 93.5908 218.107 93.2333 217.311C92.115 214.766 89.9367 212.498 88.4107 210.178C87.9293 209.454 87.4216 208.622 87.5643 207.762C87.7275 206.798 88.617 206.165 89.3008 205.456C90.3328 204.388 90.9604 202.944 91.0497 201.454C91.1312 200.059 90.4258 198.633 90.5892 197.244C90.7526 195.856 91.6239 194.455 92.9842 194.11C93.5975 193.961 94.2635 194.028 94.87 193.82C96.8477 193.137 96.7874 190.197 98.2983 188.757C99.0026 188.085 99.969 187.8 100.882 187.453C104.716 185.982 108.04 182.725 108.721 178.681C109.263 175.439 108.413 171.384 111.061 169.45C113.507 167.674 116.895 169.278 119.908 169.035C121.13 168.937 122.031 167.881 122.683 166.852C123.336 165.811 123.514 164.529 123.404 163.306C123.283 161.799 122.761 160.294 123.027 158.808C123.402 156.718 125.188 155.23 126.604 153.651C128.281 151.777 129.551 149.55 130.317 147.163C131.193 144.431 129.679 140.993 127.303 139.392C124.928 137.79 121.935 137.505 119.076 137.183C116.228 136.862 113.215 136.397 111.025 134.552C109.01 132.864 108.012 130.293 106.494 128.151C103.922 124.542 99.9435 122.241 96.0852 120.056C94.6347 119.227 92.9853 118.382 91.3627 118.765C90.7249 118.924 90.131 119.263 89.466 119.325C87.6709 119.516 86.3719 117.723 84.8639 116.736C81.7251 114.682 76.771 116.86 76.166 120.568C74.4205 121.012 71.3036 120.244 70.4599 118.641C69.8607 117.495 69.7082 115.939 68.5453 115.334C67.9243 115.011 67.1199 115.05 66.6433 114.551C65.8412 113.717 66.6344 112.405 66.8815 111.283C67.2791 109.489 66.0669 107.644 64.4828 106.722C62.8997 105.788 61.0092 105.571 59.1772 105.358C57.3452 105.146 55.4567 104.905 53.8872 103.949C50.8273 102.078 49.8911 97.6397 51.5578 94.4796C53.2371 91.3087 57.0687 89.5907 60.6167 89.9938C64.1062 90.392 67.5781 93.2517 67.3203 96.7537C67.2575 97.6441 68.6654 97.8562 69.4738 97.4879C70.2832 97.1078 70.7545 96.2635 71.0142 95.4132C71.2739 94.5628 71.3728 93.6637 71.7124 92.8437C72.4844 90.9403 74.5949 89.6557 76.6405 89.8505C78.7796 90.0531 80.4555 88.0487 82.1029 86.6664C83.7503 85.2841 84.853 83.0902 84.417 80.9796C84.1825 79.8405 83.5385 78.667 84.005 77.5983C84.369 76.7685 85.2886 76.3388 86.1487 76.0572C88.5349 75.2789 91.0994 75.0458 93.5944 75.3607C95.7628 75.6365 97.0006 74.3614 98.2698 72.5703C99.1908 71.2804 99.6858 69.5895 101.049 68.7845C103.084 67.5642 105.626 69.0026 108.002 69.0484C111.461 69.1023 114.464 65.4648 113.769 62.0834C113.433 60.476 112.441 59.0967 111.667 57.6413C110.597 55.6427 109.897 53.451 109.639 51.1903C109.399 49.1198 109.47 46.8748 108.256 45.1824C106.154 45.1006 103.62 44.8296 101.679 45.6451C101.494 43.4849 101.272 41.2155 100.093 39.3962C98.9147 37.5653 96.4708 36.359 94.5183 37.3033C92.603 38.2271 92.0073 40.6991 92.1605 42.8096C92.3137 44.92 93.0217 47.0181 92.7858 49.1313C92.55 51.2446 90.8916 53.4626 88.7788 53.2268C87.6819 53.0997 86.7549 52.3503 86.0367 51.5006C85.0192 50.2841 84.2613 48.783 82.8907 47.9847C81.8457 47.3787 80.5811 47.2846 79.4219 46.9165C75.4725 45.6785 73.0983 40.8248 74.5419 36.9507C75.9856 33.0766 80.9464 30.9583 84.7445 32.5961C89.6163 31.2598 92.0465 25.4532 90.5547 20.6145C89.0619 15.7875 84.2271 12.4601 79.2147 11.8166C77.7463 11.6229 76.2369 11.638 74.8282 11.1547C70.8769 9.79867 69.1315 5.17443 65.7969 2.64442C63.6555 0.921359 58.19 1.88972 55.709 0.703892Z" fill="#6765F5"/>
<path d="M130.23 -3.92709C129.135 -2.52528 130.054 -0.417661 131.375 0.767063C132.695 1.95179 134.416 2.74333 135.419 4.21045C137.031 6.56735 136.247 9.79038 135.037 12.3819C133.827 14.9734 132.213 17.5531 132.32 20.4094C132.369 21.7525 132.803 23.0691 133.416 24.2681C134.01 25.4288 134.856 26.5738 136.095 26.9792C137.669 27.5009 139.377 26.6948 140.683 25.6785C141.997 24.6628 143.169 23.3998 144.713 22.7933C146.941 21.9277 149.655 22.5449 151.642 21.2177C154.096 19.5765 154.054 16.0414 154.923 13.2154C156.394 8.47529 160.871 5.25238 162.898 0.720736C163.296 -0.165624 163.596 -1.11169 163.655 -2.07793C163.844 -5.21108 161.432 -8.03222 158.567 -9.31675C155.037 -10.9072 151.289 -10.4117 147.57 -10.8922C145.547 -11.1572 143.376 -12.1998 141.342 -11.5387C138.204 -10.5212 138.845 -7.4584 136.71 -5.84935C134.864 -4.45146 131.788 -5.92299 130.23 -3.92709Z" fill="#6765F5"/>
<path d="M249.265 32.9246C246.707 29.9882 241.949 32.2178 238.841 34.5738C235.759 36.9084 232.665 39.2537 229.583 41.5882C227.267 43.3506 224.77 45.1686 221.875 45.4094C218.98 45.6502 215.692 43.5483 215.818 40.6363C217.926 38.9625 221.594 42.0154 223.552 40.1641C225.28 38.5176 223.154 35.7705 221.194 34.4045C217.609 31.9124 213.899 29.3628 209.631 28.4162C205.363 27.4696 200.351 28.4996 197.792 32.0446C195.606 35.0788 195.607 39.286 193.444 42.3338C192.082 44.2467 190.008 45.5108 188.491 47.3047C186.986 49.0996 186.161 51.9177 187.684 53.7069C188.906 55.1526 191.176 55.3427 192.386 56.7991C193.317 57.9142 193.523 59.6755 194.809 60.3606C196.275 61.1433 198.13 59.8138 198.628 58.2292C199.126 56.6446 198.752 54.928 198.631 53.2681C198.245 48.3099 201.206 42.5005 206.179 42.2097C207.286 42.3496 207.527 43.9725 206.941 44.9251C206.355 45.8776 205.325 46.4985 204.716 47.4374C203.566 49.2149 204.502 51.9566 206.493 52.6654C208.576 53.4054 212.159 53.2458 211.695 55.4106C211.208 57.7032 207.054 55.8234 205.504 57.591C204.591 58.6341 205.189 60.2279 205.05 61.6068C204.789 64.2955 201.67 65.8021 198.975 65.765C196.28 65.7279 193.656 64.7069 190.956 64.7283C188.256 64.7498 185.184 66.4017 185.076 69.103C181.221 70.5362 177.242 71.6173 173.199 72.3511C173.118 75.2788 178.595 76.0083 178.328 78.9203C178.169 80.6747 175.929 81.3946 174.185 81.1189C172.452 80.8442 170.743 80.0059 169.021 80.3095C166.032 80.837 164.67 84.8594 166.07 87.5574C167.471 90.2437 170.72 91.541 173.747 91.5587C174.96 91.566 176.286 91.347 177.114 90.4618C177.915 89.6214 178.078 88.3742 178.475 87.2879C179.364 84.8404 181.664 82.9707 184.24 82.6088C185.695 82.4007 187.44 82.5232 188.304 81.3464C191.421 83.3868 193.414 87.0183 193.48 90.736C194.419 92.1816 196.893 90.6329 196.813 88.9174C196.721 87.2009 195.323 85.8936 194.244 84.5659C193.153 83.2372 192.318 81.2465 193.375 79.8854C198.807 81.99 202.906 87.212 203.66 92.9788C205.635 92.7553 206.932 90.2123 205.945 88.4916C206.667 87.1851 208.813 88.1426 209.332 89.5412C209.853 90.9282 209.655 92.5851 210.469 93.8317C212.818 97.4459 220.196 93.8919 222.039 97.7818C223.33 100.506 219.672 103.252 216.673 102.907C213.674 102.561 211.08 100.612 208.109 100.069C204.837 99.4646 201.513 100.612 198.181 100.722C194.85 100.832 190.897 99.205 190.479 95.8939C190.366 95.0005 190.516 94.0468 190.124 93.2479C189.56 92.1048 188.094 91.7346 186.819 91.7693C181.28 91.9301 175.248 97.1288 170.985 93.5901C167.622 98.9888 160.355 100.513 155.997 105.133C151.252 110.169 150.905 118.53 154.623 124.369C158.34 130.207 165.494 133.422 172.411 133.129C173.995 133.061 175.674 132.848 177.086 133.579C178.487 134.297 179.293 135.779 180.415 136.875C181.537 137.97 183.497 138.629 184.591 137.519C183.207 140.255 183.239 143.675 184.685 146.389C186.243 149.312 189.382 151.79 189.035 155.085C188.857 156.79 187.734 158.24 187.129 159.839C184.369 167.197 192.757 174.098 193.516 181.916C193.717 184.019 193.508 186.523 195.165 187.84C195.927 188.446 196.924 188.636 197.89 188.787C202.823 189.53 209.206 188.58 210.644 183.786C211.052 182.43 210.961 180.984 211.125 179.584C211.607 175.382 214.519 171.56 218.433 169.979C219.494 169.549 220.65 169.257 221.524 168.529C223.462 166.911 223.314 163.894 222.597 161.477C221.869 159.059 220.733 156.583 221.258 154.117C222.107 150.158 226.59 148.4 230.043 146.285C235.246 143.103 239.087 137.756 240.433 131.812C235.798 132.85 230.15 133.602 226.983 130.061C225.883 128.838 225.274 127.255 224.684 125.709C222.927 121.084 221.17 116.458 219.414 111.821C219.182 111.213 218.957 110.522 219.231 109.932C219.989 108.334 222.354 109.923 223.19 111.478C226.162 117.065 228.766 122.833 230.98 128.758C236.562 128.223 242.019 126.37 246.78 123.41C248.296 122.465 249.83 121.309 250.454 119.629C251.078 117.949 250.373 115.674 248.643 115.223C247.975 115.049 247.27 115.167 246.573 115.179C242.395 115.266 239.056 111.804 236.607 108.406C238.642 106.478 241.911 107.966 244.352 109.349C248.717 111.812 253.412 113.713 258.266 114.98C259.477 115.293 260.725 115.586 261.777 116.252C262.516 116.714 263.134 117.355 263.728 117.994C268.976 123.701 272.604 130.887 274.1 138.496C276.223 139.168 277.98 136.617 278.329 134.419C278.69 132.222 278.636 129.636 280.368 128.226C281.722 127.114 283.795 127.122 285.008 125.857C286.532 124.264 286.059 121.325 287.799 119.962C289.991 118.26 293.075 120.828 293.952 123.447C294.827 126.078 294.953 129.223 297.104 130.97C298.347 130.898 299.591 130.825 300.834 130.752C300.336 136.98 301.97 143.363 305.422 148.566C307.62 147.642 306.929 144.355 305.784 142.268C304.639 140.18 303.589 137.111 305.583 135.805C308.179 136.046 309.084 139.728 311.548 140.547C314.001 141.365 316.486 138.568 316.254 135.991C316.01 133.413 313.991 131.359 311.837 129.918C309.998 127.536 313.219 124.247 316.21 123.991C319.212 123.735 322.371 124.848 325.163 123.727C328.504 122.38 329.935 118.234 329.503 114.663C329.073 111.079 327.234 107.85 325.802 104.548C324.578 101.723 324.205 97.4495 327.135 96.5046C327.922 96.2523 328.764 96.3345 329.586 96.368C340.318 96.8069 350.123 86.2203 348.848 75.5546C348.604 73.5426 348.008 71.5129 346.713 69.955C344.392 67.1445 340.125 66.1745 338.478 62.9137C336.467 58.9271 339.766 54.136 343.691 52.0134C347.615 49.8907 352.255 49.2185 355.95 46.7349C356.876 46.7889 357.456 45.9183 357.695 45.0309C357.849 44.4663 357.757 43.8694 357.806 43.2843C357.928 41.6917 359.192 40.242 360.762 39.9256C362.333 39.5975 364.066 40.4262 364.807 41.8435C365.721 43.5934 365.116 45.7582 364.192 47.5074C363.279 49.2577 362.045 50.9102 361.683 52.8479C361.32 54.7856 362.239 57.184 364.174 57.57C366.538 58.0389 368.333 55.3255 368.686 52.9392C369.039 50.5529 368.79 47.8924 370.259 45.9649C372.483 43.04 377.961 42.7679 378.407 39.1285C378.772 36.1775 375.197 34.1341 374.76 31.1867C374.588 30.0057 374.959 28.8111 375.164 27.6263C375.945 23.2253 374.375 18.4743 371.122 15.3972C367.868 12.3201 363.039 11.032 358.688 12.0583C357.27 12.3992 355.915 12.9575 354.48 13.2144C352.363 13.5911 350.187 13.2558 348.058 12.9361C344.254 12.3583 340.45 11.7689 336.646 11.1911C333.237 10.67 329.627 10.1675 326.463 11.517C321.833 13.4746 318.819 19.0792 313.796 19.2714C310.25 19.3988 307.329 16.7149 304.139 15.1397C298.991 12.5875 292.497 13.0455 287.761 16.2786C286.159 15.2842 286.893 12.8474 286.445 11.0187C285.993 9.10702 284.085 7.82778 282.158 7.48964C280.23 7.1515 278.25 7.58671 276.338 8.0395C272.227 9.01519 267.396 10.8498 266.671 15.008C266.467 16.1811 266.631 17.4558 266.038 18.4903C265.196 19.9636 263.246 20.3072 261.953 21.4009C260.418 22.7101 260 24.8906 259.774 26.8868C259.547 28.8947 259.343 31.046 258.047 32.5991C256.775 34.1308 250.587 34.4494 249.265 32.9246Z" fill="#6765F5"/>
<path d="M314.44 155C315.251 156.424 316.707 157.335 318.151 158.092C319.9 159.016 322.05 159.797 323.78 158.835C324.954 158.179 329.106 153.341 329.456 152.251C330.14 150.14 329.404 150.208 327.3 149.584C323.872 148.59 310.935 148.874 314.44 155Z" fill="#6765F5"/>
<path d="M301.851 153.216C306.076 162.703 315.781 169.502 326.136 170.227C326.911 169.55 325.951 168.35 325.037 167.873C322.52 166.554 319.758 165.769 317.157 164.609C314.556 163.448 312.03 161.811 310.648 159.326C310.063 158.287 309.711 157.15 309.249 156.051C307.935 152.889 302.43 144.756 298.44 146.26C299.271 148.428 300.821 150.891 301.851 153.216Z" fill="#6765F5"/>
<path d="M327.123 176.602C325.664 177.977 324.272 179.687 322.303 179.993C321.133 180.167 319.938 179.807 318.757 179.979C315.322 180.481 314.159 184.945 314.636 188.39C315.125 191.837 316.408 195.515 314.875 198.628C314.564 199.25 314.147 199.863 314.101 200.554C314.043 201.386 314.555 202.171 315.18 202.73C318.063 205.305 322.578 204.01 326.125 202.457C329.66 200.902 333.932 199.268 337.159 201.389C340.609 203.669 340.53 208.695 342.474 212.357C344.184 215.576 348.348 217.763 351.566 216.065C352.662 215.496 353.518 214.555 354.348 213.646C356.049 211.773 357.749 209.9 359.449 208.028C361.695 205.552 364.038 202.897 364.701 199.617C365.986 193.278 360.753 187.667 355.967 183.33C355.869 181.272 355.753 179.141 354.86 177.275C353.075 173.543 348.848 172.812 349.585 177.941C346.241 177.779 343.953 172.59 340.284 171.812C335.814 170.872 330.27 173.625 327.123 176.602Z" fill="#6765F5"/>
<path d="M90.4896 35.8706C90.4896 35.8706 81.617 76.1033 74.2476 73.9879C66.8783 71.8725 87.3617 29.8694 87.3617 29.8694C87.3617 29.8694 59.9239 -1.56192 45.8128 -6.04631C45.8128 -6.04631 51.7396 39.4875 45.1143 35.6169C38.494 31.7464 30.1326 -15.3448 30.1326 -15.3448C30.1326 -15.3448 -2.47288 -37.0718 -17.1205 -18.4748C-31.7631 0.122263 -27.0662 14.5646 -22.3793 18.1258C-17.6925 21.6869 16.153 35.6524 13.4098 39.66C10.6665 43.6675 -15.0504 40.9485 -26.0438 31.5789C-26.0438 31.5789 -26.803 72.1769 -7.69623 78.2846C11.4105 84.3923 21.9483 75.4336 33.6857 79.4209C45.423 83.4081 52.4229 90.0333 45.4332 90.6674C38.4434 91.3015 20.0908 81.0087 7.57398 84.8996C-4.93777 88.7904 -14.4228 90.429 1.13083 101.234C16.6845 112.034 48.2169 122.941 59.9391 112.42C60.4503 111.963 60.9362 111.522 61.4069 111.106C60.5768 112.034 59.9391 112.42 59.9391 112.42C62.3028 115.605 63.2796 126.39 63.6845 134.522C63.6643 135.866 63.725 137.769 63.9072 140.386C63.9376 141.548 63.9528 142.497 63.9629 143.156C63.5529 160.799 49.2798 185.458 49.2798 185.458L52.5039 188C71.7524 165.228 66.777 137.622 66.777 137.622C64.879 116.605 71.6613 101.899 71.6613 101.899C71.6613 101.899 112.289 97.5309 107.627 66.0083C107.633 65.9982 101.923 45.4278 90.4896 35.8706Z" fill="#5757DD" fill-opacity="0.6"/>
<path d="M303.22 -99.2712C303.22 -99.2712 338.986 -96.6355 338.083 -90.0211C337.179 -83.4067 298.439 -95.8246 298.439 -95.8246C298.439 -95.8246 274.799 -68.2518 272.698 -55.5298C272.698 -55.5298 311.175 -66.3105 308.672 -60.1219C306.164 -53.9332 266.647 -40.8564 266.647 -40.8564C266.647 -40.8564 252.013 -10.0397 269.86 0.264572C287.713 10.5689 299.566 4.71981 302.048 0.234161C304.53 -4.24641 312.327 -35.1644 316.119 -33.3043C319.915 -31.4391 320.789 -8.92973 314.093 1.71417C314.093 1.71417 349.159 -2.69037 352.027 -19.9234C354.895 -37.1564 345.859 -45.119 347.829 -55.7376C349.793 -66.3561 354.626 -73.2139 356.047 -67.2685C357.468 -61.3231 350.895 -44.2168 355.813 -33.9125C360.732 -23.6133 363.331 -15.6405 370.686 -30.3949C378.047 -45.1494 383.493 -73.6903 372.965 -82.4842C372.509 -82.8694 372.067 -83.2343 371.651 -83.5841C372.554 -82.9809 372.965 -82.4842 372.965 -82.4842C375.412 -84.9171 384.585 -87.1067 391.534 -88.4701C392.696 -88.6171 394.326 -88.9111 396.559 -89.3926C397.559 -89.5649 398.371 -89.6967 398.94 -89.7879C414.188 -91.6329 437.218 -82.4031 437.218 -82.4031L439 -85.5C416.975 -99.2509 393.818 -91.5214 393.818 -91.5214C375.955 -87.2638 362.433 -91.2781 362.433 -91.2781C362.433 -91.2781 353.585 -125.754 327.017 -117.812C327.027 -117.802 310.022 -110.321 303.22 -99.2712Z" fill="#5757DD" fill-opacity="0.6"/>
<path d="M87.3608 96.1088C102.168 82.8762 125.65 105.839 125.65 105.839C125.65 105.839 125.436 146.199 130.285 150.414C135.134 154.624 137.114 115.927 137.114 115.927C148.015 121.78 165.8 152.016 165.8 152.016C165.8 152.016 142.692 183.794 148.419 186.665C154.146 189.536 167.466 157.47 167.466 157.47C175.409 167.129 177 185.073 177 185.073C176.087 211.947 142.108 209.44 142.108 209.44C142.108 209.44 134.336 220.631 132.734 238.362C132.734 238.362 132.724 241.829 131.637 247L128.933 245.191C129.192 244.306 129.412 243.432 129.591 242.567C129.596 242.562 129.596 242.557 129.596 242.552C129.601 242.542 129.601 242.527 129.601 242.517C129.691 241.971 129.821 241.187 129.97 240.232C129.97 240.232 129.97 240.232 129.97 240.227V240.222C130.215 238.028 130.449 236.441 130.669 235.329C130.669 235.324 130.669 235.324 130.674 235.319C131.562 228.511 132.38 219.408 130.918 216.41C130.918 216.41 131.497 216.183 132.32 215.541C131.876 215.819 131.407 216.107 130.918 216.41C119.723 223.38 95.4976 209.567 84.3575 198.25C73.2225 186.933 81.2495 187.003 92.0952 185.659C102.946 184.314 116.456 195.631 122.283 196.162C128.11 196.693 123.365 190.137 114.335 185.052C105.306 179.968 95.318 185.816 80.561 177.865C65.8041 169.914 72.529 136.317 72.529 136.317C80.142 145.754 100.831 151.895 103.679 148.984C106.528 146.072 80.8654 129.362 77.5578 125.703C74.2402 122.043 72.554 109.341 87.3608 96.1088Z" fill="#5757DD" fill-opacity="0.6"/>
<path d="M204.871 159.177C204.871 159.177 212.357 138.404 224.784 129.48C224.784 129.48 230.563 171.76 238.249 170.179C245.93 168.598 228.462 123.54 228.462 123.54C228.462 123.54 258.98 93.3517 273.723 89.8853C273.723 89.8853 263.991 136.418 271.053 132.966C278.115 129.515 290.457 81.5792 290.457 81.5792C290.457 81.5792 316.209 67.05 332 75.8071V124.584C319.912 129.444 301.222 136.554 303.034 139.757C304.845 142.96 319.563 143.441 332 140.011V173.985C329.175 177.644 325.697 180.37 321.415 181.384C301.447 186.112 291.435 175.987 279.143 179.139C266.856 182.286 259.185 188.545 266.257 189.776C273.329 191.007 292.873 181.896 305.31 186.948C317.746 192.001 327.284 194.474 310.55 204.346C293.821 214.218 260.797 222.874 249.708 211.04C249.708 211.04 249.708 211.04 249.703 211.035C249.219 210.518 248.754 210.027 248.315 209.555C248.31 209.55 248.31 209.55 248.305 209.545C249.084 210.579 249.703 211.035 249.703 211.035C247.038 214.132 245.161 225.195 244.088 233.556C244.003 234.94 243.784 236.891 243.389 239.567C243.26 240.808 243.165 241.817 243.1 242.501C242.81 247.903 243.699 254.04 245.106 260H239.776C238.079 246.576 240.679 236.541 240.689 236.496C244.328 214.953 238.608 199.202 238.608 199.202C238.528 199.187 197.574 191.306 204.871 159.177Z" fill="#5757DD" fill-opacity="0.6"/>
<path d="M154.058 61.31V65.002H160.012V68.434H154.058V72.438H160.792V76H149.612V57.748H160.792V61.31H154.058ZM170.204 71.84L173.35 61.492H178.082L172.934 76H167.448L162.3 61.492H167.058L170.204 71.84ZM193.63 68.512C193.63 68.928 193.604 69.3613 193.552 69.812H183.49C183.559 70.7133 183.845 71.4067 184.348 71.892C184.868 72.36 185.5 72.594 186.246 72.594C187.355 72.594 188.126 72.126 188.56 71.19H193.292C193.049 72.1433 192.607 73.0013 191.966 73.764C191.342 74.5267 190.553 75.1247 189.6 75.558C188.646 75.9913 187.58 76.208 186.402 76.208C184.98 76.208 183.715 75.9047 182.606 75.298C181.496 74.6913 180.63 73.8247 180.006 72.698C179.382 71.5713 179.07 70.254 179.07 68.746C179.07 67.238 179.373 65.9207 179.98 64.794C180.604 63.6673 181.47 62.8007 182.58 62.194C183.689 61.5873 184.963 61.284 186.402 61.284C187.806 61.284 189.054 61.5787 190.146 62.168C191.238 62.7573 192.087 63.598 192.694 64.69C193.318 65.782 193.63 67.056 193.63 68.512ZM189.08 67.342C189.08 66.5793 188.82 65.9727 188.3 65.522C187.78 65.0713 187.13 64.846 186.35 64.846C185.604 64.846 184.972 65.0627 184.452 65.496C183.949 65.9293 183.637 66.5447 183.516 67.342H189.08ZM200.421 63.91C200.941 63.1127 201.591 62.4887 202.371 62.038C203.151 61.57 204.018 61.336 204.971 61.336V66.042H203.749C202.64 66.042 201.808 66.2847 201.253 66.77C200.699 67.238 200.421 68.07 200.421 69.266V76H195.975V61.492H200.421V63.91ZM221.916 61.492L212.816 82.89H208.032L211.36 75.506L205.458 61.492H210.424L213.778 70.566L217.106 61.492H221.916ZM244.35 61.492L240.424 76H235.51L233.222 66.588L230.856 76H225.968L222.016 61.492H226.462L228.516 71.866L230.96 61.492H235.666L238.136 71.814L240.164 61.492H244.35ZM254.964 61.336C256.628 61.336 257.962 61.8907 258.968 63C259.973 64.092 260.476 65.6 260.476 67.524V76H256.056V68.122C256.056 67.1513 255.804 66.3973 255.302 65.86C254.799 65.3227 254.123 65.054 253.274 65.054C252.424 65.054 251.748 65.3227 251.246 65.86C250.743 66.3973 250.492 67.1513 250.492 68.122V76H246.046V56.76H250.492V63.442C250.942 62.8007 251.558 62.2893 252.338 61.908C253.118 61.5267 253.993 61.336 254.964 61.336ZM277.241 68.512C277.241 68.928 277.215 69.3613 277.163 69.812H267.101C267.17 70.7133 267.456 71.4067 267.959 71.892C268.479 72.36 269.112 72.594 269.857 72.594C270.966 72.594 271.738 72.126 272.171 71.19H276.903C276.66 72.1433 276.218 73.0013 275.577 73.764C274.953 74.5267 274.164 75.1247 273.211 75.558C272.258 75.9913 271.192 76.208 270.013 76.208C268.592 76.208 267.326 75.9047 266.217 75.298C265.108 74.6913 264.241 73.8247 263.617 72.698C262.993 71.5713 262.681 70.254 262.681 68.746C262.681 67.238 262.984 65.9207 263.591 64.794C264.215 63.6673 265.082 62.8007 266.191 62.194C267.3 61.5873 268.574 61.284 270.013 61.284C271.417 61.284 272.665 61.5787 273.757 62.168C274.849 62.7573 275.698 63.598 276.305 64.69C276.929 65.782 277.241 67.056 277.241 68.512ZM272.691 67.342C272.691 66.5793 272.431 65.9727 271.911 65.522C271.391 65.0713 270.741 64.846 269.961 64.846C269.216 64.846 268.583 65.0627 268.063 65.496C267.56 65.9293 267.248 66.5447 267.127 67.342H272.691ZM284.033 63.91C284.553 63.1127 285.203 62.4887 285.983 62.038C286.763 61.57 287.629 61.336 288.583 61.336V66.042H287.361C286.251 66.042 285.419 66.2847 284.865 66.77C284.31 67.238 284.033 68.07 284.033 69.266V76H279.587V61.492H284.033V63.91ZM304.384 68.512C304.384 68.928 304.358 69.3613 304.306 69.812H294.244C294.313 70.7133 294.599 71.4067 295.102 71.892C295.622 72.36 296.254 72.594 297 72.594C298.109 72.594 298.88 72.126 299.314 71.19H304.046C303.803 72.1433 303.361 73.0013 302.72 73.764C302.096 74.5267 301.307 75.1247 300.354 75.558C299.4 75.9913 298.334 76.208 297.156 76.208C295.734 76.208 294.469 75.9047 293.36 75.298C292.25 74.6913 291.384 73.8247 290.76 72.698C290.136 71.5713 289.824 70.254 289.824 68.746C289.824 67.238 290.127 65.9207 290.734 64.794C291.358 63.6673 292.224 62.8007 293.334 62.194C294.443 61.5873 295.717 61.284 297.156 61.284C298.56 61.284 299.808 61.5787 300.9 62.168C301.992 62.7573 302.841 63.598 303.448 64.69C304.072 65.782 304.384 67.056 304.384 68.512ZM299.834 67.342C299.834 66.5793 299.574 65.9727 299.054 65.522C298.534 65.0713 297.884 64.846 297.104 64.846C296.358 64.846 295.726 65.0627 295.206 65.496C294.703 65.9293 294.391 66.5447 294.27 67.342H299.834ZM165.264 95.748L158.946 107.968V114H154.5V107.968L148.182 95.748H153.226L156.762 103.392L160.272 95.748H165.264ZM173.659 114.208C172.238 114.208 170.955 113.905 169.811 113.298C168.685 112.691 167.792 111.825 167.133 110.698C166.492 109.571 166.171 108.254 166.171 106.746C166.171 105.255 166.501 103.947 167.159 102.82C167.818 101.676 168.719 100.801 169.863 100.194C171.007 99.5873 172.29 99.284 173.711 99.284C175.133 99.284 176.415 99.5873 177.559 100.194C178.703 100.801 179.605 101.676 180.263 102.82C180.922 103.947 181.251 105.255 181.251 106.746C181.251 108.237 180.913 109.554 180.237 110.698C179.579 111.825 178.669 112.691 177.507 113.298C176.363 113.905 175.081 114.208 173.659 114.208ZM173.659 110.36C174.509 110.36 175.228 110.048 175.817 109.424C176.424 108.8 176.727 107.907 176.727 106.746C176.727 105.585 176.433 104.692 175.843 104.068C175.271 103.444 174.561 103.132 173.711 103.132C172.845 103.132 172.125 103.444 171.553 104.068C170.981 104.675 170.695 105.567 170.695 106.746C170.695 107.907 170.973 108.8 171.527 109.424C172.099 110.048 172.81 110.36 173.659 110.36ZM197.936 99.492V114H193.49V112.024C193.039 112.665 192.424 113.185 191.644 113.584C190.881 113.965 190.032 114.156 189.096 114.156C187.987 114.156 187.007 113.913 186.158 113.428C185.309 112.925 184.65 112.206 184.182 111.27C183.714 110.334 183.48 109.233 183.48 107.968V99.492H187.9V107.37C187.9 108.341 188.151 109.095 188.654 109.632C189.157 110.169 189.833 110.438 190.682 110.438C191.549 110.438 192.233 110.169 192.736 109.632C193.239 109.095 193.49 108.341 193.49 107.37V99.492H197.936ZM218.001 110.776H211.189L210.097 114H205.443L212.047 95.748H217.195L223.799 114H219.093L218.001 110.776ZM216.857 107.344L214.595 100.662L212.359 107.344H216.857ZM230.255 101.91C230.775 101.113 231.425 100.489 232.205 100.038C232.985 99.57 233.852 99.336 234.805 99.336V104.042H233.583C232.474 104.042 231.642 104.285 231.087 104.77C230.533 105.238 230.255 106.07 230.255 107.266V114H225.809V99.492H230.255V101.91ZM250.606 106.512C250.606 106.928 250.58 107.361 250.528 107.812H240.466C240.536 108.713 240.822 109.407 241.324 109.892C241.844 110.36 242.477 110.594 243.222 110.594C244.332 110.594 245.103 110.126 245.536 109.19H250.268C250.026 110.143 249.584 111.001 248.942 111.764C248.318 112.527 247.53 113.125 246.576 113.558C245.623 113.991 244.557 114.208 243.378 114.208C241.957 114.208 240.692 113.905 239.582 113.298C238.473 112.691 237.606 111.825 236.982 110.698C236.358 109.571 236.046 108.254 236.046 106.746C236.046 105.238 236.35 103.921 236.956 102.794C237.58 101.667 238.447 100.801 239.556 100.194C240.666 99.5873 241.94 99.284 243.378 99.284C244.782 99.284 246.03 99.5787 247.122 100.168C248.214 100.757 249.064 101.598 249.67 102.69C250.294 103.782 250.606 105.056 250.606 106.512ZM246.056 105.342C246.056 104.579 245.796 103.973 245.276 103.522C244.756 103.071 244.106 102.846 243.326 102.846C242.581 102.846 241.948 103.063 241.428 103.496C240.926 103.929 240.614 104.545 240.492 105.342H246.056Z" fill="white"/>
<path d="M154.528 138.624V139.98H152.296V147H150.616V139.98H148.384V138.624H154.528ZM155.322 143.652C155.322 142.98 155.454 142.384 155.718 141.864C155.99 141.344 156.354 140.944 156.81 140.664C157.274 140.384 157.79 140.244 158.358 140.244C158.854 140.244 159.286 140.344 159.654 140.544C160.03 140.744 160.33 140.996 160.554 141.3V140.352H162.246V147H160.554V146.028C160.338 146.34 160.038 146.6 159.654 146.808C159.278 147.008 158.842 147.108 158.346 147.108C157.786 147.108 157.274 146.964 156.81 146.676C156.354 146.388 155.99 145.984 155.718 145.464C155.454 144.936 155.322 144.332 155.322 143.652ZM160.554 143.676C160.554 143.268 160.474 142.92 160.314 142.632C160.154 142.336 159.938 142.112 159.666 141.96C159.394 141.8 159.102 141.72 158.79 141.72C158.478 141.72 158.19 141.796 157.926 141.948C157.662 142.1 157.446 142.324 157.278 142.62C157.118 142.908 157.038 143.252 157.038 143.652C157.038 144.052 157.118 144.404 157.278 144.708C157.446 145.004 157.662 145.232 157.926 145.392C158.198 145.552 158.486 145.632 158.79 145.632C159.102 145.632 159.394 145.556 159.666 145.404C159.938 145.244 160.154 145.02 160.314 144.732C160.474 144.436 160.554 144.084 160.554 143.676ZM167.823 147L165.567 144.168V147H163.887V138.12H165.567V143.172L167.799 140.352H169.983L167.055 143.688L170.007 147H167.823ZM177.074 143.532C177.074 143.772 177.058 143.988 177.026 144.18H172.166C172.206 144.66 172.374 145.036 172.67 145.308C172.966 145.58 173.33 145.716 173.762 145.716C174.386 145.716 174.83 145.448 175.094 144.912H176.906C176.714 145.552 176.346 146.08 175.802 146.496C175.258 146.904 174.59 147.108 173.798 147.108C173.158 147.108 172.582 146.968 172.07 146.688C171.566 146.4 171.17 145.996 170.882 145.476C170.602 144.956 170.462 144.356 170.462 143.676C170.462 142.988 170.602 142.384 170.882 141.864C171.162 141.344 171.554 140.944 172.058 140.664C172.562 140.384 173.142 140.244 173.798 140.244C174.43 140.244 174.994 140.38 175.49 140.652C175.994 140.924 176.382 141.312 176.654 141.816C176.934 142.312 177.074 142.884 177.074 143.532ZM175.334 143.052C175.326 142.62 175.17 142.276 174.866 142.02C174.562 141.756 174.19 141.624 173.75 141.624C173.334 141.624 172.982 141.752 172.694 142.008C172.414 142.256 172.242 142.604 172.178 143.052H175.334ZM180.728 143.676C180.728 142.988 180.868 142.388 181.148 141.876C181.428 141.356 181.816 140.956 182.312 140.676C182.808 140.388 183.376 140.244 184.016 140.244C184.84 140.244 185.52 140.452 186.056 140.868C186.6 141.276 186.964 141.852 187.148 142.596H185.336C185.24 142.308 185.076 142.084 184.844 141.924C184.62 141.756 184.34 141.672 184.004 141.672C183.524 141.672 183.144 141.848 182.864 142.2C182.584 142.544 182.444 143.036 182.444 143.676C182.444 144.308 182.584 144.8 182.864 145.152C183.144 145.496 183.524 145.668 184.004 145.668C184.684 145.668 185.128 145.364 185.336 144.756H187.148C186.964 145.476 186.6 146.048 186.056 146.472C185.512 146.896 184.832 147.108 184.016 147.108C183.376 147.108 182.808 146.968 182.312 146.688C181.816 146.4 181.428 146 181.148 145.488C180.868 144.968 180.728 144.364 180.728 143.676ZM190.059 138.12V147H188.379V138.12H190.059ZM191.287 143.652C191.287 142.98 191.419 142.384 191.683 141.864C191.955 141.344 192.319 140.944 192.775 140.664C193.239 140.384 193.755 140.244 194.323 140.244C194.819 140.244 195.251 140.344 195.619 140.544C195.995 140.744 196.295 140.996 196.519 141.3V140.352H198.211V147H196.519V146.028C196.303 146.34 196.003 146.6 195.619 146.808C195.243 147.008 194.807 147.108 194.311 147.108C193.751 147.108 193.239 146.964 192.775 146.676C192.319 146.388 191.955 145.984 191.683 145.464C191.419 144.936 191.287 144.332 191.287 143.652ZM196.519 143.676C196.519 143.268 196.439 142.92 196.279 142.632C196.119 142.336 195.903 142.112 195.631 141.96C195.359 141.8 195.067 141.72 194.755 141.72C194.443 141.72 194.155 141.796 193.891 141.948C193.627 142.1 193.411 142.324 193.243 142.62C193.083 142.908 193.003 143.252 193.003 143.652C193.003 144.052 193.083 144.404 193.243 144.708C193.411 145.004 193.627 145.232 193.891 145.392C194.163 145.552 194.451 145.632 194.755 145.632C195.067 145.632 195.359 145.556 195.631 145.404C195.903 145.244 196.119 145.02 196.279 144.732C196.439 144.436 196.519 144.084 196.519 143.676ZM202.395 147.108C201.851 147.108 201.363 147.012 200.931 146.82C200.499 146.62 200.155 146.352 199.899 146.016C199.651 145.68 199.515 145.308 199.491 144.9H201.183C201.215 145.156 201.339 145.368 201.555 145.536C201.779 145.704 202.055 145.788 202.383 145.788C202.703 145.788 202.951 145.724 203.127 145.596C203.311 145.468 203.403 145.304 203.403 145.104C203.403 144.888 203.291 144.728 203.067 144.624C202.851 144.512 202.503 144.392 202.023 144.264C201.527 144.144 201.119 144.02 200.799 143.892C200.487 143.764 200.215 143.568 199.983 143.304C199.759 143.04 199.647 142.684 199.647 142.236C199.647 141.868 199.751 141.532 199.959 141.228C200.175 140.924 200.479 140.684 200.871 140.508C201.271 140.332 201.739 140.244 202.275 140.244C203.067 140.244 203.699 140.444 204.171 140.844C204.643 141.236 204.903 141.768 204.951 142.44H203.343C203.319 142.176 203.207 141.968 203.007 141.816C202.815 141.656 202.555 141.576 202.227 141.576C201.923 141.576 201.687 141.632 201.519 141.744C201.359 141.856 201.279 142.012 201.279 142.212C201.279 142.436 201.391 142.608 201.615 142.728C201.839 142.84 202.187 142.956 202.659 143.076C203.139 143.196 203.535 143.32 203.847 143.448C204.159 143.576 204.427 143.776 204.651 144.048C204.883 144.312 205.003 144.664 205.011 145.104C205.011 145.488 204.903 145.832 204.687 146.136C204.479 146.44 204.175 146.68 203.775 146.856C203.383 147.024 202.923 147.108 202.395 147.108ZM208.935 147.108C208.391 147.108 207.903 147.012 207.471 146.82C207.039 146.62 206.695 146.352 206.439 146.016C206.191 145.68 206.055 145.308 206.031 144.9H207.723C207.755 145.156 207.879 145.368 208.095 145.536C208.319 145.704 208.595 145.788 208.923 145.788C209.243 145.788 209.491 145.724 209.667 145.596C209.851 145.468 209.943 145.304 209.943 145.104C209.943 144.888 209.831 144.728 209.607 144.624C209.391 144.512 209.043 144.392 208.562 144.264C208.067 144.144 207.659 144.02 207.339 143.892C207.027 143.764 206.755 143.568 206.523 143.304C206.299 143.04 206.187 142.684 206.187 142.236C206.187 141.868 206.291 141.532 206.499 141.228C206.715 140.924 207.019 140.684 207.411 140.508C207.811 140.332 208.279 140.244 208.815 140.244C209.607 140.244 210.239 140.444 210.711 140.844C211.183 141.236 211.443 141.768 211.491 142.44H209.883C209.859 142.176 209.747 141.968 209.547 141.816C209.355 141.656 209.095 141.576 208.767 141.576C208.463 141.576 208.227 141.632 208.059 141.744C207.899 141.856 207.819 142.012 207.819 142.212C207.819 142.436 207.931 142.608 208.155 142.728C208.379 142.84 208.727 142.956 209.199 143.076C209.679 143.196 210.075 143.32 210.387 143.448C210.699 143.576 210.967 143.776 211.191 144.048C211.423 144.312 211.543 144.664 211.551 145.104C211.551 145.488 211.443 145.832 211.227 146.136C211.019 146.44 210.715 146.68 210.315 146.856C209.923 147.024 209.463 147.108 208.935 147.108ZM219.11 143.532C219.11 143.772 219.094 143.988 219.062 144.18H214.202C214.242 144.66 214.41 145.036 214.706 145.308C215.002 145.58 215.366 145.716 215.798 145.716C216.422 145.716 216.866 145.448 217.13 144.912H218.942C218.75 145.552 218.382 146.08 217.838 146.496C217.294 146.904 216.626 147.108 215.834 147.108C215.194 147.108 214.618 146.968 214.106 146.688C213.602 146.4 213.206 145.996 212.918 145.476C212.638 144.956 212.498 144.356 212.498 143.676C212.498 142.988 212.638 142.384 212.918 141.864C213.198 141.344 213.59 140.944 214.094 140.664C214.598 140.384 215.178 140.244 215.834 140.244C216.466 140.244 217.03 140.38 217.526 140.652C218.03 140.924 218.418 141.312 218.69 141.816C218.97 142.312 219.11 142.884 219.11 143.532ZM217.37 143.052C217.362 142.62 217.206 142.276 216.902 142.02C216.598 141.756 216.226 141.624 215.786 141.624C215.37 141.624 215.018 141.752 214.73 142.008C214.45 142.256 214.278 142.604 214.214 143.052H217.37ZM222.88 147.108C222.336 147.108 221.848 147.012 221.416 146.82C220.984 146.62 220.64 146.352 220.384 146.016C220.136 145.68 220 145.308 219.976 144.9H221.668C221.7 145.156 221.824 145.368 222.04 145.536C222.264 145.704 222.54 145.788 222.868 145.788C223.188 145.788 223.436 145.724 223.612 145.596C223.796 145.468 223.888 145.304 223.888 145.104C223.888 144.888 223.776 144.728 223.552 144.624C223.336 144.512 222.988 144.392 222.508 144.264C222.012 144.144 221.604 144.02 221.284 143.892C220.972 143.764 220.7 143.568 220.468 143.304C220.244 143.04 220.132 142.684 220.132 142.236C220.132 141.868 220.236 141.532 220.444 141.228C220.66 140.924 220.964 140.684 221.356 140.508C221.756 140.332 222.224 140.244 222.76 140.244C223.552 140.244 224.184 140.444 224.656 140.844C225.128 141.236 225.388 141.768 225.436 142.44H223.828C223.804 142.176 223.692 141.968 223.492 141.816C223.3 141.656 223.04 141.576 222.712 141.576C222.408 141.576 222.172 141.632 222.004 141.744C221.844 141.856 221.764 142.012 221.764 142.212C221.764 142.436 221.876 142.608 222.1 142.728C222.324 142.84 222.672 142.956 223.144 143.076C223.624 143.196 224.02 143.32 224.332 143.448C224.644 143.576 224.912 143.776 225.136 144.048C225.368 144.312 225.488 144.664 225.496 145.104C225.496 145.488 225.388 145.832 225.172 146.136C224.964 146.44 224.66 146.68 224.26 146.856C223.868 147.024 223.408 147.108 222.88 147.108ZM229.302 143.652C229.302 142.98 229.434 142.384 229.698 141.864C229.97 141.344 230.334 140.944 230.79 140.664C231.254 140.384 231.77 140.244 232.338 140.244C232.834 140.244 233.266 140.344 233.634 140.544C234.01 140.744 234.31 140.996 234.534 141.3V140.352H236.226V147H234.534V146.028C234.318 146.34 234.018 146.6 233.634 146.808C233.258 147.008 232.822 147.108 232.326 147.108C231.766 147.108 231.254 146.964 230.79 146.676C230.334 146.388 229.97 145.984 229.698 145.464C229.434 144.936 229.302 144.332 229.302 143.652ZM234.534 143.676C234.534 143.268 234.454 142.92 234.294 142.632C234.134 142.336 233.918 142.112 233.646 141.96C233.374 141.8 233.082 141.72 232.77 141.72C232.458 141.72 232.17 141.796 231.906 141.948C231.642 142.1 231.426 142.324 231.258 142.62C231.098 142.908 231.018 143.252 231.018 143.652C231.018 144.052 231.098 144.404 231.258 144.708C231.426 145.004 231.642 145.232 231.906 145.392C232.178 145.552 232.466 145.632 232.77 145.632C233.082 145.632 233.374 145.556 233.646 145.404C233.918 145.244 234.134 145.02 234.294 144.732C234.454 144.436 234.534 144.084 234.534 143.676ZM239.823 141.732V144.948C239.823 145.172 239.875 145.336 239.979 145.44C240.091 145.536 240.275 145.584 240.531 145.584H241.311V147H240.255C238.839 147 238.131 146.312 238.131 144.936V141.732H237.339V140.352H238.131V138.708H239.823V140.352H241.311V141.732H239.823ZM251.739 140.352L247.623 150.144H245.835L247.275 146.832L244.611 140.352H246.495L248.211 144.996L249.951 140.352H251.739ZM255.596 147.108C254.956 147.108 254.38 146.968 253.868 146.688C253.356 146.4 252.952 145.996 252.656 145.476C252.368 144.956 252.224 144.356 252.224 143.676C252.224 142.996 252.372 142.396 252.668 141.876C252.972 141.356 253.384 140.956 253.904 140.676C254.424 140.388 255.004 140.244 255.644 140.244C256.284 140.244 256.864 140.388 257.384 140.676C257.904 140.956 258.312 141.356 258.608 141.876C258.912 142.396 259.064 142.996 259.064 143.676C259.064 144.356 258.908 144.956 258.596 145.476C258.292 145.996 257.876 146.4 257.348 146.688C256.828 146.968 256.244 147.108 255.596 147.108ZM255.596 145.644C255.9 145.644 256.184 145.572 256.448 145.428C256.72 145.276 256.936 145.052 257.096 144.756C257.256 144.46 257.336 144.1 257.336 143.676C257.336 143.044 257.168 142.56 256.832 142.224C256.504 141.88 256.1 141.708 255.62 141.708C255.14 141.708 254.736 141.88 254.408 142.224C254.088 142.56 253.928 143.044 253.928 143.676C253.928 144.308 254.084 144.796 254.396 145.14C254.716 145.476 255.116 145.644 255.596 145.644ZM266.573 140.352V147H264.881V146.16C264.665 146.448 264.381 146.676 264.029 146.844C263.685 147.004 263.309 147.084 262.901 147.084C262.381 147.084 261.921 146.976 261.521 146.76C261.121 146.536 260.805 146.212 260.573 145.788C260.349 145.356 260.237 144.844 260.237 144.252V140.352H261.917V144.012C261.917 144.54 262.049 144.948 262.313 145.236C262.577 145.516 262.937 145.656 263.393 145.656C263.857 145.656 264.221 145.516 264.485 145.236C264.749 144.948 264.881 144.54 264.881 144.012V140.352H266.573ZM269.91 141.384C270.126 141.032 270.406 140.756 270.75 140.556C271.102 140.356 271.502 140.256 271.95 140.256V142.02H271.506C270.978 142.02 270.578 142.144 270.306 142.392C270.042 142.64 269.91 143.072 269.91 143.688V147H268.23V140.352H269.91V141.384ZM278.893 147.108C278.253 147.108 277.677 146.968 277.165 146.688C276.653 146.4 276.249 145.996 275.953 145.476C275.665 144.956 275.521 144.356 275.521 143.676C275.521 142.996 275.669 142.396 275.965 141.876C276.269 141.356 276.681 140.956 277.201 140.676C277.721 140.388 278.301 140.244 278.941 140.244C279.581 140.244 280.161 140.388 280.681 140.676C281.201 140.956 281.609 141.356 281.905 141.876C282.209 142.396 282.361 142.996 282.361 143.676C282.361 144.356 282.205 144.956 281.893 145.476C281.589 145.996 281.173 146.4 280.645 146.688C280.125 146.968 279.541 147.108 278.893 147.108ZM278.893 145.644C279.197 145.644 279.481 145.572 279.745 145.428C280.017 145.276 280.233 145.052 280.393 144.756C280.553 144.46 280.633 144.1 280.633 143.676C280.633 143.044 280.465 142.56 280.129 142.224C279.801 141.88 279.397 141.708 278.917 141.708C278.437 141.708 278.033 141.88 277.705 142.224C277.385 142.56 277.225 143.044 277.225 143.676C277.225 144.308 277.381 144.796 277.693 145.14C278.013 145.476 278.413 145.644 278.893 145.644ZM292.81 140.352L290.866 147H289.054L287.842 142.356L286.63 147H284.806L282.85 140.352H284.554L285.73 145.416L287.002 140.352H288.778L290.026 145.404L291.202 140.352H292.81ZM297.403 140.256C298.195 140.256 298.835 140.508 299.323 141.012C299.811 141.508 300.055 142.204 300.055 143.1V147H298.375V143.328C298.375 142.8 298.243 142.396 297.979 142.116C297.715 141.828 297.355 141.684 296.899 141.684C296.435 141.684 296.067 141.828 295.795 142.116C295.531 142.396 295.399 142.8 295.399 143.328V147H293.719V140.352H295.399V141.18C295.623 140.892 295.907 140.668 296.251 140.508C296.603 140.34 296.987 140.256 297.403 140.256ZM306.192 141.312C306.408 141.008 306.704 140.756 307.08 140.556C307.464 140.348 307.9 140.244 308.388 140.244C308.956 140.244 309.468 140.384 309.924 140.664C310.388 140.944 310.752 141.344 311.016 141.864C311.288 142.376 311.424 142.972 311.424 143.652C311.424 144.332 311.288 144.936 311.016 145.464C310.752 145.984 310.388 146.388 309.924 146.676C309.468 146.964 308.956 147.108 308.388 147.108C307.9 147.108 307.468 147.008 307.092 146.808C306.724 146.608 306.424 146.356 306.192 146.052V150.168H304.512V140.352H306.192V141.312ZM309.708 143.652C309.708 143.252 309.624 142.908 309.456 142.62C309.296 142.324 309.08 142.1 308.808 141.948C308.544 141.796 308.256 141.72 307.944 141.72C307.64 141.72 307.352 141.8 307.08 141.96C306.816 142.112 306.6 142.336 306.432 142.632C306.272 142.928 306.192 143.276 306.192 143.676C306.192 144.076 306.272 144.424 306.432 144.72C306.6 145.016 306.816 145.244 307.08 145.404C307.352 145.556 307.64 145.632 307.944 145.632C308.256 145.632 308.544 145.552 308.808 145.392C309.08 145.232 309.296 145.004 309.456 144.708C309.624 144.412 309.708 144.06 309.708 143.652ZM312.212 143.652C312.212 142.98 312.344 142.384 312.608 141.864C312.88 141.344 313.244 140.944 313.7 140.664C314.164 140.384 314.68 140.244 315.248 140.244C315.744 140.244 316.176 140.344 316.544 140.544C316.92 140.744 317.22 140.996 317.444 141.3V140.352H319.136V147H317.444V146.028C317.228 146.34 316.928 146.6 316.544 146.808C316.168 147.008 315.732 147.108 315.236 147.108C314.676 147.108 314.164 146.964 313.7 146.676C313.244 146.388 312.88 145.984 312.608 145.464C312.344 144.936 312.212 144.332 312.212 143.652ZM317.444 143.676C317.444 143.268 317.364 142.92 317.204 142.632C317.044 142.336 316.828 142.112 316.556 141.96C316.284 141.8 315.992 141.72 315.68 141.72C315.368 141.72 315.08 141.796 314.816 141.948C314.552 142.1 314.336 142.324 314.168 142.62C314.008 142.908 313.928 143.252 313.928 143.652C313.928 144.052 314.008 144.404 314.168 144.708C314.336 145.004 314.552 145.232 314.816 145.392C315.088 145.552 315.376 145.632 315.68 145.632C315.992 145.632 316.284 145.556 316.556 145.404C316.828 145.244 317.044 145.02 317.204 144.732C317.364 144.436 317.444 144.084 317.444 143.676ZM320.345 143.676C320.345 142.988 320.485 142.388 320.765 141.876C321.045 141.356 321.433 140.956 321.929 140.676C322.425 140.388 322.993 140.244 323.633 140.244C324.457 140.244 325.137 140.452 325.673 140.868C326.217 141.276 326.581 141.852 326.765 142.596H324.953C324.857 142.308 324.693 142.084 324.461 141.924C324.237 141.756 323.957 141.672 323.621 141.672C323.141 141.672 322.761 141.848 322.481 142.2C322.201 142.544 322.061 143.036 322.061 143.676C322.061 144.308 322.201 144.8 322.481 145.152C322.761 145.496 323.141 145.668 323.621 145.668C324.301 145.668 324.745 145.364 324.953 144.756H326.765C326.581 145.476 326.217 146.048 325.673 146.472C325.129 146.896 324.449 147.108 323.633 147.108C322.993 147.108 322.425 146.968 321.929 146.688C321.433 146.4 321.045 146 320.765 145.488C320.485 144.968 320.345 144.364 320.345 143.676ZM334.176 143.532C334.176 143.772 334.16 143.988 334.128 144.18H329.268C329.308 144.66 329.476 145.036 329.772 145.308C330.068 145.58 330.432 145.716 330.864 145.716C331.488 145.716 331.932 145.448 332.196 144.912H334.008C333.816 145.552 333.448 146.08 332.904 146.496C332.36 146.904 331.692 147.108 330.9 147.108C330.26 147.108 329.684 146.968 329.172 146.688C328.668 146.4 328.272 145.996 327.984 145.476C327.704 144.956 327.564 144.356 327.564 143.676C327.564 142.988 327.704 142.384 327.984 141.864C328.264 141.344 328.656 140.944 329.16 140.664C329.664 140.384 330.244 140.244 330.9 140.244C331.532 140.244 332.096 140.38 332.592 140.652C333.096 140.924 333.484 141.312 333.756 141.816C334.036 142.312 334.176 142.884 334.176 143.532ZM332.436 143.052C332.428 142.62 332.272 142.276 331.968 142.02C331.664 141.756 331.292 141.624 330.852 141.624C330.436 141.624 330.084 141.752 329.796 142.008C329.516 142.256 329.344 142.604 329.28 143.052H332.436ZM337.238 145.236L335.834 148.608H334.754L335.534 145.236H337.238ZM344.26 147.108C343.62 147.108 343.044 146.968 342.532 146.688C342.02 146.4 341.616 145.996 341.32 145.476C341.032 144.956 340.888 144.356 340.888 143.676C340.888 142.996 341.036 142.396 341.332 141.876C341.636 141.356 342.048 140.956 342.568 140.676C343.088 140.388 343.668 140.244 344.308 140.244C344.948 140.244 345.528 140.388 346.048 140.676C346.568 140.956 346.976 141.356 347.272 141.876C347.576 142.396 347.728 142.996 347.728 143.676C347.728 144.356 347.572 144.956 347.26 145.476C346.956 145.996 346.54 146.4 346.012 146.688C345.492 146.968 344.908 147.108 344.26 147.108ZM344.26 145.644C344.564 145.644 344.848 145.572 345.112 145.428C345.384 145.276 345.6 145.052 345.76 144.756C345.92 144.46 346 144.1 346 143.676C346 143.044 345.832 142.56 345.496 142.224C345.168 141.88 344.764 141.708 344.284 141.708C343.804 141.708 343.4 141.88 343.072 142.224C342.752 142.56 342.592 143.044 342.592 143.676C342.592 144.308 342.748 144.796 343.06 145.14C343.38 145.476 343.78 145.644 344.26 145.644ZM352.645 140.256C353.437 140.256 354.077 140.508 354.565 141.012C355.053 141.508 355.297 142.204 355.297 143.1V147H353.617V143.328C353.617 142.8 353.485 142.396 353.221 142.116C352.957 141.828 352.597 141.684 352.141 141.684C351.677 141.684 351.309 141.828 351.037 142.116C350.773 142.396 350.641 142.8 350.641 143.328V147H348.961V140.352H350.641V141.18C350.865 140.892 351.149 140.668 351.493 140.508C351.845 140.34 352.229 140.256 352.645 140.256ZM155.188 158.352L151.072 168.144H149.284L150.724 164.832L148.06 158.352H149.944L151.66 162.996L153.4 158.352H155.188ZM159.046 165.108C158.406 165.108 157.83 164.968 157.318 164.688C156.806 164.4 156.402 163.996 156.106 163.476C155.818 162.956 155.674 162.356 155.674 161.676C155.674 160.996 155.822 160.396 156.118 159.876C156.422 159.356 156.834 158.956 157.354 158.676C157.874 158.388 158.454 158.244 159.094 158.244C159.734 158.244 160.314 158.388 160.834 158.676C161.354 158.956 161.762 159.356 162.058 159.876C162.362 160.396 162.514 160.996 162.514 161.676C162.514 162.356 162.358 162.956 162.046 163.476C161.742 163.996 161.326 164.4 160.798 164.688C160.278 164.968 159.694 165.108 159.046 165.108ZM159.046 163.644C159.35 163.644 159.634 163.572 159.898 163.428C160.17 163.276 160.386 163.052 160.546 162.756C160.706 162.46 160.786 162.1 160.786 161.676C160.786 161.044 160.618 160.56 160.282 160.224C159.954 159.88 159.55 159.708 159.07 159.708C158.59 159.708 158.186 159.88 157.858 160.224C157.538 160.56 157.378 161.044 157.378 161.676C157.378 162.308 157.534 162.796 157.846 163.14C158.166 163.476 158.566 163.644 159.046 163.644ZM170.022 158.352V165H168.33V164.16C168.114 164.448 167.83 164.676 167.478 164.844C167.134 165.004 166.758 165.084 166.35 165.084C165.83 165.084 165.37 164.976 164.97 164.76C164.57 164.536 164.254 164.212 164.022 163.788C163.798 163.356 163.686 162.844 163.686 162.252V158.352H165.366V162.012C165.366 162.54 165.498 162.948 165.762 163.236C166.026 163.516 166.386 163.656 166.842 163.656C167.306 163.656 167.67 163.516 167.934 163.236C168.198 162.948 168.33 162.54 168.33 162.012V158.352H170.022ZM173.36 159.384C173.576 159.032 173.856 158.756 174.2 158.556C174.552 158.356 174.952 158.256 175.4 158.256V160.02H174.956C174.428 160.02 174.028 160.144 173.756 160.392C173.492 160.64 173.36 161.072 173.36 161.688V165H171.68V158.352H173.36V159.384ZM182.343 165.108C181.703 165.108 181.127 164.968 180.615 164.688C180.103 164.4 179.699 163.996 179.403 163.476C179.115 162.956 178.971 162.356 178.971 161.676C178.971 160.996 179.119 160.396 179.415 159.876C179.719 159.356 180.131 158.956 180.651 158.676C181.171 158.388 181.751 158.244 182.391 158.244C183.031 158.244 183.611 158.388 184.131 158.676C184.651 158.956 185.059 159.356 185.355 159.876C185.659 160.396 185.811 160.996 185.811 161.676C185.811 162.356 185.655 162.956 185.342 163.476C185.039 163.996 184.623 164.4 184.095 164.688C183.575 164.968 182.991 165.108 182.343 165.108ZM182.343 163.644C182.647 163.644 182.931 163.572 183.195 163.428C183.467 163.276 183.683 163.052 183.843 162.756C184.003 162.46 184.083 162.1 184.083 161.676C184.083 161.044 183.915 160.56 183.579 160.224C183.251 159.88 182.847 159.708 182.367 159.708C181.887 159.708 181.483 159.88 181.155 160.224C180.835 160.56 180.675 161.044 180.675 161.676C180.675 162.308 180.831 162.796 181.143 163.14C181.463 163.476 181.863 163.644 182.343 163.644ZM196.259 158.352L194.315 165H192.503L191.291 160.356L190.079 165H188.255L186.299 158.352H188.003L189.179 163.416L190.451 158.352H192.227L193.475 163.404L194.651 158.352H196.259ZM200.852 158.256C201.644 158.256 202.284 158.508 202.772 159.012C203.26 159.508 203.504 160.204 203.504 161.1V165H201.824V161.328C201.824 160.8 201.692 160.396 201.428 160.116C201.164 159.828 200.804 159.684 200.348 159.684C199.884 159.684 199.516 159.828 199.244 160.116C198.98 160.396 198.848 160.8 198.848 161.328V165H197.168V158.352H198.848V159.18C199.072 158.892 199.356 158.668 199.7 158.508C200.052 158.34 200.436 158.256 200.852 158.256ZM209.917 159.732V162.948C209.917 163.172 209.969 163.336 210.073 163.44C210.185 163.536 210.369 163.584 210.625 163.584H211.405V165H210.349C208.933 165 208.225 164.312 208.225 162.936V159.732H207.433V158.352H208.225V156.708H209.917V158.352H211.405V159.732H209.917ZM213.465 157.56C213.169 157.56 212.921 157.468 212.721 157.284C212.529 157.092 212.433 156.856 212.433 156.576C212.433 156.296 212.529 156.064 212.721 155.88C212.921 155.688 213.169 155.592 213.465 155.592C213.761 155.592 214.005 155.688 214.197 155.88C214.397 156.064 214.497 156.296 214.497 156.576C214.497 156.856 214.397 157.092 214.197 157.284C214.005 157.468 213.761 157.56 213.465 157.56ZM214.293 158.352V165H212.613V158.352H214.293ZM224.209 158.256C225.025 158.256 225.681 158.508 226.177 159.012C226.681 159.508 226.933 160.204 226.933 161.1V165H225.253V161.328C225.253 160.808 225.121 160.412 224.857 160.14C224.593 159.86 224.233 159.72 223.777 159.72C223.321 159.72 222.957 159.86 222.685 160.14C222.421 160.412 222.289 160.808 222.289 161.328V165H220.609V161.328C220.609 160.808 220.477 160.412 220.213 160.14C219.949 159.86 219.589 159.72 219.133 159.72C218.669 159.72 218.301 159.86 218.029 160.14C217.765 160.412 217.633 160.808 217.633 161.328V165H215.953V158.352H217.633V159.156C217.849 158.876 218.125 158.656 218.461 158.496C218.805 158.336 219.181 158.256 219.589 158.256C220.109 158.256 220.573 158.368 220.981 158.592C221.389 158.808 221.705 159.12 221.929 159.528C222.145 159.144 222.457 158.836 222.865 158.604C223.281 158.372 223.729 158.256 224.209 158.256ZM234.707 161.532C234.707 161.772 234.691 161.988 234.659 162.18H229.799C229.839 162.66 230.007 163.036 230.303 163.308C230.599 163.58 230.963 163.716 231.395 163.716C232.019 163.716 232.463 163.448 232.727 162.912H234.539C234.347 163.552 233.979 164.08 233.435 164.496C232.891 164.904 232.223 165.108 231.431 165.108C230.791 165.108 230.215 164.968 229.703 164.688C229.199 164.4 228.803 163.996 228.515 163.476C228.235 162.956 228.095 162.356 228.095 161.676C228.095 160.988 228.235 160.384 228.515 159.864C228.795 159.344 229.187 158.944 229.691 158.664C230.195 158.384 230.775 158.244 231.431 158.244C232.063 158.244 232.627 158.38 233.123 158.652C233.627 158.924 234.015 159.312 234.287 159.816C234.567 160.312 234.707 160.884 234.707 161.532ZM232.967 161.052C232.959 160.62 232.803 160.276 232.499 160.02C232.195 159.756 231.823 159.624 231.383 159.624C230.967 159.624 230.615 159.752 230.327 160.008C230.047 160.256 229.875 160.604 229.811 161.052H232.967ZM237.769 163.236L236.365 166.608H235.285L236.065 163.236H237.769ZM241.408 161.652C241.408 160.98 241.54 160.384 241.804 159.864C242.076 159.344 242.44 158.944 242.896 158.664C243.36 158.384 243.876 158.244 244.444 158.244C244.94 158.244 245.372 158.344 245.74 158.544C246.116 158.744 246.416 158.996 246.64 159.3V158.352H248.332V165H246.64V164.028C246.424 164.34 246.124 164.6 245.74 164.808C245.364 165.008 244.928 165.108 244.432 165.108C243.872 165.108 243.36 164.964 242.896 164.676C242.44 164.388 242.076 163.984 241.804 163.464C241.54 162.936 241.408 162.332 241.408 161.652ZM246.64 161.676C246.64 161.268 246.56 160.92 246.4 160.632C246.24 160.336 246.024 160.112 245.752 159.96C245.48 159.8 245.188 159.72 244.876 159.72C244.564 159.72 244.276 159.796 244.012 159.948C243.748 160.1 243.532 160.324 243.364 160.62C243.204 160.908 243.124 161.252 243.124 161.652C243.124 162.052 243.204 162.404 243.364 162.708C243.532 163.004 243.748 163.232 244.012 163.392C244.284 163.552 244.572 163.632 244.876 163.632C245.188 163.632 245.48 163.556 245.752 163.404C246.024 163.244 246.24 163.02 246.4 162.732C246.56 162.436 246.64 162.084 246.64 161.676ZM253.657 158.256C254.449 158.256 255.089 158.508 255.577 159.012C256.065 159.508 256.309 160.204 256.309 161.1V165H254.629V161.328C254.629 160.8 254.497 160.396 254.233 160.116C253.969 159.828 253.609 159.684 253.153 159.684C252.689 159.684 252.321 159.828 252.049 160.116C251.785 160.396 251.653 160.8 251.653 161.328V165H249.973V158.352H251.653V159.18C251.877 158.892 252.161 158.668 252.505 158.508C252.857 158.34 253.241 158.256 253.657 158.256ZM257.474 161.652C257.474 160.98 257.606 160.384 257.87 159.864C258.142 159.344 258.51 158.944 258.974 158.664C259.438 158.384 259.954 158.244 260.522 158.244C260.954 158.244 261.366 158.34 261.758 158.532C262.15 158.716 262.462 158.964 262.694 159.276V156.12H264.398V165H262.694V164.016C262.486 164.344 262.194 164.608 261.818 164.808C261.442 165.008 261.006 165.108 260.51 165.108C259.95 165.108 259.438 164.964 258.974 164.676C258.51 164.388 258.142 163.984 257.87 163.464C257.606 162.936 257.474 162.332 257.474 161.652ZM262.706 161.676C262.706 161.268 262.626 160.92 262.466 160.632C262.306 160.336 262.09 160.112 261.818 159.96C261.546 159.8 261.254 159.72 260.942 159.72C260.63 159.72 260.342 159.796 260.078 159.948C259.814 160.1 259.598 160.324 259.43 160.62C259.27 160.908 259.19 161.252 259.19 161.652C259.19 162.052 259.27 162.404 259.43 162.708C259.598 163.004 259.814 163.232 260.078 163.392C260.35 163.552 260.638 163.632 260.942 163.632C261.254 163.632 261.546 163.556 261.818 163.404C262.09 163.244 262.306 163.02 262.466 162.732C262.626 162.436 262.706 162.084 262.706 161.676ZM271.85 165.108C271.21 165.108 270.634 164.968 270.122 164.688C269.61 164.4 269.206 163.996 268.91 163.476C268.622 162.956 268.478 162.356 268.478 161.676C268.478 160.996 268.626 160.396 268.922 159.876C269.226 159.356 269.638 158.956 270.158 158.676C270.678 158.388 271.258 158.244 271.898 158.244C272.538 158.244 273.118 158.388 273.638 158.676C274.158 158.956 274.566 159.356 274.862 159.876C275.166 160.396 275.318 160.996 275.318 161.676C275.318 162.356 275.162 162.956 274.85 163.476C274.546 163.996 274.13 164.4 273.602 164.688C273.082 164.968 272.498 165.108 271.85 165.108ZM271.85 163.644C272.154 163.644 272.438 163.572 272.702 163.428C272.974 163.276 273.19 163.052 273.35 162.756C273.51 162.46 273.59 162.1 273.59 161.676C273.59 161.044 273.422 160.56 273.086 160.224C272.758 159.88 272.354 159.708 271.874 159.708C271.394 159.708 270.99 159.88 270.662 160.224C270.342 160.56 270.182 161.044 270.182 161.676C270.182 162.308 270.338 162.796 270.65 163.14C270.97 163.476 271.37 163.644 271.85 163.644ZM280.235 158.256C281.027 158.256 281.667 158.508 282.155 159.012C282.643 159.508 282.887 160.204 282.887 161.1V165H281.207V161.328C281.207 160.8 281.075 160.396 280.811 160.116C280.547 159.828 280.187 159.684 279.731 159.684C279.267 159.684 278.899 159.828 278.627 160.116C278.363 160.396 278.231 160.8 278.231 161.328V165H276.551V158.352H278.231V159.18C278.455 158.892 278.739 158.668 279.083 158.508C279.435 158.34 279.819 158.256 280.235 158.256ZM286.912 161.652C286.912 160.98 287.044 160.384 287.308 159.864C287.58 159.344 287.944 158.944 288.4 158.664C288.864 158.384 289.38 158.244 289.948 158.244C290.444 158.244 290.876 158.344 291.244 158.544C291.62 158.744 291.92 158.996 292.144 159.3V158.352H293.836V165H292.144V164.028C291.928 164.34 291.628 164.6 291.244 164.808C290.868 165.008 290.432 165.108 289.936 165.108C289.376 165.108 288.864 164.964 288.4 164.676C287.944 164.388 287.58 163.984 287.308 163.464C287.044 162.936 286.912 162.332 286.912 161.652ZM292.144 161.676C292.144 161.268 292.064 160.92 291.904 160.632C291.744 160.336 291.528 160.112 291.256 159.96C290.984 159.8 290.692 159.72 290.38 159.72C290.068 159.72 289.78 159.796 289.516 159.948C289.252 160.1 289.036 160.324 288.868 160.62C288.708 160.908 288.628 161.252 288.628 161.652C288.628 162.052 288.708 162.404 288.868 162.708C289.036 163.004 289.252 163.232 289.516 163.392C289.788 163.552 290.076 163.632 290.38 163.632C290.692 163.632 290.984 163.556 291.256 163.404C291.528 163.244 291.744 163.02 291.904 162.732C292.064 162.436 292.144 162.084 292.144 161.676ZM299.16 158.256C299.952 158.256 300.592 158.508 301.08 159.012C301.568 159.508 301.812 160.204 301.812 161.1V165H300.132V161.328C300.132 160.8 300 160.396 299.736 160.116C299.472 159.828 299.112 159.684 298.656 159.684C298.192 159.684 297.824 159.828 297.552 160.116C297.288 160.396 297.156 160.8 297.156 161.328V165H295.476V158.352H297.156V159.18C297.38 158.892 297.664 158.668 298.008 158.508C298.36 158.34 298.744 158.256 299.16 158.256ZM309.77 158.352L305.654 168.144H303.866L305.306 164.832L302.642 158.352H304.526L306.242 162.996L307.982 158.352H309.77ZM313.103 161.652C313.103 160.98 313.235 160.384 313.499 159.864C313.771 159.344 314.139 158.944 314.603 158.664C315.067 158.384 315.583 158.244 316.151 158.244C316.583 158.244 316.995 158.34 317.387 158.532C317.779 158.716 318.091 158.964 318.323 159.276V156.12H320.027V165H318.323V164.016C318.115 164.344 317.823 164.608 317.447 164.808C317.071 165.008 316.635 165.108 316.139 165.108C315.579 165.108 315.067 164.964 314.603 164.676C314.139 164.388 313.771 163.984 313.499 163.464C313.235 162.936 313.103 162.332 313.103 161.652ZM318.335 161.676C318.335 161.268 318.255 160.92 318.095 160.632C317.935 160.336 317.719 160.112 317.447 159.96C317.175 159.8 316.883 159.72 316.571 159.72C316.259 159.72 315.971 159.796 315.707 159.948C315.443 160.1 315.227 160.324 315.059 160.62C314.899 160.908 314.819 161.252 314.819 161.652C314.819 162.052 314.899 162.404 315.059 162.708C315.227 163.004 315.443 163.232 315.707 163.392C315.979 163.552 316.267 163.632 316.571 163.632C316.883 163.632 317.175 163.556 317.447 163.404C317.719 163.244 317.935 163.02 318.095 162.732C318.255 162.436 318.335 162.084 318.335 161.676ZM327.848 161.532C327.848 161.772 327.832 161.988 327.8 162.18H322.94C322.98 162.66 323.148 163.036 323.444 163.308C323.74 163.58 324.104 163.716 324.536 163.716C325.16 163.716 325.604 163.448 325.868 162.912H327.68C327.488 163.552 327.12 164.08 326.576 164.496C326.032 164.904 325.364 165.108 324.572 165.108C323.932 165.108 323.356 164.968 322.844 164.688C322.34 164.4 321.944 163.996 321.656 163.476C321.376 162.956 321.236 162.356 321.236 161.676C321.236 160.988 321.376 160.384 321.656 159.864C321.936 159.344 322.328 158.944 322.832 158.664C323.336 158.384 323.916 158.244 324.572 158.244C325.204 158.244 325.768 158.38 326.264 158.652C326.768 158.924 327.156 159.312 327.428 159.816C327.708 160.312 327.848 160.884 327.848 161.532ZM326.108 161.052C326.1 160.62 325.944 160.276 325.64 160.02C325.336 159.756 324.964 159.624 324.524 159.624C324.108 159.624 323.756 159.752 323.468 160.008C323.188 160.256 323.016 160.604 322.952 161.052H326.108ZM331.846 163.452L333.526 158.352H335.314L332.854 165H330.814L328.366 158.352H330.166L331.846 163.452ZM337.11 157.56C336.814 157.56 336.566 157.468 336.366 157.284C336.174 157.092 336.078 156.856 336.078 156.576C336.078 156.296 336.174 156.064 336.366 155.88C336.566 155.688 336.814 155.592 337.11 155.592C337.406 155.592 337.65 155.688 337.842 155.88C338.042 156.064 338.142 156.296 338.142 156.576C338.142 156.856 338.042 157.092 337.842 157.284C337.65 157.468 337.406 157.56 337.11 157.56ZM337.938 158.352V165H336.258V158.352H337.938ZM339.166 161.676C339.166 160.988 339.306 160.388 339.586 159.876C339.866 159.356 340.254 158.956 340.75 158.676C341.246 158.388 341.814 158.244 342.454 158.244C343.278 158.244 343.958 158.452 344.494 158.868C345.038 159.276 345.402 159.852 345.586 160.596H343.774C343.678 160.308 343.514 160.084 343.282 159.924C343.058 159.756 342.778 159.672 342.442 159.672C341.962 159.672 341.582 159.848 341.302 160.2C341.022 160.544 340.882 161.036 340.882 161.676C340.882 162.308 341.022 162.8 341.302 163.152C341.582 163.496 341.962 163.668 342.442 163.668C343.122 163.668 343.566 163.364 343.774 162.756H345.586C345.402 163.476 345.038 164.048 344.494 164.472C343.95 164.896 343.27 165.108 342.454 165.108C341.814 165.108 341.246 164.968 340.75 164.688C340.254 164.4 339.866 164 339.586 163.488C339.306 162.968 339.166 162.364 339.166 161.676ZM352.996 161.532C352.996 161.772 352.98 161.988 352.948 162.18H348.088C348.128 162.66 348.296 163.036 348.592 163.308C348.888 163.58 349.252 163.716 349.684 163.716C350.308 163.716 350.752 163.448 351.016 162.912H352.828C352.636 163.552 352.268 164.08 351.724 164.496C351.18 164.904 350.512 165.108 349.72 165.108C349.08 165.108 348.504 164.968 347.992 164.688C347.488 164.4 347.092 163.996 346.804 163.476C346.524 162.956 346.384 162.356 346.384 161.676C346.384 160.988 346.524 160.384 346.804 159.864C347.084 159.344 347.476 158.944 347.98 158.664C348.484 158.384 349.064 158.244 349.72 158.244C350.352 158.244 350.916 158.38 351.412 158.652C351.916 158.924 352.304 159.312 352.576 159.816C352.856 160.312 352.996 160.884 352.996 161.532ZM351.256 161.052C351.248 160.62 351.092 160.276 350.788 160.02C350.484 159.756 350.112 159.624 349.672 159.624C349.256 159.624 348.904 159.752 348.616 160.008C348.336 160.256 348.164 160.604 348.1 161.052H351.256Z" fill="white"/>
<path d="M43.6964 70.3922C43.6964 70.3922 36.5127 74.5675 31.6326 77.4698C27.4649 79.9477 28.7303 69.9375 28.7303 69.9375L25.9796 70.6347C25.9796 70.6347 18.705 88.0938 28.6925 85.3734C38.6724 82.653 52.0395 72.9383 43.6964 70.3922Z" fill="#08A872"/>
<path d="M62.9761 125.93C56.6866 118.39 50.5107 111.471 43.5847 105.712C43.4937 105.637 43.4028 105.576 43.3195 105.5C40.0383 97.4981 28.3913 100.469 26.9288 106.463C26.7621 107.152 26.6787 107.917 26.656 108.743C26.459 109.865 26.4287 111.146 26.6105 112.585C26.7848 113.965 27.1107 115.116 27.5805 116.086C28.8763 122.088 31.1041 128.885 31.3921 133.788C31.8543 141.737 18.3887 156.476 18.3887 156.476L20.1619 160.113C20.1619 160.113 33.8018 150.997 38.6061 145.056C41.0992 141.972 42.4329 131.931 43.1376 122.997C61.0438 128.749 66.1512 160.257 66.1512 160.257L70.319 157.953C70.3114 157.953 69.2657 133.462 62.9761 125.93Z" fill="#292952"/>
<path d="M49.4863 70.4905L55.9274 74.1506L60.0648 66.9062L54.3436 64.7617L49.4863 70.4905Z" fill="#FF8B66"/>
<path d="M45.0694 69.5665C56.0041 66.5657 56.7467 73.8479 57.1483 78.3794C57.6182 83.699 56.1026 88.1471 54.2612 92.0118C51.4347 97.9451 49.0477 102.924 46.9108 105.5C43.372 109.751 26.61 106.766 26.3524 103.356C26.0872 99.9533 33.7331 72.681 45.0694 69.5665Z" fill="#3BC36A"/>
<path d="M48.4878 78.5303C43.2137 82.9936 39.5082 92.5567 40.2281 94.633C42.6227 101.544 59.5059 107.303 59.5059 107.303L61.1502 104.696C61.1502 104.696 51.4431 98.6947 50.9657 93.0795C50.7839 90.9426 55.0956 84.6758 55.4821 82.0312C56.111 77.7119 53.0269 74.6884 48.4878 78.5303Z" fill="#08A872"/>
<path d="M25.9893 70.6874C25.9893 70.6874 24.8981 68.0958 25.5574 66.3681C26.2166 64.6479 27.3078 64.6176 28.149 64.4054C28.9977 64.1932 30.7557 66.4893 30.3238 66.9743C29.5584 67.8381 29.278 69.9447 28.2399 70.3994C27.2093 70.8616 25.9893 70.6874 25.9893 70.6874Z" fill="#FF8B66"/>
<path d="M27.5352 67.3305C27.5352 67.3305 29.0961 64.7086 30.0509 65.5952C30.6723 66.1711 28.9749 68.3535 28.9749 68.3535" fill="#FF8B66"/>
<path d="M64.3478 63.2612C64.3251 60.0407 61.6956 57.4491 58.4751 57.4718C55.2545 57.4946 52.663 60.124 52.6857 63.3446C52.7084 66.5651 58.4069 71.0739 61.6274 71.0512C62.8626 71.0436 63.5521 70.3616 63.931 69.3537C63.3475 69.1264 62.6959 68.0125 62.6959 68.0125L64.2644 67.9443C64.3251 67.5124 64.3554 67.0577 64.3705 66.5954C64.8707 66.603 65.4346 66.6014 65.3317 66.2279C64.8863 64.6105 64.3478 63.2612 64.3478 63.2612Z" fill="#FF8B66"/>
<path d="M61.9779 62.8376C61.9509 62.8416 61.9217 62.8313 61.8914 62.8138C61.8377 62.7777 61.8259 62.6988 61.8591 62.6425C62.1806 62.1545 62.8321 62.0724 62.8524 62.0694C62.9133 62.0604 62.9759 62.1098 62.9787 62.1754C62.9883 62.24 62.936 62.3065 62.8808 62.3073C62.8741 62.3083 62.3105 62.3773 62.0448 62.7763C62.0366 62.8142 62.0117 62.8326 61.9779 62.8376Z" fill="#8B383E"/>
<path d="M63.1178 63.7395C63.1648 64.0556 63.0381 64.336 62.8387 64.3656C62.6393 64.3952 62.4366 64.1638 62.3897 63.8476C62.3427 63.5315 62.4694 63.2511 62.6688 63.2215C62.867 63.1843 63.0709 63.4233 63.1178 63.7395Z" fill="#1A4850"/>
<path d="M57.2153 63.4583C56.2302 64.163 57.1622 65.9665 57.5639 66.2848C57.973 66.6031 53.9796 66.4439 53.5628 66.0499C53.146 65.6559 52.3049 63.5038 52.123 62.0489C51.9412 60.5939 52.464 58.2373 53.7144 58.0781C54.9647 57.919 54.9647 57.919 54.9647 57.919C54.9647 57.919 54.9874 55.7897 58.0867 56.017C61.186 56.2443 63.5882 59.0557 65.5205 58.4873C67.4604 57.919 66.7178 60.1847 65.8691 60.6167C65.0204 61.0486 60.9359 60.7834 59.8144 61.0031C58.6929 61.2229 58.6475 62.5035 59.231 62.8748C59.8144 63.2461 59.625 65.08 58.9506 64.8754C58.2686 64.6783 58.4505 62.5717 57.2153 63.4583Z" fill="#292952"/>
<path d="M61.1424 104.696C61.1424 104.696 64.8479 104.181 65.2495 104.787C65.6512 105.394 65.9846 106.28 65.9846 106.28C65.9846 106.28 66.8484 107.978 66.8712 108.137C66.8939 108.296 64.9919 110.554 63.7491 110.713C62.514 110.865 59.498 107.311 59.498 107.311L61.1424 104.696Z" fill="#FF8B66"/>
<path d="M18.3803 156.468C18.3803 156.468 13.4775 157.832 14.0459 159.726C14.6066 161.621 20.4945 171.153 21.1993 169.759C21.904 168.365 20.1611 160.105 20.1611 160.105L18.3803 156.468Z" fill="#6099AF"/>
<path d="M66.142 160.256C66.142 160.256 65.8313 165.068 67.1271 164.909C68.4229 164.75 81.1914 159.438 78.4483 158.475C75.7051 157.505 70.3174 157.96 70.3174 157.96L66.142 160.256Z" fill="#6099AF"/>
<path d="M131.873 77.3941C131.873 77.3941 131.176 74.4919 131.297 74.0902C131.411 73.6886 131.616 72.6656 131.896 72.2413C132.176 71.8169 133.381 71.726 134.442 71.7563C135.495 71.7942 137.178 74.1281 136.89 74.939C136.602 75.7498 133.919 77.4699 133.919 77.4699L131.873 77.3941Z" fill="#FF8B66"/>
<path d="M91.2333 65.4293C91.2333 65.4293 86.0501 63.603 83.1706 65.0049C76.1687 68.4149 76.5703 73.7269 79.1922 76.6595C82.1855 80.0013 68.3485 81.4486 72.5693 90.0721C76.7901 98.6956 68.0302 95.1113 69.9247 98.6956C71.8191 102.28 87.3686 101.742 96.2119 90.0569C105.048 78.372 103.373 87.0865 106.086 81.3122C107.753 77.7658 104.532 71.0141 97.538 65.505C94.7494 63.3075 91.2333 65.4293 91.2333 65.4293Z" fill="#292952"/>
<path d="M92.4919 72.6813C91.1128 74.212 94.5834 84.1995 94.5834 84.1995L100.289 82.6687C100.289 82.6687 94.5 70.4459 92.4919 72.6813Z" fill="#FF8B66"/>
<path d="M51.1621 149.186L53.7613 152.368C53.7613 152.368 88.9826 122.088 98.576 120.231C101.44 119.678 94.234 129.415 95.1055 133.553C96.3558 139.532 106.889 157.968 106.889 157.968L110.412 155.566C110.412 155.566 101.531 136.417 103.82 133.341C106.98 129.089 118.407 115.609 111.269 105.485C104.131 95.3609 51.1621 149.186 51.1621 149.186Z" fill="#8BBDDB"/>
<path d="M65.2422 107.138C65.2422 107.138 71.3196 105.463 77.1696 100.954C82.9969 96.4607 88.0739 82.8738 97.3567 80.2064C106.647 77.5466 115.74 87.5644 123.515 82.3888C131.29 77.2132 131.866 75.7734 131.866 75.7734L133.654 77.1905C133.654 77.1905 134.238 84.8895 125.015 91.035C118.552 95.3468 110.489 92.202 110.489 92.202L113.603 104.925C113.603 104.925 107.594 109.047 102.123 109.191C98.1523 109.297 94.6742 109.032 94.6742 109.032L91.7491 96.0742C91.7491 96.0742 87.9527 102.311 80.5417 106.804C72.4335 111.722 65.6211 110.093 65.6211 110.093L65.2422 107.138Z" fill="#FF6A70"/>
<path d="M95.385 71.719C94.3999 69.2032 91.5658 67.968 89.05 68.9531C86.5342 69.9382 85.2991 72.7723 86.2842 75.2881C86.4357 75.667 86.5797 76.0762 86.7388 76.4854C86.557 77.1447 86.413 77.8342 86.6252 77.8191C86.754 77.8115 86.9737 77.7509 87.2086 77.6675C88.0119 79.5695 89.0576 81.1912 90.8232 80.5016C93.339 79.5165 96.3701 74.2348 95.385 71.719Z" fill="#FF8B66"/>
<path d="M88.2049 73.6568C88.1832 73.6585 88.1609 73.6529 88.1381 73.6402C87.7193 73.4035 87.1591 73.5928 87.1519 73.5933C87.0879 73.6129 87.02 73.5818 87.0004 73.5178C86.9809 73.4538 87.0119 73.3859 87.0759 73.3663C87.1043 73.3568 87.743 73.1468 88.2531 73.4346C88.3138 73.4663 88.3339 73.5375 88.3022 73.5982C88.2755 73.6294 88.2411 73.654 88.2049 73.6568Z" fill="#0E3944"/>
<path d="M88.4049 74.9301C88.4925 75.2144 88.4339 75.4883 88.2775 75.5369C88.1212 75.5855 87.9167 75.3904 87.8291 75.106C87.7414 74.8217 87.8001 74.5477 87.9564 74.4991C88.1133 74.4578 88.3172 74.6457 88.4049 74.9301Z" fill="#1A4850"/>
<path d="M87.5483 78.8407C87.5483 78.8407 88.1869 78.5816 88.5842 77.8046C88.5842 77.8046 88.9636 79.0995 88.0834 79.7212C87.5823 79.0994 87.5483 78.8407 87.5483 78.8407Z" fill="#292952"/>
<path d="M87.5911 75.0294C87.5911 75.0294 87.5819 74.2584 87.8779 74.228C88.1661 74.191 88.5652 74.735 88.5652 74.735L88.9099 74.395L88.5161 74.5714C88.5161 74.5714 88.108 74.0063 87.8382 74.0928C87.4393 74.204 87.5911 75.0294 87.5911 75.0294Z" fill="#1A4850"/>
<path d="M86.7707 70.6427C86.7707 70.6427 89.1349 69.0362 90.0518 70.673C91.7568 73.7192 91.9311 72.1885 91.9311 72.1885C91.9311 72.1885 91.7341 71.0367 92.5752 71.2337C93.4163 71.4307 93.7876 73.2646 93.1132 74.0299C92.4464 74.7953 95.7048 76.1896 96.9248 75.2727C98.1448 74.3557 97.2204 69.3393 94.4469 68.1268C91.6886 66.9144 86.4903 68.6042 86.7707 70.6427Z" fill="#292952"/>
<path d="M66.5212 107.084C66.5212 107.084 63.7175 105.038 62.6793 105.167C61.6412 105.296 61.0501 105.72 60.5197 106.288C59.9893 106.857 59.9362 110.812 60.8986 110.941C61.861 111.07 65.0436 110.32 65.8696 109.82C66.6955 109.32 66.5212 107.084 66.5212 107.084Z" fill="#FF8B66"/>
<path d="M89.8926 85.2298C89.8926 85.2298 94.4691 87.5381 98.2782 85.9491C102.087 84.3602 103.543 80.0104 103.543 80.0104C103.543 80.0104 99.5284 79.1815 95.915 80.4118C92.703 81.5054 89.8926 85.2298 89.8926 85.2298Z" fill="#FF8B66"/>
<path d="M50.9653 149.224C50.9653 149.224 42.0539 145.23 42.213 146.503C42.3722 147.776 48.7451 155.453 50.2076 154.915C52.7764 153.975 54.1404 151.884 54.1404 151.884L50.9653 149.224Z" fill="#292952"/>
<path d="M106.744 157.665C106.744 157.665 100.341 163.015 101.576 163.788C102.804 164.553 112.155 160.492 112.981 160.219C113.807 159.946 110.283 155.369 110.283 155.369L106.744 157.665Z" fill="#292952"/>
</g>
<defs>
<clipPath id="clip0_6033_92558">
<rect width="375" height="212" fill="white"/>
</clipPath>
</defs>
</svg>
