<svg width="842" height="543" viewBox="0 0 842 543" fill="none" xmlns="http://www.w3.org/2000/svg">
<g clip-path="url(#clip0_6732_26651)">
<rect width="842" height="543" rx="16" fill="#FBF5FC"/>
<circle opacity="0.08" cx="18.9951" cy="271.995" r="868.995" fill="url(#paint0_linear_6732_26651)"/>
<circle opacity="0.08" cx="18.9957" cy="271.994" r="640.207" fill="url(#paint1_linear_6732_26651)"/>
<circle opacity="0.24" cx="18.9962" cy="271.996" r="427.473" fill="url(#paint2_linear_6732_26651)"/>
<circle opacity="0.8" cx="18.9979" cy="271.994" r="270.933" fill="url(#paint3_linear_6732_26651)"/>
<g opacity="0.8">
<path d="M49.2933 296.501C42.4296 259.53 38.9978 241.045 47.7038 227.088C48.363 226.031 49.0686 225.004 49.8185 224.009C59.7208 210.873 78.2061 207.441 115.177 200.578C152.147 193.714 170.633 190.282 184.59 198.988C185.647 199.648 186.674 200.353 187.669 201.103C200.804 211.005 204.236 229.491 211.1 266.461C217.964 303.432 221.395 321.917 212.689 335.874C212.03 336.931 211.325 337.959 210.575 338.953C200.672 352.089 182.187 355.521 145.216 362.384C108.246 369.248 89.7606 372.68 75.8032 363.974C74.7463 363.315 73.7191 362.609 72.7244 361.859C59.5888 351.957 56.157 333.472 49.2933 296.501Z" fill="url(#paint4_linear_6732_26651)"/>
<path d="M50.4521 296.286C47.0145 277.77 44.459 263.992 43.8366 253.097C43.2159 242.232 44.5314 234.401 48.7038 227.711C49.3447 226.684 50.0306 225.685 50.7596 224.718C55.5053 218.423 62.3431 214.384 72.7066 211.064C83.0991 207.734 96.8758 205.174 115.392 201.737C133.908 198.299 147.685 195.743 158.581 195.121C169.445 194.5 177.277 195.816 183.966 199.988C184.994 200.629 185.992 201.315 186.959 202.044C193.255 206.79 197.294 213.628 200.614 223.991C203.944 234.384 206.504 248.16 209.941 266.676C213.379 285.192 215.934 298.97 216.557 309.865C217.177 320.73 215.862 328.562 211.689 335.251C211.049 336.278 210.363 337.277 209.634 338.244C204.888 344.539 198.05 348.578 187.687 351.898C177.294 355.228 163.517 357.788 145.001 361.226C126.485 364.663 112.708 367.219 101.813 367.841C90.9479 368.462 83.1161 367.146 76.427 362.974C75.3995 362.333 74.4008 361.647 73.4338 360.918C67.1386 356.172 63.0997 349.335 59.7792 338.971C56.4496 328.579 53.8896 314.802 50.4521 296.286Z" stroke="white" stroke-opacity="0.2" stroke-width="2.35714"/>
</g>
<g filter="url(#filter0_i_6732_26651)">
<path d="M53.8411 286.619C47.243 251.079 43.9439 233.309 52.3131 219.891C52.9469 218.875 53.6251 217.888 54.346 216.932C63.8653 204.304 81.6355 201.005 117.176 194.407C152.716 187.809 170.486 184.51 183.904 192.879C184.92 193.513 185.907 194.191 186.863 194.912C199.491 204.431 202.79 222.201 209.388 257.742C215.986 293.282 219.285 311.052 210.916 324.469C210.282 325.485 209.604 326.473 208.883 327.429C199.364 340.057 181.594 343.356 146.053 349.954C110.513 356.552 92.7429 359.851 79.3255 351.482C78.3095 350.848 77.322 350.17 76.3658 349.449C63.7384 339.93 60.4393 322.16 53.8411 286.619Z" fill="url(#paint5_linear_6732_26651)"/>
</g>
<path d="M54.9999 286.404C51.6951 268.603 49.2392 255.362 48.641 244.892C48.0447 234.452 49.3091 226.934 53.3131 220.515C53.9285 219.528 54.5871 218.569 55.2871 217.641C59.8413 211.6 66.4045 207.721 76.3626 204.531C86.3496 201.331 99.59 198.87 117.391 195.566C135.192 192.261 148.433 189.805 158.903 189.207C169.343 188.61 176.861 189.875 183.28 193.879C184.267 194.494 185.226 195.153 186.154 195.853L186.863 194.912L186.154 195.853C192.195 200.407 196.074 206.97 199.264 216.928C202.464 226.915 204.925 240.156 208.229 257.957C211.534 275.758 213.99 288.999 214.588 299.469C215.185 309.909 213.92 317.427 209.916 323.846C209.301 324.832 208.642 325.791 207.942 326.72C203.388 332.761 196.825 336.64 186.867 339.83C176.88 343.03 163.639 345.49 145.838 348.795C128.037 352.1 114.796 354.556 104.326 355.154C93.8864 355.75 86.3684 354.486 79.9493 350.482L79.3255 351.482L79.9493 350.482C78.9627 349.867 78.0037 349.208 77.0752 348.508C71.034 343.954 67.1554 337.39 63.9648 327.432C60.7651 317.445 58.3047 304.205 54.9999 286.404Z" stroke="white" stroke-opacity="0.15" stroke-width="2.35714"/>
<path d="M181.346 208.25C184.852 209.189 186.026 213.571 183.46 216.137L170.778 228.819C168.212 231.385 163.83 230.211 162.891 226.706L158.249 209.382C157.309 205.876 160.517 202.669 164.022 203.608L181.346 208.25Z" fill="#A6D4F9"/>
<path fill-rule="evenodd" clip-rule="evenodd" d="M104.811 220.07L104.81 220.064L100.856 223.117L100.859 223.12L99.5263 227.321L99.5296 227.33L99.5252 227.324L99.524 227.328L99.5275 227.329L99.5223 227.33L100.919 231.224L100.921 231.229L102.303 231.938L102.823 234.735L102.825 234.739L103.941 234.532L106.778 237.375L109.386 234.866L109.388 234.87L111.2 235.307L111.201 235.309L111.888 236.432L110.818 238.943L110.817 238.946L110.819 238.94L107.804 239.697L107.784 239.704L107.781 239.711L107.782 239.706L104.673 239.512L104.675 239.508L104.667 239.51L104.665 239.513L101.408 241.081L100.331 243.6L100.333 243.599L100.766 245.933L99.4863 245.785L95.6051 246.12L92.8087 245.005L92.8025 244.994L91.7798 245.184L90.5554 247.931L89.7201 248.082L89.7182 248.089L89.7172 248.093L89.7159 248.085L87.9668 254.205L88.2095 255.512L88.2105 255.51L88.2118 255.517L88.2128 255.514L88.8874 259.148L88.8897 259.152L95.6725 260.483L95.4326 266.429L95.435 266.431L95.4349 266.434L98.0727 273.399L98.075 273.404L98.0783 273.408L98.0709 273.403L98.077 273.41L98.0732 273.408L101.736 277.596L102.172 279.94L102.173 279.935L102.175 279.945L102.175 279.937L102.177 279.947L102.427 276.114L102.424 276.12L102.425 276.111L95.437 266.436L103.146 272.747L104.64 277.694L104.639 277.703L104.642 277.701L104.078 280.877L104.082 280.871L104.079 280.888L104.083 280.881L104.081 280.893L108.205 274.409L108.193 274.421L108.203 274.404L108.197 274.41L108.205 274.398L106.736 266.383L106.734 266.382L106.734 266.379L106.727 266.372L105.042 262.046L105.04 262.042L100.236 260.14L100.226 260.13L98.2485 260.279L100.532 255.543L103.147 258.242L103.682 258.433L103.685 258.434L104.082 259.128L105.852 261.408L114.817 265.153L114.808 265.146L114.811 265.147L114.82 265.154L118.256 264.516L116.396 275.52L116.401 275.512L116.392 275.528L116.324 275.888L116.328 275.887L116.327 275.892L116.798 275.843L116.799 275.85L112.23 318.557L112.229 318.561L109.585 324.521L109.586 324.527L109.039 325.729L107.21 328.295L107.033 331.507L107.035 331.508L107.035 331.512L108.255 331.865L112.983 329.341L113.249 327.167L115.902 324.251L116.083 326.052L116.085 326.057L118.094 325.298L118.098 325.3L117.66 322.932L117.66 322.921L121.18 310.821L121.197 310.787L121.199 310.792C121.199 310.792 122.02 304.748 122.595 300.488L122.592 300.488L122.592 300.483L122.582 300.482C122.876 298.26 123.111 296.551 123.131 296.452C123.172 296.154 124.935 287.52 124.935 287.52L126.178 283.546L128.787 293.272L125.415 301.527L125.419 301.544L126.062 314.837L126.062 314.84L126.06 314.836L122.894 320.06L123.362 322.58L123.364 322.584L125.186 323.597L125.906 328L125.908 328.005L128.91 329.669L128.914 329.669C128.914 329.669 133.034 329.097 132.912 328.927L132.91 328.922C132.853 328.846 132.26 328.677 131.605 328.49C130.795 328.259 129.889 328.001 129.789 327.859L129.759 327.837C129.702 327.554 129.822 325.73 129.959 323.815L129.957 323.819L129.957 323.811L130.028 322.951C130.187 321.008 130.334 319.202 130.309 319.071L129.703 315.804L129.702 315.801L133.473 298.305L135.685 292.576L135.682 292.576L135.682 292.572L135.704 291.975L135.705 291.977L136.083 282.314L137.611 285.17L137.779 278.51C138.503 280.119 139.04 281.312 139.184 281.631L139.356 282.132L139.358 282.136L139.396 280.06L143.479 285.042L143.476 285.041L152.889 301.86L153.067 302.193L153.101 302.279L153.103 302.282L153.104 302.284L153.186 302.42L153.186 302.425L156.927 309.11L156.931 309.106L161.97 318.123L161.974 318.118L161.973 318.124L163.083 317.918L163.602 320.713L163.604 320.718L168.954 321.464L171.818 320.933L171.722 318.343L171.72 318.341L171.726 318.339L171.72 318.335L171.723 318.335L168.932 316.442L169.459 314.415L163.506 302.866L163.503 302.861L163.502 302.863L163.5 302.86L160.318 296.695L160.316 296.69L160.223 296.5L160.221 296.495L156.71 289.696L156.708 289.691L153.37 283.207L153.368 283.202L152.896 282.325L144.941 267.652L143.776 265.523L144.081 263.754L144.236 263.655L144.685 263.379L144.686 263.374L144.691 263.368L144.687 263.382L149.312 257.211L152.149 251.565L152.151 251.558L154.145 256.306L154.146 256.308L154.147 256.311L159.989 266.036L159.99 266.039C159.989 266.104 159.968 267.008 159.716 267.148C159.455 267.293 158.406 270.972 158.406 270.972L159.586 273.173L162.909 272.942L166.424 275.285L166.718 275.843L168.194 278.625L173.369 280.079L171.127 276.82L170.648 275.89L170.646 275.885L168.742 272.255L168.74 272.25L164.811 265.547L164.808 265.528L164.805 265.523L164.803 265.527L162.26 260.112L162.155 259.649L162.153 259.644L162.152 259.647L158.898 246.159L158.899 246.152L158.685 245.515L158.683 245.511L157.598 242.242L157.596 242.236L157.593 242.232L157.591 242.236L154.198 241.043L154.196 241.038L151.063 242.296L151.062 242.299L151.058 242.302L151.06 242.294L142.258 250.301L142.256 250.302L139.395 252.898L139.133 252.621L134.877 247.814L136.469 246.551L137.419 243.381L137.417 243.376L133.312 235.258L133.31 235.253L128.733 229.247L128.733 229.244L126.003 228.012L123.29 228.419L120.268 229.758L118.842 229.83L118.842 229.825L118.84 229.821L116.746 229.44L115.927 229.69L114.139 228.96L114.137 228.961L113.64 228.764L113.637 228.762L112.667 223.54L112.673 223.531L109.56 220.24L109.558 220.258L109.558 220.254L104.815 220.072L104.811 220.07ZM163.502 302.863L163.498 302.866L163.494 302.866L163.496 302.864L163.502 302.863ZM168.932 316.442L168.93 316.445L168.926 316.447L168.932 316.442ZM129.957 323.811L129.957 323.819L129.957 323.808L129.957 323.811ZM125.415 301.527L125.423 301.517L125.42 301.525L125.415 301.527ZM103.147 258.242L103.147 258.239L103.154 258.241L103.147 258.242ZM100.532 255.543L100.523 255.552L100.525 255.548L100.529 255.544L100.532 255.543ZM95.437 266.436L95.4349 266.434L95.4394 266.442L95.437 266.436ZM91.7798 245.184L91.7806 245.198L91.7791 245.201L91.7798 245.184ZM100.766 245.933L100.768 245.935L100.761 245.937L100.766 245.933ZM99.5275 227.329L99.5263 227.332L99.5296 227.33L99.5275 227.329ZM100.526 255.542L100.523 255.544L100.526 255.54L100.526 255.542Z" fill="#239DFF"/>
<path d="M93.6651 269.851L94.8227 261.581L94.8233 261.597L94.825 261.585L94.8252 261.59L94.8264 261.582L94.8271 261.598L94.8287 261.587L95.3194 271.483L95.3145 271.478L95.317 271.481L95.2242 272.47L95.2275 272.56L94.8635 276.298L94.8617 276.288L94.8612 276.293L93.6651 269.851Z" fill="#239DFF"/>
<path d="M111.222 269.525L107.967 264.527L109.798 269.21L110.191 272.579L110.192 272.575L110.193 272.584L111.223 269.533L111.224 269.529L111.222 269.525Z" fill="#239DFF"/>
<path d="M124.653 323.323L123.265 322.788L122.762 328.677L122.766 328.667L122.764 328.682L124.656 323.327L124.652 323.326L124.653 323.323Z" fill="#239DFF"/>
<path d="M161.797 273.253L160.309 273.317L162.139 278.927L162.139 278.924L162.141 278.932L161.799 273.258L161.797 273.253Z" fill="#239DFF"/>
</g>
<rect x="0.5" y="0.5" width="841" height="542" rx="15.5" stroke="white"/>
<defs>
<filter id="filter0_i_6732_26651" x="47.3223" y="187.889" width="168.584" height="173.298" filterUnits="userSpaceOnUse" color-interpolation-filters="sRGB">
<feFlood flood-opacity="0" result="BackgroundImageFix"/>
<feBlend mode="normal" in="SourceGraphic" in2="BackgroundImageFix" result="shape"/>
<feColorMatrix in="SourceAlpha" type="matrix" values="0 0 0 0 0 0 0 0 0 0 0 0 0 0 0 0 0 0 127 0" result="hardAlpha"/>
<feOffset dy="4.71429"/>
<feGaussianBlur stdDeviation="2.71071"/>
<feComposite in2="hardAlpha" operator="arithmetic" k2="-1" k3="1"/>
<feColorMatrix type="matrix" values="0 0 0 0 1 0 0 0 0 1 0 0 0 0 1 0 0 0 1 0"/>
<feBlend mode="normal" in2="shape" result="effect1_innerShadow_6732_26651"/>
</filter>
<linearGradient id="paint0_linear_6732_26651" x1="797.387" y1="887.692" x2="-406.653" y2="-210.393" gradientUnits="userSpaceOnUse">
<stop stop-color="#3D9DEB"/>
<stop offset="1" stop-color="#CFE9FF"/>
</linearGradient>
<linearGradient id="paint1_linear_6732_26651" x1="592.453" y1="725.59" x2="-294.588" y2="-83.3913" gradientUnits="userSpaceOnUse">
<stop stop-color="#3D9DEB"/>
<stop offset="1" stop-color="#CFE9FF"/>
</linearGradient>
<linearGradient id="paint2_linear_6732_26651" x1="401.9" y1="574.867" x2="-190.387" y2="34.7018" gradientUnits="userSpaceOnUse">
<stop stop-color="#3D9DEB"/>
<stop offset="1" stop-color="#CFE9FF"/>
</linearGradient>
<linearGradient id="paint3_linear_6732_26651" x1="261.683" y1="463.954" x2="-113.71" y2="121.596" gradientUnits="userSpaceOnUse">
<stop stop-color="#3D9DEB"/>
<stop offset="1" stop-color="#CFE9FF"/>
</linearGradient>
<linearGradient id="paint4_linear_6732_26651" x1="80.7053" y1="358.421" x2="82.2312" y2="243.928" gradientUnits="userSpaceOnUse">
<stop stop-color="#3D9DEB"/>
<stop offset="1" stop-color="#CFE9FF"/>
</linearGradient>
<linearGradient id="paint5_linear_6732_26651" x1="161.958" y1="405.901" x2="181.742" y2="236.744" gradientUnits="userSpaceOnUse">
<stop stop-color="#76C2FF"/>
<stop offset="0.743256" stop-color="#EDF7FF"/>
</linearGradient>
<clipPath id="clip0_6732_26651">
<rect width="842" height="543" rx="16" fill="white"/>
</clipPath>
</defs>
</svg>
