<svg width="84" height="84" viewBox="0 0 84 84" fill="none" xmlns="http://www.w3.org/2000/svg">
<path d="M68.6152 22.8794C68.067 22.7168 67.4852 22.6962 66.9252 22.8197C66.3651 22.9432 65.8456 23.2066 65.4162 23.5848L58.2145 29.9183L57.8852 28.6892C56.4592 23.3674 50.9215 20.2096 45.5425 21.6509L7.68831 29.3668C5.12992 30.9023 1.17344 38.1812 2.5994 43.503L9.49643 69.243C10.9224 74.5648 16.4601 77.7226 21.8391 76.2813L57.6123 66.6959C62.9913 65.2547 65.5109 60.0692 67.046 54.4404L64.4529 53.2001L72.163 54.9521C74.2098 55.4639 76.7683 55.4639 78.3035 52.9053C81.3737 47.7883 80.1377 46.858 79.8386 45.7415L70.8936 25.2036C70.5944 24.0871 69.7323 23.2111 68.6152 22.8794Z" fill="url(#paint0_linear_7288_13701)"/>
<path d="M65.7464 23.9603L65.7466 23.9601C66.1125 23.6379 66.5553 23.4133 67.0328 23.308C67.5103 23.2027 68.0061 23.2203 68.4728 23.3587C69.4263 23.6418 70.1573 24.3874 70.4106 25.333L70.4203 25.369L70.4352 25.4032L79.366 45.9088C79.4103 46.0647 79.467 46.2117 79.5196 46.3443C79.5292 46.3685 79.5387 46.3923 79.548 46.4157C79.5965 46.5371 79.6414 46.6499 79.6832 46.7729C79.7781 47.0527 79.8509 47.3722 79.8349 47.8047C79.8022 48.6895 79.3956 50.1133 77.8747 52.6481C77.1788 53.808 76.2707 54.3675 75.3106 54.5934C74.3313 54.8238 73.2678 54.713 72.2843 54.4671L72.2843 54.467L72.2738 54.4646L64.5637 52.7126L64.2371 53.6512L66.4521 54.7106C64.9126 60.1596 62.4529 64.8813 57.4829 66.213L21.7097 75.7984C16.5926 77.1695 11.3326 74.1638 9.97939 69.1136L3.08237 43.3735C2.41031 40.8654 3.00025 37.8377 4.11032 35.2096C4.66205 33.9034 5.33386 32.7165 6.01875 31.7676C6.68159 30.8493 7.33361 30.1859 7.87571 29.8389L45.6423 22.1408L45.6572 22.1377L45.6719 22.1338C50.789 20.7627 56.049 23.7684 57.4022 28.8186L57.7315 30.0477L57.94 30.8255L58.5447 30.2937L65.7464 23.9603Z" stroke="white" stroke-opacity="0.14"/>
<g filter="url(#filter0_i_7288_13701)">
<path d="M70.9068 18.3278C70.3587 18.1652 69.7768 18.1446 69.2168 18.2681C68.6568 18.3916 68.1373 18.655 67.7079 19.0332L60.5062 25.3667L60.1768 24.1376C58.7509 18.8158 53.2131 15.658 47.8341 17.0992L12.061 26.6846C6.68202 28.1259 3.46511 33.6296 4.89107 38.9513L11.7881 64.6914C13.2141 70.0132 18.7518 73.171 24.1308 71.7297L59.9039 62.1443C65.2829 60.7031 68.4998 55.1994 67.0739 49.8776L66.7445 48.6485L76.1472 50.5294C76.7081 50.6444 77.2902 50.6141 77.8373 50.4416C78.3845 50.269 78.8783 49.9599 79.2712 49.544C80.0728 48.6982 80.3814 47.5085 80.0823 46.392L73.1853 20.652C72.8861 19.5355 72.024 18.6595 70.9068 18.3278Z" fill="url(#paint1_linear_7288_13701)"/>
</g>
<path d="M68.0381 19.4087L68.0383 19.4085C68.4041 19.0863 68.8469 18.8617 69.3245 18.7564C69.802 18.6511 70.2978 18.6687 70.7645 18.8071C71.7179 19.0902 72.4489 19.8358 72.7023 20.7814L79.5993 46.5214C79.8527 47.467 79.5924 48.4782 78.9083 49.2001L78.9078 49.2007C78.5736 49.5544 78.1531 49.8177 77.6869 49.9647C77.2207 50.1118 76.725 50.1375 76.2477 50.0396L76.2453 50.0391L66.8426 48.1583L66.0532 48.0003L66.2616 48.778L66.5909 50.007C67.9441 55.0572 64.8917 60.2903 59.7745 61.6614L24.0014 71.2468C18.8843 72.6179 13.6243 69.6122 12.2711 64.562L5.37404 38.8219C4.02085 33.7718 7.07328 28.5387 12.1904 27.1676L47.9636 17.5822C53.0807 16.2111 58.3407 19.2168 59.6939 24.267L60.0232 25.4961L60.2316 26.2739L60.8364 25.7421L68.0381 19.4087Z" stroke="white" stroke-opacity="0.15"/>
<circle opacity="0.8" cx="23.5" cy="56.5" r="4.5" fill="url(#paint2_linear_7288_13701)"/>
<rect opacity="0.8" x="14.3418" y="36.2266" width="38.2269" height="6.14043" rx="3.07021" transform="rotate(-15 14.3418 36.2266)" fill="url(#paint3_linear_7288_13701)"/>
<defs>
<filter id="filter0_i_7288_13701" x="4.55273" y="16.75" width="75.6426" height="57.3281" filterUnits="userSpaceOnUse" color-interpolation-filters="sRGB">
<feFlood flood-opacity="0" result="BackgroundImageFix"/>
<feBlend mode="normal" in="SourceGraphic" in2="BackgroundImageFix" result="shape"/>
<feColorMatrix in="SourceAlpha" type="matrix" values="0 0 0 0 0 0 0 0 0 0 0 0 0 0 0 0 0 0 127 0" result="hardAlpha"/>
<feOffset dy="2"/>
<feGaussianBlur stdDeviation="1.15"/>
<feComposite in2="hardAlpha" operator="arithmetic" k2="-1" k3="1"/>
<feColorMatrix type="matrix" values="0 0 0 0 1 0 0 0 0 1 0 0 0 0 1 0 0 0 1 0"/>
<feBlend mode="normal" in2="shape" result="effect1_innerShadow_7288_13701"/>
</filter>
<linearGradient id="paint0_linear_7288_13701" x1="27.6448" y1="77.4672" x2="61.5937" y2="53.0559" gradientUnits="userSpaceOnUse">
<stop stop-color="#FAD036"/>
<stop offset="0.789928" stop-color="#FDE785"/>
</linearGradient>
<linearGradient id="paint1_linear_7288_13701" x1="55.2814" y1="81.0555" x2="52.1665" y2="29.661" gradientUnits="userSpaceOnUse">
<stop stop-color="#FFE47E"/>
<stop offset="0.674494" stop-color="#FFFBDF"/>
</linearGradient>
<linearGradient id="paint2_linear_7288_13701" x1="38.125" y1="65.5" x2="14.5" y2="47.5" gradientUnits="userSpaceOnUse">
<stop offset="0.235941" stop-color="#FCCC18"/>
<stop offset="0.841302" stop-color="#FFF498"/>
</linearGradient>
<linearGradient id="paint3_linear_7288_13701" x1="86.3343" y1="55.8743" x2="86.6434" y2="33.8545" gradientUnits="userSpaceOnUse">
<stop offset="0.262221" stop-color="#FCCA10"/>
<stop offset="0.808069" stop-color="#FFEF9A"/>
</linearGradient>
</defs>
</svg>
