<svg width="842" height="543" viewBox="0 0 842 543" fill="none" xmlns="http://www.w3.org/2000/svg">
<g clip-path="url(#clip0_6537_20447)">
<rect width="842" height="543" rx="16" fill="#FBF5FC"/>
<circle opacity="0.08" cx="18.9951" cy="271.995" r="868.995" fill="url(#paint0_linear_6537_20447)"/>
<circle opacity="0.08" cx="18.9957" cy="271.994" r="640.207" fill="url(#paint1_linear_6537_20447)"/>
<circle opacity="0.24" cx="18.9962" cy="271.997" r="427.473" fill="url(#paint2_linear_6537_20447)"/>
<circle opacity="0.8" cx="18.9979" cy="271.994" r="270.933" fill="url(#paint3_linear_6537_20447)"/>
<rect x="159.48" y="183.897" width="21.7937" height="21.4578" transform="rotate(27.6908 159.48 183.897)" fill="url(#paint4_linear_6537_20447)"/>
<rect x="159.856" y="185.101" width="20.0104" height="19.6745" transform="rotate(27.6908 159.856 185.101)" stroke="white" stroke-opacity="0.31" stroke-width="1.7833"/>
<rect x="157.684" y="175.764" width="32.5214" height="14.0813" rx="7.04065" transform="rotate(27.6908 157.684 175.764)" fill="url(#paint5_linear_6537_20447)"/>
<rect x="158.059" y="176.968" width="30.7381" height="12.298" rx="6.149" transform="rotate(27.6908 158.059 176.968)" stroke="white" stroke-opacity="0.31" stroke-width="1.7833"/>
<circle cx="136.451" cy="281.614" r="76.4272" fill="#FF8A59" fill-opacity="0.6"/>
<circle cx="136.451" cy="281.614" r="75.1534" stroke="white" stroke-opacity="0.1" stroke-width="2.54757"/>
<circle cx="126.261" cy="271.422" r="75.1534" fill="url(#paint6_linear_6537_20447)" stroke="white" stroke-width="2.54757"/>
<circle cx="123.716" cy="268.875" r="67.5107" stroke="white" stroke-width="2.54757"/>
<circle cx="126.259" cy="271.423" r="67.5107" stroke="#FFB69B" stroke-width="2.54757"/>
<path d="M134.029 242.269C133.298 243.28 131.894 244.001 131.132 244.464C130.747 244.702 130.542 244.715 130.513 245.17C130.486 245.596 130.743 245.963 131.145 246.096C131.546 246.229 131.987 246.175 132.407 246.124C132.859 246.067 133.312 246.01 133.769 245.952C134.049 245.919 134.354 245.87 134.542 245.654C134.725 245.438 134.708 245.54 134.784 245.264C134.86 244.989 135.011 245.01 135.374 244.791C135.556 245.196 135.653 245.287 135.787 245.237C136.413 244.996 136.781 244.852 137.28 244.403C137.319 244.368 137.589 243.015 137.456 242.531C137.323 242.047 136.995 241.692 136.858 241.208C136.322 241.749 135.438 239.453 134.813 239.887C134.307 240.242 134.893 241.042 134.029 242.269Z" fill="#FFA782"/>
<path d="M122.566 237.013C123.061 237.011 123.299 237.291 123.536 237.727C123.837 238.278 124.163 238.682 124.035 239.3C123.929 239.803 123.548 240.202 123.181 240.559C123.103 240.633 123.005 240.714 122.904 240.688C122.791 240.661 122.745 240.531 122.663 240.453C122.484 240.287 122.132 240.453 122.151 240.696C122.155 240.778 122.192 240.854 122.212 240.934C122.267 241.187 122.115 241.438 121.948 241.638C121.506 242.173 120.932 242.577 120.348 242.943C119.937 243.2 119.499 243.443 119.019 243.474C118.539 243.502 118.009 243.247 117.871 242.787C117.854 242.728 117.844 242.67 117.856 242.609C117.872 242.536 117.92 242.477 117.964 242.422C118.815 241.376 119.627 240.212 119.774 238.873C119.782 238.795 119.791 238.713 119.827 238.646C119.904 238.51 120.078 238.466 120.233 238.483C120.387 238.5 120.531 238.561 120.681 238.586C121.191 238.667 122.101 238.553 122.59 237.844C122.733 237.626 122.661 237.289 122.566 237.013Z" fill="#FFA782"/>
<path d="M122.739 237.276C122.155 235.929 122.282 234.132 122.168 234.878C122.156 234.947 122.107 234.94 122.043 234.916C121.987 234.893 121.815 235.113 121.761 235.131C120.969 235.412 119.944 234.567 119.167 234.882C119.647 236.19 120.325 237.62 120.611 239.855C121.246 239.672 121.762 239.215 122.26 238.778C122.368 238.681 122.479 238.581 122.56 238.462C122.711 238.232 122.743 237.942 122.771 237.668C122.78 237.578 122.789 237.48 122.757 237.392C122.725 237.308 122.768 237.343 122.739 237.276Z" fill="#FFA782"/>
<path d="M119.599 188.376C119.364 188.634 119.143 188.93 119.067 189.275C118.996 189.612 119.062 189.961 119.134 190.298C120.355 196.208 121.576 202.122 123.153 207.949C123.883 207.385 124.662 206.741 124.855 205.839C124.943 205.429 124.901 205.004 124.858 204.586C124.238 198.668 123.446 192.766 122.485 186.895C122.207 186.966 120.264 187.648 119.599 188.376Z" fill="#FFA782"/>
<path d="M136.832 204.397C138.049 206.219 137.922 208.603 137.663 210.783C137.146 215.143 136.288 219.46 135.067 223.679C138.382 230.85 136.922 231.67 137.51 241.67C136.464 242.554 134.579 242.927 133.603 242.327C132.919 238.76 130.381 228.328 129.44 225.942C129.028 224.896 128.424 220.541 128.378 213.631C126.104 215.372 121.57 217.457 119.076 218.59C120.765 221.563 121.203 223.785 121.375 227.205C121.498 229.656 122.557 233.376 123.059 235.778C122.092 237.007 120.808 237.245 119.31 237.191C118.14 234.752 117.211 231.496 116.472 229.315C114.592 223.792 113.409 220.543 112.592 217.4C112.447 216.837 112.39 216.238 112.491 215.664C112.695 214.546 113.578 213.661 114.513 213.014C119.684 209.439 123.995 207.535 124.282 204.473C124.28 204.498 127.081 200.021 127.079 200.049" fill="#FFA782"/>
<path d="M126.552 182.057C126.949 183.915 127.346 185.778 127.739 187.636C127.765 187.753 127.786 187.881 127.72 187.98C127.666 188.068 127.561 188.111 127.465 188.155C126.717 188.517 126.26 189.248 125.991 189.989C125.721 190.73 125.6 191.517 125.302 192.252C125.269 192.329 125.236 192.409 125.172 192.467C124.906 192.703 124.499 192.369 124.31 192.075C123.485 190.801 122.479 188.354 122.475 188.198C122.397 185.083 122.775 185.408 122.627 184.003C122.611 183.85 122.596 183.689 122.673 183.553C122.745 183.43 122.88 183.351 123.014 183.284C124.133 182.713 125.349 182.307 126.552 182.057Z" fill="#FFA782"/>
<path d="M122.493 187.265C122.747 187.706 123.405 188.223 124.122 188.262C124.322 188.273 124.524 188.913 124.587 189.101C124.799 189.717 124.823 190.026 125.038 190.642C125.091 189.68 125.06 188.231 125.465 188.007C125.819 187.809 127.049 187.223 127.42 185.838C127.44 185.761 128.876 186.481 128.943 186.53C129.01 186.579 129.31 187.298 129.334 187.377C130.412 191.052 129.923 194.596 130.061 198.421C130.118 200.059 130.096 201.726 130.566 203.297C130.652 203.589 130.743 203.956 130.519 204.165C130.411 204.262 130.262 204.295 130.122 204.32C128.201 204.671 126.218 204.69 124.289 204.378C122.939 198.955 121.695 193.171 122.493 187.265Z" fill="#FFA782"/>
<path d="M109.346 195.951C109.272 195.359 109.022 194.631 109 194.071C108.989 193.819 109.072 193.491 109.327 193.472C109.553 193.456 109.69 193.71 109.768 193.924C110.053 194.7 110.702 196.054 111.108 196.775C111.852 198.11 111.338 198.538 112.527 199.454C112.841 199.693 111.019 201.306 110.67 201.172C110.25 201.009 109.171 200.264 108.831 199.97C108.617 199.782 107.491 199.001 107.391 198.88C107.306 198.781 107.302 198.645 107.255 198.524C106.768 197.186 106.917 196.04 107.61 195.338C107.995 194.94 109 195.546 109.346 195.951Z" fill="#FFA782"/>
<path d="M110.439 201.566C110.134 201.393 109.962 201.17 109.736 200.903C109.525 200.653 109.932 199.791 110.199 199.457C110.542 199.023 111.016 198.577 111.537 198.396C111.633 198.364 111.733 198.341 111.83 198.363C111.947 198.39 112.727 198.921 112.808 199.008C113.133 199.342 112.724 199.271 112.951 199.678C112.97 199.716 112.992 199.754 112.986 199.795C112.979 199.839 112.937 199.87 112.898 199.897C112.132 200.45 111.277 201.213 110.439 201.566Z" fill="#FFA782"/>
<path d="M148.12 198.265C148.408 199.353 148.451 200.506 148.255 201.613C148.208 201.873 148.264 202.267 148.524 202.228C148.602 202.216 148.671 202.158 148.727 202.099C149.048 201.767 149.272 201.34 149.366 200.889C149.53 200.964 149.546 201.183 149.544 201.363C149.532 202.11 149.52 202.853 149.508 203.601C149.499 203.978 150.625 203.806 151.54 202.323C152.136 201.362 151.745 198.801 150.52 196.987C150.074 196.33 150.002 196.889 149.226 197.04C148.585 197.161 148.011 197.861 148.12 198.265Z" fill="#FFA782"/>
<path d="M147.495 197.233C147.61 197.609 147.885 198.553 147.98 198.611C148.189 198.746 150.302 198.537 151.085 197.664C151.009 197.204 150.902 196.906 150.637 196.522C150.58 196.441 150.519 196.359 150.432 196.309C150.317 196.246 150.174 196.254 150.042 196.267C149.219 196.366 148.423 196.717 147.796 197.266C147.723 197.328 147.642 197.397 147.544 197.384C147.447 197.374 147.402 197.211 147.495 197.233Z" fill="#FFA782"/>
<path d="M129.502 186.234C132.436 185.076 134.746 183.884 137.815 183.156C139.173 182.832 141.665 182.274 142.98 182.745C146.736 184.098 151.109 195.165 151.024 196.705C150.971 197.676 148.735 197.968 147.402 197.821C145.018 194.699 144.705 192.738 141.896 189.991C141.616 189.717 141.215 189.366 140.836 189.272C140.436 189.172 137.789 190.411 137.419 190.588C127.431 195.378 134.921 191.856 129.502 186.234Z" fill="#FFA782"/>
<path d="M119.901 188.434C119.278 188.523 118.47 189.465 118.274 190.062C118.078 190.66 118.018 192.123 117.983 192.754C117.689 198.129 116.98 201.439 116.437 201.126C114.19 199.827 112.676 198.585 112.518 198.634C110.934 199.123 109.694 200.698 109.98 201.593C110.599 203.509 116.467 206.913 117.741 207.537C118.011 207.671 118.307 207.786 118.601 207.732C118.848 207.688 119.058 207.527 119.258 207.374C121.192 205.878 122.028 201.745 122.484 200.286C121.696 197.732 120.905 195.166 120.506 192.523C120.319 191.247 120.532 189.521 119.901 188.434Z" fill="#FFA782"/>
<path d="M127.271 185.582C128.706 185.496 129.945 185.802 131.468 185.15C131.967 184.935 132.706 184.725 133.178 184.989C133.793 185.331 133.957 186.211 134.186 186.877C137.109 195.375 136.147 199.353 138.998 205.886C139.056 206.017 139.068 206.174 139.024 206.307C138.954 206.529 136.606 208.562 135.35 208.957C133.84 209.433 132.209 208.612 131.072 207.506C130.35 206.801 129.745 205.975 129.296 205.071C128.762 204.002 128.446 202.834 128.195 201.666C127.638 199.079 127.762 194.217 127.696 190.873C127.622 186.998 127.309 185.707 127.271 185.582Z" fill="#FFA782"/>
<path d="M96.7925 183.346C95.9087 184.777 95.0031 186.231 93.7288 187.328C93.1495 187.826 92.5053 188.243 91.9224 188.733C91.0655 189.45 90.3476 190.314 89.63 191.175C89.5073 191.324 89.3803 191.478 89.3292 191.664C89.2582 191.915 89.3371 192.19 89.4763 192.411C89.8739 193.062 90.6767 193.332 91.4271 193.439C92.1776 193.546 92.9626 193.544 93.657 193.853C94.3192 194.152 95.0148 194.737 95.6776 194.428C95.8748 194.336 92.4924 192.129 92.7064 192.178C97.9571 193.415 95.9735 189.781 98.4937 188.403C102.456 186.233 101.41 183.385 99.805 183.429C99.2441 183.443 99.5327 182.654 99.0173 182.436C98.5458 182.238 97.989 182.401 97.5836 182.711C97.178 183.026 96.9003 183.467 96.7925 183.346Z" fill="#FFA782"/>
<path d="M126.263 180.801C126.721 180.498 127.448 180.817 127.537 181.36C127.653 182.069 126.902 182.566 126.466 183.138C125.964 183.793 125.855 184.666 125.472 185.393C124.91 186.467 123.513 187.179 122.449 186.616C121.901 186.323 121.535 185.756 121.355 185.159C121.172 184.561 121.149 183.931 121.13 183.305C121.121 183.03 121.111 182.75 121.102 182.474C121.073 181.589 121.04 180.7 121.17 179.827C121.221 179.481 121.298 179.124 121.514 178.848C121.782 178.497 122.221 178.324 122.645 178.195C123.16 178.042 123.686 177.927 124.217 177.862C124.908 177.777 125.739 177.83 126.107 178.426C126.55 179.157 125.96 180.135 126.263 180.801Z" fill="#FFA782"/>
<path d="M123.51 176.662C127.823 174.795 127.269 179.909 126.964 180.846C126.7 180.729 126.39 180.954 126.289 181.224C126.188 181.493 126.276 181.839 126.252 182.13C126.227 182.42 126.065 182.695 125.805 182.82C125.596 182.307 125.644 181.727 125.719 181.176C125.794 180.625 125.462 180.8 125.549 179.219C125.579 178.666 125.198 178.464 124.643 178.438C124.178 178.412 123.769 178.723 123.367 178.964C122.725 179.352 121.967 179.602 121.22 179.507C120.473 179.413 119.652 179.027 119.521 178.206C119.403 177.46 119.708 176.133 121.991 176.398C122.316 176.437 122.811 176.965 123.51 176.662Z" fill="#FFA782"/>
<path d="M125.712 181.58C125.606 181.808 125.656 182.378 125.354 182.817C125.265 182.944 124.661 183.679 123.582 183.07C123.118 182.806 122.438 182.982 121.952 183.272C121.513 183.531 121.222 183.018 121.072 183.067C120.973 183.313 120.978 183.588 121.001 183.852C121.065 184.612 121.261 185.358 121.571 186.049C121.629 186.184 121.695 186.315 121.783 186.431C122.004 186.73 122.353 186.918 122.717 186.995C123.08 187.077 123.458 187.057 123.828 187.007C124.462 186.923 125.377 186.426 125.864 185.229C126.256 184.268 126.37 182.701 126.203 181.874C126.177 181.749 126.076 181.879 125.955 181.922C125.917 181.936 125.891 181.968 125.869 181.999C125.797 182.114 125.686 181.611 125.712 181.58Z" fill="#FFA782"/>
<path d="M76.0882 226.952C80.4404 226.085 84.665 224.567 88.5782 222.464C90.1409 221.625 91.7383 220.599 92.481 218.984C92.8009 218.295 92.9408 217.534 93.0313 216.779C93.0917 216.273 93.1334 215.737 92.9344 215.266C92.7719 214.875 92.4658 214.566 92.1632 214.27C89.2859 211.425 86.4087 208.58 83.5355 205.735C83.14 205.343 82.7365 204.947 82.2433 204.698C81.75 204.45 81.1415 204.363 80.6455 204.611C79.7837 205.044 79.6427 206.199 79.6141 207.168C79.5135 210.79 79.4088 214.413 79.3079 218.04C79.2785 219.098 79.2486 220.165 79.0405 221.201C78.6084 223.413 77.4049 225.381 76.0882 226.952Z" fill="#FFA782"/>
<path d="M95.5864 194.38C96.0467 196.645 97.0836 198.982 97.8615 201.42C101.727 198.768 103.994 195.893 104.849 195.369C105.64 194.882 106.474 194.731 108.075 195.139C108.614 195.374 109.697 195.82 110.236 196.055C110.112 196.52 109.532 197.261 108.954 197.287C107.27 197.355 106.007 196.39 105.844 196.603C103.289 199.947 101.467 203.064 98.2541 205.218C98.0121 205.381 97.7171 205.542 97.4137 205.484C97.1143 205.426 96.9784 205.148 96.7722 204.956C93.9519 202.34 92.4568 199.784 91.5503 197.158C92.2693 195.899 93.6393 194.922 95.5864 194.38Z" fill="#FFA782"/>
<path d="M89.0575 188.397C91.4863 187.79 93.6957 186.342 95.4207 184.333C95.8164 185.168 96.3822 186.703 96.8836 187.474C95.516 189.228 94.1601 190.172 93.5324 192.747C92.6047 192.146 91.5036 191.202 90.6117 190.545C90.3013 190.314 89.9872 190.079 89.7634 189.763C89.6421 189.588 89.5504 189.398 89.4588 189.204C89.3419 188.951 89.217 188.693 89.0575 188.397Z" fill="#FFA782"/>
<path d="M86.2387 186.39C84.465 183.548 83.0476 182.484 83.2739 182.159C84.3798 180.556 86.1075 179.093 88.8963 175.055C88.6247 174.716 88.3488 174.38 88.0771 174.041C84.5519 176.822 81.3515 178.824 79.4964 181.714C79.3579 181.928 79.2421 182.177 79.2526 182.432C79.2629 182.617 79.3474 182.791 79.4321 182.96C81.0828 186.255 82.342 189.011 84.3682 192.093" fill="#FFA782"/>
<path d="M87.6461 174.492C88.6739 173.492 88.8897 172.986 89.3861 172.508C89.8308 172.076 90.5726 171.969 91.1745 172.101C91.5785 172.188 92.1632 172.336 92.4149 172.666C92.6323 172.949 92.6086 172.935 92.4168 173.077C92.2849 173.172 92.0466 173.118 91.8827 173.126C91.4523 173.147 90.6558 173.506 90.3566 173.818C90.3578 173.946 90.882 173.855 91.0088 173.854C91.1356 173.853 91.261 173.802 91.3871 173.813C91.5132 173.824 91.6455 173.947 91.5982 174.063C91.5747 174.119 91.5238 174.154 91.4731 174.184C90.5873 174.682 89.7008 174.596 88.8947 175.131C88.2242 175.579 88.1103 175.569 87.6461 174.492Z" fill="#FFA782"/>
<path d="M85.8292 205.882C85.973 206.986 86.1207 208.096 86.2644 209.201C86.3362 209.755 86.408 210.31 86.4345 210.87C86.4633 211.537 86.4183 212.209 86.3776 212.876C86.2338 215.124 86.0903 217.368 85.9425 219.616C85.8772 220.656 85.802 221.728 85.35 222.665C84.8702 223.662 84.0193 224.416 83.2598 225.221C81.9355 226.632 80.8729 228.266 79.8148 229.893C78.0154 232.662 76.1635 235.569 75.8032 238.857C75.6916 239.849 75.7214 240.87 75.4157 241.822C74.634 240.572 73.8736 239.305 73.1426 238.024C73.0159 237.8 72.8854 237.571 72.8586 237.314C72.797 236.723 73.2854 236.241 73.6701 235.785C75.1312 234.041 75.3505 231.608 75.9617 229.41C76.8387 226.241 78.6534 223.341 81.115 221.171C81.2311 221.067 81.3599 220.955 81.3929 220.8C81.4252 220.658 81.3678 220.511 81.3139 220.377C79.3439 215.375 78.5272 209.919 79.0845 204.455C79.3203 204.703 79.6337 204.876 79.9695 204.94C80.2768 205.002 80.5931 204.974 80.9031 204.987C81.2172 205 81.5288 205.058 81.8363 205.116C83.1594 205.365 84.4907 205.615 85.8292 205.882Z" fill="#FFA782"/>
<path d="M92.6116 215.163C91.2744 219.121 91.4562 223.408 90.8128 227.535C90.7868 227.711 90.7525 227.89 90.6506 228.032C90.5359 228.186 90.3514 228.27 90.2095 228.398C89.977 228.611 89.878 228.926 89.8041 229.23C89.5617 230.22 89.4931 231.247 89.6051 232.26C89.6356 232.525 89.7764 232.865 90.037 232.81C90.1526 232.787 90.2362 232.681 90.3068 232.586C91.1156 231.48 91.9334 230.358 92.4607 229.093C92.7991 228.289 93.0132 227.442 93.2755 226.61C94.2687 223.485 95.9521 220.594 96.7241 217.402C96.883 216.741 96.9963 216.016 96.6988 215.404C96.335 214.657 95.443 214.3 94.614 214.283C93.7848 214.27 92.7831 214.647 92.6116 215.163Z" fill="#FFA782"/>
<path d="M86.7308 230.42C87.47 229.762 87.7434 229.584 88.2519 228.737C88.3824 228.518 88.482 228.269 88.6712 228.098C89.6173 227.246 90.6597 227.472 90.7591 227.597C90.8971 227.764 90.6929 228.505 90.5925 228.697C90.1293 229.612 89.8313 230.574 89.8478 231.019C89.8677 231.55 89.6214 232.313 90.4176 232.332C90.0872 233.362 90.3989 234.238 90.6236 234.911C90.7358 235.25 90.5639 235.327 90.3788 235.498C90.1466 235.707 89.8346 235.357 89.5744 235.183C88.5454 234.489 88.0416 233.389 87.9732 233.221C87.8079 232.805 88.1948 232.087 88.3086 231.653C88.5215 230.827 88.7613 230.404 88.7915 229.855C88.8011 229.679 88.7556 229.764 88.5801 229.758C88.4862 229.757 88.409 229.823 88.3399 229.889C87.6146 230.583 87.5188 230.513 87.1231 230.869C86.8827 231.078 86.6149 230.521 86.7308 230.42Z" fill="#FFA782"/>
<path d="M73.5586 235.942C73.9668 236.4 73.987 237.075 74.0187 237.689C74.0587 238.451 74.5058 239.988 75.7392 240.01C76.1966 240.019 75.7301 241.07 76.4495 241.594C76.7285 241.799 77.306 241.929 77.444 242.245C77.4728 242.316 77.3701 242.697 77.3498 242.77C77.2743 243.028 74.6616 242.663 73.9175 241.92C73.2859 241.285 73.675 240.378 72.7364 239.229C72.6252 239.096 72.2699 240.58 72.1634 241.478C72.1333 241.727 71.678 241.756 71.5167 241.566C72.0476 238.522 71.7982 238.299 71.8207 238.111C71.8909 237.428 72.1261 236.792 72.4393 236.448C72.7526 236.103 73.4354 235.804 73.5586 235.942Z" fill="#FFA782"/>
<path d="M81.6309 206.436C81.6962 211.432 82.3472 214.319 84.6885 219.185C85.272 220.397 85.6476 221.896 86.8925 222.38C88.2053 222.891 89.6292 222.123 91.0092 221.858C92.5379 221.564 94.1822 221.921 95.4531 222.825C95.5987 222.927 95.7597 223.047 95.9409 223.024C96.196 222.993 96.33 222.713 96.417 222.467C97.4567 219.537 98.4962 216.61 99.5359 213.68C99.7197 213.16 99.9084 212.628 99.914 212.078C99.9283 211.146 99.4208 210.264 98.7444 209.627C98.068 208.989 97.2337 208.549 96.4068 208.122C94.6937 207.231 92.9845 206.344 91.2714 205.453C90.5322 205.067 89.7851 204.677 89.1741 204.113C88.5592 203.549 88.0863 202.78 88.0542 201.948C86.4771 201.336 84.9851 200.514 83.6175 199.51C83.1183 199.146 83.1063 198.437 82.5047 198.301C81.6954 198.458 80.557 199.036 79.8223 199.76C78.5903 200.979 77.6687 202.531 77.3743 204.244C77.08 205.958 76.8162 207.758 76.946 209.491C77.0004 210.213 77.063 210.935 77.2123 211.642C77.4818 212.914 78.0244 214.127 78.1454 215.424C78.2566 216.601 78.0119 217.784 77.7241 218.931C76.9611 221.958 75.8673 224.906 74.4755 227.698C76.598 227.609 78.6222 226.257 79.5294 224.326C80.0524 223.213 80.2104 221.972 80.3673 220.752C80.5187 219.557 80.6704 218.357 80.6998 217.15C80.7416 215.345 80.5094 213.54 80.4858 211.735C80.4622 209.93 80.6709 208.064 81.6309 206.436Z" fill="#FFA782"/>
<path d="M88.9812 187.31C91.5225 188.678 92.0177 189.19 93.4317 190.315C94.2542 190.973 95.5638 191.542 96.0481 192.476C96.8979 194.126 96.3973 196.395 96.452 197.409C95.1552 196.754 92.5061 198.692 92.4897 199.365C92.3288 199.167 92.0136 198.653 91.821 198.215C90.4025 199.929 88.461 199.144 88.0425 202.408C87.7354 203.46 87.2334 204.488 86.4709 205.272C86.3279 205.421 86.1608 205.559 85.9584 205.598C85.7311 205.643 85.503 205.552 85.2915 205.458C83.5914 204.703 82.0413 203.599 80.7754 202.232C80.598 202.037 80.4136 201.821 80.387 201.561C80.3418 201.119 79.4788 201.425 79.72 201.052C80.2875 200.171 81.6101 199.21 82.1027 198.28C83.6536 195.345 84.0938 193.012 84.3692 192.091C84.0982 191.665 84.0119 191.598 83.7203 191.102C83.4477 189.661 84.4771 187.589 86.1975 186.336C86.2088 186.353 87.6232 186.578 88.9812 187.31Z" fill="#FFA782"/>
<path d="M94.8308 183.36C94.3746 185.118 93.5771 185.05 94.153 186.774C94.3425 187.344 95.4977 189.909 96.3477 190.063C96.6838 190.122 97.2916 189.774 97.6607 189.305C98.628 188.068 99.9462 186.32 99.8032 184.903C99.4958 181.787 97.9912 181.343 96.4175 181.861C96.1718 181.942 95.859 182.578 95.6206 182.676C95.123 182.879 94.808 183.404 94.8308 183.36Z" fill="#FFA782"/>
<path d="M90.6304 189.196C87.7608 188.669 89.391 190.55 84.6284 191.443C79.7957 192.349 78.1867 182.408 85.1241 183.75C87.7291 184.254 91.0652 183.879 92.6621 181.969C96.2141 177.73 100.517 181.414 100.876 182.469C101.387 183.968 100.94 184.667 100.256 185.357C98.8886 186.732 97.1935 183.352 95.3779 186.49C94.1043 188.693 95.1672 190.033 90.6304 189.196Z" fill="#FFA782"/>
<path d="M87.9867 202.417C88.2561 202.255 88.5239 201.685 88.5521 201.171C83.9988 200.13 82.2059 197.659 82.1607 197.68C81.6013 197.937 81.4032 198.699 81.5048 198.893C81.5593 198.996 83.8452 201.467 87.9867 202.417Z" fill="#FFA782"/>
<mask id="path-48-inside-1_6537_20447" fill="white">
<path fillRule="evenodd" clipRule="evenodd" d="M139.486 285.919L162.133 238.311L159.838 232.451L114.525 260.958L114.545 260.978L114.519 260.96L89.8379 302.481L91.872 308.568L139.48 285.921L139.464 285.897L139.486 285.919Z"/>
</mask>
<path fillRule="evenodd" clipRule="evenodd" d="M139.486 285.919L162.133 238.311L159.838 232.451L114.525 260.958L114.545 260.978L114.519 260.96L89.8379 302.481L91.872 308.568L139.48 285.921L139.464 285.897L139.486 285.919Z" fill="#FF8A59" fill-opacity="0.6"/>
<path d="M162.133 238.311L164.434 239.405L164.908 238.409L164.505 237.382L162.133 238.311ZM139.486 285.919L137.685 287.72L140.237 290.272L141.787 287.013L139.486 285.919ZM159.838 232.451L162.21 231.522L161.087 228.655L158.481 230.295L159.838 232.451ZM114.525 260.958L113.169 258.802L110.466 260.502L112.724 262.759L114.525 260.958ZM114.545 260.978L113.123 263.092L116.347 259.177L114.545 260.978ZM114.519 260.96L115.941 258.847L113.706 257.343L112.329 259.659L114.519 260.96ZM89.8379 302.481L87.648 301.179L87.052 302.182L87.4216 303.288L89.8379 302.481ZM91.872 308.568L89.4557 309.376L90.3677 312.105L92.9663 310.869L91.872 308.568ZM139.48 285.921L140.574 288.222L143.198 286.974L141.618 284.536L139.48 285.921ZM139.464 285.897L141.265 284.095L137.326 287.283L139.464 285.897ZM159.833 237.217L137.186 284.825L141.787 287.013L164.434 239.405L159.833 237.217ZM157.466 233.38L159.761 239.24L164.505 237.382L162.21 231.522L157.466 233.38ZM115.882 263.114L161.194 234.608L158.481 230.295L113.169 258.802L115.882 263.114ZM116.347 259.177L116.327 259.157L112.724 262.759L112.744 262.78L116.347 259.177ZM113.097 263.074L113.123 263.092L115.967 258.864L115.941 258.847L113.097 263.074ZM92.0278 303.782L116.709 262.262L112.329 259.659L87.648 301.179L92.0278 303.782ZM94.2882 307.761L92.2541 301.673L87.4216 303.288L89.4557 309.376L94.2882 307.761ZM138.386 283.621L90.7776 306.268L92.9663 310.869L140.574 288.222L138.386 283.621ZM137.326 287.283L137.342 287.307L141.618 284.536L141.602 284.511L137.326 287.283ZM141.288 284.118L141.265 284.095L137.662 287.698L137.685 287.72L141.288 284.118Z" fill="white" fill-opacity="0.1" mask="url(#path-48-inside-1_6537_20447)"/>
<path d="M159.98 232.335L137.333 279.943L112.372 254.982L159.98 232.335Z" fill="url(#paint7_linear_6537_20447)"/>
<path d="M113.895 255.245L158.096 234.218L137.07 278.419L113.895 255.245Z" stroke="white" stroke-opacity="0.31" stroke-width="1.7833"/>
<path d="M89.7157 302.589L112.363 254.981L137.324 279.942L89.7157 302.589Z" fill="url(#paint8_linear_6537_20447)"/>
<path d="M135.8 279.679L91.599 300.706L112.625 256.504L135.8 279.679Z" stroke="white" stroke-opacity="0.31" stroke-width="1.7833"/>
</g>
<rect x="0.5" y="0.5" width="841" height="542" rx="15.5" stroke="white"/>
<defs>
<linearGradient id="paint0_linear_6537_20447" x1="797.387" y1="887.692" x2="-406.653" y2="-210.393" gradientUnits="userSpaceOnUse">
<stop stop-color="#FF8A59"/>
<stop offset="1" stop-color="#FFE3D7"/>
</linearGradient>
<linearGradient id="paint1_linear_6537_20447" x1="592.453" y1="725.59" x2="-294.588" y2="-83.3913" gradientUnits="userSpaceOnUse">
<stop stop-color="#FF8A59"/>
<stop offset="1" stop-color="#FFE3D7"/>
</linearGradient>
<linearGradient id="paint2_linear_6537_20447" x1="401.9" y1="574.868" x2="-190.387" y2="34.7028" gradientUnits="userSpaceOnUse">
<stop stop-color="#FF8A59"/>
<stop offset="1" stop-color="#FFE3D7"/>
</linearGradient>
<linearGradient id="paint3_linear_6537_20447" x1="261.683" y1="463.954" x2="-113.71" y2="121.596" gradientUnits="userSpaceOnUse">
<stop stop-color="#FF8A59"/>
<stop offset="1" stop-color="#FFE3D7"/>
</linearGradient>
<linearGradient id="paint4_linear_6537_20447" x1="180.138" y1="202.228" x2="165.253" y2="188.44" gradientUnits="userSpaceOnUse">
<stop stop-color="#FF8A59"/>
<stop offset="1" stop-color="#FFE3D7"/>
</linearGradient>
<linearGradient id="paint5_linear_6537_20447" x1="188.51" y1="187.793" x2="180.918" y2="171.804" gradientUnits="userSpaceOnUse">
<stop stop-color="#FF8A59"/>
<stop offset="1" stop-color="#FFE3D7"/>
</linearGradient>
<linearGradient id="paint6_linear_6537_20447" x1="137.269" y1="195.718" x2="127.458" y2="347.927" gradientUnits="userSpaceOnUse">
<stop offset="0.24972" stop-color="white"/>
<stop offset="0.774476" stop-color="#FDF2FF"/>
<stop offset="0.933117" stop-color="white"/>
</linearGradient>
<linearGradient id="paint7_linear_6537_20447" x1="132.878" y1="285.254" x2="120.674" y2="241.829" gradientUnits="userSpaceOnUse">
<stop stop-color="#FF8A59"/>
<stop offset="1" stop-color="#FFE3D7"/>
</linearGradient>
<linearGradient id="paint8_linear_6537_20447" x1="116.817" y1="249.67" x2="129.022" y2="293.094" gradientUnits="userSpaceOnUse">
<stop stop-color="#FF8A59"/>
<stop offset="1" stop-color="#FFE3D7"/>
</linearGradient>
<clipPath id="clip0_6537_20447">
<rect width="842" height="543" rx="16" fill="white"/>
</clipPath>
</defs>
</svg>
