<svg width="164" height="188" viewBox="0 0 164 188" fill="none" xmlns="http://www.w3.org/2000/svg">
<rect x="110.48" y="12.8975" width="21.7937" height="21.4578" transform="rotate(27.6908 110.48 12.8975)" fill="url(#paint0_linear_6927_14605)"/>
<rect x="110.856" y="14.1013" width="20.0104" height="19.6745" transform="rotate(27.6908 110.856 14.1013)" stroke="white" stroke-opacity="0.31" stroke-width="1.7833"/>
<rect x="108.684" y="4.76367" width="32.5214" height="14.0813" rx="7.04065" transform="rotate(27.6908 108.684 4.76367)" fill="url(#paint1_linear_6927_14605)"/>
<rect x="109.059" y="5.96755" width="30.7381" height="12.298" rx="6.149" transform="rotate(27.6908 109.059 5.96755)" stroke="white" stroke-opacity="0.31" stroke-width="1.7833"/>
<circle cx="87.4506" cy="110.614" r="76.4272" fill="#FF8A59" fill-opacity="0.6"/>
<circle cx="87.4506" cy="110.614" r="75.1534" stroke="white" stroke-opacity="0.1" stroke-width="2.54757"/>
<circle cx="77.2612" cy="100.422" r="75.1534" fill="url(#paint2_linear_6927_14605)" stroke="white" stroke-width="2.54757"/>
<circle cx="74.7161" cy="97.8753" r="67.5107" stroke="white" stroke-width="2.54757"/>
<circle cx="77.2591" cy="100.423" r="67.5107" stroke="#FFB69B" stroke-width="2.54757"/>
<path d="M85.0285 71.2686C84.2985 72.2805 82.8936 73.0005 82.1323 73.4642C81.7472 73.7019 81.5421 73.7153 81.513 74.1698C81.4856 74.5956 81.7434 74.9632 82.1449 75.0961C82.5465 75.2291 82.9868 75.1752 83.4066 75.1243C83.8594 75.0669 84.3123 75.0096 84.7692 74.9525C85.049 74.9185 85.3543 74.8695 85.5419 74.6538C85.7254 74.4379 85.7076 74.5396 85.784 74.2644C85.8604 73.9892 86.0105 74.0098 86.3741 73.7914C86.5563 74.1958 86.6535 74.2875 86.7871 74.2373C87.4135 73.9963 87.7811 73.8521 88.28 73.4029C88.3187 73.368 88.5892 72.0146 88.4563 71.5306C88.3234 71.0467 87.9954 70.6918 87.8584 70.2076C87.3218 70.7493 86.438 68.4532 85.8132 68.8874C85.3073 69.2418 85.893 70.0423 85.0285 71.2686Z" fill="#FFA782"/>
<path d="M73.5659 66.0126C74.0607 66.011 74.2987 66.2911 74.5365 66.7274C74.8374 67.278 75.1627 67.6821 75.0348 68.2997C74.9295 68.8034 74.5479 69.2016 74.1808 69.5595C74.1031 69.6333 74.0047 69.7142 73.9039 69.6881C73.7909 69.6614 73.7449 69.5315 73.6633 69.453C73.4844 69.2871 73.1319 69.4526 73.1513 69.6961C73.1549 69.7785 73.1916 69.8545 73.2118 69.9337C73.2674 70.1873 73.1147 70.4378 72.9483 70.6383C72.5061 71.1728 71.932 71.5769 71.3478 71.9434C70.9371 72.2003 70.4986 72.4433 70.0186 72.4745C69.5388 72.5016 69.0091 72.2465 68.8708 71.787C68.8536 71.7285 68.8445 71.6705 68.856 71.6095C68.8723 71.5364 68.9205 71.4774 68.9644 71.4223C69.8149 70.376 70.6268 69.2125 70.7739 67.8728C70.7823 67.7952 70.7908 67.7135 70.8273 67.6456C70.9042 67.5102 71.0783 67.4663 71.2327 67.483C71.3871 67.4997 71.531 67.561 71.6809 67.5856C72.1915 67.6671 73.1012 67.5526 73.5898 66.8439C73.7326 66.6257 73.6611 66.289 73.5659 66.0126Z" fill="#FFA782"/>
<path d="M73.7391 66.276C73.1548 64.9291 73.282 63.1322 73.1675 63.8779C73.1555 63.9471 73.1069 63.9403 73.0428 63.9162C72.9868 63.8926 72.8153 64.1133 72.7612 64.1309C71.969 64.412 70.9443 63.5669 70.1666 63.8817C70.6468 65.19 71.3246 66.6202 71.6108 68.8547C72.2463 68.6718 72.762 68.2152 73.2602 67.7782C73.3677 67.6814 73.4795 67.5807 73.5596 67.4618C73.7112 67.2318 73.7435 66.9419 73.7707 66.6681C73.7798 66.5782 73.7892 66.4801 73.7573 66.392C73.7251 66.3081 73.7681 66.3433 73.7391 66.276Z" fill="#FFA782"/>
<path d="M70.599 17.3757C70.3641 17.634 70.1434 17.9301 70.0672 18.2752C69.9956 18.6123 70.0623 18.9611 70.1338 19.2978C71.3549 25.2078 72.5757 31.1218 74.1529 36.9485C74.8829 36.3846 75.6623 35.7411 75.8548 34.8395C75.9427 34.4293 75.9007 34.0038 75.8581 33.5864C75.2385 27.6684 74.4462 21.7656 73.4847 15.8945C73.2069 15.9656 71.2644 16.6479 70.599 17.3757Z" fill="#FFA782"/>
<path d="M87.8321 33.3975C89.0485 35.2188 88.9218 37.6032 88.6632 39.7832C88.1461 44.1432 87.2879 48.4599 86.0671 52.6785C89.3816 59.8497 87.9221 60.6695 88.51 70.6701C87.464 71.5537 85.5794 71.9269 84.6026 71.3268C83.9193 67.7598 81.3806 57.3275 80.4404 54.9421C80.0276 53.8963 79.4244 49.5406 79.3783 42.6309C77.1039 44.3716 72.5703 46.4568 70.0757 47.5896C71.7645 50.5626 72.2027 52.7849 72.3748 56.2048C72.4979 58.6564 73.5571 62.3756 74.0589 64.7781C73.0921 66.0071 71.8077 66.2448 70.3103 66.1914C69.14 63.7522 68.2108 60.4962 67.4719 58.3149C65.5919 52.7921 64.4088 49.5427 63.5919 46.3998C63.447 45.8371 63.3899 45.2382 63.4909 44.6643C63.6953 43.5456 64.5778 42.6613 65.5127 42.014C70.684 38.4394 74.9951 36.5351 75.2816 33.4733C75.2803 33.4978 78.0809 29.0207 78.0794 29.0493" fill="#FFA782"/>
<path d="M77.5525 11.0569C77.9493 12.9154 78.3459 14.7779 78.7386 16.6362C78.7649 16.7527 78.7864 16.8812 78.7197 16.9803C78.6658 17.0677 78.5612 17.1113 78.4648 17.1553C77.7173 17.517 77.2602 18.248 76.9906 18.9892C76.721 19.7305 76.6002 20.5169 76.3023 21.2525C76.2695 21.3288 76.2365 21.4091 76.172 21.4672C75.9055 21.7033 75.4987 21.3687 75.3105 21.0748C74.4851 19.8009 73.4787 17.3543 73.475 17.198C73.3965 14.0832 73.7752 14.408 73.6275 13.0029C73.6113 12.85 73.5956 12.6889 73.6726 12.5534C73.7448 12.4299 73.8799 12.3511 74.0144 12.2845C75.1331 11.7131 76.3491 11.3073 77.5525 11.0569Z" fill="#FFA782"/>
<path d="M73.4928 16.2647C73.7466 16.706 74.405 17.2228 75.1224 17.2622C75.3221 17.2731 75.5241 17.9129 75.5873 18.1013C75.7988 18.7169 75.8227 19.0264 76.0383 19.6422C76.0911 18.6795 76.0602 17.2315 76.465 17.0071C76.8192 16.8088 78.0492 16.2229 78.4195 14.838C78.4401 14.761 79.8764 15.4808 79.9432 15.5297C80.01 15.5786 80.3099 16.2976 80.3342 16.377C81.4121 20.0521 80.9234 23.5959 81.061 27.4207C81.1183 29.0592 81.0964 30.7263 81.5662 32.297C81.6523 32.5894 81.7426 32.9559 81.5185 33.1655C81.411 33.2623 81.262 33.2952 81.1217 33.3204C79.2015 33.6712 77.2177 33.6897 75.2889 33.3784C73.9389 27.9545 72.6946 22.1707 73.4928 16.2647Z" fill="#FFA782"/>
<path d="M60.3462 24.9511C60.2724 24.3594 60.0221 23.6307 59.9997 23.0707C59.9889 22.8195 60.0723 22.4912 60.3268 22.4723C60.5526 22.4559 60.6899 22.71 60.7681 22.9238C61.0526 23.6996 61.7019 25.0542 62.1079 25.775C62.8523 27.1102 62.3382 27.538 63.5267 28.4538C63.8406 28.6929 62.0188 30.3064 61.6705 30.1722C61.2501 30.0095 60.1709 29.2641 59.8314 28.9701C59.6169 28.7817 58.4905 28.0008 58.3908 27.8803C58.3063 27.7812 58.3015 27.6453 58.255 27.5236C57.7684 26.1861 57.9171 25.0397 58.6097 24.3381C58.9953 23.9401 60.0005 24.5459 60.3462 24.9511Z" fill="#FFA782"/>
<path d="M61.4395 30.5658C61.1341 30.3929 60.9624 30.1698 60.7358 29.9026C60.5246 29.6526 60.9317 28.7914 61.1995 28.4567C61.5422 28.0235 62.0164 27.5769 62.5374 27.3959C62.6332 27.3641 62.7326 27.3408 62.8296 27.3626C62.9467 27.3895 63.7271 27.9214 63.8082 28.008C64.1333 28.3423 63.7243 28.2706 63.9514 28.6776C63.9697 28.7156 63.9922 28.7538 63.9858 28.7945C63.9793 28.8394 63.9367 28.8699 63.8985 28.8966C63.1321 29.4504 62.2766 30.2131 61.4395 30.5658Z" fill="#FFA782"/>
<path d="M99.1201 27.265C99.4079 28.3533 99.4509 29.5061 99.2553 30.613C99.2083 30.8734 99.2644 31.2669 99.5241 31.2277C99.6024 31.2156 99.671 31.1577 99.7273 31.0991C100.048 30.7675 100.272 30.3401 100.366 29.8892C100.53 29.9639 100.546 30.1826 100.544 30.3633C100.532 31.1104 100.52 31.8535 100.508 32.6006C100.499 32.9782 101.625 32.8057 102.54 31.3233C103.136 30.3616 102.745 27.8008 101.52 25.9873C101.074 25.3301 101.002 25.8891 100.226 26.0396C99.5854 26.1606 99.0114 26.8605 99.1201 27.265Z" fill="#FFA782"/>
<path d="M98.4953 26.233C98.6096 26.6091 98.8848 27.5528 98.9797 27.6114C99.189 27.7462 101.302 27.5375 102.085 26.6642C102.009 26.2039 101.902 25.9063 101.637 25.522C101.58 25.4408 101.519 25.3594 101.432 25.3094C101.317 25.2455 101.174 25.2541 101.042 25.2674C100.219 25.3661 99.423 25.7169 98.796 26.266C98.7231 26.3277 98.6416 26.3972 98.5442 26.3836C98.4467 26.3742 98.4024 26.2115 98.4953 26.233Z" fill="#FFA782"/>
<path d="M80.5025 15.2338C83.4358 14.0758 85.7456 12.8835 88.8148 12.1561C90.1734 11.8321 92.665 11.2744 93.9801 11.7451C97.7364 13.0976 102.109 24.1645 102.024 25.7049C101.971 26.6758 99.735 26.9681 98.4021 26.821C96.0184 23.6989 95.7049 21.7382 92.8958 18.9913C92.6165 18.7172 92.2147 18.3664 91.8356 18.2716C91.4363 18.1717 88.7888 19.4111 88.4193 19.5881C78.431 24.3777 85.9214 20.8563 80.5025 15.2338Z" fill="#FFA782"/>
<path d="M70.9006 17.434C70.2784 17.5231 69.4704 18.465 69.2741 19.0623C69.0778 19.6597 69.018 21.1233 68.9834 21.7542C68.6885 27.129 67.9796 30.4389 67.4367 30.1256C65.19 28.8272 63.676 27.5854 63.518 27.6342C61.9336 28.1226 60.6944 29.6982 60.9805 30.5932C61.599 32.509 67.4667 35.9126 68.7406 36.5372C69.0113 36.6712 69.3075 36.7861 69.6007 36.7323C69.8484 36.6884 70.0575 36.5273 70.2581 36.3739C72.1921 34.8775 73.0279 30.7446 73.484 29.2863C72.6961 26.7325 71.9048 24.1662 71.5061 21.5228C71.3186 20.2469 71.5318 18.5205 70.9006 17.434Z" fill="#FFA782"/>
<path d="M78.2708 14.5817C79.7063 14.496 80.9446 14.8023 82.4684 14.1504C82.9667 13.9353 83.7059 13.7252 84.1778 13.9894C84.7927 14.3313 84.957 15.2114 85.1862 15.8773C88.1091 24.3748 87.1468 28.3529 89.9975 34.8864C90.0558 35.0169 90.0676 35.1737 90.0235 35.3069C89.9541 35.5291 87.6064 37.5616 86.3501 37.957C84.8401 38.433 83.209 37.6121 82.0718 36.506C81.3502 35.8008 80.7455 34.9746 80.2963 34.0706C79.7622 33.0018 79.4461 31.8339 79.1954 30.6655C78.6382 28.0792 78.7619 23.2169 78.696 19.8727C78.6223 15.998 78.3089 14.707 78.2708 14.5817Z" fill="#FFA782"/>
<path d="M47.7925 12.3458C46.9087 13.7765 46.0031 15.2307 44.7288 16.3278C44.1495 16.8261 43.5053 17.2427 42.9224 17.7326C42.0655 18.4498 41.3476 19.3144 40.63 20.1749C40.5073 20.3243 40.3803 20.4776 40.3292 20.6638C40.2582 20.9147 40.3371 21.1902 40.4763 21.4115C40.8739 22.062 41.6767 22.332 42.4271 22.4389C43.1776 22.5458 43.9626 22.5437 44.657 22.853C45.3192 23.1523 46.0148 23.7369 46.6776 23.4281C46.8748 23.3362 43.4924 21.1291 43.7064 21.1778C48.9571 22.415 46.9735 18.7807 49.4937 17.4028C53.4556 15.2328 52.4099 12.3854 50.805 12.4289C50.2441 12.4433 50.5327 11.6538 50.0173 11.4365C49.5458 11.2381 48.989 11.4006 48.5836 11.7112C48.178 12.0259 47.9003 12.4668 47.7925 12.3458Z" fill="#FFA782"/>
<path d="M77.2631 9.80115C77.7212 9.49757 78.4478 9.81684 78.5365 10.36C78.653 11.069 77.9021 11.5661 77.466 12.138C76.9641 12.7925 76.8548 13.6658 76.4716 14.3926C75.9098 15.4671 74.5135 16.1795 73.4488 15.6156C72.9007 15.3226 72.5352 14.7561 72.3554 14.1586C72.1716 13.5609 72.1489 12.931 72.1301 12.3054C72.1207 12.0296 72.1115 11.7497 72.1021 11.4739C72.073 10.5889 72.04 9.69953 72.1696 8.82732C72.2213 8.48089 72.2981 8.12352 72.5136 7.84771C72.7822 7.49675 73.221 7.32359 73.645 7.19482C74.1603 7.04229 74.6858 6.92731 75.2167 6.86193C75.9082 6.77659 76.7392 6.8304 77.1072 7.42584C77.5495 8.15685 76.9603 9.13533 77.2631 9.80115Z" fill="#FFA782"/>
<path d="M74.51 5.6623C78.8231 3.79513 78.2687 8.90913 77.9639 9.84569C77.7005 9.72852 77.3897 9.9539 77.289 10.2237C77.1884 10.4935 77.2757 10.8393 77.2516 11.1297C77.2275 11.4201 77.0652 11.6947 76.8049 11.8202C76.5959 11.3074 76.6441 10.7266 76.7193 10.176C76.7945 9.6254 76.4619 9.80028 76.5487 8.21898C76.579 7.66593 76.1976 7.46421 75.6431 7.4379C75.1785 7.41241 74.769 7.72277 74.3674 7.96372C73.7247 8.35168 72.967 8.60185 72.2199 8.50745C71.4729 8.41306 70.6519 8.02698 70.5212 7.20623C70.4027 6.46011 70.7085 5.13326 72.9914 5.3982C73.3164 5.43657 73.8107 5.96498 74.51 5.6623Z" fill="#FFA782"/>
<path d="M76.7121 10.5798C76.6056 10.8081 76.6561 11.3779 76.354 11.8175C76.2653 11.9441 75.6608 12.6793 74.5823 12.0695C74.1184 11.8058 73.4383 11.9821 72.9523 12.2718C72.5129 12.5313 72.2222 12.0181 72.0723 12.0674C71.973 12.3126 71.9783 12.5882 72.0006 12.8524C72.0652 13.612 72.2614 14.3583 72.571 15.0491C72.629 15.1838 72.6954 15.3148 72.7831 15.4306C73.0038 15.7303 73.3532 15.9179 73.7169 15.9954C74.0803 16.077 74.4576 16.0566 74.8282 16.0071C75.4624 15.9227 76.3767 15.4264 76.8635 14.2286C77.2555 13.2681 77.3701 11.7006 77.2029 10.8738C77.177 10.7491 77.0759 10.8791 76.955 10.9218C76.9174 10.9362 76.8912 10.9676 76.869 10.9993C76.7972 11.1145 76.6859 10.6112 76.7121 10.5798Z" fill="#FFA782"/>
<path d="M27.0882 55.9519C31.4404 55.0853 35.665 53.5667 39.5782 51.4639C41.1409 50.6251 42.7383 49.5992 43.481 47.9841C43.8009 47.2949 43.9408 46.5342 44.0313 45.779C44.0917 45.2728 44.1334 44.7368 43.9344 44.2657C43.7719 43.8746 43.4658 43.5661 43.1632 43.2701C40.2859 40.425 37.4087 37.5799 34.5355 34.735C34.14 34.3435 33.7365 33.9474 33.2433 33.6985C32.75 33.4495 32.1415 33.3627 31.6455 33.6108C30.7837 34.0443 30.6427 35.1994 30.6141 36.1676C30.5135 39.7902 30.4088 43.4127 30.3079 47.0395C30.2785 48.098 30.2486 49.1647 30.0405 50.2011C29.6084 52.4126 28.4049 54.3805 27.0882 55.9519Z" fill="#FFA782"/>
<path d="M46.5864 23.3799C47.0467 25.6446 48.0836 27.9819 48.8615 30.4201C52.7271 27.7682 54.9943 24.8931 55.8488 24.3688C56.64 23.8821 57.4741 23.7307 59.0747 24.139C59.6137 24.374 60.6971 24.8197 61.2361 25.0547C61.1124 25.5204 60.5322 26.2611 59.9543 26.2869C58.2704 26.3548 57.007 25.3897 56.844 25.6027C54.2895 28.9469 52.4669 32.0643 49.2541 34.2178C49.0121 34.3812 48.7171 34.5417 48.4137 34.484C48.1143 34.4265 47.9784 34.1478 47.7722 33.9557C44.9519 31.3397 43.4568 28.7841 42.5503 26.1581C43.2693 24.8991 44.6393 23.9223 46.5864 23.3799Z" fill="#FFA782"/>
<path d="M40.0575 17.3969C42.4863 16.7905 44.6957 15.3421 46.4207 13.3329C46.8164 14.1682 47.3822 15.7031 47.8836 16.4743C46.516 18.2278 45.1601 19.1724 44.5324 21.7472C43.6047 21.1457 42.5036 20.2019 41.6117 19.5448C41.3013 19.3141 40.9872 19.0791 40.7634 18.7628C40.6421 18.5877 40.5504 18.3977 40.4588 18.2037C40.3419 17.9507 40.217 17.6932 40.0575 17.3969Z" fill="#FFA782"/>
<path d="M37.2387 15.39C35.465 12.5479 34.0476 11.484 34.2739 11.1595C35.3798 9.556 37.1075 8.09348 39.8963 4.05534C39.6247 3.71583 39.3488 3.38019 39.0771 3.04068C35.5519 5.82218 32.3515 7.82436 30.4964 10.7139C30.3579 10.9282 30.2421 11.1766 30.2526 11.4319C30.2629 11.6174 30.3474 11.7905 30.4321 11.9595C32.0828 15.2551 33.342 18.0114 35.3682 21.0933" fill="#FFA782"/>
<path d="M38.6461 3.49155C39.6739 2.49193 39.8897 1.98604 40.3861 1.50786C40.8308 1.07617 41.5726 0.968936 42.1745 1.10057C42.5785 1.18848 43.1632 1.3356 43.4149 1.6658C43.6323 1.94892 43.6086 1.93529 43.4168 2.07681C43.2849 2.17229 43.0466 2.11813 42.8827 2.12557C42.4523 2.14716 41.6558 2.50615 41.3566 2.81845C41.3578 2.94589 41.882 2.85549 42.0088 2.85423C42.1356 2.85296 42.261 2.80232 42.3871 2.81335C42.5132 2.82437 42.6455 2.94668 42.5982 3.06325C42.5747 3.11948 42.5238 3.15367 42.4731 3.18376C41.5873 3.68166 40.7008 3.59604 39.8947 4.13119C39.2242 4.57926 39.1103 4.5689 38.6461 3.49155Z" fill="#FFA782"/>
<path d="M36.8292 34.8815C36.973 35.9865 37.1207 37.0958 37.2644 38.2008C37.3362 38.7553 37.408 39.3098 37.4345 39.8701C37.4633 40.5374 37.4183 41.2088 37.3776 41.8763C37.2338 44.1242 37.0903 46.3681 36.9425 48.6158C36.8772 49.6559 36.802 50.7283 36.35 51.665C35.8702 52.6618 35.0193 53.4164 34.2598 54.2211C32.9355 55.6318 31.8729 57.2664 30.8148 58.893C29.0154 61.6624 27.1635 64.5686 26.8032 67.8565C26.6916 68.8489 26.7214 69.8695 26.4157 70.8225C25.634 69.5715 24.8736 68.3054 24.1426 67.0244C24.0159 66.7996 23.8854 66.5706 23.8586 66.3144C23.797 65.7234 24.2854 65.2407 24.6701 64.7851C26.1312 63.0409 26.3505 60.6081 26.9617 58.4105C27.8387 55.2413 29.6534 52.3413 32.115 50.1712C32.2311 50.0666 32.3599 49.9545 32.3929 49.8002C32.4252 49.6582 32.3678 49.5112 32.3139 49.3768C30.3439 44.3749 29.5272 38.9186 30.0845 33.4555C30.3203 33.7026 30.6337 33.876 30.9695 33.9396C31.2768 34.0017 31.5931 33.9738 31.9031 33.9867C32.2172 33.9998 32.5288 34.058 32.8363 34.116C34.1594 34.3652 35.4907 34.615 36.8292 34.8815Z" fill="#FFA782"/>
<path d="M43.6116 44.1634C42.2744 48.1209 42.4562 52.4083 41.8128 56.5354C41.7868 56.7107 41.7525 56.8896 41.6506 57.0319C41.5359 57.1859 41.3514 57.2702 41.2095 57.3981C40.977 57.6113 40.878 57.9264 40.8041 58.2305C40.5617 59.2198 40.4931 60.2474 40.6051 61.2602C40.6356 61.5248 40.7764 61.8654 41.037 61.8098C41.1526 61.7874 41.2362 61.6811 41.3068 61.5863C42.1156 60.4802 42.9334 59.3581 43.4607 58.0927C43.7991 57.2895 44.0132 56.4424 44.2755 55.6104C45.2687 52.4845 46.9521 49.5938 47.7241 46.4024C47.883 45.7413 47.9963 45.0162 47.6988 44.404C47.335 43.6568 46.443 43.2997 45.614 43.283C44.7848 43.2703 43.7831 43.6468 43.6116 44.1634Z" fill="#FFA782"/>
<path d="M37.7308 59.4204C38.47 58.7624 38.7434 58.5843 39.2519 57.737C39.3824 57.5182 39.482 57.2689 39.6712 57.0985C40.6173 56.2464 41.6597 56.472 41.7591 56.5967C41.8971 56.7645 41.6929 57.5052 41.5925 57.6969C41.1293 58.6125 40.8313 59.5741 40.8478 60.0187C40.8677 60.5499 40.6214 61.313 41.4176 61.332C41.0872 62.3617 41.3989 63.2375 41.6236 63.9114C41.7358 64.2504 41.5639 64.3272 41.3788 64.4979C41.1466 64.707 40.8346 64.3571 40.5744 64.1826C39.5454 63.4892 39.0416 62.3891 38.9732 62.221C38.8079 61.8052 39.1948 61.0868 39.3086 60.6534C39.5215 59.8268 39.7613 59.4044 39.7915 58.8555C39.8011 58.6793 39.7556 58.764 39.5801 58.7585C39.4862 58.7574 39.409 58.823 39.3399 58.8891C38.6146 59.5832 38.5188 59.5129 38.1231 59.8693C37.8827 60.078 37.6149 59.5209 37.7308 59.4204Z" fill="#FFA782"/>
<path d="M24.5586 64.9421C24.9668 65.4001 24.987 66.0751 25.0187 66.689C25.0587 67.4514 25.5058 68.988 26.7392 69.0105C27.1966 69.0191 26.7301 70.0701 27.4495 70.5944C27.7285 70.7987 28.306 70.929 28.444 71.2448C28.4728 71.3162 28.3701 71.6968 28.3498 71.7697C28.2743 72.0285 25.6616 71.6633 24.9175 70.9198C24.2859 70.2853 24.675 69.378 23.7364 68.2294C23.6252 68.0959 23.2699 69.5803 23.1634 70.4784C23.1333 70.7274 22.678 70.7559 22.5167 70.5662C23.0476 67.5218 22.7982 67.2986 22.8207 67.1108C22.8909 66.4285 23.1261 65.7922 23.4393 65.4478C23.7526 65.1034 24.4354 64.8039 24.5586 64.9421Z" fill="#FFA782"/>
<path d="M32.6309 35.436C32.6962 40.4319 33.3472 43.3193 35.6885 48.1853C36.272 49.3966 36.6476 50.8965 37.8925 51.3798C39.2053 51.8914 40.6292 51.1231 42.0092 50.8578C43.5379 50.5636 45.1822 50.9209 46.4531 51.8247C46.5987 51.9272 46.7597 52.047 46.9409 52.0241C47.196 51.9929 47.33 51.7126 47.417 51.4667C48.4567 48.5365 49.4962 45.6105 50.5359 42.6803C50.7197 42.1603 50.9084 41.6283 50.914 41.078C50.9283 40.146 50.4208 39.2635 49.7444 38.6265C49.068 37.9895 48.2337 37.5493 47.4068 37.1218C45.6937 36.2307 43.9845 35.3439 42.2714 34.4527C41.5322 34.067 40.7851 33.6768 40.1741 33.1132C39.5592 32.5494 39.0863 31.7798 39.0542 30.948C37.4771 30.3355 35.9851 29.5141 34.6175 28.5104C34.1183 28.1461 34.1063 27.4369 33.5047 27.3011C32.6954 27.4575 31.557 28.0363 30.8223 28.7603C29.5903 29.9788 28.6687 31.5306 28.3743 33.2443C28.08 34.9581 27.8162 36.7579 27.946 38.4908C28.0004 39.2128 28.063 39.9353 28.2123 40.6421C28.4818 41.9142 29.0244 43.1273 29.1454 44.4242C29.2566 45.6013 29.0119 46.7836 28.7241 47.9307C27.9611 50.9582 26.8673 53.906 25.4755 56.6977C27.598 56.6087 29.6222 55.2569 30.5294 53.3262C31.0524 52.2126 31.2104 50.9721 31.3673 49.7521C31.5187 48.5565 31.6704 47.3568 31.6998 46.1504C31.7416 44.3447 31.5094 42.5405 31.4858 40.7353C31.4622 38.9302 31.6709 37.0639 32.6309 35.436Z" fill="#FFA782"/>
<path d="M39.9812 16.3101C42.5225 17.6781 43.0177 18.1901 44.4317 19.3154C45.2542 19.9728 46.5638 20.5418 47.0481 21.4765C47.8979 23.1256 47.3973 25.395 47.452 26.4088C46.1552 25.7542 43.5061 27.6921 43.4897 28.3651C43.3288 28.1673 43.0136 27.6528 42.821 27.2149C41.4025 28.9286 39.461 28.1441 39.0425 31.4083C38.7354 32.4598 38.2334 33.4883 37.4709 34.2723C37.3279 34.4206 37.1608 34.5594 36.9584 34.5976C36.7311 34.6427 36.503 34.5521 36.2915 34.4583C34.5914 33.7035 33.0413 32.5994 31.7754 31.2315C31.598 31.0369 31.4136 30.8213 31.387 30.561C31.3418 30.1189 30.4788 30.4249 30.72 30.0519C31.2875 29.1708 32.6101 28.2101 33.1027 27.2797C34.6536 24.3447 35.0938 22.0123 35.3692 21.0905C35.0982 20.6648 35.0119 20.5984 34.7203 20.1017C34.4477 18.6609 35.4771 16.5889 37.1975 15.3356C37.2088 15.3526 38.6232 15.5781 39.9812 16.3101Z" fill="#FFA782"/>
<path d="M45.8308 12.3601C45.3746 14.1183 44.5771 14.0499 45.153 15.7744C45.3425 16.3436 46.4977 18.9093 47.3477 19.0628C47.6838 19.1223 48.2916 18.7735 48.6607 18.3048C49.628 17.0677 50.9462 15.3197 50.8032 13.9025C50.4958 10.7875 48.9912 10.3434 47.4175 10.861C47.1718 10.9421 46.859 11.5782 46.6206 11.6761C46.123 11.8789 45.808 12.404 45.8308 12.3601Z" fill="#FFA782"/>
<path d="M41.6304 18.1964C38.7608 17.6691 40.391 19.5501 35.6284 20.4434C30.7957 21.3494 29.1867 11.4078 36.1241 12.7499C38.7291 13.2544 42.0652 12.8786 43.6621 10.9692C47.2141 6.7305 51.5171 10.414 51.8762 11.4691C52.3867 12.9681 51.9396 13.6668 51.2559 14.3566C49.8886 15.732 48.1935 12.3519 46.3779 15.4901C45.1043 17.6925 46.1672 19.0328 41.6304 18.1964Z" fill="#FFA782"/>
<path d="M38.9867 31.4168C39.2561 31.2547 39.5239 30.6851 39.5521 30.1714C34.9988 29.1297 33.2059 26.6592 33.1607 26.6798C32.6013 26.9374 32.4032 27.6993 32.5048 27.8933C32.5593 27.9962 34.8452 30.4668 38.9867 31.4168Z" fill="#FFA782"/>
<mask id="path-42-inside-1_6927_14605" fill="white">
<path fill-rule="evenodd" clip-rule="evenodd" d="M90.4862 114.919L113.133 67.3111L110.838 61.4512L65.5252 89.958L65.5454 89.9783L65.5189 89.9604L40.8379 131.481L42.872 137.568L90.4799 114.921L90.4639 114.897L90.4862 114.919Z"/>
</mask>
<path fill-rule="evenodd" clip-rule="evenodd" d="M90.4862 114.919L113.133 67.3111L110.838 61.4512L65.5252 89.958L65.5454 89.9783L65.5189 89.9604L40.8379 131.481L42.872 137.568L90.4799 114.921L90.4639 114.897L90.4862 114.919Z" fill="#FF8A59" fill-opacity="0.6"/>
<path d="M113.133 67.3111L115.434 68.4055L115.908 67.4092L115.505 66.382L113.133 67.3111ZM90.4862 114.919L88.6848 116.72L91.2365 119.272L92.7867 116.013L90.4862 114.919ZM110.838 61.4512L113.21 60.522L112.087 57.6554L109.481 59.2948L110.838 61.4512ZM65.5252 89.958L64.1686 87.8017L61.4662 89.5018L63.7238 91.7594L65.5252 89.958ZM65.5454 89.9783L64.1235 92.0921L67.3469 88.1769L65.5454 89.9783ZM65.5189 89.9604L66.9409 87.8466L64.7056 86.3429L63.329 88.6587L65.5189 89.9604ZM40.8379 131.481L38.648 130.179L38.052 131.182L38.4216 132.288L40.8379 131.481ZM42.872 137.568L40.4557 138.376L41.3677 141.105L43.9663 139.869L42.872 137.568ZM90.4799 114.921L91.5742 117.222L94.1982 115.974L92.6175 113.536L90.4799 114.921ZM90.4639 114.897L92.2653 113.095L88.3262 116.283L90.4639 114.897ZM110.833 66.2167L88.1856 113.825L92.7867 116.013L115.434 68.4055L110.833 66.2167ZM108.466 62.3803L110.761 68.2402L115.505 66.382L113.21 60.522L108.466 62.3803ZM66.8818 92.1143L112.194 63.6075L109.481 59.2948L64.1686 87.8017L66.8818 92.1143ZM67.3469 88.1769L67.3266 88.1566L63.7238 91.7594L63.744 91.7797L67.3469 88.1769ZM64.0969 92.0742L64.1235 92.0921L66.9674 87.8645L66.9409 87.8466L64.0969 92.0742ZM43.0278 132.782L67.7088 91.2621L63.329 88.6587L38.648 130.179L43.0278 132.782ZM45.2882 136.761L43.2541 130.673L38.4216 132.288L40.4557 138.376L45.2882 136.761ZM89.3855 112.621L41.7776 135.268L43.9663 139.869L91.5742 117.222L89.3855 112.621ZM88.3262 116.283L88.3422 116.307L92.6175 113.536L92.6015 113.511L88.3262 116.283ZM92.2876 113.118L92.2653 113.095L88.6624 116.698L88.6848 116.72L92.2876 113.118Z" fill="white" fill-opacity="0.1" mask="url(#path-42-inside-1_6927_14605)"/>
<path d="M110.98 61.3351L88.3327 108.943L63.3717 83.982L110.98 61.3351Z" fill="url(#paint3_linear_6927_14605)"/>
<path d="M64.8953 84.2446L109.096 63.2183L88.0701 107.419L64.8953 84.2446Z" stroke="white" stroke-opacity="0.31" stroke-width="1.7833"/>
<path d="M40.7157 131.589L63.3626 83.9808L88.3236 108.942L40.7157 131.589Z" fill="url(#paint4_linear_6927_14605)"/>
<path d="M86.8 108.679L42.599 129.706L63.6252 85.5044L86.8 108.679Z" stroke="white" stroke-opacity="0.31" stroke-width="1.7833"/>
<defs>
<linearGradient id="paint0_linear_6927_14605" x1="131.138" y1="31.228" x2="116.253" y2="17.4404" gradientUnits="userSpaceOnUse">
<stop stop-color="#FF8A59"/>
<stop offset="1" stop-color="#FFE3D7"/>
</linearGradient>
<linearGradient id="paint1_linear_6927_14605" x1="139.51" y1="16.7927" x2="131.918" y2="0.803506" gradientUnits="userSpaceOnUse">
<stop stop-color="#FF8A59"/>
<stop offset="1" stop-color="#FFE3D7"/>
</linearGradient>
<linearGradient id="paint2_linear_6927_14605" x1="88.2691" y1="24.718" x2="78.458" y2="176.927" gradientUnits="userSpaceOnUse">
<stop offset="0.24972" stop-color="white"/>
<stop offset="0.774476" stop-color="#FDF2FF"/>
<stop offset="0.933117" stop-color="white"/>
</linearGradient>
<linearGradient id="paint3_linear_6927_14605" x1="83.8778" y1="114.254" x2="71.6737" y2="70.8295" gradientUnits="userSpaceOnUse">
<stop stop-color="#FF8A59"/>
<stop offset="1" stop-color="#FFE3D7"/>
</linearGradient>
<linearGradient id="paint4_linear_6927_14605" x1="67.8175" y1="78.6696" x2="80.0216" y2="122.094" gradientUnits="userSpaceOnUse">
<stop stop-color="#FF8A59"/>
<stop offset="1" stop-color="#FFE3D7"/>
</linearGradient>
</defs>
</svg>
