<svg width="13" height="12" viewBox="0 0 13 12" fill="none" xmlns="http://www.w3.org/2000/svg">
<path fill-rule="evenodd" clip-rule="evenodd" d="M0.333984 6C0.333984 5.44772 0.7817 5 1.33398 5H11.334C11.8863 5 12.334 5.44772 12.334 6C12.334 6.55228 11.8863 7 11.334 7H1.33398C0.7817 7 0.333984 6.55228 0.333984 6Z" fill="#615EFF"/>
<path fill-rule="evenodd" clip-rule="evenodd" d="M6.33398 -3.49691e-08C6.88627 -1.56562e-08 7.33398 0.447715 7.33398 1L7.33398 11C7.33398 11.5523 6.88627 12 6.33398 12C5.7817 12 5.33398 11.5523 5.33398 11L5.33398 1C5.33398 0.447715 5.7817 -5.4282e-08 6.33398 -3.49691e-08Z" fill="#615EFF"/>
</svg>
