<svg width="76" height="85" viewBox="0 0 76 85" fill="none" xmlns="http://www.w3.org/2000/svg">
<rect width="54.3623" height="66.7689" rx="9" transform="matrix(0.98008 0.198604 -0.199465 0.979905 22.7207 8.77539)" fill="#E3AEEC"/>
<rect x="0.390307" y="0.589255" width="53.3623" height="65.7689" rx="8.5" transform="matrix(0.98008 0.198604 -0.199465 0.979905 22.846 8.70972)" stroke="white" stroke-opacity="0.1"/>
<path d="M19.7006 15.7499C20.6921 10.8792 25.445 7.73101 30.3165 8.71819L65.9545 15.9399C70.826 16.9271 73.9715 21.6758 72.98 26.5465L63.3001 74.1006C62.2902 79.062 57.3872 82.2178 52.4532 81.0823L15.181 72.5045C10.1451 71.3456 7.121 66.1941 8.56324 61.2314L14.8368 39.6443L19.7006 15.7499Z" fill="#EECEF4"/>
<path d="M15.317 39.7834L15.3227 39.7637L15.3268 39.7436L20.1907 15.8492C21.127 11.2491 25.6159 8.27581 30.2168 9.20814L65.8548 16.4298C70.4557 17.3622 73.4264 21.8471 72.49 26.4472L62.8101 74.0013C61.8563 78.6871 57.2257 81.6676 52.5657 80.5952L15.2936 72.0174C10.5374 70.9228 7.68135 66.0576 9.04346 61.3705L15.317 39.7834Z" stroke="white" stroke-opacity="0.1"/>
<path d="M18.9406 13.9694C19.891 9.38433 24.3713 6.4282 28.9606 7.35817L64.6287 14.586C69.2301 15.5184 72.2009 20.0041 71.2637 24.6046L65.3367 53.6991C63.9129 60.6888 61.6962 67.494 58.7298 73.9827C57.4979 76.6772 54.5034 78.0935 51.6399 77.3361L7.4727 65.653C4.48044 64.8614 3.1051 61.4052 4.73479 58.7726C9.62667 50.8702 13.0944 42.1722 14.9803 33.0743L18.9406 13.9694Z" fill="url(#paint0_linear_6656_22509)" stroke="white"/>
<rect opacity="0.4" width="31.885" height="4.29718" rx="2.14859" transform="matrix(0.976086 0.217383 -0.218318 0.975878 27.6338 23.4277)" fill="url(#paint1_linear_6656_22509)"/>
<rect opacity="0.4" width="31.885" height="4.29718" rx="2.14859" transform="matrix(0.976086 0.217383 -0.218318 0.975878 24.9854 36.9453)" fill="url(#paint2_linear_6656_22509)"/>
<rect opacity="0.4" width="23.0788" height="4.29718" rx="2.14859" transform="matrix(0.976086 0.217383 -0.218318 0.975878 20.8027 50.5059)" fill="url(#paint3_linear_6656_22509)"/>
<ellipse opacity="0.8" cx="1.65368" cy="1.61619" rx="1.65368" ry="1.61619" transform="matrix(0.98008 0.198604 -0.199465 0.979905 60.8389 15.4355)" fill="#D17DDF"/>
<ellipse opacity="0.8" cx="1.68749" cy="1.684" rx="1.68749" ry="1.684" transform="matrix(0.98008 0.198604 -0.199465 0.979905 50.0811 13.2559)" fill="#D17DDF"/>
<ellipse opacity="0.8" cx="1.64875" cy="1.64533" rx="1.64875" ry="1.64533" transform="matrix(0.98008 0.198604 -0.199465 0.979905 39.3223 11.0762)" fill="#D17DDF"/>
<ellipse opacity="0.8" cx="1.5671" cy="1.56386" rx="1.5671" ry="1.56386" transform="matrix(0.98008 0.198604 -0.199465 0.979905 28.0518 8.79297)" fill="#D17DDF"/>
<path fillRule="evenodd" clipRule="evenodd" d="M30.4142 2.62077C28.5125 2.23541 26.6578 3.46117 26.2715 5.35857C25.8853 7.25598 27.1138 9.10653 29.0155 9.49188C29.439 9.57771 29.7141 9.99088 29.6279 10.4143C29.5417 10.8378 29.1269 11.1112 28.7034 11.0253C25.9529 10.468 24.176 7.79144 24.7346 5.04713C25.2932 2.30283 27.9758 0.529956 30.7263 1.08732C33.4768 1.64468 35.2537 4.32121 34.695 7.06552L34.6536 7.23475C34.5535 7.64335 34.1485 7.90024 33.7362 7.8167C33.3003 7.72835 33.0255 7.29526 33.1314 6.86321L33.1581 6.75408C33.5444 4.85667 32.3158 3.00613 30.4142 2.62077Z" fill="url(#paint4_linear_6656_22509)"/>
<path fillRule="evenodd" clipRule="evenodd" d="M41.4698 4.861C39.5681 4.47564 37.7134 5.7014 37.3272 7.59881C36.941 9.49621 38.1695 11.3468 40.0712 11.7321C40.4947 11.8179 40.7697 12.2311 40.6836 12.6546C40.5974 13.078 40.1826 13.3514 39.759 13.2656C37.0085 12.7082 35.2317 10.0317 35.7903 7.28737C36.3489 4.54306 39.0315 2.77019 41.782 3.32755C44.5325 3.88492 46.3093 6.56145 45.7507 9.30575L45.7175 9.456C45.6253 9.87387 45.2149 10.1408 44.7955 10.0559C44.3662 9.96886 44.0918 9.54702 44.1862 9.11928L44.2138 8.99431C44.6 7.09691 43.3715 5.24636 41.4698 4.861Z" fill="url(#paint5_linear_6656_22509)"/>
<path fillRule="evenodd" clipRule="evenodd" d="M53.0519 7.2067C51.1502 6.82135 49.2955 8.0471 48.9092 9.94451C48.523 11.8419 49.7515 13.6925 51.6532 14.0778C52.0767 14.1636 52.3518 14.5768 52.2656 15.0003C52.1794 15.4237 51.7646 15.6971 51.3411 15.6113C48.5906 15.0539 46.8137 12.3774 47.3723 9.63307C47.9309 6.88876 50.6135 5.11589 53.364 5.67326C56.1145 6.23062 57.8914 8.90715 57.3327 11.6515L57.2983 11.8072C57.2048 12.2297 56.7879 12.498 56.3647 12.408C55.9154 12.3126 55.6432 11.8547 55.7738 11.4143L55.7958 11.34C56.1821 9.44261 54.9535 7.59206 53.0519 7.2067Z" fill="url(#paint6_linear_6656_22509)"/>
<path fillRule="evenodd" clipRule="evenodd" d="M64.1075 9.44694C62.2058 9.06158 60.3511 10.2873 59.9649 12.1847C59.5787 14.0822 60.8072 15.9327 62.7089 16.3181C63.1324 16.4039 63.4074 16.8171 63.3212 17.2405C63.2351 17.664 62.8203 17.9373 62.3967 17.8515C59.6462 17.2941 57.8694 14.6176 58.428 11.8733C58.9866 9.129 61.6692 7.35613 64.4197 7.91349C67.1702 8.47085 68.947 11.1474 68.3884 13.8917L68.2092 14.4897C68.0672 14.9638 67.5254 15.1879 67.0902 14.9527C66.766 14.7774 66.609 14.3991 66.7137 14.0456L66.8515 13.5803C67.2377 11.6828 66.0092 9.8323 64.1075 9.44694Z" fill="url(#paint7_linear_6656_22509)"/>
<defs>
<linearGradient id="paint0_linear_6656_22509" x1="47.5938" y1="10.9395" x2="30.3076" y2="73.8585" gradientUnits="userSpaceOnUse">
<stop offset="0.24972" stop-color="white"/>
<stop offset="0.774476" stop-color="#FDF2FF"/>
<stop offset="0.933117" stop-color="white"/>
</linearGradient>
<linearGradient id="paint1_linear_6656_22509" x1="-0.463453" y1="2.2251" x2="32.4541" y2="2.47906" gradientUnits="userSpaceOnUse">
<stop stop-color="#F5B6FF"/>
<stop offset="1" stop-color="#D68BE3"/>
</linearGradient>
<linearGradient id="paint2_linear_6656_22509" x1="-0.463453" y1="2.2251" x2="32.4541" y2="2.47906" gradientUnits="userSpaceOnUse">
<stop stop-color="#F5B6FF"/>
<stop offset="1" stop-color="#D68BE3"/>
</linearGradient>
<linearGradient id="paint3_linear_6656_22509" x1="-0.335453" y1="2.2251" x2="23.4913" y2="2.35815" gradientUnits="userSpaceOnUse">
<stop stop-color="#F5B6FF"/>
<stop offset="1" stop-color="#D68BE3"/>
</linearGradient>
<linearGradient id="paint4_linear_6656_22509" x1="30.7263" y1="1.08732" x2="28.7121" y2="11.0271" gradientUnits="userSpaceOnUse">
<stop stop-color="#F2F2F7"/>
<stop offset="1" stop-color="#D68BE3"/>
</linearGradient>
<linearGradient id="paint5_linear_6656_22509" x1="41.782" y1="3.32755" x2="39.7678" y2="13.2673" gradientUnits="userSpaceOnUse">
<stop stop-color="#F2F2F7"/>
<stop offset="1" stop-color="#D68BE3"/>
</linearGradient>
<linearGradient id="paint6_linear_6656_22509" x1="53.364" y1="5.67326" x2="51.3498" y2="15.613" gradientUnits="userSpaceOnUse">
<stop stop-color="#F2F2F7"/>
<stop offset="1" stop-color="#D68BE3"/>
</linearGradient>
<linearGradient id="paint7_linear_6656_22509" x1="64.4197" y1="7.91349" x2="62.4055" y2="17.8533" gradientUnits="userSpaceOnUse">
<stop stop-color="#F2F2F7"/>
<stop offset="1" stop-color="#D68BE3"/>
</linearGradient>
</defs>
</svg>
