<svg width="131" height="120" viewBox="0 0 131 120" fill="none" xmlns="http://www.w3.org/2000/svg">
<path d="M79.7991 15.0022C51.0035 25.6785 23.9314 2.48376 12.0086 23.8484C2.53626 40.822 22.7141 56.2284 7.60363 76.6893C-10.2296 100.837 30.7205 122.212 54.5262 96.4971C71.4371 78.2298 78.4514 78.3646 108.914 66.3111C142.489 53.0265 129.733 -3.51122 79.7991 15.0022Z" fill="#F2F2F7"/>
<mask id="path-2-inside-1_6033_66165" fill="white">
<path d="M108.311 40.2348C109.522 39.9567 110.735 40.7126 110.952 41.9361C112.671 51.6193 111.173 61.623 106.651 70.403C101.786 79.8513 93.7333 87.2727 83.9201 91.3526C74.107 95.4325 63.1665 95.9077 53.0366 92.6939C42.9066 89.4802 34.241 82.785 28.5746 73.7941C22.9082 64.8032 20.6067 54.0971 22.0777 43.5719C23.5488 33.0467 28.6975 23.3818 36.6118 16.289C44.5262 9.19631 54.6954 5.13353 65.3183 4.82033C75.1898 4.52928 84.8611 7.49359 92.8551 13.222C93.8652 13.9458 94.0237 15.3663 93.2503 16.339C92.477 17.3116 91.0648 17.4675 90.0507 16.7493C82.8918 11.6793 74.26 9.05865 65.4509 9.31837C55.8904 9.60026 46.738 13.2568 39.6151 19.6402C32.4922 26.0237 27.8584 34.7221 26.5344 44.1947C25.2104 53.6674 27.2818 63.303 32.3816 71.3948C37.4814 79.4865 45.2804 85.5123 54.3974 88.4046C63.5143 91.297 73.3607 90.8693 82.1926 87.1974C91.0244 83.5255 98.2717 76.8463 102.651 68.3428C106.685 60.5078 108.045 51.59 106.56 42.9443C106.35 41.7196 107.099 40.5128 108.311 40.2348Z"/>
</mask>
<path d="M108.311 40.2348C109.522 39.9567 110.735 40.7126 110.952 41.9361C112.671 51.6193 111.173 61.623 106.651 70.403C101.786 79.8513 93.7333 87.2727 83.9201 91.3526C74.107 95.4325 63.1665 95.9077 53.0366 92.6939C42.9066 89.4802 34.241 82.785 28.5746 73.7941C22.9082 64.8032 20.6067 54.0971 22.0777 43.5719C23.5488 33.0467 28.6975 23.3818 36.6118 16.289C44.5262 9.19631 54.6954 5.13353 65.3183 4.82033C75.1898 4.52928 84.8611 7.49359 92.8551 13.222C93.8652 13.9458 94.0237 15.3663 93.2503 16.339C92.477 17.3116 91.0648 17.4675 90.0507 16.7493C82.8918 11.6793 74.26 9.05865 65.4509 9.31837C55.8904 9.60026 46.738 13.2568 39.6151 19.6402C32.4922 26.0237 27.8584 34.7221 26.5344 44.1947C25.2104 53.6674 27.2818 63.303 32.3816 71.3948C37.4814 79.4865 45.2804 85.5123 54.3974 88.4046C63.5143 91.297 73.3607 90.8693 82.1926 87.1974C91.0244 83.5255 98.2717 76.8463 102.651 68.3428C106.685 60.5078 108.045 51.59 106.56 42.9443C106.35 41.7196 107.099 40.5128 108.311 40.2348Z" stroke="url(#paint0_linear_6033_66165)" stroke-width="18" stroke-linecap="round" mask="url(#path-2-inside-1_6033_66165)"/>
<path fillRule="evenodd" clipRule="evenodd" d="M122.327 6.6188C124.084 8.37616 124.084 11.2254 122.327 12.9828L67.3265 67.9828C65.5692 69.7401 62.7199 69.7401 60.9626 67.9828L42.4626 49.4828C40.7052 47.7254 40.7052 44.8762 42.4626 43.1188C44.2199 41.3614 47.0692 41.3614 48.8265 43.1188L64.1445 58.4368L115.963 6.6188C117.72 4.86144 120.569 4.86144 122.327 6.6188Z" fill="url(#paint1_linear_6033_66165)"/>
<defs>
<linearGradient id="paint0_linear_6033_66165" x1="60.1665" y1="0.593803" x2="104.042" y2="81.2047" gradientUnits="userSpaceOnUse">
<stop stop-color="#615EFF"/>
<stop offset="1" stop-color="#403DB7"/>
</linearGradient>
<linearGradient id="paint1_linear_6033_66165" x1="123.645" y1="5.30078" x2="36.1256" y2="13.1191" gradientUnits="userSpaceOnUse">
<stop stop-color="#615EFF"/>
<stop offset="1" stop-color="#0CC36B"/>
</linearGradient>
</defs>
</svg>
