<svg width="84" height="84" viewBox="0 0 84 84" fill="none" xmlns="http://www.w3.org/2000/svg">
<g opacity="0.8">
<path d="M7.76073 52.3949C4.84888 36.7104 3.39295 28.8681 7.08639 22.9468C7.36607 22.4985 7.66541 22.0626 7.98353 21.6407C12.1845 16.068 20.0268 14.6121 35.7113 11.7002C51.3958 8.78835 59.238 7.33242 65.1593 11.0259C65.6077 11.3055 66.0435 11.6049 66.4655 11.923C72.0382 16.124 73.4941 23.9663 76.406 39.6508C79.3178 55.3352 80.7737 63.1775 77.0803 69.0988C76.8006 69.5472 76.5013 69.983 76.1832 70.405C71.9822 75.9776 64.1399 77.4336 48.4554 80.3454C32.7709 83.2573 24.9287 84.7132 19.0074 81.0198C18.559 80.7401 18.1232 80.4408 17.7012 80.1226C12.1285 75.9216 10.6726 68.0794 7.76073 52.3949Z" fill="url(#paint0_linear_7288_9130)"/>
<path d="M8.25233 52.3036C6.79398 44.4483 5.70981 38.6033 5.44576 33.9811C5.18245 29.3719 5.74053 26.0493 7.51062 23.2115C7.78252 22.7756 8.07352 22.3519 8.38278 21.9416C10.3961 19.2709 13.297 17.5574 17.6937 16.1488C22.1026 14.7362 27.9472 13.6502 35.8026 12.1918C43.6579 10.7335 49.5029 9.64928 54.125 9.38523C58.7343 9.12191 62.0569 9.68 64.8947 11.4501C65.3306 11.722 65.7543 12.013 66.1645 12.3223C68.8352 14.3356 70.5487 17.2365 71.9574 21.6331C73.37 26.0421 74.456 31.8867 75.9144 39.742C77.3727 47.5973 78.4569 53.4423 78.7209 58.0645C78.9843 62.6738 78.4262 65.9964 76.6561 68.8342C76.3842 69.2701 76.0932 69.6938 75.7839 70.104C73.7706 72.7747 70.8697 74.4882 66.473 75.8969C62.0641 77.3094 56.2194 78.3955 48.3641 79.8538C40.5088 81.3122 34.6638 82.3964 30.0417 82.6604C25.4324 82.9237 22.1098 82.3656 19.272 80.5955C18.8361 80.3236 18.4124 80.0326 18.0022 79.7234C15.3315 77.71 13.618 74.8092 12.2093 70.4125C10.7967 66.0036 9.71069 60.1589 8.25233 52.3036Z" stroke="white" stroke-opacity="0.2"/>
</g>
<g filter="url(#filter0_i_7288_9130)">
<path d="M9.69001 48.2018C6.8908 33.1241 5.49119 25.5853 9.04175 19.893C9.31061 19.462 9.59837 19.043 9.90418 18.6374C13.9427 13.2803 21.4815 11.8807 36.5593 9.08148C51.637 6.28227 59.1759 4.88266 64.8681 8.43322C65.2991 8.70208 65.7181 8.98984 66.1237 9.29565C71.4808 13.3341 72.8804 20.873 75.6796 35.9507C78.4788 51.0285 79.8784 58.5673 76.3279 64.2595C76.059 64.6906 75.7713 65.1095 75.4654 65.5152C71.427 70.8723 63.8881 72.2719 48.8104 75.0711C33.7326 77.8703 26.1938 79.2699 20.5016 75.7194C20.0705 75.4505 19.6516 75.1627 19.2459 74.8569C13.8888 70.8184 12.4892 63.2796 9.69001 48.2018Z" fill="url(#paint1_linear_7288_9130)"/>
</g>
<path d="M10.1816 48.1106C8.77958 40.5587 7.73765 34.9412 7.4839 30.4994C7.23089 26.0704 7.76733 22.8809 9.46598 20.1577C9.72706 19.7391 10.0065 19.3323 10.3034 18.9384C12.2355 16.3754 15.0199 14.7299 19.2446 13.3764C23.4815 12.0189 29.0986 10.9751 36.6505 9.57308C44.2024 8.17105 49.8199 7.12912 54.2617 6.87537C58.6907 6.62236 61.8802 7.1588 64.6034 8.85746C65.022 9.11853 65.4288 9.39796 65.8227 9.69491C68.3857 11.627 70.0312 14.4114 71.3847 18.636C72.7422 22.873 73.786 28.4901 75.188 36.042C76.59 43.5939 77.632 49.2114 77.8857 53.6532C78.1387 58.0822 77.6023 61.2717 75.9036 63.9949C75.6426 64.4135 75.3631 64.8203 75.0662 65.2142C73.1341 67.7771 70.3497 69.4226 66.1251 70.7762C61.8881 72.1337 56.271 73.1775 48.7191 74.5795C41.1672 75.9815 35.5497 77.0235 31.1079 77.2772C26.6789 77.5302 23.4894 76.9938 20.7662 75.2951C20.3476 75.034 19.9408 74.7546 19.5469 74.4577C16.984 72.5256 15.3385 69.7412 13.9849 65.5165C12.6274 61.2796 11.5836 55.6625 10.1816 48.1106Z" stroke="white" stroke-opacity="0.15"/>
<path d="M63.7832 14.9546C65.2704 15.353 65.7685 17.212 64.6798 18.3006L59.2995 23.6809C58.2109 24.7696 56.3519 24.2715 55.9535 22.7843L53.9841 15.4347C53.5857 13.9476 54.9465 12.5868 56.4336 12.9852L63.7832 14.9546Z" fill="#A6D4F9"/>
<path fill-rule="evenodd" clip-rule="evenodd" d="M31.314 19.9691L31.3135 19.9668L29.6361 21.2616L29.6372 21.2632L29.072 23.0452L29.0734 23.0493L29.0715 23.0466L29.071 23.0482L29.0725 23.0486L29.0703 23.0491L29.6626 24.7011L29.6636 24.7031L30.2499 25.004L30.4706 26.1906L30.4716 26.1925L30.9449 26.1046L32.1486 27.3106L33.2549 26.2462L33.2558 26.2481L34.0243 26.4331L34.0247 26.4342L34.3162 26.9104L33.8626 27.9759L33.8619 27.977L33.8628 27.9745L32.5838 28.2956L32.5753 28.2988L32.5738 28.3016L32.5746 28.2998L31.2554 28.2173L31.2563 28.2157L31.2527 28.2163L31.252 28.2177L29.8704 28.8827L29.4133 29.9514L29.4144 29.9512L29.5978 30.9412L29.055 30.8787L27.4085 31.0205L26.2221 30.5475L26.2195 30.543L25.7856 30.6235L25.2662 31.7892L24.9118 31.853L24.911 31.8562L24.9106 31.8578L24.91 31.8542L24.168 34.4506L24.2709 35.0051L24.2713 35.0041L24.2719 35.0071L24.2723 35.006L24.5585 36.5476L24.5595 36.5495L27.4371 37.1141L27.3353 39.6367L27.3363 39.6375L27.3363 39.6387L28.4553 42.5937L28.4563 42.5957L28.4577 42.5973L28.4546 42.5953L28.4571 42.5983L28.4555 42.5973L30.0095 44.374L30.1946 45.3687L30.1947 45.3662L30.1956 45.3706L30.1958 45.3673L30.1965 45.3714L30.3027 43.7454L30.3015 43.7479L30.3017 43.744L27.3371 39.6394L30.6077 42.3171L31.2416 44.4157L31.241 44.4194L31.2424 44.4186L31.003 45.7661L31.0045 45.7636L31.0033 45.7708L31.0051 45.7679L31.0042 45.7727L32.754 43.0221L32.7486 43.0271L32.7531 43.0201L32.7504 43.0226L32.7537 43.0174L32.1307 39.6173L32.1299 39.6165L32.1297 39.6153L32.1268 39.6125L31.412 37.7773L31.4111 37.7754L29.3733 36.9686L29.3689 36.9645L28.5299 37.0274L29.4986 35.0184L30.6081 36.1635L30.8352 36.2442L30.8365 36.2446L31.0048 36.5393L31.7555 37.5063L35.559 39.0953L35.555 39.0921L35.5565 39.0927L35.5602 39.0957L37.0181 38.8251L36.2289 43.4932L36.2308 43.49L36.2272 43.4966L36.1984 43.6494L36.1998 43.6493L36.1994 43.6514L36.3996 43.6306L36.3998 43.6334L34.4615 61.7517L34.461 61.7534L33.3395 64.2816L33.3396 64.2842L33.1079 64.7944L32.3317 65.8826L32.2566 67.2456L32.2577 67.2459L32.2576 67.2476L32.775 67.3974L34.7808 66.3266L34.8939 65.4041L36.0194 64.1672L36.096 64.9313L36.0969 64.9333L36.9493 64.6115L36.9511 64.6124L36.7651 63.6075L36.7651 63.6029L38.2583 58.4697L38.2656 58.4554L38.2665 58.4573C38.2665 58.4573 38.6147 55.8931 38.8586 54.0859L38.8574 54.0858L38.8576 54.0839L38.853 54.0835C38.9779 53.1408 39.0778 52.4158 39.0861 52.3735C39.1035 52.2473 39.8516 48.5845 39.8516 48.5845L40.3788 46.8983L41.4858 51.0246L40.0549 54.5268L40.057 54.5338L40.3295 60.1733L40.3295 60.1748L40.3285 60.1728L38.9856 62.389L39.1841 63.4581L39.1851 63.4601L39.9578 63.8897L40.2633 65.7576L40.2642 65.7595L41.5378 66.4656L41.5396 66.4655C41.5396 66.4655 43.2876 66.2228 43.2357 66.1508L43.2347 66.1487C43.2105 66.1165 42.959 66.0448 42.6813 65.9656C42.3374 65.8675 41.9533 65.758 41.9106 65.6979L41.8979 65.6884C41.8739 65.5682 41.9247 64.7944 41.9831 63.9823L41.9818 63.9837L41.9821 63.9804L42.0123 63.6155C42.0794 62.7914 42.1418 62.025 42.1315 61.9698L41.8741 60.5834L41.8739 60.5824L43.4735 53.1596L44.412 50.7294L44.4107 50.7292L44.411 50.7275L44.4202 50.4743L44.4207 50.4753L44.581 46.3755L45.2291 47.5874L45.3005 44.7617C45.6076 45.4444 45.8355 45.9505 45.8966 46.0861L45.9693 46.2984L45.9702 46.3004L45.9863 45.4194L47.7185 47.5329L47.7174 47.5326L51.7107 54.668L51.7862 54.8093L51.8009 54.8458L51.8015 54.8468L51.8018 54.8478L51.8365 54.9057L51.8367 54.9076L53.4239 57.7435L53.4256 57.7419L55.5634 61.5672L55.5648 61.5654L55.5646 61.5676L56.0353 61.4804L56.2554 62.6662L56.2564 62.6682L58.5263 62.9849L59.7412 62.7594L59.7004 61.6606L59.6995 61.6597L59.702 61.6591L59.6996 61.6575L59.701 61.6572L58.517 60.8541L58.7403 59.9945L56.2148 55.0948L56.2138 55.0928L56.2131 55.0935L56.2124 55.0922L54.8625 52.4766L54.8615 52.4747L54.8223 52.3939L54.8213 52.3919L53.3318 49.5072L53.3309 49.5053L51.915 46.7544L51.914 46.7525L51.7138 46.3803L48.3388 40.1553L47.8445 39.2523L47.9742 38.5018L48.0399 38.4598L48.2303 38.3425L48.2308 38.3407L48.2328 38.3382L48.2309 38.3439L50.193 35.7259L51.3968 33.3307L51.3976 33.3276L52.2434 35.342L52.244 35.3428L52.2444 35.3439L54.723 39.47L54.7232 39.4712C54.7227 39.4986 54.7141 39.8821 54.6071 39.9415C54.4961 40.0031 54.0514 41.5638 54.0514 41.5638L54.5518 42.4975L55.9617 42.3996L57.4528 43.3937L57.5775 43.6303L58.2036 44.8107L60.3991 45.4275L59.4481 44.0448L59.2449 43.6503L59.2439 43.6484L58.4364 42.1082L58.4355 42.1062L56.7687 39.2624L56.7672 39.2543L56.7662 39.2524L56.7652 39.2538L55.6865 36.9568L55.6418 36.7602L55.6408 36.7582L55.6404 36.7594L54.2601 31.0373L54.2605 31.0341L54.1696 30.7642L54.1687 30.7625L53.7086 29.3756L53.7075 29.373L53.7066 29.371L53.7054 29.3729L52.2661 28.8667L52.2651 28.8647L50.9361 29.3983L50.9358 29.3995L50.9341 29.4011L50.9349 29.3975L47.2007 32.7946L47.1997 32.795L45.9858 33.8963L45.8751 33.7788L44.0695 31.7393L44.7446 31.2037L45.1477 29.8586L45.1467 29.8566L43.4053 26.4125L43.4043 26.4105L41.4629 23.8626L41.4626 23.861L40.3047 23.3384L39.1535 23.5111L37.8717 24.0792L37.2667 24.1097L37.2667 24.1078L37.2657 24.1059L36.3775 23.9444L36.03 24.0503L35.2713 23.7408L35.2703 23.741L35.0595 23.6576L35.0583 23.6568L34.647 21.4413L34.6494 21.4374L33.3288 20.0414L33.3279 20.0489L33.3277 20.047L31.3155 19.9701L31.314 19.9691ZM56.2131 55.0935L56.2116 55.0949L56.2098 55.0949L56.2107 55.094L56.2131 55.0935ZM58.517 60.8541L58.5162 60.8554L58.5142 60.8563L58.517 60.8541ZM41.9821 63.9804L41.9818 63.9837L41.982 63.9794L41.9821 63.9804ZM40.0549 54.5268L40.0585 54.5223L40.057 54.526L40.0549 54.5268ZM30.6081 36.1635L30.6081 36.1619L30.611 36.1629L30.6081 36.1635ZM29.4986 35.0184L29.4948 35.0223L29.4956 35.0206L29.4973 35.0189L29.4986 35.0184ZM27.3371 39.6394L27.3363 39.6387L27.3382 39.6421L27.3371 39.6394ZM25.7856 30.6235L25.7859 30.6294L25.7853 30.6308L25.7856 30.6235ZM29.5978 30.9412L29.5986 30.9424L29.5959 30.9429L29.5978 30.9412ZM29.0725 23.0486L29.072 23.0501L29.0734 23.0493L29.0725 23.0486ZM29.4961 35.018L29.4947 35.0186L29.4963 35.017L29.4961 35.018Z" fill="#239DFF"/>
<path d="M26.5854 41.0883L27.0765 37.5797L27.0768 37.5868L27.0775 37.5817L27.0776 37.5839L27.0781 37.5804L27.0784 37.587L27.0791 37.5823L27.2873 41.7806L27.2852 41.7788L27.2862 41.7798L27.2469 42.1993L27.2483 42.2377L27.0938 43.8235L27.0931 43.8193L27.0929 43.8215L26.5854 41.0883Z" fill="#239DFF"/>
<path d="M34.0338 40.9499L32.6528 38.8297L33.4296 40.8162L33.5962 42.2457L33.5968 42.2441L33.5972 42.2477L34.0343 40.9536L34.0348 40.9519L34.0338 40.9499Z" fill="#239DFF"/>
<path d="M39.7319 63.7734L39.1431 63.5467L38.9296 66.0449L38.9311 66.0406L38.9305 66.0468L39.7329 63.7753L39.7314 63.7747L39.7319 63.7734Z" fill="#239DFF"/>
<path d="M55.4899 42.5318L54.8584 42.5589L55.6349 44.9388L55.6348 44.9376L55.6359 44.9408L55.4909 42.5337L55.4899 42.5318Z" fill="#239DFF"/>
<defs>
<filter id="filter0_i_7288_9130" x="6.92383" y="6.31641" width="71.5215" height="73.5195" filterUnits="userSpaceOnUse" color-interpolation-filters="sRGB">
<feFlood flood-opacity="0" result="BackgroundImageFix"/>
<feBlend mode="normal" in="SourceGraphic" in2="BackgroundImageFix" result="shape"/>
<feColorMatrix in="SourceAlpha" type="matrix" values="0 0 0 0 0 0 0 0 0 0 0 0 0 0 0 0 0 0 127 0" result="hardAlpha"/>
<feOffset dy="2"/>
<feGaussianBlur stdDeviation="1.15"/>
<feComposite in2="hardAlpha" operator="arithmetic" k2="-1" k3="1"/>
<feColorMatrix type="matrix" values="0 0 0 0 1 0 0 0 0 1 0 0 0 0 1 0 0 0 1 0"/>
<feBlend mode="normal" in2="shape" result="effect1_innerShadow_7288_9130"/>
</filter>
<linearGradient id="paint0_linear_7288_9130" x1="21.0871" y1="78.6638" x2="21.7344" y2="30.0911" gradientUnits="userSpaceOnUse">
<stop stop-color="#3D9DEB"/>
<stop offset="1" stop-color="#CFE9FF"/>
</linearGradient>
<linearGradient id="paint1_linear_7288_9130" x1="55.5576" y1="98.8064" x2="63.9512" y2="27.0426" gradientUnits="userSpaceOnUse">
<stop stop-color="#76C2FF"/>
<stop offset="0.743256" stop-color="#EDF7FF"/>
</linearGradient>
</defs>
</svg>
