<svg width="29" height="29" viewBox="0 0 29 29" fill="none" xmlns="http://www.w3.org/2000/svg">
<path d="M14.4962 7.76391C10.5211 7.76391 7.31302 10.9721 7.31302 14.9473C7.31302 18.9225 10.5211 22.1306 14.4962 22.1306C18.4713 22.1306 21.6795 18.9225 21.6795 14.9473C21.6795 10.9721 18.4713 7.76391 14.4962 7.76391ZM14.4962 19.6159C11.9255 19.6159 9.82767 17.518 9.82767 14.9473C9.82767 12.3765 11.9255 10.2786 14.4962 10.2786C17.0669 10.2786 19.1648 12.3765 19.1648 14.9473C19.1648 17.518 17.0669 19.6159 14.4962 19.6159ZM21.9736 5.79558C21.0455 5.79558 20.296 6.54509 20.296 7.47322C20.296 8.40134 21.0455 9.15085 21.9736 9.15085C22.9018 9.15085 23.6513 8.40485 23.6513 7.47322C23.6515 7.25283 23.6083 7.03455 23.5241 6.83089C23.4399 6.62722 23.3163 6.44217 23.1605 6.28633C23.0047 6.1305 22.8196 6.00693 22.616 5.92272C22.4123 5.83851 22.194 5.79531 21.9736 5.79558ZM28.4984 14.9473C28.4984 13.014 28.5159 11.0982 28.4074 9.16836C28.2988 6.92685 27.7875 4.9375 26.1484 3.29839C24.5058 1.65579 22.52 1.14794 20.2785 1.03937C18.3453 0.930795 16.4295 0.948307 14.4997 0.948307C12.5665 0.948307 10.6507 0.930795 8.72094 1.03937C6.47947 1.14794 4.49016 1.65929 2.85109 3.29839C1.20851 4.941 0.700673 6.92685 0.592102 9.16836C0.48353 11.1017 0.501042 13.0175 0.501042 14.9473C0.501042 16.8771 0.48353 18.7964 0.592102 20.7262C0.700673 22.9677 1.21201 24.957 2.85109 26.5961C4.49367 28.2387 6.47947 28.7466 8.72094 28.8552C10.6542 28.9637 12.57 28.9462 14.4997 28.9462C16.433 28.9462 18.3488 28.9637 20.2785 28.8552C22.52 28.7466 24.5093 28.2352 26.1484 26.5961C27.791 24.9535 28.2988 22.9677 28.4074 20.7262C28.5195 18.7964 28.4984 16.8806 28.4984 14.9473ZM25.4164 23.2058C25.1607 23.8433 24.8525 24.3196 24.3587 24.8099C23.8649 25.3038 23.3921 25.612 22.7547 25.8676C20.9125 26.5996 16.5381 26.435 14.4962 26.435C12.4544 26.435 8.07652 26.5996 6.23431 25.8711C5.59689 25.6155 5.12058 25.3073 4.63025 24.8134C4.13643 24.3196 3.82823 23.8468 3.57256 23.2093C2.84408 21.3636 3.00869 16.9891 3.00869 14.9473C3.00869 12.9054 2.84408 8.52743 3.57256 6.68518C3.82823 6.04775 4.13643 5.57143 4.63025 5.0811C5.12408 4.59077 5.59689 4.27906 6.23431 4.02339C8.07652 3.29489 12.4544 3.4595 14.4962 3.4595C16.5381 3.4595 20.916 3.29489 22.7582 4.02339C23.3956 4.27906 23.8719 4.58727 24.3622 5.0811C24.856 5.57493 25.1642 6.04775 25.4199 6.68518C26.1484 8.52743 25.9838 12.9054 25.9838 14.9473C25.9838 16.9891 26.1484 21.3636 25.4164 23.2058Z" fill="#B4B4C4"/>
</svg>
