<svg width="348" height="108" viewBox="0 0 348 108" fill="none" xmlns="http://www.w3.org/2000/svg">
<g clipPath="url(#clip0_6265_12137)">
<rect width="348" height="108" rx="8" fill="white"/>
<rect opacity="0.16" width="348" height="108" fill="url(#paint0_linear_6265_12137)"/>
<circle opacity="0.08" cx="36.5" cy="53.5" r="216.5" fill="url(#paint1_linear_6265_12137)"/>
<circle opacity="0.08" cx="36.5" cy="53.5" r="159.5" fill="url(#paint2_linear_6265_12137)"/>
<circle opacity="0.24" cx="36.5" cy="53.5" r="106.5" fill="url(#paint3_linear_6265_12137)"/>
<circle opacity="0.8" cx="36.5" cy="53.5" r="67.5" fill="url(#paint4_linear_6265_12137)"/>
<g filter="url(#filter0_i_6265_12137)">
<path d="M54.2038 27.6569C55.7988 27.6568 57.3779 27.3387 58.8486 26.7212C60.3192 26.1037 61.6521 25.1991 62.7691 24.0605C63.8861 22.9218 64.7649 21.5719 65.3541 20.0896C65.9432 18.6074 66.231 17.0225 66.2005 15.4277H42.207L42.2041 15.6573C42.2041 18.8398 43.4683 21.8919 45.7187 24.1423C47.9691 26.3927 51.0213 27.6569 54.2038 27.6569Z" fill="url(#paint5_linear_6265_12137)"/>
<g filter="url(#filter1_f_6265_12137)">
<path d="M41.8364 17.9398C41.515 17.9398 41.252 18.2156 41.252 18.5725C41.252 25.377 47.9004 28.9464 54.0404 28.9464C55.499 28.9485 56.9437 28.6316 58.292 28.0137C59.6402 27.3958 60.8656 26.489 61.8983 25.3452C62.9309 24.2013 63.7504 22.8429 64.3101 21.3473C64.8698 19.8517 65.1586 18.2484 65.1602 16.6288C65.1602 16.2719 64.8972 15.9961 64.5757 15.9961H63.284C63.2103 15.9974 63.1376 16.0147 63.0699 16.0472C63.0023 16.0797 62.9411 16.1267 62.8898 16.1854C62.8385 16.2442 62.7981 16.3136 62.771 16.3897C62.7439 16.4658 62.7305 16.547 62.7316 16.6288C62.727 19.1837 61.8089 21.6319 60.1791 23.4354C58.5494 25.2389 56.3414 26.2501 54.0404 26.2466C49.236 26.2466 43.6805 23.8811 43.6805 18.5725C43.6816 18.4907 43.6683 18.4094 43.6411 18.3334C43.614 18.2573 43.5736 18.1879 43.5224 18.1291C43.4711 18.0704 43.4098 18.0234 43.3422 17.9909C43.2746 17.9584 43.2018 17.941 43.1281 17.9398H41.8364Z" fill="#35EA8E"/>
</g>
<path d="M14.3966 29.184C14.0103 28.5182 13.9008 27.7274 14.0918 26.9817C14.2828 26.236 14.7589 25.595 15.4177 25.1969C19.6785 22.6251 28.0471 17.5698 28.8974 17.1137C30.4129 16.2987 31.1397 16.1133 31.1397 16.1133L41.5651 32.0854L24.9986 41.6515C24.3228 42.0417 23.5196 42.1475 22.7658 41.9455C22.012 41.7435 21.3693 41.2504 20.9791 40.5746L14.3966 29.184Z" fill="url(#paint6_linear_6265_12137)"/>
<path d="M14.3966 29.184C14.0103 28.5182 13.9008 27.7274 14.0918 26.9817C14.2828 26.236 14.7589 25.595 15.4177 25.1969C19.6785 22.6251 28.0471 17.5698 28.8974 17.1137C30.4129 16.2987 31.1397 16.1133 31.1397 16.1133L41.5651 32.0854L24.9986 41.6515C24.3228 42.0417 23.5196 42.1475 22.7658 41.9455C22.012 41.7435 21.3693 41.2504 20.9791 40.5746L14.3966 29.184Z" fill="url(#paint7_linear_6265_12137)"/>
<path d="M94.0102 29.184C94.3965 28.5182 94.506 27.7274 94.315 26.9817C94.1241 26.236 93.648 25.595 92.9892 25.1969C88.7284 22.6251 80.863 17.8405 79.5065 17.1137C78.1529 16.384 77.2672 16.1133 77.2672 16.1133L66.8418 32.0854L83.4083 41.6515C84.0841 42.0417 84.8873 42.1475 85.6411 41.9455C86.3949 41.7435 87.0375 41.2504 87.4278 40.5746L94.0102 29.184Z" fill="url(#paint8_linear_6265_12137)"/>
<path d="M94.0102 29.184C94.3965 28.5182 94.506 27.7274 94.315 26.9817C94.1241 26.236 93.648 25.595 92.9892 25.1969C88.7284 22.6251 80.863 17.8405 79.5065 17.1137C78.1529 16.384 77.2672 16.1133 77.2672 16.1133L66.8418 32.0854L83.4083 41.6515C84.0841 42.0417 84.8873 42.1475 85.6411 41.9455C86.3949 41.7435 87.0375 41.2504 87.4278 40.5746L94.0102 29.184Z" fill="url(#paint9_radial_6265_12137)"/>
<path d="M36.4471 15.4277C34.6463 15.4277 32.8572 15.6602 31.1152 16.1163V75.1965C31.1152 75.5867 31.2702 75.9609 31.5462 76.2368C31.8221 76.5128 32.1963 76.6678 32.5865 76.6678H75.8065C76.1967 76.6678 76.5709 76.5128 76.8468 76.2368C77.1227 75.9609 77.2777 75.5867 77.2777 75.1965V16.1163L77.1541 16.0869C75.3418 15.6487 73.4838 15.4275 71.6192 15.4277H66.1991L66.202 15.6573C66.2065 17.2456 65.8957 18.819 65.2874 20.2863C64.6792 21.7535 63.7858 23.0855 62.6589 24.2048C61.532 25.3242 60.1941 26.2086 58.7227 26.807C57.2514 27.4053 55.6759 27.7056 54.0876 27.6904C52.4994 27.6752 50.9299 27.3448 49.4703 26.7185C48.0107 26.0921 46.69 25.1822 45.5847 24.0415C44.4794 22.9008 43.6116 21.552 43.0315 20.0734C42.4515 18.5948 42.1708 17.0157 42.2056 15.4277H36.4471Z" fill="url(#paint10_linear_6265_12137)"/>
<path d="M36.4471 15.4277C34.6463 15.4277 32.8572 15.6602 31.1152 16.1163V75.1965C31.1152 75.5867 31.2702 75.9609 31.5462 76.2368C31.8221 76.5128 32.1963 76.6678 32.5865 76.6678H75.8065C76.1967 76.6678 76.5709 76.5128 76.8468 76.2368C77.1227 75.9609 77.2777 75.5867 77.2777 75.1965V16.1163L77.1541 16.0869C75.3418 15.6487 73.4838 15.4275 71.6192 15.4277H66.1991L66.202 15.6573C66.2065 17.2456 65.8957 18.819 65.2874 20.2863C64.6792 21.7535 63.7858 23.0855 62.6589 24.2048C61.532 25.3242 60.1941 26.2086 58.7227 26.807C57.2514 27.4053 55.6759 27.7056 54.0876 27.6904C52.4994 27.6752 50.9299 27.3448 49.4703 26.7185C48.0107 26.0921 46.69 25.1822 45.5847 24.0415C44.4794 22.9008 43.6116 21.552 43.0315 20.0734C42.4515 18.5948 42.1708 17.0157 42.2056 15.4277H36.4471Z" fill="url(#paint11_linear_6265_12137)"/>
<path d="M61.708 47.6145L62.054 48.3912L61.016 47.8802L60.8125 47.2344L61.6428 47.3979L61.708 47.6145Z" fill="#50E59D"/>
<path d="M61.3823 46.5544L61.6428 47.3965L60.8125 46.4072V44.9766L61.3823 46.5544Z" fill="#50E59D"/>
<path d="M60.8135 46.4082L61.6438 47.3974L60.8135 47.2339V46.4082Z" fill="#50E59D"/>
<path d="M60.8131 46.4084V47.2341L60.7724 47.1033L60.1212 46.4697L59.877 45.877L60.8131 46.4084Z" fill="#50E59D"/>
<path d="M60.8141 44.9766V46.4072L59.8779 45.8759L60.8141 44.9766Z" fill="#50E59D"/>
<path d="M60.4877 43.7291L60.8133 44.9759L59.7754 44.8941L60.4836 43.627L60.4877 43.7291Z" fill="#50E59D"/>
<path d="M60.8123 44.9763L59.8762 45.8756L59.7744 44.8945L60.8123 44.9763Z" fill="#50E59D"/>
<path d="M60.4828 43.6285L59.6729 42.5453L60.3241 40.6445L60.4828 43.6285Z" fill="#50E59D"/>
<path d="M59.6729 42.5449L60.4828 43.6282L59.7746 44.8953L59.6729 42.5449Z" fill="#50E59D"/>
<path d="M60.3046 40.5L60.3249 40.6431L59.6737 42.5438L58.6846 41.5219L60.3046 40.5Z" fill="#50E59D"/>
<path d="M60.2029 39.7637L60.3046 40.4995H59.5312L60.2029 39.7637Z" fill="#50E59D"/>
<path d="M60.3046 40.5L58.6846 41.5219L59.5312 40.5H60.3046Z" fill="#50E59D"/>
<path d="M60.2029 39.7653L59.5312 40.5011V40.358V39.377L60.2029 39.7653Z" fill="#50E59D"/>
<path d="M59.6854 56.4443L60.2024 56.4238L60.121 56.9757H59.4941L59.6854 56.4443Z" fill="#50E59D"/>
<path d="M60.2035 56.4231L59.6865 56.4435V55.9121L60.2035 56.4231Z" fill="#50E59D"/>
<path d="M59.877 45.877L60.1212 46.4697L59.4089 46.3879L59.2461 45.877H59.877Z" fill="#50E59D"/>
<path d="M59.7752 44.8945L59.877 45.8756H59.2461C59.2461 45.8756 59.6124 45.1398 59.6735 45.1194C59.7345 45.0989 59.7752 44.8945 59.7752 44.8945Z" fill="#50E59D"/>
<path d="M59.0713 52.8262L59.8772 55.5036L58.5381 54.6166L59.0713 52.8262Z" fill="#50E59D"/>
<path d="M59.8772 55.5042L59.6859 55.913L58.5381 54.6172L59.8772 55.5042Z" fill="#50E59D"/>
<path d="M59.6737 42.5454L59.7754 44.8958L58.9206 42.6067L58.6846 41.5234L59.6737 42.5454Z" fill="#50E59D"/>
<path d="M59.686 55.9121V56.4435L58.3916 55.9939L59.686 55.9121Z" fill="#50E59D"/>
<path d="M58.5382 54.6172L59.686 55.913L58.3917 55.9947H58.1475L58.5382 54.6172Z" fill="#50E59D"/>
<path d="M59.686 56.4438L59.4947 56.9752L58.3916 55.9941L59.686 56.4438Z" fill="#50E59D"/>
<path d="M59.5313 40.3574V40.5005L58.6847 41.5224L58.3916 40.5005L59.5313 40.3574Z" fill="#50E59D"/>
<path d="M59.5313 39.3789V40.3599L58.3916 40.503L59.5313 39.3789Z" fill="#50E59D"/>
<path d="M59.5313 39.3789L58.3916 40.503L58.819 39.522L59.5313 39.3789Z" fill="#50E59D"/>
<path d="M59.4947 56.9752L58.3916 56.6073V55.9941L59.4947 56.9752Z" fill="#50E59D"/>
<path d="M58.6397 51.3945L59.0712 52.8252L56.9058 52.3265L56.8936 52.2938L58.6397 51.3945Z" fill="#50E59D"/>
<path d="M59.0718 52.8262L58.5386 54.6166L57.4355 53.889L59.0718 52.8262Z" fill="#50E59D"/>
<path d="M59.0707 52.8268L57.4344 53.8896L56.9053 52.3281L59.0707 52.8268Z" fill="#50E59D"/>
<path d="M58.8183 39.5195L58.3909 40.5006L56.6406 40.8685L58.8183 39.5195Z" fill="#50E59D"/>
<path d="M58.3909 40.502L58.6839 41.5239L57.8617 42.6071L56.6406 43.7312L58.3909 40.502Z" fill="#50E59D"/>
<path d="M58.6277 51.3494L58.6399 51.3943L56.8937 52.2936L56.8896 52.2732L57.8421 51.0469L58.6277 51.3494Z" fill="#50E59D"/>
<path d="M58.1511 49.7715L58.6274 51.3493L57.8418 51.0468L58.1511 49.7715Z" fill="#50E59D"/>
<path d="M58.5376 54.6163L58.1469 55.9938L57.4346 53.8887L58.5376 54.6163Z" fill="#50E59D"/>
<path d="M58.3905 40.502L56.6402 43.7312L56.5344 43.7721L56.5181 43.7312L55.3174 42.6889L58.3905 40.502Z" fill="#50E59D"/>
<path d="M58.3905 40.502L55.3174 42.6889V41.6874L55.932 41.3072L56.6402 40.8698L58.3905 40.502Z" fill="#50E59D"/>
<path d="M57.6986 48.2688L58.1504 49.7731L57.2305 49.1068L57.6334 48.0645L57.6986 48.2688Z" fill="#50E59D"/>
<path d="M58.1513 49.7715L57.8419 51.0468C57.8419 51.0468 56.9871 50.54 56.9668 50.4255L58.1513 49.7715Z" fill="#50E59D"/>
<path d="M58.1513 49.7718L56.9669 50.4258C56.9465 50.3113 57.2314 49.1055 57.2314 49.1055L58.1513 49.7718Z" fill="#50E59D"/>
<path d="M57.8421 51.0491L56.8897 52.2754L56.8652 52.1977L56.9711 50.4277C56.9873 50.5422 57.8421 51.0491 57.8421 51.0491Z" fill="#50E59D"/>
<path d="M56.5273 44.6465L57.6345 48.0638L57.2315 49.1061L56.5273 44.6465Z" fill="#50E59D"/>
<path d="M56.527 44.6445L57.2312 49.1042L56.0996 44.7631L56.527 44.6445Z" fill="#50E59D"/>
<path d="M56.1003 44.7656L57.2318 49.1067L54.6064 45.0518L56.1003 44.7656Z" fill="#50E59D"/>
<path d="M54.6057 45.0508L57.2311 49.1058L54.4429 46.2853L54.333 46.2607L54.6057 45.0508Z" fill="#50E59D"/>
<path d="M54.4434 46.2852L57.2315 49.1057L55.5342 48.2677L54.4434 46.2852Z" fill="#50E59D"/>
<path d="M55.5332 48.2676L57.2305 49.1056C57.2305 49.1056 56.9456 50.3114 56.966 50.4259L55.5332 48.2676Z" fill="#50E59D"/>
<path d="M55.5332 48.2676L56.966 50.4259L56.8601 52.1958L55.5332 48.2676Z" fill="#50E59D"/>
<path d="M56.5185 43.7299L56.5348 43.7707L56.2743 43.877L55.4276 44.2204L55.1753 44.3226L54.7275 44.5065L55.3177 42.6875L56.5185 43.7299Z" fill="#50E59D"/>
<path d="M56.527 44.6454L56.0996 44.764L56.2746 43.877L56.527 44.6454Z" fill="#50E59D"/>
<path d="M55.4287 44.2203L56.2753 43.877L56.1003 44.764L55.4287 44.2203Z" fill="#50E59D"/>
<path d="M56.1003 44.7663L54.6064 45.0525L55.4287 44.2227L56.1003 44.7663Z" fill="#50E59D"/>
<path d="M55.8891 41.2382L55.9338 41.3076L55.3192 41.6878L55.1849 40.1222L55.1768 40.0527L55.8891 41.2382Z" fill="#50E59D"/>
<path d="M55.3383 37.334L55.8878 39.2143L53.9951 38.6625L55.3383 37.334Z" fill="#50E59D"/>
<path d="M55.8888 39.2139L55.5632 39.8475L53.9961 38.6621L55.8888 39.2139Z" fill="#50E59D"/>
<path d="M55.5632 39.8475L55.1765 40.0519L54.0124 40.6692L53.9961 40.6446V38.6621L55.5632 39.8475Z" fill="#50E59D"/>
<path d="M55.4287 44.2227L54.6064 45.0525L54.7286 44.5088L55.1763 44.3248L55.4287 44.2227Z" fill="#50E59D"/>
<path d="M54.6057 35.8828L55.3383 37.3339L53.9951 38.6624L54.6057 35.8828Z" fill="#50E59D"/>
<path d="M55.3179 41.6869V42.6884L54.7277 44.5074L54.626 41.5234L55.3179 41.6869Z" fill="#50E59D"/>
<path d="M55.1836 40.123L55.3179 41.6886L54.626 41.5251L55.1755 40.123H55.1836Z" fill="#50E59D"/>
<path d="M55.1758 40.0508L55.184 40.1203H55.1758L54.6263 41.5223L54.0117 40.668L55.1758 40.0508Z" fill="#50E59D"/>
<path d="M53.9994 40.6719L54.728 44.5061C54.728 44.5061 54.1052 43.7581 53.8528 43.5046C53.7999 43.4515 53.7633 43.4188 53.7511 43.4229L53.4336 40.9744L53.9994 40.6719Z" fill="#50E59D"/>
<path d="M54.7286 44.5078L54.6065 45.0515L54.3338 46.2614L54.0774 47.3978L53.8535 44.8961L54.7286 44.5078Z" fill="#50E59D"/>
<path d="M54.7281 44.5075L53.853 44.8958C53.853 44.8958 53.853 44.8918 53.853 44.8877C53.853 44.8877 53.853 44.8877 53.853 44.8836C53.8367 44.761 53.8571 43.502 53.8571 43.502C54.1054 43.7595 54.7281 44.5075 54.7281 44.5075Z" fill="#50E59D"/>
<path d="M54.606 35.8825L53.9955 38.6621L53.4053 37.2518L53.4867 35.4941L54.0769 35.5146L54.606 35.8825Z" fill="#50E59D"/>
<path d="M54.0771 47.3973L53.6171 49.4289L52.7949 46.1465L54.0771 47.3973Z" fill="#50E59D"/>
<path d="M53.8532 44.8945L54.0771 47.3962L52.7949 46.1454L53.8532 44.8945Z" fill="#50E59D"/>
<path d="M53.9996 40.6719L53.4338 40.9744L51.8993 41.7878L51.7812 41.89L52.1028 40.2754L53.9955 40.6433L53.9996 40.6719Z" fill="#50E59D"/>
<path d="M53.9952 38.6621V40.6446L52.1025 40.2767L52.2654 40.1541L53.344 39.2221L53.9952 38.6621Z" fill="#50E59D"/>
<path d="M53.4053 37.25L53.9955 38.6602L52.8965 38.415L53.4053 37.25Z" fill="#50E59D"/>
<path d="M53.9951 38.6613L53.3438 39.2213L53.3031 39.1722V38.8861C53.3031 38.8861 53.0793 38.6 53.0426 38.6327C53.006 38.6654 52.1309 38.6327 52.1064 38.6327L52.892 38.416L53.9951 38.6613Z" fill="#50E59D"/>
<path d="M53.8532 44.8959L52.7949 46.1467L53.1287 43.2812C53.1287 43.2812 53.8003 44.7569 53.8491 44.8877C53.8491 44.8918 53.8491 44.8918 53.8491 44.8918C53.8532 44.8918 53.8532 44.8959 53.8532 44.8959Z" fill="#50E59D"/>
<path d="M53.8524 43.5061C53.8524 43.5061 53.8321 44.7651 53.8484 44.8877C53.7995 44.7569 53.1279 43.2812 53.1279 43.2812C53.1279 43.2812 53.6896 43.4448 53.7466 43.4243C53.7629 43.4202 53.7995 43.4529 53.8524 43.5061Z" fill="#50E59D"/>
<path d="M53.4338 40.9766L53.7513 43.4251L51.7812 41.8922L51.8993 41.79L53.4338 40.9766Z" fill="#50E59D"/>
<path d="M51.7812 41.8926L53.7513 43.4255C53.6902 43.4459 53.1326 43.2824 53.1326 43.2824L51.7812 41.8926Z" fill="#50E59D"/>
<path d="M53.6167 49.4289L53.5883 49.5556L52.6236 48.5623L51.9805 47.9001L52.7945 46.1465L53.6167 49.4289Z" fill="#50E59D"/>
<path d="M52.6235 48.5625L53.5882 49.5558H52.7945L52.1025 49.4332L52.6235 48.5625Z" fill="#50E59D"/>
<path d="M53.5886 49.5566L52.8967 50.6808L52.7949 49.5566H53.5886Z" fill="#50E59D"/>
<path d="M53.4859 35.4941L53.4045 37.2518L52.7939 35.6576L53.4859 35.4941Z" fill="#50E59D"/>
<path d="M52.7947 35.6581L53.4052 37.2523L52.123 36.7413L52.4894 35.6172L52.7947 35.6581Z" fill="#50E59D"/>
<path d="M53.4053 37.252L52.8965 38.4169H51.8789L53.4053 37.252Z" fill="#50E59D"/>
<path d="M53.4047 37.252L51.8783 38.4169L51.7969 37.906L53.4047 37.252Z" fill="#50E59D"/>
<path d="M53.4047 37.2531L51.7969 37.9072L51.6545 37.0283L51.626 36.9588L51.6545 36.9466L52.1226 36.7422L53.4047 37.2531Z" fill="#50E59D"/>
<path d="M53.3033 39.173L53.344 39.222L52.2654 40.154L52.1025 40.2767V40.1336V39.9415L52.8963 39.3774L53.1323 38.9277L53.3033 39.173Z" fill="#50E59D"/>
<path d="M53.3031 38.8874V39.1735L53.1322 38.9283L52.8961 38.7975L52.4117 38.9242L52.1064 38.638C52.1309 38.638 53.006 38.6707 53.0426 38.638C53.0793 38.6012 53.3031 38.8874 53.3031 38.8874Z" fill="#50E59D"/>
<path d="M53.1326 38.9277L52.8965 39.3773V38.7969L53.1326 38.9277Z" fill="#50E59D"/>
<path d="M51.7812 41.8926L53.1326 43.2824L52.7948 46.1478L51.7812 41.8926Z" fill="#50E59D"/>
<path d="M52.8965 38.7969V39.3773L52.4121 38.9236L52.8965 38.7969Z" fill="#50E59D"/>
<path d="M52.7943 49.5566L52.8961 50.6808L51.0645 51.0486L52.7943 49.5566Z" fill="#50E59D"/>
<path d="M52.8961 50.6797L51.4104 54.236L51.3575 53.7454L51.0645 51.0476L52.8961 50.6797Z" fill="#50E59D"/>
<path d="M52.8955 38.416L52.1099 38.6327L51.8779 38.416H52.8955Z" fill="#50E59D"/>
<path d="M52.8963 39.377L52.1025 39.9411L52.2654 39.377H52.8963Z" fill="#50E59D"/>
<path d="M52.8961 39.3766H52.2652L51.5732 39.0496L51.8785 38.416L52.1105 38.6327L52.4117 38.9229L52.8961 39.3766Z" fill="#50E59D"/>
<path d="M51.7815 41.8906L52.795 46.1459L51.8384 46.1009L51.6553 42.5324L51.7815 41.8906Z" fill="#50E59D"/>
<path d="M52.7944 46.1465L51.9804 47.9001L51.9315 47.2706L51.8379 46.1016L52.7944 46.1465Z" fill="#50E59D"/>
<path d="M52.7943 49.5562L51.0645 51.0482L52.1024 49.4336L52.7943 49.5562Z" fill="#50E59D"/>
<path d="M51.9805 47.9004L52.6236 48.5626L52.1026 49.4333L51.9805 47.9004Z" fill="#50E59D"/>
<path d="M52.4899 35.6166L52.1236 36.7407L52.0991 36.6099L52.0625 35.4531L52.4899 35.6166Z" fill="#50E59D"/>
<path d="M52.2662 39.3789L52.1034 39.943V40.1351L51.5742 39.7059L52.2662 39.3789Z" fill="#50E59D"/>
<path d="M52.2662 39.3778L51.5742 39.7048V39.0508L52.2662 39.3778Z" fill="#50E59D"/>
<path d="M52.0998 36.611L52.1242 36.7418L51.9207 36.611L51.4893 36.333L51.88 35.4746L52.0998 36.611Z" fill="#50E59D"/>
<path d="M52.1234 36.7402L51.6553 36.9446L51.9198 36.6094L52.1234 36.7402Z" fill="#50E59D"/>
<path d="M52.1024 40.1343V40.2774L51.7808 41.892L51.6546 42.5337L51.5732 39.7051L52.1024 40.1343Z" fill="#50E59D"/>
<path d="M52.0611 35.4531L52.0977 36.6099L51.8779 35.4736L52.0611 35.4531Z" fill="#50E59D"/>
<path d="M51.8384 46.101L51.932 47.2701L49.209 50.25L51.5738 45.3652L51.8384 46.101Z" fill="#50E59D"/>
<path d="M51.932 47.2695L51.5127 48.0625C51.5127 48.0625 50.8004 49.8202 50.7801 49.8816C50.7719 49.902 50.6539 50.2576 50.5033 50.7195L50.4422 50.7032L49.3799 50.8667L51.932 47.2695Z" fill="#50E59D"/>
<path d="M51.932 47.2695L49.384 50.8626L49.209 50.2494L51.932 47.2695Z" fill="#50E59D"/>
<path d="M51.9201 36.61L51.6555 36.9452L51.627 36.9574L51.4316 36.4547L51.4886 36.332L51.9201 36.61Z" fill="#50E59D"/>
<path d="M51.8792 35.4729L51.4884 36.3313L51.4314 36.4539L51.6268 36.9567L51.6553 37.0262L51.7977 37.905L51.5291 37.4922L51.5006 37.3941L51.2971 36.6092L51.1221 35.248H51.5291L51.8792 35.4729Z" fill="#50E59D"/>
<path d="M51.7971 37.9051L51.8785 38.4161L51.0645 37.3941L51.1784 37.0508L51.2883 37.1284L51.5285 37.4923L51.7971 37.9051Z" fill="#50E59D"/>
<path d="M51.0645 37.3945L51.8785 38.4164L51.5732 39.05L51.0645 37.3945Z" fill="#50E59D"/>
<path d="M51.6554 42.5332L51.8386 46.1017L51.574 45.366L51.2891 43.8944L51.3908 42.7498L51.3542 42.6558L51.6554 42.5332Z" fill="#50E59D"/>
<path d="M51.5732 39.7031L51.6546 42.5318L50.6777 41.0112L51.5732 39.7031Z" fill="#50E59D"/>
<path d="M50.6787 41.0137L51.6556 42.5343L51.3544 42.6569L51.0654 42.7714L50.6787 41.0137Z" fill="#50E59D"/>
<path d="M51.5742 57.139C51.5946 57.1799 50.6991 57.139 50.6991 57.139L50.5811 56.3828L50.9555 56.7916C50.984 56.8529 51.5539 57.0982 51.5742 57.139Z" fill="#50E59D"/>
<path d="M51.5732 39.0501V39.7041L50.2178 38.4941L51.5732 39.0501Z" fill="#50E59D"/>
<path d="M51.0654 37.3945L51.5742 39.05L50.2188 38.4941L51.0654 37.3945Z" fill="#50E59D"/>
<path d="M51.5732 39.7041L50.6777 41.0121L50.6167 40.9181L50.2178 38.4941L51.5732 39.7041Z" fill="#50E59D"/>
<path d="M51.2881 43.8945L51.5731 45.3661L50.2502 45.2721L50.1484 45.2639L50.1769 45.1903L51.2881 43.8945Z" fill="#50E59D"/>
<path d="M51.5738 45.3635L49.209 50.2483L50.251 45.2695L51.5738 45.3635Z" fill="#50E59D"/>
<path d="M51.4314 35.1863L51.5291 35.2476H51.122L50.9022 34.9615L50.7598 34.5527L51.4314 35.1863Z" fill="#50E59D"/>
<path d="M51.529 37.4927L51.2888 37.1289L51.1789 37.0513L50.7597 36.7406L50.6579 36.4749L50.4463 35.4121L51.5005 37.3946L51.529 37.4927Z" fill="#50E59D"/>
<path d="M51.296 36.6106L51.4995 37.3955L50.4453 35.413L50.8971 35.0859L51.296 36.6106Z" fill="#50E59D"/>
<path d="M51.4304 34.6766V35.1875L50.7588 34.5539L51.4304 34.043V34.6766Z" fill="#50E59D"/>
<path d="M50.9025 33.2246L51.4316 34.0421L50.76 34.5531L50.5361 34.4305L50.9025 33.2246Z" fill="#50E59D"/>
<path d="M51.4102 54.2366C51.4102 54.2366 51.4102 54.8906 51.4102 54.952C51.4102 54.9847 51.2758 55.4752 51.1497 55.9412L50.9014 54.8498L51.3572 53.7461L51.4102 54.2366Z" fill="#50E59D"/>
<path d="M51.3541 42.6543L51.3907 42.7483L51.2889 43.8929L50.1777 45.1887L51.004 42.9323L51.0651 42.7688L51.3541 42.6543Z" fill="#50E59D"/>
<path d="M51.0654 51.0469L51.3585 53.7447L50.6787 53.8878L51.0654 51.0469Z" fill="#50E59D"/>
<path d="M51.3585 53.7461L50.9026 54.8498L50.6787 53.8892L51.3585 53.7461Z" fill="#50E59D"/>
<path d="M51.122 35.2476L51.297 36.6088L50.8982 35.0841L50.7598 34.5527L50.9022 34.9615L51.122 35.2476Z" fill="#50E59D"/>
<path d="M51.1787 37.0509L51.0647 37.3943H50.332L50.4338 37.2308L50.7594 36.7402L51.1787 37.0509Z" fill="#50E59D"/>
<path d="M51.1501 55.9414C51.0402 56.3624 50.9384 56.763 50.9506 56.7916L50.5762 56.3829L51.1501 55.9414Z" fill="#50E59D"/>
<path d="M50.9014 54.8477L51.1497 55.9391L50.5799 56.3805L50.1484 55.7061L50.9014 54.8477Z" fill="#50E59D"/>
<path d="M51.0646 37.3945L50.218 38.4941L48.6631 38.674L48.7445 38.4164C48.8259 38.5391 51.0646 37.3945 51.0646 37.3945Z" fill="#50E59D"/>
<path d="M50.6782 41.0117L51.0648 42.7694L50.149 42.2053L49.51 41.8415L49.3838 41.772L50.6782 41.0117Z" fill="#50E59D"/>
<path d="M51.0651 42.7695L51.004 42.933L49.209 41.6699L49.384 41.7721L49.5102 41.8416L50.1492 42.2054L51.0651 42.7695Z" fill="#50E59D"/>
<path d="M51.0642 37.3945L49.375 37.6807L50.3315 37.3945H51.0642Z" fill="#50E59D"/>
<path d="M49.3751 37.6807L51.0643 37.3945C51.0643 37.3945 48.8256 38.5391 48.7442 38.4164C48.675 38.3183 49.3548 37.7011 49.3751 37.6807Z" fill="#50E59D"/>
<path d="M51.0035 42.9332H50.2505L49.123 41.6211L49.2085 41.6701L51.0035 42.9332Z" fill="#50E59D"/>
<path d="M50.9015 33.2268L50.5352 34.4326L49.9043 33.002L50.9015 33.2268Z" fill="#50E59D"/>
<path d="M50.6779 53.8887L50.9017 54.8493L49.8027 54.8697L50.6779 53.8887Z" fill="#50E59D"/>
<path d="M50.9017 54.8496L50.1487 55.708L49.8027 55.4219V54.87L50.9017 54.8496Z" fill="#50E59D"/>
<path d="M50.76 34.5543L50.8984 35.0857L50.5361 34.4316L50.76 34.5543Z" fill="#50E59D"/>
<path d="M50.5358 34.4316L50.8981 35.0857L50.4463 35.4127L50.5358 34.4316Z" fill="#50E59D"/>
<path d="M50.5807 56.3815L50.6988 57.1377L50.1289 56.6676L50.1493 55.707L50.5807 56.3815Z" fill="#50E59D"/>
<path d="M50.6169 40.9185L50.678 41.0125L49.0906 39.8475L48.4189 39.3774L49.5505 39.2793L50.6169 40.9185Z" fill="#50E59D"/>
<path d="M50.6781 41.0117L49.3837 41.772L49.2087 41.6698L49.1232 41.6208L48.1586 41.073L48.0527 41.0117H50.6781Z" fill="#50E59D"/>
<path d="M50.6781 41.012H48.0527L48.4191 39.377L49.0907 39.847L50.6781 41.012Z" fill="#50E59D"/>
<path d="M50.4467 35.4141L50.6583 36.4769L50.292 36.3134L50.4467 35.4141Z" fill="#50E59D"/>
<path d="M50.2183 38.4961L50.6172 40.9201L49.5508 39.2809L50.2183 38.4961Z" fill="#50E59D"/>
<path d="M49.9043 33.002L50.5352 34.4326L50.3317 34.637L49.9084 33.1041L49.9043 33.002Z" fill="#50E59D"/>
<path d="M50.5358 34.4316L50.4463 35.4127L49.9863 34.963L50.3323 34.636L50.5358 34.4316Z" fill="#50E59D"/>
<path d="M50.4471 50.7012L50.5082 50.7175C50.2192 51.5964 49.8081 52.8431 49.8081 52.8431L49.3848 50.8647L50.4471 50.7012Z" fill="#50E59D"/>
<path d="M50.4464 35.4121L50.2918 36.3114L49.498 35.8618L50.4464 35.4121Z" fill="#50E59D"/>
<path d="M50.4464 35.4118L49.498 35.8615V35.3301L50.4464 35.4118Z" fill="#50E59D"/>
<path d="M50.4464 35.4125L49.498 35.3308L49.9865 34.9629L50.4464 35.4125Z" fill="#50E59D"/>
<path d="M50.4343 37.2305L50.3325 37.394L49.7627 37.2713L50.4343 37.2305Z" fill="#50E59D"/>
<path d="M49.9092 33.1035L50.3325 34.6364L49.9865 34.9634L49.9092 33.1035Z" fill="#50E59D"/>
<path d="M50.3325 37.3961L49.376 37.6822C49.4737 37.6536 49.7627 37.2734 49.7627 37.2734L50.3325 37.3961Z" fill="#50E59D"/>
<path d="M50.2918 36.311L49.6405 36.7402L49.498 35.8613L50.2918 36.311Z" fill="#50E59D"/>
<path d="M49.1223 41.6211L50.2498 42.9332L48.8252 42.0012L49.1223 41.6211Z" fill="#50E59D"/>
<path d="M50.2507 45.2715L49.2087 50.2503L48.4883 51.1741L48.9767 49.5349L50.2507 45.2715Z" fill="#50E59D"/>
<path d="M50.218 38.4941L49.5505 39.279L48.4189 39.3771L50.218 38.4941Z" fill="#50E59D"/>
<path d="M50.2185 38.4941L48.4194 39.3771L48.0938 39.0296L48.6636 38.674L50.2185 38.4941Z" fill="#50E59D"/>
<path d="M49.9084 33.1035L49.9858 34.9634L49.2002 34.0846L49.9084 33.1035Z" fill="#50E59D"/>
<path d="M49.2012 34.082L49.9867 34.9609L49.4983 35.3288L49.2012 34.082Z" fill="#50E59D"/>
<path d="M49.9048 33L49.9088 33.1022L49.2006 34.0832L48.9482 33.4905L49.9048 33Z" fill="#50E59D"/>
<path d="M49.3839 50.8652L49.8031 52.8478L48.582 55.2717L49.3839 50.8652Z" fill="#50E59D"/>
<path d="M49.1104 37.1094L49.7616 37.2729C49.7616 37.2729 49.4726 37.653 49.3749 37.6816L49.1104 37.1094Z" fill="#50E59D"/>
<path d="M49.4983 35.8613L49.6408 36.7402L49.1523 36.0248L49.4983 35.8613Z" fill="#50E59D"/>
<path d="M49.4974 35.3301V35.8615L49.1514 36.025L48.9642 35.5549L48.9072 35.4118L49.4974 35.3301Z" fill="#50E59D"/>
<path d="M49.2004 34.082L49.4975 35.3288L49.123 35.0835L49.2004 34.082Z" fill="#50E59D"/>
<path d="M49.4974 35.3312L48.9072 35.413L49.123 35.0859L49.4974 35.3312Z" fill="#50E59D"/>
<path d="M49.2097 50.25L49.3847 50.8632L48.4893 51.1738L49.2097 50.25Z" fill="#50E59D"/>
<path d="M49.384 50.8633L48.5822 55.2698L47.6826 53.9904L49.384 50.8633Z" fill="#50E59D"/>
<path d="M49.3832 50.8633L47.6818 53.9904L47.6045 54.1334L48.4878 51.1739L49.3832 50.8633Z" fill="#50E59D"/>
<path d="M49.1102 37.1094L49.3748 37.6816L48.5811 37.8043L49.1102 37.1094Z" fill="#50E59D"/>
<path d="M49.3754 37.6816L48.4189 38.1517L48.0322 38.3152V38.1517L48.5817 37.8043L49.3754 37.6816Z" fill="#50E59D"/>
<path d="M48.4189 38.1517L49.3755 37.6816C49.3551 37.698 48.6794 38.3152 48.7446 38.4174L48.4189 38.1517Z" fill="#50E59D"/>
<path d="M48.9477 33.4922L49.2001 34.0849L48.5 34.3302L48.9477 33.4922Z" fill="#50E59D"/>
<path d="M49.2001 34.084L49.1228 35.0855L48.5 34.3292L49.2001 34.084Z" fill="#50E59D"/>
<path d="M48.9642 35.5571L49.1514 36.0272H48.9072V35.4141L48.9642 35.5571Z" fill="#50E59D"/>
<path d="M48.5 34.3301L49.1228 35.0863L48.907 35.4133L48.6425 35.2089L48.5 34.3301Z" fill="#50E59D"/>
<path d="M48.1592 41.0742L49.1238 41.622L48.8267 42.0021L48.1592 41.0742Z" fill="#50E59D"/>
<path d="M49.1124 37.1094L48.5832 37.8043L48.3594 37.3138L49.1124 37.1094Z" fill="#50E59D"/>
<path d="M48.1592 41.0742L48.8267 42.0021L48.5011 41.7896L48.2162 41.2377L48.1592 41.0742Z" fill="#50E59D"/>
<path d="M48.7455 38.4166L48.6641 38.6742L48.0332 38.3145L48.7455 38.4166Z" fill="#50E59D"/>
<path d="M48.7445 38.418L48.0322 38.3159L48.4189 38.1523L48.7445 38.418Z" fill="#50E59D"/>
<path d="M48.6641 38.6742L48.0943 39.0298L48.0332 38.3145L48.6641 38.6742Z" fill="#50E59D"/>
<path d="M48.5825 55.2695V55.7887L48.1592 55.4821L48.5825 55.2695Z" fill="#50E59D"/>
<path d="M48.3579 37.3145L48.5817 37.805H48.0322L48.3579 37.3145Z" fill="#50E59D"/>
<path d="M47.6826 53.9902L48.5822 55.2697L48.1588 55.4822L47.6826 53.9902Z" fill="#50E59D"/>
<path d="M48.5827 37.8027L48.0332 38.1502V37.8027H48.5827Z" fill="#50E59D"/>
<path d="M48.5828 55.789L48.127 55.8708L48.1595 55.4824L48.5828 55.789Z" fill="#50E59D"/>
<path d="M48.0929 39.0293L48.4186 39.3767L47.6045 39.7038L48.0929 39.0293Z" fill="#50E59D"/>
<path d="M48.4186 39.377L48.0522 41.012L47.6045 40.3376L48.4186 39.377Z" fill="#50E59D"/>
<path d="M48.4186 39.377L47.6045 40.3376V39.704L48.4186 39.377Z" fill="#50E59D"/>
<path d="M47.6822 53.9902L48.1585 55.4822L46.8193 55.2738L47.6049 54.1333L47.6822 53.9902Z" fill="#50E59D"/>
<path d="M48.1588 55.4819L47.4831 55.9929L46.8115 55.2898L46.8197 55.2734L48.1588 55.4819Z" fill="#50E59D"/>
<path d="M48.032 38.3145L48.093 39.0298L47.3604 38.7028L48.032 38.3145Z" fill="#50E59D"/>
<path d="M48.093 39.0301L47.6046 39.7046L47.3604 38.7031L48.093 39.0301Z" fill="#50E59D"/>
<path d="M48.0326 38.3139L47.361 38.7022L46.9336 38.1504L47.768 38.2321L48.0326 38.3139Z" fill="#50E59D"/>
<path d="M47.3609 38.7012L47.6051 39.7027L46.791 38.9301L47.3609 38.7012Z" fill="#50E59D"/>
<path d="M46.8114 55.291L47.483 55.9941H46.1602L46.6486 55.524L46.8114 55.291Z" fill="#50E59D"/>
<path d="M47.483 55.9941L47.3406 56.4438L46.1602 55.9941H47.483Z" fill="#50E59D"/>
<path d="M46.9325 38.1523L47.3599 38.7042L46.79 38.9331L46.9325 38.1523Z" fill="#50E59D"/>
<path d="M47.3406 56.4438L46.2416 56.7912L46.1602 55.9941L47.3406 56.4438Z" fill="#50E59D"/>
<path d="M46.9333 38.1521L46.7908 38.9329L46.3838 37.8047L46.9333 38.1521Z" fill="#50E59D"/>
<path d="M46.3845 37.8027L46.7916 38.9309L46.3845 38.796L46.0996 38.5385L46.1485 38.4159L46.3845 37.8027Z" fill="#50E59D"/>
<path d="M46.7912 38.9316L46.1807 39.9413V39.3772L46.4452 39.0706L46.7912 38.9316Z" fill="#50E59D"/>
<path d="M46.7916 38.9318L46.4456 39.0707L46.181 39.3773L45.5908 38.9318L46.3845 38.7969L46.7916 38.9318Z" fill="#50E59D"/>
<path d="M46.3845 37.8027L46.1485 38.4159L46.0996 38.5385L46.1607 37.8027H46.3845Z" fill="#50E59D"/>
<path d="M46.3845 38.7957L45.5908 38.9306L46.0426 38.5137L46.0996 38.5382L46.3845 38.7957Z" fill="#50E59D"/>
<path d="M46.1599 55.9941L46.2413 56.7912L45.9971 56.6686L46.1599 55.9941Z" fill="#50E59D"/>
<path d="M46.1804 39.377V39.9411L45.8955 40.0514L46.1804 39.377Z" fill="#50E59D"/>
<path d="M46.1812 39.377L45.8963 40.0514L45.6113 39.8062V39.6222L46.1812 39.377Z" fill="#50E59D"/>
<path d="M46.181 39.3772L45.6112 39.6225L45.5908 38.9316L46.181 39.3772Z" fill="#50E59D"/>
<path d="M46.1608 37.8047L46.0998 38.5405L46.0428 38.5159L45.6113 38.3361H45.7945L46.1608 37.8047Z" fill="#50E59D"/>
<path d="M46.0426 38.5158L45.5908 38.9327L45.6112 38.3359L46.0426 38.5158Z" fill="#50E59D"/>
<path d="M45.6106 39.623V39.807L45 39.8479L45.6106 39.623Z" fill="#50E59D"/>
<path d="M45.6106 38.3359L45.5902 38.9327L45 39.8484V39.5622L45.6106 38.3359Z" fill="#50E59D"/>
<path d="M45.5902 38.9316L45.6106 39.6225L45 39.8473L45.5902 38.9316Z" fill="#50E59D"/>
<path d="M45.6115 39.8066L45.001 40.6446V39.8475L45.6115 39.8066Z" fill="#50E59D"/>
<path d="M56.5193 43.7305L54.7284 44.5071L54.0771 47.3971L56.5193 43.7305Z" fill="#50E59D"/>
<path d="M56.5191 43.7319L56.2505 42.0273L55.3184 42.6895L56.5191 43.7319Z" fill="#50E59D"/>
<path d="M45.001 40.6446L46.3849 41.1924L45.6115 39.8066L45.001 40.6446Z" fill="#50E59D"/>
<path d="M46.1807 39.9413L46.7912 40.5013V38.9316L46.1807 39.9413Z" fill="#50E59D"/>
<path d="M47.6041 39.7042L46.79 40.5013V38.9316L47.6041 39.7042Z" fill="#50E59D"/>
<path d="M46.3837 41.1924L45.8953 40.0519L45.6104 39.8066L46.3837 41.1924Z" fill="#50E59D"/>
<path d="M46.3839 41.1922L46.1804 39.9414L45.8955 40.0518L46.3839 41.1922Z" fill="#50E59D"/>
<path d="M46.3842 41.1922L46.7912 40.5014L46.1807 39.9414L46.3842 41.1922Z" fill="#50E59D"/>
<path d="M54.0762 47.3967L54.2878 48.0629L54.6257 46.4688L54.0762 47.3967Z" fill="#50E59D"/>
<path d="M54.626 46.4693L54.7766 47.4913L55.1144 45.8398L54.626 46.4693Z" fill="#50E59D"/>
<path d="M55.1152 45.8397C55.1152 45.8397 55.3106 46.9802 55.3513 46.878C55.392 46.7758 56.5195 43.7305 56.5195 43.7305L55.1152 45.8397Z" fill="#50E59D"/>
<path d="M53.8447 43.5957C53.8529 43.6652 54.7646 47.3972 54.7646 47.3972L55.1147 45.8357L53.8447 43.5957Z" fill="#50E59D"/>
<path d="M54.0771 47.3973L53.1897 47.9001L52.7949 46.1465L54.0771 47.3973Z" fill="#50E59D"/>
<path d="M47.6051 40.3367L46.791 40.5002L47.6051 39.7031V40.3367Z" fill="#50E59D"/>
<path d="M46.3838 41.1922L47.6049 40.3379L46.7908 40.5014L46.3838 41.1922Z" fill="#50E59D"/>
<path d="M46.3845 41.1914L46.0996 42.4422L47.4835 44.0814L47.6056 45.1892L47.3614 45.8391L48.4889 44.6291L48.493 42.8755L47.3614 41.2977L46.3845 41.1914Z" fill="#50E59D"/>
<path d="M46.0996 42.4434L46.3845 44.0212L46.9951 45.0513V45.5663L47.1986 44.7652L46.0996 42.4434Z" fill="#50E59D"/>
<path d="M46.1607 41.3926L45.5908 43.0971V44.5074L45.8147 43.7307L46.1607 41.3926Z" fill="#50E59D"/>
<path d="M48.4919 42.8767L48.3047 41.8915L47.3604 41.2988L48.4919 42.8767Z" fill="#50E59D"/>
<path d="M48.8262 42.5332L49.3187 43.7186L48.9808 44.3236L49.0297 43.596L48.8262 42.5332Z" fill="#50E59D"/>
<path d="M45.8757 43.5045L45.5908 43.0957L45.8757 43.5045Z" fill="#50E59D"/>
<path d="M46.9943 45.0516L47.1979 44.7654L46.3838 44.0215L46.9943 45.0516Z" fill="#50E59D"/>
<path d="M49.0293 43.5957L49.3183 43.7183L48.9805 44.3233L49.0293 43.5957Z" fill="#50E59D"/>
<path d="M48.4922 42.877L48.0322 43.9602L48.4881 44.6306L48.4922 42.877Z" fill="#50E59D"/>
<path d="M48.0319 43.959L47.6045 45.1894L48.4878 44.6294L48.0319 43.959Z" fill="#50E59D"/>
<path d="M47.6046 45.1909L47.3604 45.8408L48.4878 44.6309L47.6046 45.1909Z" fill="#50E59D"/>
<path d="M48.0318 43.9602L47.9219 42.084L48.4917 42.877L48.0318 43.9602Z" fill="#50E59D"/>
<path d="M47.9224 42.0825L47.3607 41.2977L46.3838 41.1914L47.9224 42.0825Z" fill="#50E59D"/>
<path d="M46.9333 41.2535L47.6049 40.3379L46.3838 41.1922L46.9333 41.2535Z" fill="#50E59D"/>
<path d="M47.923 42.084L47.4834 44.0829L48.0329 43.9602L47.923 42.084Z" fill="#50E59D"/>
<path d="M47.4834 44.0816L47.6055 45.1894L48.0329 43.959L47.4834 44.0816Z" fill="#50E59D"/>
<path d="M46.3838 41.1914L47.7026 43.084L47.9224 42.0825L46.3838 41.1914Z" fill="#50E59D"/>
<path d="M46.3838 41.1914L47.4828 44.0814L47.7026 43.084L46.3838 41.1914Z" fill="#50E59D"/>
<path d="M47.4835 44.0814L46.3845 41.1914L46.0996 42.4422L47.4835 44.0814Z" fill="#50E59D"/>
<path d="M45.5908 44.506V43.0957L45.8757 43.5045L45.5908 44.506Z" fill="#50E59D"/>
<path d="M45.8757 43.5059L45.5908 43.0971L46.1607 41.3926L45.8757 43.5059Z" fill="#50E59D"/>
<path d="M47.1977 44.7656L46.9941 45.5668V45.0518L47.1977 44.7656Z" fill="#50E59D"/>
<path d="M46.0996 42.4434L46.3845 44.0212L47.1986 44.7652L46.0996 42.4434Z" fill="#50E59D"/>
<path d="M49.7744 55.4609L50.0471 55.6285L49.4365 56.6872L49.7744 55.4609Z" fill="#50E59D"/>
<path d="M59.5557 46.4492L59.8731 46.4942L59.7225 47.7082L59.5557 46.4492Z" fill="#50E59D"/>
<path d="M56.2466 42.0385L55.3145 41.6992V42.7007L56.2466 42.0385Z" fill="#50E59D"/>
<path d="M54.6262 41.5223L54.728 44.5063L53.4336 40.9745L54.0116 40.668L54.6262 41.5223Z" fill="#50E59D"/>
<g filter="url(#filter2_i_6265_12137)">
<path d="M41.4377 15.003C41.2532 15.0006 41.0753 15.0715 40.943 15.2C40.8106 15.3285 40.7345 15.5042 40.7314 15.6886C40.7334 17.4556 41.0834 19.2048 41.7614 20.8365C42.4395 22.4682 43.4323 23.9503 44.6833 25.1982C45.9342 26.4462 47.4187 27.4354 49.052 28.1096C50.6853 28.7837 52.4354 29.1295 54.2024 29.1272C55.9693 29.1295 57.7194 28.7837 59.3527 28.1096C60.986 27.4354 62.4706 26.4462 63.7215 25.1982C64.9724 23.9503 65.9653 22.4682 66.6433 20.8365C67.3214 19.2048 67.6714 17.4556 67.6733 15.6886C67.6721 15.597 67.653 15.5066 67.6168 15.4224C67.5807 15.3382 67.5284 15.262 67.4628 15.1981C67.3972 15.1341 67.3197 15.0837 67.2346 15.0497C67.1496 15.0158 67.0587 14.9989 66.9671 15.0001H65.3987C65.2189 15.0032 65.0477 15.0773 64.9225 15.2064C64.7974 15.3354 64.7284 15.5088 64.7308 15.6886C64.7308 21.4825 60.0227 26.1846 54.2024 26.1846C52.8218 26.187 51.4544 25.9173 50.1781 25.391C48.9018 24.8648 47.7416 24.0922 46.7639 23.1176C45.7863 22.1429 45.0102 20.9851 44.48 19.7105C43.9498 18.4358 43.6759 17.0691 43.674 15.6886C43.6755 15.5995 43.6595 15.5109 43.6267 15.428C43.594 15.3451 43.5451 15.2695 43.4831 15.2055C43.421 15.1416 43.3469 15.0905 43.265 15.0552C43.1832 15.02 43.0952 15.0012 43.006 15.0001L41.4377 15.003Z" fill="url(#paint12_linear_6265_12137)"/>
</g>
</g>
<g filter="url(#filter3_i_6265_12137)">
<path d="M40.29 68.9867C40.29 68.5499 40.4635 68.131 40.7724 67.8222C41.0812 67.5133 41.5001 67.3398 41.9369 67.3398H63.395C63.8318 67.3398 64.2507 67.5133 64.5595 67.8222C64.8684 68.131 65.0419 68.5499 65.0419 68.9867V92.2481C65.0419 92.6849 64.8684 93.1038 64.5595 93.4126C64.2507 93.7214 63.8318 93.8949 63.395 93.8949H41.9369C41.5001 93.8949 41.0812 93.7214 40.7724 93.4126C40.4635 93.1038 40.29 92.6849 40.29 92.2481V68.9867Z" fill="url(#paint13_linear_6265_12137)"/>
<path d="M40.29 68.9867C40.29 68.5499 40.4635 68.131 40.7724 67.8222C41.0812 67.5133 41.5001 67.3398 41.9369 67.3398H63.395C63.8318 67.3398 64.2507 67.5133 64.5595 67.8222C64.8684 68.131 65.0419 68.5499 65.0419 68.9867V92.2481C65.0419 92.6849 64.8684 93.1038 64.5595 93.4126C64.2507 93.7214 63.8318 93.8949 63.395 93.8949H41.9369C41.5001 93.8949 41.0812 93.7214 40.7724 93.4126C40.4635 93.1038 40.29 92.6849 40.29 92.2481V68.9867Z" fill="url(#paint14_radial_6265_12137)"/>
</g>
<g filter="url(#filter4_f_6265_12137)">
<path d="M44.765 72.2565C44.765 72.0381 44.6782 71.8287 44.5238 71.6743C44.3694 71.5199 44.16 71.4331 43.9416 71.4331C43.7232 71.4331 43.5138 71.5199 43.3593 71.6743C43.2049 71.8287 43.1182 72.0381 43.1182 72.2565H44.765ZM60.153 71.0988C60.153 70.8804 60.0662 70.671 59.9118 70.5166C59.7574 70.3621 59.5479 70.2754 59.3295 70.2754C59.1112 70.2754 58.9017 70.3621 58.7473 70.5166C58.5929 70.671 58.5061 70.8804 58.5061 71.0988H60.153ZM44.765 75.7807V72.2565H43.1182V75.7807H44.765ZM58.5061 71.0988V75.7807H60.153V71.0988H58.5061ZM51.6356 83.1915C47.9302 83.1915 44.765 79.9242 44.765 75.7807H43.1182C43.1182 80.7327 46.9223 84.8383 51.6356 84.8383V83.1915ZM51.6356 84.8383C56.3488 84.8383 60.153 80.7327 60.153 75.7807H58.5061C58.5061 79.9242 55.3409 83.1915 51.6356 83.1915V84.8383Z" fill="#57E8A2"/>
</g>
<g filter="url(#filter5_i_6265_12137)">
<path d="M45.64 71.2258C45.64 71.0074 45.5532 70.7979 45.3988 70.6435C45.2444 70.4891 45.035 70.4023 44.8166 70.4023C44.5982 70.4023 44.3888 70.4891 44.2343 70.6435C44.0799 70.7979 43.9932 71.0074 43.9932 71.2258H45.64ZM61.0263 71.2258C61.0263 71.0074 60.9396 70.7979 60.7851 70.6435C60.6307 70.4891 60.4213 70.4023 60.2029 70.4023C59.9845 70.4023 59.7751 70.4891 59.6207 70.6435C59.4662 70.7979 59.3795 71.0074 59.3795 71.2258H61.0263ZM45.64 74.7516V71.2274H43.9932V74.7516H45.64ZM59.3795 71.2274V74.7516H61.0263V71.2274H59.3795ZM52.5089 82.1623C48.8035 82.1623 45.64 78.895 45.64 74.7516H43.9932C43.9932 79.7036 47.7973 83.8092 52.5106 83.8092L52.5089 82.1623ZM52.5106 83.8092C57.2254 83.8092 61.0263 79.7036 61.0263 74.7516H59.3795C59.3795 78.895 56.2159 82.1623 52.5089 82.1623L52.5106 83.8092Z" fill="#3FEE9A"/>
</g>
<g filter="url(#filter6_f_6265_12137)">
<path d="M45.3053 71.2234C45.3053 71.1688 45.2836 71.1165 45.245 71.0779C45.2064 71.0393 45.154 71.0176 45.0994 71.0176C45.0448 71.0176 44.9925 71.0393 44.9538 71.0779C44.9152 71.1165 44.8936 71.1688 44.8936 71.2234H45.3053ZM60.6932 71.2234C60.6932 71.1688 60.6715 71.1165 60.6329 71.0779C60.5943 71.0393 60.542 71.0176 60.4874 71.0176C60.4328 71.0176 60.3804 71.0393 60.3418 71.0779C60.3032 71.1165 60.2815 71.1688 60.2815 71.2234H60.6932ZM45.3053 74.7493V71.2251H44.8936V74.7493H45.3053ZM60.2815 71.2251V74.7493H60.6932V71.2251H60.2815ZM52.7934 82.7776C48.7093 82.7776 45.3053 79.1957 45.3053 74.7493H44.8936C44.8936 79.3983 48.4573 83.1893 52.7934 83.1893V82.7776ZM52.7934 83.1893C57.1295 83.1893 60.6932 79.3983 60.6932 74.7493H60.2815C60.2815 79.1957 56.8775 82.7776 52.7934 82.7776V83.1893Z" fill="white"/>
</g>
<g filter="url(#filter7_f_6265_12137)">
<path opacity="0.68" d="M63.7468 68.8516L63.7451 92.3765" stroke="url(#paint15_linear_6265_12137)" stroke-width="0.75" stroke-linecap="round"/>
</g>
<g filter="url(#filter8_i_6265_12137)">
<path d="M47.0803 57.3027H20.9369C20.0273 57.3027 19.29 58.04 19.29 58.9496V88.7473C19.29 89.6568 20.0273 90.3941 20.9369 90.3941H47.0803C47.9898 90.3941 48.7271 89.6568 48.7271 88.7473V58.9496C48.7271 58.04 47.9898 57.3027 47.0803 57.3027Z" fill="url(#paint16_linear_6265_12137)"/>
</g>
<g filter="url(#filter9_f_6265_12137)">
<path opacity="0.75" d="M47.1318 58.8945V87.714" stroke="url(#paint17_linear_6265_12137)" stroke-width="0.75" stroke-linecap="round"/>
</g>
<g filter="url(#filter10_f_6265_12137)">
<path d="M41.4707 58.2285V63.3749" stroke="#34EB93" stroke-width="0.75" stroke-linecap="round"/>
</g>
<g filter="url(#filter11_f_6265_12137)">
<path d="M24.8994 58.2285V63.3749" stroke="#34EB93" stroke-width="0.75" stroke-linecap="round"/>
</g>
<g filter="url(#filter12_i_6265_12137)">
<path d="M41.4952 62.4991C41.4952 62.7175 41.5819 62.9269 41.7363 63.0814C41.8907 63.2358 42.1002 63.3225 42.3186 63.3225C42.5369 63.3225 42.7464 63.2358 42.9008 63.0814C43.0552 62.9269 43.142 62.7175 43.142 62.4991H41.4952ZM24.8721 62.4991C24.8721 62.7175 24.9588 62.9269 25.1132 63.0814C25.2677 63.2358 25.4771 63.3225 25.6955 63.3225C25.9139 63.3225 26.1233 63.2358 26.2777 63.0814C26.4321 62.9269 26.5189 62.7175 26.5189 62.4991H24.8721ZM41.4952 56.6298V62.4991H43.142V56.6298H41.4952ZM26.5189 62.4991V56.6298H24.8721V62.4991H26.5189ZM34.007 49.2191C38.1109 49.2191 41.4952 52.5473 41.4952 56.6298H43.142C43.142 51.6185 39.0002 47.5723 34.007 47.5723V49.2191ZM34.007 47.5723C29.0155 47.5723 24.8721 51.6185 24.8721 56.6298H26.5189C26.5189 52.5473 29.9048 49.2191 34.007 49.2191V47.5723Z" fill="url(#paint18_radial_6265_12137)"/>
</g>
<g filter="url(#filter13_f_6265_12137)">
<path d="M42.3963 62.503C42.3963 62.5575 42.418 62.6099 42.4566 62.6485C42.4952 62.6871 42.5475 62.7088 42.6021 62.7088C42.6567 62.7088 42.7091 62.6871 42.7477 62.6485C42.7863 62.6099 42.808 62.5575 42.808 62.503H42.3963ZM25.4899 62.503C25.4899 62.5575 25.5116 62.6099 25.5502 62.6485C25.5888 62.6871 25.6412 62.7088 25.6958 62.7088C25.7504 62.7088 25.8027 62.6871 25.8413 62.6485C25.8799 62.6099 25.9016 62.5575 25.9016 62.503H25.4899ZM42.3963 56.6337V62.503H42.808V56.6337H42.3963ZM25.9016 62.503L25.9 56.6337H25.4883V62.5013L25.9016 62.503ZM34.1473 48.607C38.6646 48.607 42.3946 52.207 42.3946 56.6353H42.8063C42.8063 51.9682 38.8803 48.1953 34.1473 48.1953V48.607ZM34.1473 48.1953C29.4143 48.1953 25.4883 51.9665 25.4883 56.6337H25.9C25.9 52.2053 29.6301 48.607 34.1473 48.607V48.1953Z" fill="url(#paint19_linear_6265_12137)"/>
<path d="M42.3963 62.503C42.3963 62.5575 42.418 62.6099 42.4566 62.6485C42.4952 62.6871 42.5475 62.7088 42.6021 62.7088C42.6567 62.7088 42.7091 62.6871 42.7477 62.6485C42.7863 62.6099 42.808 62.5575 42.808 62.503H42.3963ZM25.4899 62.503C25.4899 62.5575 25.5116 62.6099 25.5502 62.6485C25.5888 62.6871 25.6412 62.7088 25.6958 62.7088C25.7504 62.7088 25.8027 62.6871 25.8413 62.6485C25.8799 62.6099 25.9016 62.5575 25.9016 62.503H25.4899ZM42.3963 56.6337V62.503H42.808V56.6337H42.3963ZM25.9016 62.503L25.9 56.6337H25.4883V62.5013L25.9016 62.503ZM34.1473 48.607C38.6646 48.607 42.3946 52.207 42.3946 56.6353H42.8063C42.8063 51.9682 38.8803 48.1953 34.1473 48.1953V48.607ZM34.1473 48.1953C29.4143 48.1953 25.4883 51.9665 25.4883 56.6337H25.9C25.9 52.2053 29.6301 48.607 34.1473 48.607V48.1953Z" fill="url(#paint20_linear_6265_12137)"/>
</g>
<path d="M40.2063 75.7738L40.4377 76.2932L39.7435 75.9515L39.6074 75.5195L40.1628 75.6289L40.2063 75.7738Z" fill="#50E59D"/>
<path d="M39.9886 75.0651L40.1628 75.6283L39.6074 74.9667V74.0098L39.9886 75.0651Z" fill="#50E59D"/>
<path d="M39.6084 74.9688L40.1638 75.6304L39.6084 75.521V74.9688Z" fill="#50E59D"/>
<path d="M39.6076 74.9687V75.521L39.5804 75.4335L39.1448 75.0097L38.9814 74.6133L39.6076 74.9687Z" fill="#50E59D"/>
<path d="M39.6076 74.0098V74.9667L38.9814 74.6112L39.6076 74.0098Z" fill="#50E59D"/>
<path d="M39.3905 73.1758L39.6083 74.0096L38.9141 73.955L39.3878 73.1074L39.3905 73.1758Z" fill="#50E59D"/>
<path d="M39.6073 74.0098L38.9811 74.6112L38.9131 73.9551L39.6073 74.0098Z" fill="#50E59D"/>
<path d="M39.3865 73.1091L38.8447 72.3846L39.2803 71.1133L39.3865 73.1091Z" fill="#50E59D"/>
<path d="M38.8447 72.3848L39.3865 73.1093L38.9128 73.9568L38.8447 72.3848Z" fill="#50E59D"/>
<path d="M39.2681 71.0176L39.2817 71.1133L38.8461 72.3846L38.1846 71.7011L39.2681 71.0176Z" fill="#50E59D"/>
<path d="M39.1992 70.5254L39.2673 71.0175H38.75L39.1992 70.5254Z" fill="#50E59D"/>
<path d="M39.2681 71.0176L38.1846 71.7011L38.7508 71.0176H39.2681Z" fill="#50E59D"/>
<path d="M39.1992 70.5254L38.75 71.0175V70.9218V70.2656L39.1992 70.5254Z" fill="#50E59D"/>
<path d="M38.8535 81.6797L39.1993 81.666L39.1448 82.0351H38.7256L38.8535 81.6797Z" fill="#50E59D"/>
<path d="M39.2002 81.666L38.8545 81.6796V81.3242L39.2002 81.666Z" fill="#50E59D"/>
<path d="M38.9815 74.6133L39.1449 75.0097L38.6685 74.955L38.5596 74.6133H38.9815Z" fill="#50E59D"/>
<path d="M38.9135 73.9551L38.9815 74.6112H38.5596C38.5596 74.6112 38.8046 74.1191 38.8454 74.1054C38.8863 74.0918 38.9135 73.9551 38.9135 73.9551Z" fill="#50E59D"/>
<path d="M38.4426 79.2598L38.9816 81.0505L38.0859 80.4572L38.4426 79.2598Z" fill="#50E59D"/>
<path d="M38.9816 81.0523L38.8536 81.3257L38.0859 80.459L38.9816 81.0523Z" fill="#50E59D"/>
<path d="M38.8461 72.3847L38.9142 73.9567L38.3425 72.4257L38.1846 71.7012L38.8461 72.3847Z" fill="#50E59D"/>
<path d="M38.853 81.3242V81.6796L37.9873 81.3789L38.853 81.3242Z" fill="#50E59D"/>
<path d="M38.0865 80.459L38.8543 81.3257L37.9885 81.3803H37.8252L38.0865 80.459Z" fill="#50E59D"/>
<path d="M38.853 81.6796L38.7251 82.0351L37.9873 81.3789L38.853 81.6796Z" fill="#50E59D"/>
<path d="M38.7496 70.9219V71.0176L38.1833 71.7011L37.9873 71.0176L38.7496 70.9219Z" fill="#50E59D"/>
<path d="M38.7496 70.2656V70.9218L37.9873 71.0175L38.7496 70.2656Z" fill="#50E59D"/>
<path d="M38.7496 70.2656L37.9873 71.0175L38.2732 70.3613L38.7496 70.2656Z" fill="#50E59D"/>
<path d="M38.7251 82.0351L37.9873 81.789V81.3789L38.7251 82.0351Z" fill="#50E59D"/>
<path d="M38.1533 78.3027L38.4418 79.2596L36.9935 78.9261L36.9854 78.9042L38.1533 78.3027Z" fill="#50E59D"/>
<path d="M38.443 79.2598L38.0864 80.4572L37.3486 79.9706L38.443 79.2598Z" fill="#50E59D"/>
<path d="M38.4415 79.2593L37.3471 79.9702L36.9932 78.9258L38.4415 79.2593Z" fill="#50E59D"/>
<path d="M38.2729 70.3613L37.987 71.0175L36.8164 71.2635L38.2729 70.3613Z" fill="#50E59D"/>
<path d="M37.987 71.0176L38.183 71.7011L37.6331 72.4256L36.8164 73.1774L37.987 71.0176Z" fill="#50E59D"/>
<path d="M38.1459 78.2726L38.154 78.3027L36.9861 78.9042L36.9834 78.8905L37.6204 78.0703L38.1459 78.2726Z" fill="#50E59D"/>
<path d="M37.828 77.2188L38.1465 78.2741L37.6211 78.0718L37.828 77.2188Z" fill="#50E59D"/>
<path d="M38.0864 80.4574L37.825 81.3787L37.3486 79.9707L38.0864 80.4574Z" fill="#50E59D"/>
<path d="M37.988 71.0176L36.8174 73.1774L36.7466 73.2048L36.7357 73.1774L35.9326 72.4803L37.988 71.0176Z" fill="#50E59D"/>
<path d="M37.988 71.0176L35.9326 72.4803V71.8104L36.3437 71.5562L36.8174 71.2636L37.988 71.0176Z" fill="#50E59D"/>
<path d="M37.524 76.2109L37.8262 77.217L37.2109 76.7714L37.4805 76.0742L37.524 76.2109Z" fill="#50E59D"/>
<path d="M37.8274 77.2168L37.6205 78.0698C37.6205 78.0698 37.0488 77.7308 37.0352 77.6542L37.8274 77.2168Z" fill="#50E59D"/>
<path d="M37.8271 77.2191L37.0349 77.6565C37.0213 77.58 37.2118 76.7734 37.2118 76.7734L37.8271 77.2191Z" fill="#50E59D"/>
<path d="M37.6202 78.0718L36.9831 78.892L36.9668 78.8401L37.0376 77.6562C37.0485 77.7328 37.6202 78.0718 37.6202 78.0718Z" fill="#50E59D"/>
<path d="M36.7412 73.7891L37.4817 76.0747L37.2122 76.7718L36.7412 73.7891Z" fill="#50E59D"/>
<path d="M36.7409 73.7891L37.2119 76.7718L36.4551 73.8683L36.7409 73.7891Z" fill="#50E59D"/>
<path d="M36.4552 73.8691L37.212 76.7726L35.4561 74.0605L36.4552 73.8691Z" fill="#50E59D"/>
<path d="M35.4558 74.0605L37.2118 76.7727L35.3469 74.8862L35.2734 74.8698L35.4558 74.0605Z" fill="#50E59D"/>
<path d="M35.3477 74.8848L37.2125 76.7712L36.0773 76.2107L35.3477 74.8848Z" fill="#50E59D"/>
<path d="M36.0762 76.2129L37.2114 76.7734C37.2114 76.7734 37.0208 77.5799 37.0345 77.6564L36.0762 76.2129Z" fill="#50E59D"/>
<path d="M36.0762 76.2129L37.0345 77.6564L36.9637 78.8402L36.0762 76.2129Z" fill="#50E59D"/>
<path d="M36.7359 73.1757L36.7468 73.203L36.5726 73.2741L36.0063 73.5038L35.8375 73.5721L35.5381 73.6951L35.9328 72.4785L36.7359 73.1757Z" fill="#50E59D"/>
<path d="M36.7409 73.7894L36.4551 73.8687L36.5721 73.2754L36.7409 73.7894Z" fill="#50E59D"/>
<path d="M36.0068 73.505L36.5731 73.2754L36.456 73.8687L36.0068 73.505Z" fill="#50E59D"/>
<path d="M36.4552 73.8695L35.4561 74.0609L36.006 73.5059L36.4552 73.8695Z" fill="#50E59D"/>
<path d="M36.3143 71.5097L36.3443 71.5561L35.9332 71.8104L35.8433 70.7633L35.8379 70.7168L36.3143 71.5097Z" fill="#50E59D"/>
<path d="M35.9462 68.8984L36.3138 70.1561L35.0479 69.787L35.9462 68.8984Z" fill="#50E59D"/>
<path d="M36.3147 70.1562L36.0969 70.58L35.0488 69.7871L36.3147 70.1562Z" fill="#50E59D"/>
<path d="M36.0969 70.58L35.8383 70.7167L35.0597 71.1295L35.0488 71.1131V69.7871L36.0969 70.58Z" fill="#50E59D"/>
<path d="M36.006 73.5059L35.4561 74.0609L35.5377 73.6972L35.8372 73.5742L36.006 73.5059Z" fill="#50E59D"/>
<path d="M35.4562 67.9277L35.9462 68.8983L35.0479 69.7868L35.4562 67.9277Z" fill="#50E59D"/>
<path d="M35.9325 71.8086V72.4784L35.5378 73.695L35.4697 71.6992L35.9325 71.8086Z" fill="#50E59D"/>
<path d="M35.8427 70.7637L35.9325 71.8108L35.4697 71.7014L35.8372 70.7637H35.8427Z" fill="#50E59D"/>
<path d="M35.8372 70.7168L35.8426 70.7633H35.8372L35.4697 71.701L35.0586 71.1296L35.8372 70.7168Z" fill="#50E59D"/>
<path d="M35.0503 71.1328L35.5376 73.6973C35.5376 73.6973 35.1211 73.197 34.9523 73.0275C34.9169 72.9919 34.8924 72.97 34.8842 72.9728L34.6719 71.3351L35.0503 71.1328Z" fill="#50E59D"/>
<path d="M35.5384 73.6953L35.4568 74.0589L35.2744 74.8682L35.1029 75.6282L34.9531 73.955L35.5384 73.6953Z" fill="#50E59D"/>
<path d="M35.5378 73.696L34.9525 73.9557C34.9525 73.9557 34.9525 73.953 34.9525 73.9503C34.9525 73.9503 34.9525 73.9503 34.9525 73.9475C34.9416 73.8655 34.9552 73.0234 34.9552 73.0234C35.1213 73.1957 35.5378 73.696 35.5378 73.696Z" fill="#50E59D"/>
<path d="M35.4564 67.9277L35.0481 69.7868L34.6533 68.8436L34.7078 67.668L35.1025 67.6816L35.4564 67.9277Z" fill="#50E59D"/>
<path d="M35.1017 75.6296L34.7941 76.9884L34.2441 74.793L35.1017 75.6296Z" fill="#50E59D"/>
<path d="M34.952 73.957L35.1017 75.6302L34.2441 74.7936L34.952 73.957Z" fill="#50E59D"/>
<path d="M35.0501 71.1324L34.6717 71.3347L33.6454 71.8788L33.5664 71.9471L33.7815 70.8672L35.0474 71.1132L35.0501 71.1324Z" fill="#50E59D"/>
<path d="M35.0481 69.7871V71.1131L33.7822 70.867L33.8911 70.785L34.6126 70.1617L35.0481 69.7871Z" fill="#50E59D"/>
<path d="M34.6528 68.8418L35.0475 69.785L34.3125 69.621L34.6528 68.8418Z" fill="#50E59D"/>
<path d="M35.0474 69.7871L34.6118 70.1616L34.5846 70.1288V69.9375C34.5846 69.9375 34.4348 69.7461 34.4103 69.7679C34.3858 69.7898 33.8005 69.7679 33.7842 69.7679L34.3096 69.623L35.0474 69.7871Z" fill="#50E59D"/>
<path d="M34.952 73.9569L34.2441 74.7935L34.4674 72.877C34.4674 72.877 34.9166 73.8639 34.9492 73.9514C34.9492 73.9541 34.9492 73.9541 34.9492 73.9541C34.952 73.9541 34.952 73.9569 34.952 73.9569Z" fill="#50E59D"/>
<path d="M34.9524 73.0254C34.9524 73.0254 34.9387 73.8674 34.9496 73.9495C34.917 73.862 34.4678 72.875 34.4678 72.875C34.4678 72.875 34.8435 72.9844 34.8816 72.9707C34.8925 72.968 34.917 72.9898 34.9524 73.0254Z" fill="#50E59D"/>
<path d="M34.6717 71.3359L34.884 72.9736L33.5664 71.9483L33.6454 71.88L34.6717 71.3359Z" fill="#50E59D"/>
<path d="M33.5664 71.9473L34.884 72.9725C34.8432 72.9862 34.4702 72.8768 34.4702 72.8768L33.5664 71.9473Z" fill="#50E59D"/>
<path d="M34.7946 76.9884L34.7755 77.0731L34.1303 76.4088L33.7002 75.9658L34.2447 74.793L34.7946 76.9884Z" fill="#50E59D"/>
<path d="M34.1307 76.4082L34.7759 77.0726H34.245L33.7822 76.9905L34.1307 76.4082Z" fill="#50E59D"/>
<path d="M34.775 77.0723L34.3122 77.8241L34.2441 77.0723H34.775Z" fill="#50E59D"/>
<path d="M34.7069 67.668L34.6525 68.8436L34.2441 67.7773L34.7069 67.668Z" fill="#50E59D"/>
<path d="M34.2441 67.7773L34.6525 68.8436L33.7949 68.5018L34.0399 67.75L34.2441 67.7773Z" fill="#50E59D"/>
<path d="M34.6537 68.8438L34.3134 69.6229H33.6328L34.6537 68.8438Z" fill="#50E59D"/>
<path d="M34.6525 68.8438L33.6316 69.6229L33.5771 69.2812L34.6525 68.8438Z" fill="#50E59D"/>
<path d="M34.6526 68.8437L33.5772 69.2811L33.4819 68.6933L33.4629 68.6469L33.4819 68.6387L33.795 68.502L34.6526 68.8437Z" fill="#50E59D"/>
<path d="M34.5853 70.1289L34.6126 70.1617L33.8911 70.785L33.7822 70.8671V70.7714V70.6429L34.3131 70.2656L34.471 69.9648L34.5853 70.1289Z" fill="#50E59D"/>
<path d="M34.5846 69.9385V70.1299L34.4702 69.9658L34.3123 69.8783L33.9884 69.9631L33.7842 69.7717C33.8005 69.7717 34.3858 69.7936 34.4103 69.7717C34.4348 69.7471 34.5846 69.9385 34.5846 69.9385Z" fill="#50E59D"/>
<path d="M34.4704 69.9644L34.3125 70.2652V69.877L34.4704 69.9644Z" fill="#50E59D"/>
<path d="M33.5664 71.9473L34.4702 72.8768L34.2443 74.7933L33.5664 71.9473Z" fill="#50E59D"/>
<path d="M34.3122 69.877V70.2652L33.9883 69.9617L34.3122 69.877Z" fill="#50E59D"/>
<path d="M34.2449 77.0742L34.313 77.8261L33.0879 78.0721L34.2449 77.0742Z" fill="#50E59D"/>
<path d="M34.313 77.8242L33.3193 80.2028L33.2839 79.8747L33.0879 78.0703L34.313 77.8242Z" fill="#50E59D"/>
<path d="M34.3124 69.623L33.787 69.7679L33.6318 69.623H34.3124Z" fill="#50E59D"/>
<path d="M34.3131 70.2656L33.7822 70.6429L33.8911 70.2656H34.3131Z" fill="#50E59D"/>
<path d="M34.3125 70.2655H33.8905L33.4277 70.0468L33.6319 69.623L33.7871 69.7679L33.9885 69.9621L34.3125 70.2655Z" fill="#50E59D"/>
<path d="M33.5668 71.9473L34.2447 74.7933L33.6049 74.7633L33.4824 72.3765L33.5668 71.9473Z" fill="#50E59D"/>
<path d="M34.2452 74.7937L33.7008 75.9666L33.6681 75.5456L33.6055 74.7637L34.2452 74.7937Z" fill="#50E59D"/>
<path d="M34.2449 77.0723L33.0879 78.0702L33.7821 76.9902L34.2449 77.0723Z" fill="#50E59D"/>
<path d="M33.7002 75.9668L34.1303 76.4097L33.7819 76.992L33.7002 75.9668Z" fill="#50E59D"/>
<path d="M34.0407 67.75L33.7957 68.5018L33.7794 68.4143L33.7549 67.6406L34.0407 67.75Z" fill="#50E59D"/>
<path d="M33.8905 70.2656L33.7816 70.6429V70.7714L33.4277 70.4843L33.8905 70.2656Z" fill="#50E59D"/>
<path d="M33.8905 70.2656L33.4277 70.4843V70.0469L33.8905 70.2656Z" fill="#50E59D"/>
<path d="M33.7804 68.4143L33.7968 68.5018L33.6606 68.4143L33.3721 68.2284L33.6334 67.6543L33.7804 68.4143Z" fill="#50E59D"/>
<path d="M33.7955 68.5015L33.4824 68.6382L33.6594 68.4141L33.7955 68.5015Z" fill="#50E59D"/>
<path d="M33.7816 70.7714V70.8671L33.5666 71.9471L33.4822 72.3763L33.4277 70.4844L33.7816 70.7714Z" fill="#50E59D"/>
<path d="M33.7543 67.6406L33.7788 68.4143L33.6318 67.6543L33.7543 67.6406Z" fill="#50E59D"/>
<path d="M33.6044 74.7616L33.667 75.5436L31.8457 77.5366L33.4274 74.2695L33.6044 74.7616Z" fill="#50E59D"/>
<path d="M33.6669 75.5449L33.3865 76.0753C33.3865 76.0753 32.9101 77.2509 32.8965 77.2919C32.891 77.3056 32.8121 77.5435 32.7113 77.8524L32.6705 77.8415L31.96 77.9508L33.6669 75.5449Z" fill="#50E59D"/>
<path d="M33.667 75.5449L31.9628 77.9481L31.8457 77.538L33.667 75.5449Z" fill="#50E59D"/>
<path d="M33.6597 68.4144L33.4827 68.6386L33.4637 68.6468L33.333 68.3105L33.3711 68.2285L33.6597 68.4144Z" fill="#50E59D"/>
<path d="M33.6323 67.6543L33.371 68.2284L33.3329 68.3104L33.4636 68.6467L33.4826 68.6932L33.5779 69.281L33.3982 69.0049L33.3792 68.9392L33.243 68.4143L33.126 67.5039H33.3982L33.6323 67.6543Z" fill="#50E59D"/>
<path d="M33.5779 69.2804L33.6324 69.6221L33.0879 68.9386L33.1641 68.709L33.2376 68.7609L33.3982 69.0043L33.5779 69.2804Z" fill="#50E59D"/>
<path d="M33.0879 68.9395L33.6324 69.6229L33.4282 70.0467L33.0879 68.9395Z" fill="#50E59D"/>
<path d="M33.4833 72.377L33.6058 74.7637L33.4288 74.2716L33.2383 73.2874L33.3063 72.5219L33.2818 72.459L33.4833 72.377Z" fill="#50E59D"/>
<path d="M33.427 70.4824L33.4815 72.3743L32.8281 71.3573L33.427 70.4824Z" fill="#50E59D"/>
<path d="M32.8291 71.3594L33.4825 72.3764L33.281 72.4584L33.0877 72.535L32.8291 71.3594Z" fill="#50E59D"/>
<path d="M33.4289 82.1445C33.4425 82.1718 32.8436 82.1445 32.8436 82.1445L32.7646 81.6387L33.0151 81.9121C33.0342 81.9531 33.4153 82.1171 33.4289 82.1445Z" fill="#50E59D"/>
<path d="M33.4271 70.0476V70.485L32.5205 69.6758L33.4271 70.0476Z" fill="#50E59D"/>
<path d="M33.0877 68.9395L33.428 70.0467L32.5215 69.6749L33.0877 68.9395Z" fill="#50E59D"/>
<path d="M33.4271 70.485L32.8281 71.3599L32.7873 71.297L32.5205 69.6758L33.4271 70.485Z" fill="#50E59D"/>
<path d="M33.2369 73.2871L33.4274 74.2713L32.5427 74.2085L32.4746 74.203L32.4937 74.1538L33.2369 73.2871Z" fill="#50E59D"/>
<path d="M33.4274 74.2699L31.8457 77.537L32.5426 74.207L33.4274 74.2699Z" fill="#50E59D"/>
<path d="M33.332 67.4628L33.3973 67.5038H33.1251L32.9781 67.3125L32.8828 67.0391L33.332 67.4628Z" fill="#50E59D"/>
<path d="M33.398 69.0049L33.2374 68.7616L33.1639 68.7096L32.8835 68.5018L32.8154 68.3241L32.6738 67.6133L33.3789 68.9393L33.398 69.0049Z" fill="#50E59D"/>
<path d="M33.2428 68.4143L33.3789 68.9392L32.6738 67.6132L32.976 67.3945L33.2428 68.4143Z" fill="#50E59D"/>
<path d="M33.332 67.121V67.4628L32.8828 67.039L33.332 66.6973V67.121Z" fill="#50E59D"/>
<path d="M32.9784 66.1504L33.3323 66.6972L32.8831 67.0389L32.7334 66.9569L32.9784 66.1504Z" fill="#50E59D"/>
<path d="M33.3178 80.2031C33.3178 80.2031 33.3178 80.6405 33.3178 80.6815C33.3178 80.7034 33.228 81.0315 33.1436 81.3431L32.9775 80.6132L33.2824 79.875L33.3178 80.2031Z" fill="#50E59D"/>
<path d="M33.2809 72.457L33.3054 72.5199L33.2374 73.2854L32.4941 74.1521L33.0468 72.6429L33.0876 72.5336L33.2809 72.457Z" fill="#50E59D"/>
<path d="M33.0877 78.0703L33.2837 79.8747L32.8291 79.9704L33.0877 78.0703Z" fill="#50E59D"/>
<path d="M33.2837 79.875L32.9788 80.6132L32.8291 79.9707L33.2837 79.875Z" fill="#50E59D"/>
<path d="M33.1251 67.5038L33.2422 68.4143L32.9754 67.3945L32.8828 67.0391L32.9781 67.3125L33.1251 67.5038Z" fill="#50E59D"/>
<path d="M33.1639 68.7097L33.0877 68.9394H32.5977L32.6657 68.83L32.8835 68.502L33.1639 68.7097Z" fill="#50E59D"/>
<path d="M33.1446 81.3438C33.0711 81.6253 33.003 81.8933 33.0112 81.9124L32.7607 81.639L33.1446 81.3438Z" fill="#50E59D"/>
<path d="M32.9783 80.6133L33.1443 81.3433L32.7632 81.6385L32.4746 81.1874L32.9783 80.6133Z" fill="#50E59D"/>
<path d="M33.0877 68.9395L32.5214 69.6749L31.4814 69.7952L31.5359 69.6229C31.5903 69.705 33.0877 68.9395 33.0877 68.9395Z" fill="#50E59D"/>
<path d="M32.8296 71.3594L33.0882 72.535L32.4757 72.1577L32.0483 71.9144L31.9639 71.8679L32.8296 71.3594Z" fill="#50E59D"/>
<path d="M33.0871 72.5343L33.0463 72.6436L31.8457 71.7988L31.9628 71.8672L32.0472 71.9137L32.4746 72.157L33.0871 72.5343Z" fill="#50E59D"/>
<path d="M33.0868 68.9395L31.957 69.1308L32.5968 68.9395H33.0868Z" fill="#50E59D"/>
<path d="M31.9575 69.1308L33.0873 68.9395C33.0873 68.9395 31.59 69.705 31.5355 69.6229C31.4893 69.5573 31.9439 69.1445 31.9575 69.1308Z" fill="#50E59D"/>
<path d="M33.0468 72.6432H32.5432L31.7891 71.7656L31.8462 71.7984L33.0468 72.6432Z" fill="#50E59D"/>
<path d="M32.9785 66.1504L32.7335 66.9569L32.3115 66L32.9785 66.1504Z" fill="#50E59D"/>
<path d="M32.8295 79.9707L32.9792 80.6132L32.2441 80.6269L32.8295 79.9707Z" fill="#50E59D"/>
<path d="M32.9792 80.6133L32.4755 81.1874L32.2441 80.996V80.627L32.9792 80.6133Z" fill="#50E59D"/>
<path d="M32.8831 67.0391L32.9757 67.3945L32.7334 66.957L32.8831 67.0391Z" fill="#50E59D"/>
<path d="M32.7337 66.959L32.976 67.3964L32.6738 67.6151L32.7337 66.959Z" fill="#50E59D"/>
<path d="M32.7631 81.6386L32.8421 82.1444L32.4609 81.83L32.4745 81.1875L32.7631 81.6386Z" fill="#50E59D"/>
<path d="M32.7875 71.2955L32.8283 71.3584L31.7666 70.5792L31.3174 70.2648L32.0742 70.1992L32.7875 71.2955Z" fill="#50E59D"/>
<path d="M32.8282 71.3594L31.9625 71.8679L31.8454 71.7995L31.7883 71.7667L31.143 71.4004L31.0723 71.3594H32.8282Z" fill="#50E59D"/>
<path d="M32.8282 71.3592H31.0723L31.3173 70.2656L31.7665 70.58L32.8282 71.3592Z" fill="#50E59D"/>
<path d="M32.6747 67.6133L32.8163 68.3241L32.5713 68.2148L32.6747 67.6133Z" fill="#50E59D"/>
<path d="M32.5207 69.6758L32.7875 71.297L32.0742 70.2007L32.5207 69.6758Z" fill="#50E59D"/>
<path d="M32.3115 66L32.7335 66.9569L32.5974 67.0936L32.3142 66.0683L32.3115 66Z" fill="#50E59D"/>
<path d="M32.7337 66.957L32.6738 67.6132L32.3662 67.3124L32.5976 67.0937L32.7337 66.957Z" fill="#50E59D"/>
<path d="M32.6744 77.8379L32.7152 77.8488C32.522 78.4366 32.247 79.2705 32.247 79.2705L31.9639 77.9472L32.6744 77.8379Z" fill="#50E59D"/>
<path d="M32.6734 67.6133L32.5699 68.2148L32.0391 67.914L32.6734 67.6133Z" fill="#50E59D"/>
<path d="M32.6734 67.6133L32.0391 67.914V67.5586L32.6734 67.6133Z" fill="#50E59D"/>
<path d="M32.6734 67.6132L32.0391 67.5586L32.3657 67.3125L32.6734 67.6132Z" fill="#50E59D"/>
<path d="M32.666 68.8301L32.5979 68.9394L32.2168 68.8574L32.666 68.8301Z" fill="#50E59D"/>
<path d="M32.3154 66.0684L32.5986 67.0936L32.3672 67.3123L32.3154 66.0684Z" fill="#50E59D"/>
<path d="M32.5978 68.9394L31.958 69.1308C32.0233 69.1117 32.2166 68.8574 32.2166 68.8574L32.5978 68.9394Z" fill="#50E59D"/>
<path d="M32.5699 68.2148L32.1343 68.5019L32.0391 67.9141L32.5699 68.2148Z" fill="#50E59D"/>
<path d="M31.7876 71.7656L32.5417 72.6432L31.5889 72.0199L31.7876 71.7656Z" fill="#50E59D"/>
<path d="M32.543 74.207L31.8461 77.537L31.3643 78.1549L31.6909 77.0586L32.543 74.207Z" fill="#50E59D"/>
<path d="M32.5207 69.6738L32.0742 70.1988L31.3174 70.2644L32.5207 69.6738Z" fill="#50E59D"/>
<path d="M32.5217 69.6738L31.3184 70.2644L31.1006 70.032L31.4817 69.7941L32.5217 69.6738Z" fill="#50E59D"/>
<path d="M32.3145 66.0684L32.3662 67.3123L31.8408 66.7245L32.3145 66.0684Z" fill="#50E59D"/>
<path d="M31.8418 66.7246L32.3672 67.3124L32.0405 67.5585L31.8418 66.7246Z" fill="#50E59D"/>
<path d="M32.3116 66L32.3144 66.0683L31.8407 66.7245L31.6719 66.3281L32.3116 66Z" fill="#50E59D"/>
<path d="M31.964 77.9492L32.2444 79.2752L31.4277 80.8964L31.964 77.9492Z" fill="#50E59D"/>
<path d="M31.7803 68.75L32.2159 68.8594C32.2159 68.8594 32.0226 69.1136 31.9572 69.1328L31.7803 68.75Z" fill="#50E59D"/>
<path d="M32.04 67.9141L32.1353 68.5019L31.8086 68.0234L32.04 67.9141Z" fill="#50E59D"/>
<path d="M32.0393 67.5586V67.914L31.8079 68.0234L31.6826 67.709L31.6445 67.6133L32.0393 67.5586Z" fill="#50E59D"/>
<path d="M31.8408 66.7246L32.0395 67.5585L31.7891 67.3944L31.8408 66.7246Z" fill="#50E59D"/>
<path d="M32.0393 67.5586L31.6445 67.6132L31.7888 67.3945L32.0393 67.5586Z" fill="#50E59D"/>
<path d="M31.8461 77.5371L31.9632 77.9472L31.3643 78.155L31.8461 77.5371Z" fill="#50E59D"/>
<path d="M31.9632 77.9492L31.4268 80.8964L30.8252 80.0407L31.9632 77.9492Z" fill="#50E59D"/>
<path d="M31.9621 77.9473L30.8242 80.0388L30.7725 80.1344L31.3632 78.155L31.9621 77.9473Z" fill="#50E59D"/>
<path d="M31.7807 68.748L31.9576 69.1308L31.4268 69.2128L31.7807 68.748Z" fill="#50E59D"/>
<path d="M31.958 69.1309L31.3182 69.4453L31.0596 69.5546V69.4453L31.4271 69.2129L31.958 69.1309Z" fill="#50E59D"/>
<path d="M31.3174 69.4453L31.9571 69.1309C31.9435 69.1418 31.4916 69.5546 31.5352 69.623L31.3174 69.4453Z" fill="#50E59D"/>
<path d="M31.6715 66.3301L31.8403 66.7265L31.3721 66.8905L31.6715 66.3301Z" fill="#50E59D"/>
<path d="M31.8403 66.7246L31.7886 67.3944L31.3721 66.8886L31.8403 66.7246Z" fill="#50E59D"/>
<path d="M31.6826 67.709L31.8079 68.0234H31.6445V67.6133L31.6826 67.709Z" fill="#50E59D"/>
<path d="M31.3721 66.8887L31.7886 67.3945L31.6443 67.6132L31.4674 67.4765L31.3721 66.8887Z" fill="#50E59D"/>
<path d="M31.1436 71.4004L31.7888 71.7667L31.59 72.021L31.1436 71.4004Z" fill="#50E59D"/>
<path d="M31.781 68.748L31.4271 69.2128L31.2773 68.8847L31.781 68.748Z" fill="#50E59D"/>
<path d="M31.1436 71.4004L31.59 72.021L31.3722 71.8788L31.1817 71.5097L31.1436 71.4004Z" fill="#50E59D"/>
<path d="M31.537 69.623L31.4825 69.7953L31.0605 69.5547L31.537 69.623Z" fill="#50E59D"/>
<path d="M31.536 69.623L31.0596 69.5547L31.3182 69.4453L31.536 69.623Z" fill="#50E59D"/>
<path d="M31.4825 69.7953L31.1014 70.0331L31.0605 69.5547L31.4825 69.7953Z" fill="#50E59D"/>
<path d="M31.4267 80.8945V81.2417L31.1436 81.0367L31.4267 80.8945Z" fill="#50E59D"/>
<path d="M31.2774 68.8848L31.4271 69.2128H31.0596L31.2774 68.8848Z" fill="#50E59D"/>
<path d="M30.8252 80.0391L31.4268 80.8948L31.1437 81.037L30.8252 80.0391Z" fill="#50E59D"/>
<path d="M31.4281 69.2129L31.0605 69.4453V69.2129H31.4281Z" fill="#50E59D"/>
<path d="M31.428 81.2422L31.123 81.2968L31.1448 81.0371L31.428 81.2422Z" fill="#50E59D"/>
<path d="M31.0991 70.0332L31.3169 70.2656L30.7725 70.4843L31.0991 70.0332Z" fill="#50E59D"/>
<path d="M31.3169 70.2656L31.0719 71.3592L30.7725 70.9081L31.3169 70.2656Z" fill="#50E59D"/>
<path d="M31.3169 70.2656L30.7725 70.9081V70.4843L31.3169 70.2656Z" fill="#50E59D"/>
<path d="M30.8252 80.0391L31.1437 81.037L30.248 80.8975L30.7735 80.1348L30.8252 80.0391Z" fill="#50E59D"/>
<path d="M31.1443 81.0359L30.6924 81.3777L30.2432 80.9074L30.2486 80.8965L31.1443 81.0359Z" fill="#50E59D"/>
<path d="M31.0595 69.5547L31.1004 70.0331L30.6104 69.8144L31.0595 69.5547Z" fill="#50E59D"/>
<path d="M31.1004 70.0332L30.7737 70.4843L30.6104 69.8145L31.1004 70.0332Z" fill="#50E59D"/>
<path d="M31.0593 69.5547L30.6101 69.8144L30.3242 69.4453L30.8823 69.5L31.0593 69.5547Z" fill="#50E59D"/>
<path d="M30.6096 69.8145L30.773 70.4843L30.2285 69.9676L30.6096 69.8145Z" fill="#50E59D"/>
<path d="M30.2422 80.9082L30.6914 81.3784H29.8066L30.1333 81.064L30.2422 80.9082Z" fill="#50E59D"/>
<path d="M30.6914 81.3789L30.5961 81.6796L29.8066 81.3789H30.6914Z" fill="#50E59D"/>
<path d="M30.3238 69.4453L30.6096 69.8144L30.2285 69.9675L30.3238 69.4453Z" fill="#50E59D"/>
<path d="M30.5961 81.6796L29.8611 81.912L29.8066 81.3789L30.5961 81.6796Z" fill="#50E59D"/>
<path d="M30.3236 69.4453L30.2283 69.9675L29.9561 69.2129L30.3236 69.4453Z" fill="#50E59D"/>
<path d="M29.9572 69.2129L30.2294 69.9675L29.9572 69.8772L29.7666 69.705L29.7993 69.623L29.9572 69.2129Z" fill="#50E59D"/>
<path d="M30.2296 69.9668L29.8213 70.6421V70.2648L29.9982 70.0598L30.2296 69.9668Z" fill="#50E59D"/>
<path d="M30.2299 69.9672L29.9985 70.0601L29.8215 70.2652L29.4268 69.9672L29.9576 69.877L30.2299 69.9672Z" fill="#50E59D"/>
<path d="M29.9572 69.2129L29.7993 69.623L29.7666 69.705L29.8074 69.2129H29.9572Z" fill="#50E59D"/>
<path d="M29.9576 69.8761L29.4268 69.9664L29.7289 69.6875L29.7671 69.7039L29.9576 69.8761Z" fill="#50E59D"/>
<path d="M29.8071 81.3789L29.8616 81.912L29.6982 81.83L29.8071 81.3789Z" fill="#50E59D"/>
<path d="M29.8204 70.2656V70.6429L29.6299 70.7167L29.8204 70.2656Z" fill="#50E59D"/>
<path d="M29.8206 70.2656L29.63 70.7167L29.4395 70.5527V70.4297L29.8206 70.2656Z" fill="#50E59D"/>
<path d="M29.8215 70.2648L29.4404 70.4288L29.4268 69.9668L29.8215 70.2648Z" fill="#50E59D"/>
<path d="M29.807 69.2129L29.7661 69.705L29.728 69.6886L29.4395 69.5683H29.562L29.807 69.2129Z" fill="#50E59D"/>
<path d="M29.7289 69.6887L29.4268 69.9675L29.4404 69.5684L29.7289 69.6887Z" fill="#50E59D"/>
<path d="M29.4396 70.4297V70.5527L29.0312 70.5801L29.4396 70.4297Z" fill="#50E59D"/>
<path d="M29.4396 69.5684L29.426 69.9675L29.0312 70.5799V70.3886L29.4396 69.5684Z" fill="#50E59D"/>
<path d="M29.426 69.9668L29.4396 70.4288L29.0312 70.5792L29.426 69.9668Z" fill="#50E59D"/>
<path d="M29.4406 70.5527L29.0322 71.1132V70.5801L29.4406 70.5527Z" fill="#50E59D"/>
<path d="M36.736 73.1777L35.5381 73.6972L35.1025 75.6301L36.736 73.1777Z" fill="#50E59D"/>
<path d="M36.7357 73.1772L36.556 72.0371L35.9326 72.48L36.7357 73.1772Z" fill="#50E59D"/>
<path d="M29.0322 71.1132L29.9578 71.4796L29.4406 70.5527L29.0322 71.1132Z" fill="#50E59D"/>
<path d="M29.8213 70.6421L30.2296 71.0166V69.9668L29.8213 70.6421Z" fill="#50E59D"/>
<path d="M30.773 70.4835L30.2285 71.0166V69.9668L30.773 70.4835Z" fill="#50E59D"/>
<path d="M29.9567 71.4796L29.63 70.7168L29.4395 70.5527L29.9567 71.4796Z" fill="#50E59D"/>
<path d="M29.9566 71.4792L29.8204 70.6426L29.6299 70.7164L29.9566 71.4792Z" fill="#50E59D"/>
<path d="M29.9574 71.4792L30.2296 71.0171L29.8213 70.6426L29.9574 71.4792Z" fill="#50E59D"/>
<path d="M35.1016 75.6304L35.2431 76.076L35.4691 75.0098L35.1016 75.6304Z" fill="#50E59D"/>
<path d="M35.4697 75.0089L35.5705 75.6924L35.7964 74.5879L35.4697 75.0089Z" fill="#50E59D"/>
<path d="M35.7969 74.5885C35.7969 74.5885 35.9275 75.3512 35.9548 75.2829C35.982 75.2145 36.7361 73.1777 36.7361 73.1777L35.7969 74.5885Z" fill="#50E59D"/>
<path d="M34.9463 73.0859C34.9517 73.1324 35.5615 75.6285 35.5615 75.6285L35.7957 74.5842L34.9463 73.0859Z" fill="#50E59D"/>
<path d="M35.1017 75.6296L34.5082 75.9658L34.2441 74.793L35.1017 75.6296Z" fill="#50E59D"/>
<path d="M30.773 70.9062L30.2285 71.0155L30.773 70.4824V70.9062Z" fill="#50E59D"/>
<path d="M29.9561 71.4796L30.7728 70.9082L30.2283 71.0176L29.9561 71.4796Z" fill="#50E59D"/>
<path d="M29.9572 71.4785L29.7666 72.3151L30.6922 73.4114L30.7739 74.1523L30.6105 74.5871L31.3646 73.7778L31.3674 72.6049L30.6105 71.5496L29.9572 71.4785Z" fill="#50E59D"/>
<path d="M29.7666 72.3164L29.9572 73.3717L30.3655 74.0607V74.4052L30.5016 73.8693L29.7666 72.3164Z" fill="#50E59D"/>
<path d="M29.8079 71.6133L29.4268 72.7534V73.6966L29.5765 73.1771L29.8079 71.6133Z" fill="#50E59D"/>
<path d="M31.3672 72.6061L31.2419 71.9472L30.6104 71.5508L31.3672 72.6061Z" fill="#50E59D"/>
<path d="M31.5898 72.377L31.9193 73.1698L31.6933 73.5744L31.726 73.0878L31.5898 72.377Z" fill="#50E59D"/>
<path d="M29.6173 73.0273L29.4268 72.7539L29.6173 73.0273Z" fill="#50E59D"/>
<path d="M30.3644 74.0601L30.5005 73.8687L29.9561 73.3711L30.3644 74.0601Z" fill="#50E59D"/>
<path d="M31.726 73.0859L31.9193 73.168L31.6934 73.5726L31.726 73.0859Z" fill="#50E59D"/>
<path d="M31.3672 72.6055L31.0596 73.33L31.3645 73.7783L31.3672 72.6055Z" fill="#50E59D"/>
<path d="M31.0583 73.3301L30.7725 74.153L31.3632 73.7785L31.0583 73.3301Z" fill="#50E59D"/>
<path d="M30.7737 74.1539L30.6104 74.5886L31.3645 73.7793L30.7737 74.1539Z" fill="#50E59D"/>
<path d="M31.0589 73.3311L30.9854 72.0762L31.3665 72.6066L31.0589 73.3311Z" fill="#50E59D"/>
<path d="M30.9851 72.0745L30.6094 71.5496L29.9561 71.4785L30.9851 72.0745Z" fill="#50E59D"/>
<path d="M30.3236 71.5206L30.7728 70.9082L29.9561 71.4796L30.3236 71.5206Z" fill="#50E59D"/>
<path d="M30.9864 72.0762L30.6924 73.4131L31.0599 73.3311L30.9864 72.0762Z" fill="#50E59D"/>
<path d="M30.6924 73.4121L30.7741 74.153L31.0599 73.3301L30.6924 73.4121Z" fill="#50E59D"/>
<path d="M29.9561 71.4785L30.8381 72.7443L30.9851 72.0745L29.9561 71.4785Z" fill="#50E59D"/>
<path d="M29.9561 71.4785L30.6911 73.4114L30.8381 72.7443L29.9561 71.4785Z" fill="#50E59D"/>
<path d="M30.6922 73.4114L29.9572 71.4785L29.7666 72.3151L30.6922 73.4114Z" fill="#50E59D"/>
<path d="M29.4268 73.6971V72.7539L29.6173 73.0273L29.4268 73.6971Z" fill="#50E59D"/>
<path d="M29.6173 73.0267L29.4268 72.7534L29.8079 71.6133L29.6173 73.0267Z" fill="#50E59D"/>
<path d="M30.5014 73.8691L30.3652 74.405V74.0605L30.5014 73.8691Z" fill="#50E59D"/>
<path d="M29.7666 72.3164L29.9572 73.3717L30.5016 73.8693L29.7666 72.3164Z" fill="#50E59D"/>
<path d="M32.225 81.0234L32.4074 81.1355L31.999 81.8436L32.225 81.0234Z" fill="#50E59D"/>
<path d="M38.7666 74.9941L38.9789 75.0242L38.8782 75.8362L38.7666 74.9941Z" fill="#50E59D"/>
<path d="M36.5531 72.0453L35.9297 71.8184V72.4882L36.5531 72.0453Z" fill="#50E59D"/>
<path d="M35.4695 71.7003L35.5376 73.6961L34.6719 71.334L35.0585 71.1289L35.4695 71.7003Z" fill="#50E59D"/>
</g>
<rect x="1" y="1" width="346" height="106" rx="7" stroke="#615EFF" stroke-width="2"/>
<defs>
<filter id="filter0_i_6265_12137" x="14" y="15" width="82.4072" height="65.668" filterUnits="userSpaceOnUse" color-interpolation-filters="sRGB">
<feFlood flood-opacity="0" result="BackgroundImageFix"/>
<feBlend mode="normal" in="SourceGraphic" in2="BackgroundImageFix" result="shape"/>
<feColorMatrix in="SourceAlpha" type="matrix" values="0 0 0 0 0 0 0 0 0 0 0 0 0 0 0 0 0 0 127 0" result="hardAlpha"/>
<feOffset dx="2" dy="4"/>
<feGaussianBlur stdDeviation="3.45"/>
<feComposite in2="hardAlpha" operator="arithmetic" k2="-1" k3="1"/>
<feColorMatrix type="matrix" values="0 0 0 0 1 0 0 0 0 1 0 0 0 0 1 0 0 0 0.42 0"/>
<feBlend mode="normal" in2="shape" result="effect1_innerShadow_6265_12137"/>
</filter>
<filter id="filter1_f_6265_12137" x="39.1294" y="13.8736" width="28.1533" height="17.1962" filterUnits="userSpaceOnUse" color-interpolation-filters="sRGB">
<feFlood flood-opacity="0" result="BackgroundImageFix"/>
<feBlend mode="normal" in="SourceGraphic" in2="BackgroundImageFix" result="shape"/>
<feGaussianBlur stdDeviation="1.06127" result="effect1_foregroundBlur_6265_12137"/>
</filter>
<filter id="filter2_i_6265_12137" x="40.7314" y="14.5755" width="27.1537" height="14.5515" filterUnits="userSpaceOnUse" color-interpolation-filters="sRGB">
<feFlood flood-opacity="0" result="BackgroundImageFix"/>
<feBlend mode="normal" in="SourceGraphic" in2="BackgroundImageFix" result="shape"/>
<feColorMatrix in="SourceAlpha" type="matrix" values="0 0 0 0 0 0 0 0 0 0 0 0 0 0 0 0 0 0 127 0" result="hardAlpha"/>
<feOffset dx="0.212254" dy="-0.424507"/>
<feGaussianBlur stdDeviation="0.55"/>
<feComposite in2="hardAlpha" operator="arithmetic" k2="-1" k3="1"/>
<feColorMatrix type="matrix" values="0 0 0 0 0.0470588 0 0 0 0 0.764706 0 0 0 0 0.419608 0 0 0 0.34 0"/>
<feBlend mode="normal" in2="shape" result="effect1_innerShadow_6265_12137"/>
</filter>
<filter id="filter3_i_6265_12137" x="40.29" y="66.8398" width="25.252" height="27.0547" filterUnits="userSpaceOnUse" color-interpolation-filters="sRGB">
<feFlood flood-opacity="0" result="BackgroundImageFix"/>
<feBlend mode="normal" in="SourceGraphic" in2="BackgroundImageFix" result="shape"/>
<feColorMatrix in="SourceAlpha" type="matrix" values="0 0 0 0 0 0 0 0 0 0 0 0 0 0 0 0 0 0 127 0" result="hardAlpha"/>
<feOffset dx="0.5" dy="-0.5"/>
<feGaussianBlur stdDeviation="0.5"/>
<feComposite in2="hardAlpha" operator="arithmetic" k2="-1" k3="1"/>
<feColorMatrix type="matrix" values="0 0 0 0 0.0470588 0 0 0 0 0.764706 0 0 0 0 0.419608 0 0 0 1 0"/>
<feBlend mode="normal" in2="shape" result="effect1_innerShadow_6265_12137"/>
</filter>
<filter id="filter4_f_6265_12137" x="42.1182" y="69.2754" width="19.0352" height="16.5625" filterUnits="userSpaceOnUse" color-interpolation-filters="sRGB">
<feFlood flood-opacity="0" result="BackgroundImageFix"/>
<feBlend mode="normal" in="SourceGraphic" in2="BackgroundImageFix" result="shape"/>
<feGaussianBlur stdDeviation="0.5" result="effect1_foregroundBlur_6265_12137"/>
</filter>
<filter id="filter5_i_6265_12137" x="43.9932" y="70.4023" width="17.2332" height="13.4062" filterUnits="userSpaceOnUse" color-interpolation-filters="sRGB">
<feFlood flood-opacity="0" result="BackgroundImageFix"/>
<feBlend mode="normal" in="SourceGraphic" in2="BackgroundImageFix" result="shape"/>
<feColorMatrix in="SourceAlpha" type="matrix" values="0 0 0 0 0 0 0 0 0 0 0 0 0 0 0 0 0 0 127 0" result="hardAlpha"/>
<feOffset dx="0.2"/>
<feGaussianBlur stdDeviation="0.2"/>
<feComposite in2="hardAlpha" operator="arithmetic" k2="-1" k3="1"/>
<feColorMatrix type="matrix" values="0 0 0 0 0.0470588 0 0 0 0 0.764706 0 0 0 0 0.419608 0 0 0 1 0"/>
<feBlend mode="normal" in2="shape" result="effect1_innerShadow_6265_12137"/>
</filter>
<filter id="filter6_f_6265_12137" x="44.3936" y="70.5176" width="16.7998" height="13.1719" filterUnits="userSpaceOnUse" color-interpolation-filters="sRGB">
<feFlood flood-opacity="0" result="BackgroundImageFix"/>
<feBlend mode="normal" in="SourceGraphic" in2="BackgroundImageFix" result="shape"/>
<feGaussianBlur stdDeviation="0.25" result="effect1_foregroundBlur_6265_12137"/>
</filter>
<filter id="filter7_f_6265_12137" x="62.4701" y="67.5766" width="2.55195" height="26.0754" filterUnits="userSpaceOnUse" color-interpolation-filters="sRGB">
<feFlood flood-opacity="0" result="BackgroundImageFix"/>
<feBlend mode="normal" in="SourceGraphic" in2="BackgroundImageFix" result="shape"/>
<feGaussianBlur stdDeviation="0.45" result="effect1_foregroundBlur_6265_12137"/>
</filter>
<filter id="filter8_i_6265_12137" x="19.29" y="56.8027" width="29.9375" height="33.5918" filterUnits="userSpaceOnUse" color-interpolation-filters="sRGB">
<feFlood flood-opacity="0" result="BackgroundImageFix"/>
<feBlend mode="normal" in="SourceGraphic" in2="BackgroundImageFix" result="shape"/>
<feColorMatrix in="SourceAlpha" type="matrix" values="0 0 0 0 0 0 0 0 0 0 0 0 0 0 0 0 0 0 127 0" result="hardAlpha"/>
<feOffset dx="0.5" dy="-0.5"/>
<feGaussianBlur stdDeviation="0.8"/>
<feComposite in2="hardAlpha" operator="arithmetic" k2="-1" k3="1"/>
<feColorMatrix type="matrix" values="0 0 0 0 0 0 0 0 0 0.800391 0 0 0 0 0.415503 0 0 0 1 0"/>
<feBlend mode="normal" in2="shape" result="effect1_innerShadow_6265_12137"/>
</filter>
<filter id="filter9_f_6265_12137" x="46.0068" y="57.7695" width="2.25" height="31.0703" filterUnits="userSpaceOnUse" color-interpolation-filters="sRGB">
<feFlood flood-opacity="0" result="BackgroundImageFix"/>
<feBlend mode="normal" in="SourceGraphic" in2="BackgroundImageFix" result="shape"/>
<feGaussianBlur stdDeviation="0.375" result="effect1_foregroundBlur_6265_12137"/>
</filter>
<filter id="filter10_f_6265_12137" x="40.0957" y="56.8535" width="2.75" height="7.89648" filterUnits="userSpaceOnUse" color-interpolation-filters="sRGB">
<feFlood flood-opacity="0" result="BackgroundImageFix"/>
<feBlend mode="normal" in="SourceGraphic" in2="BackgroundImageFix" result="shape"/>
<feGaussianBlur stdDeviation="0.5" result="effect1_foregroundBlur_6265_12137"/>
</filter>
<filter id="filter11_f_6265_12137" x="23.5244" y="56.8535" width="2.75" height="7.89648" filterUnits="userSpaceOnUse" color-interpolation-filters="sRGB">
<feFlood flood-opacity="0" result="BackgroundImageFix"/>
<feBlend mode="normal" in="SourceGraphic" in2="BackgroundImageFix" result="shape"/>
<feGaussianBlur stdDeviation="0.5" result="effect1_foregroundBlur_6265_12137"/>
</filter>
<filter id="filter12_i_6265_12137" x="24.8721" y="47.4723" width="18.2695" height="15.85" filterUnits="userSpaceOnUse" color-interpolation-filters="sRGB">
<feFlood flood-opacity="0" result="BackgroundImageFix"/>
<feBlend mode="normal" in="SourceGraphic" in2="BackgroundImageFix" result="shape"/>
<feColorMatrix in="SourceAlpha" type="matrix" values="0 0 0 0 0 0 0 0 0 0 0 0 0 0 0 0 0 0 127 0" result="hardAlpha"/>
<feOffset dy="-0.1"/>
<feGaussianBlur stdDeviation="0.2"/>
<feComposite in2="hardAlpha" operator="arithmetic" k2="-1" k3="1"/>
<feColorMatrix type="matrix" values="0 0 0 0 0 0 0 0 0 0.838298 0 0 0 0 0.435182 0 0 0 1 0"/>
<feBlend mode="normal" in2="shape" result="effect1_innerShadow_6265_12137"/>
</filter>
<filter id="filter13_f_6265_12137" x="25.2383" y="47.9453" width="17.8193" height="15.0137" filterUnits="userSpaceOnUse" color-interpolation-filters="sRGB">
<feFlood flood-opacity="0" result="BackgroundImageFix"/>
<feBlend mode="normal" in="SourceGraphic" in2="BackgroundImageFix" result="shape"/>
<feGaussianBlur stdDeviation="0.125" result="effect1_foregroundBlur_6265_12137"/>
</filter>
<linearGradient id="paint0_linear_6265_12137" x1="329.858" y1="92.2598" x2="284.028" y2="-42.4198" gradientUnits="userSpaceOnUse">
<stop stop-color="#0CC36D"/>
<stop offset="1" stop-color="#60F7AE"/>
</linearGradient>
<linearGradient id="paint1_linear_6265_12137" x1="230.427" y1="206.894" x2="-69.5452" y2="-66.6813" gradientUnits="userSpaceOnUse">
<stop stop-color="#0CC36D"/>
<stop offset="1" stop-color="#60F7AE"/>
</linearGradient>
<linearGradient id="paint2_linear_6265_12137" x1="179.37" y1="166.508" x2="-41.6257" y2="-35.04" gradientUnits="userSpaceOnUse">
<stop stop-color="#0CC36D"/>
<stop offset="1" stop-color="#60F7AE"/>
</linearGradient>
<linearGradient id="paint3_linear_6265_12137" x1="131.896" y1="128.957" x2="-15.6654" y2="-5.6192" gradientUnits="userSpaceOnUse">
<stop stop-color="#0CC36D"/>
<stop offset="1" stop-color="#60F7AE"/>
</linearGradient>
<linearGradient id="paint4_linear_6265_12137" x1="96.9623" y1="101.325" x2="3.43741" y2="16.0301" gradientUnits="userSpaceOnUse">
<stop stop-color="#0CC36B"/>
<stop offset="1" stop-color="#89FFC6"/>
</linearGradient>
<linearGradient id="paint5_linear_6265_12137" x1="54.2038" y1="15.4277" x2="54.0035" y2="26.5627" gradientUnits="userSpaceOnUse">
<stop stop-color="#C6FFE3"/>
<stop offset="1" stop-color="#61FFB3"/>
</linearGradient>
<linearGradient id="paint6_linear_6265_12137" x1="36.0725" y1="37.5174" x2="16.6471" y2="29.0499" gradientUnits="userSpaceOnUse">
<stop stop-color="#47FFA7"/>
<stop offset="1" stop-color="#C0FFE1"/>
</linearGradient>
<linearGradient id="paint7_linear_6265_12137" x1="37.2681" y1="28.9449" x2="24.6165" y2="25.0652" gradientUnits="userSpaceOnUse">
<stop offset="0.196762" stop-color="#54EFA5"/>
<stop offset="0.783579" stop-color="#34FC9C" stop-opacity="0"/>
</linearGradient>
<linearGradient id="paint8_linear_6265_12137" x1="79.9049" y1="40.0079" x2="91.9004" y2="34.5512" gradientUnits="userSpaceOnUse">
<stop stop-color="#72FFBB"/>
<stop offset="0.7808" stop-color="#86FBC3"/>
</linearGradient>
<radialGradient id="paint9_radial_6265_12137" cx="0" cy="0" r="1" gradientUnits="userSpaceOnUse" gradientTransform="translate(68.4489 27.5557) rotate(-9.8658) scale(11.628 112.404)">
<stop offset="0.199" stop-color="#48F2A1"/>
<stop offset="1" stop-color="#08D472" stop-opacity="0"/>
</radialGradient>
<linearGradient id="paint10_linear_6265_12137" x1="61.4752" y1="84.839" x2="67.9504" y2="22.578" gradientUnits="userSpaceOnUse">
<stop stop-color="#40FFA3"/>
<stop offset="1" stop-color="#EBFFF5"/>
</linearGradient>
<linearGradient id="paint11_linear_6265_12137" x1="70.9389" y1="79.36" x2="79.4064" y2="52.9614" gradientUnits="userSpaceOnUse">
<stop offset="0.126766" stop-color="#2CCD80"/>
<stop offset="0.84403" stop-color="#44F49F" stop-opacity="0"/>
</linearGradient>
<linearGradient id="paint12_linear_6265_12137" x1="54.2024" y1="15.0001" x2="54.2024" y2="29.1272" gradientUnits="userSpaceOnUse">
<stop offset="0.594449" stop-color="#C3FFE2"/>
<stop offset="1" stop-color="#7AFFBF"/>
</linearGradient>
<linearGradient id="paint13_linear_6265_12137" x1="46.5167" y1="72.7447" x2="54.8529" y2="87.1545" gradientUnits="userSpaceOnUse">
<stop stop-color="#96FECC"/>
<stop offset="1" stop-color="#8AF0BF"/>
</linearGradient>
<radialGradient id="paint14_radial_6265_12137" cx="0" cy="0" r="1" gradientUnits="userSpaceOnUse" gradientTransform="translate(41.7717 89.3454) rotate(52.08) scale(5.76882 7.8469)">
<stop offset="0.225" stop-color="#0CC36B"/>
<stop offset="1" stop-color="#0CC36B" stop-opacity="0"/>
</radialGradient>
<linearGradient id="paint15_linear_6265_12137" x1="63.7459" y1="68.8516" x2="63.7459" y2="92.3765" gradientUnits="userSpaceOnUse">
<stop stop-color="white"/>
<stop offset="1" stop-color="white" stop-opacity="0.33"/>
</linearGradient>
<linearGradient id="paint16_linear_6265_12137" x1="34.0077" y1="57.3027" x2="26.9433" y2="93.7196" gradientUnits="userSpaceOnUse">
<stop offset="0.334931" stop-color="#CDFFE7"/>
<stop offset="1" stop-color="#75FFBD"/>
</linearGradient>
<linearGradient id="paint17_linear_6265_12137" x1="47.6318" y1="58.8945" x2="47.6318" y2="87.714" gradientUnits="userSpaceOnUse">
<stop stop-color="white"/>
<stop offset="1" stop-color="white" stop-opacity="0.37"/>
</linearGradient>
<radialGradient id="paint18_radial_6265_12137" cx="0" cy="0" r="1" gradientUnits="userSpaceOnUse" gradientTransform="translate(29.941 49.2207) rotate(72.9753) scale(13.8861 16.3693)">
<stop stop-color="#2AF292"/>
<stop offset="1" stop-color="#A7FFD5"/>
</radialGradient>
<linearGradient id="paint19_linear_6265_12137" x1="36.4529" y1="63.3264" x2="36.4529" y2="54.6805" gradientUnits="userSpaceOnUse">
<stop stop-color="#6CFFB8"/>
<stop offset="1" stop-color="#84FFC4"/>
</linearGradient>
<linearGradient id="paint20_linear_6265_12137" x1="41.9846" y1="51.5417" x2="38.742" y2="55.4529" gradientUnits="userSpaceOnUse">
<stop stop-color="#77FFBC"/>
<stop offset="1" stop-color="#88FFC6"/>
</linearGradient>
<clipPath id="clip0_6265_12137">
<rect width="348" height="108" rx="8" fill="white"/>
</clipPath>
</defs>
</svg>
