<svg width="632" height="640" viewBox="0 0 632 640" fill="none" xmlns="http://www.w3.org/2000/svg">
<g clipPath="url(#clip0_6033_65356)">
<rect width="632" height="640" fill="#6F6CFF"/>
<path d="M184.758 208.243C184.758 208.243 168.655 281.172 155.28 277.337C141.906 273.503 179.081 197.365 179.081 197.365C179.081 197.365 129.284 140.39 103.673 132.261C103.673 132.261 114.43 214.799 102.406 207.783C90.3902 200.767 75.2149 115.406 75.2149 115.406C75.2149 115.406 16.0384 76.0222 -10.5461 109.733C-37.1213 143.443 -28.5966 169.622 -20.0904 176.077C-11.5841 182.533 49.843 207.848 44.8642 215.112C39.8853 222.376 -6.78896 217.448 -26.7411 200.464C-26.7411 200.464 -28.119 274.054 6.55836 285.126C41.2357 296.197 60.361 279.958 81.6635 287.185C102.966 294.413 115.67 306.422 102.984 307.572C90.2984 308.721 56.9898 290.064 34.2727 297.117C11.5648 304.169 -5.64989 307.139 22.5788 326.726C50.8075 346.303 108.037 366.073 129.311 347.002C130.239 346.174 131.121 345.374 131.975 344.62C130.469 346.303 129.311 347.002 129.311 347.002C133.601 352.776 135.374 372.326 136.109 387.066C136.072 389.503 136.183 392.951 136.513 397.696C136.568 399.802 136.596 401.521 136.614 402.716C135.87 434.698 109.966 479.397 109.966 479.397L115.817 484.004C150.752 442.726 141.722 392.684 141.722 392.684C138.277 354.588 150.586 327.93 150.586 327.93C150.586 327.93 224.323 320.013 215.862 262.873C215.872 262.854 205.51 225.567 184.758 208.243Z" fill="#5757DD" fill-opacity="0.6"/>
<path d="M165.348 446.437C165.348 446.437 80.3774 525.977 19.7495 668.046L13.6495 643.075C5.59334 643.075 -0.937941 636.547 -0.937941 628.482C-0.937941 585.365 -30.3145 485.223 -30.3145 460.69C18.2941 426.408 62.2593 383.204 84.0518 358.621C92.1258 349.513 99.6681 337.012 99.6681 337.012C99.6681 337.012 190.61 398.161 165.348 446.437Z" fill="#F6B07E"/>
<path d="M574.173 -36.8512C574.173 -36.8512 638.898 -32.0696 637.262 -20.0696C635.627 -8.06956 565.519 -30.5983 565.519 -30.5983C565.519 -30.5983 522.74 19.4247 518.937 42.5051C518.937 42.5051 588.567 22.9465 584.039 34.1741C579.501 45.4017 507.987 69.1259 507.987 69.1259C507.987 69.1259 481.504 125.034 513.802 143.728C546.109 162.422 567.559 151.811 572.051 143.673C576.543 135.544 590.653 79.4523 597.514 82.827C604.386 86.2109 605.966 127.048 593.849 146.358C593.849 146.358 657.306 138.367 662.497 107.103C667.687 75.8385 651.335 61.3925 654.9 42.1281C658.455 22.8638 667.2 10.4224 669.772 21.2086C672.344 31.9948 660.448 63.0293 669.349 81.7235C678.251 100.409 682.954 114.873 696.264 88.1052C709.584 61.3373 719.441 9.55803 700.389 -6.396C699.562 -7.09485 698.763 -7.75691 698.01 -8.3914C699.645 -7.29714 700.389 -6.396 700.389 -6.396C704.817 -10.8098 721.416 -14.7822 733.992 -17.2558C736.095 -17.5224 739.044 -18.0558 743.086 -18.9293C744.895 -19.242 746.365 -19.481 747.394 -19.6466C774.989 -22.9937 816.666 -6.24886 816.666 -6.24886L819.89 -11.8673C780.032 -36.8144 738.125 -22.7914 738.125 -22.7914C705.8 -15.0673 681.328 -22.35 681.328 -22.35C681.328 -22.35 665.317 -84.8971 617.237 -70.4879C617.255 -70.4696 586.482 -56.8971 574.173 -36.8512Z" fill="#5757DD" fill-opacity="0.6"/>
<path d="M180.891 481.577C208.155 457.503 251.394 499.278 251.394 499.278C251.394 499.278 250.999 572.703 259.928 580.372C268.857 588.032 272.504 517.632 272.504 517.632C292.575 528.28 325.323 583.287 325.323 583.287C325.323 583.287 282.774 641.098 293.319 646.321C303.865 651.544 328.392 593.209 328.392 593.209C343.016 610.781 345.946 643.425 345.946 643.425C344.265 692.317 281.699 687.756 281.699 687.756C281.699 687.756 267.387 708.115 264.438 740.372C264.438 740.372 264.42 746.68 262.417 756.087L257.439 752.795C257.916 751.186 258.32 749.595 258.651 748.023C258.66 748.013 258.66 748.004 258.66 747.995C258.669 747.977 258.669 747.949 258.669 747.931C258.835 746.938 259.074 745.512 259.349 743.774C259.349 743.774 259.349 743.774 259.349 743.765V743.756C259.799 739.765 260.231 736.878 260.635 734.855C260.635 734.846 260.635 734.846 260.644 734.836C262.28 722.45 263.786 705.889 261.095 700.436C261.095 700.436 262.16 700.023 263.676 698.855C262.858 699.361 261.995 699.885 261.095 700.436C240.481 713.117 195.874 687.986 175.361 667.397C154.858 646.809 169.638 646.938 189.609 644.492C209.588 642.046 234.464 662.634 245.194 663.6C255.923 664.565 247.187 652.639 230.56 643.388C213.933 634.138 195.543 644.777 168.371 630.312C141.198 615.848 153.581 554.726 153.581 554.726C167.599 571.894 205.694 583.066 210.939 577.77C216.184 572.473 168.931 542.073 162.841 535.416C156.732 528.758 153.627 505.65 180.891 481.577Z" fill="#5757DD" fill-opacity="0.6"/>
<path d="M344.676 343.931C344.676 343.931 293.041 387.738 248.332 414.101C230.548 424.593 213.857 432.326 201.952 433.43C190.304 434.515 178.895 439.057 168.496 445.062C141.572 460.593 121.418 485.844 121.418 485.844L95.9082 345.439C95.9082 345.439 144.098 239.499 160.422 225.31C184.214 204.648 212.847 154.561 222.189 146.147C229.115 139.903 256.591 104.115 258.841 101.577C259.815 100.492 264.077 100.005 268.523 101.908C272.097 103.434 276.68 109.485 275.174 117.237C267.577 156.418 248.158 176.097 247.818 177.191C238.76 205.926 221.821 222.883 225.257 230.763C225.386 231.057 225.826 231.131 226.543 231.011C239.247 228.869 339.651 165.099 348.102 166.414C357.022 167.821 344.676 343.931 344.676 343.931Z" fill="#F6B07E"/>
<path d="M488.455 182.405L452.041 205.669L416.307 228.501C414.277 229.55 412.486 229.448 410.878 228.566C405.826 225.807 402.556 215.407 399.267 209.016L398.937 208.373C394.61 199.95 397.944 189.522 406.35 185.191L457.277 158.947L472.379 151.168C480.793 146.837 491.21 150.175 495.537 158.589L495.868 159.232C500.204 167.637 496.86 178.074 488.455 182.405Z" fill="#F6B07E"/>
<path d="M452.034 205.67L416.3 228.502C414.27 229.55 412.479 229.449 410.871 228.566L457.27 158.938C457.123 159.371 445.006 194.341 452.034 205.67Z" fill="#E49468"/>
<path d="M248.331 414.111C230.547 424.603 213.856 432.336 201.951 433.44C190.303 434.525 178.894 439.067 168.495 445.072C162.396 438.258 155.497 430.368 148.773 422.607C140.588 413.155 146.467 398.295 158.914 397.182C159.034 397.173 159.153 397.155 159.273 397.145C171.077 395.775 188.999 380.75 188.999 380.75L248.331 414.111Z" fill="#E49468"/>
<path d="M257.629 103.039L241.664 124.198C241.664 124.198 245.89 128.483 249.867 128.262C253.854 128.041 265.612 107.959 257.629 103.039Z" fill="#F8BE96"/>
<path d="M320.045 452.419C314.15 453.557 308.05 452.903 302.531 450.54L185.059 400.244C180.446 398.269 176.445 395.096 173.471 391.054C167.576 383.041 166.351 372.51 170.249 363.358L285.258 93.3496C289.22 84.049 297.777 77.514 307.792 76.1402C312.956 75.4318 318.216 76.1415 323.008 78.1932L442.319 129.276C446.487 131.061 450.144 133.859 452.956 137.417C459.126 145.223 460.543 155.776 456.651 164.934L341.991 434.68C338.082 443.876 329.856 450.525 320.045 452.419Z" fill="#303034"/>
<path d="M448.635 161.173L332.983 431.839C329.06 441.026 318.395 445.338 309.292 441.449L188.376 389.678C179.272 385.78 175.038 375.076 178.96 365.899L294.612 95.2417C298.535 86.0555 309.191 81.7336 318.294 85.6325L439.21 137.403C448.323 141.292 452.557 151.996 448.635 161.173Z" fill="#DAE8F7"/>
<path d="M439.219 137.393L189.873 390.312L188.376 389.669C179.272 385.77 175.038 375.066 178.96 365.889L294.612 95.2319C298.535 86.0457 309.191 81.7239 318.294 85.6227L439.219 137.393Z" fill="#F3F9FF"/>
<path d="M400.683 132.805L348.231 110.349C344.639 108.814 342.958 104.612 344.492 101.016L345.815 97.9265C347.349 94.3311 351.547 92.6483 355.139 94.1839L407.591 116.639C411.183 118.175 412.864 122.377 411.33 125.972L410.007 129.062C408.464 132.657 404.275 134.34 400.683 132.805Z" fill="#303034"/>
<path d="M424.309 301.669L420.433 301.513L394.335 300.437C393.72 300.409 393.123 300.354 392.526 300.262C384.267 299.012 378.058 291.665 378.407 283.131L378.443 282.129C378.82 272.98 386.601 265.807 395.741 266.184L420.065 267.186L421.829 267.26L425.706 267.416C434.846 267.793 442.011 275.582 441.634 284.731L441.597 285.734C441.23 294.874 433.449 302.046 424.309 301.669Z" fill="#F6B07E"/>
<path d="M405.864 294.386C401.509 294.202 393.655 293.825 389.797 292.786C388.704 292.492 387.06 291.131 386.114 288.437C385.553 286.828 385.241 284.74 385.471 282.129C385.581 280.906 385.746 279.701 386.095 278.552C386.509 277.2 387.097 275.922 387.868 274.736C388.566 273.669 389.806 272.952 391.193 272.897C391.203 272.897 391.212 272.897 391.212 272.897C395.86 272.703 402.015 272.685 407.104 273.384C410.622 273.862 413.222 276.621 413.038 279.802L412.955 281.292L412.542 288.924C412.377 292.097 409.409 294.543 405.864 294.386Z" fill="#FAD1B5"/>
<path d="M405.863 294.386C401.509 294.203 393.655 293.825 389.797 292.786C388.704 292.492 387.059 291.131 386.113 288.437C386.113 287.913 386.141 287.38 386.187 286.809C386.297 285.586 386.462 284.382 386.811 283.232C387.225 281.881 387.813 280.603 388.584 279.416C389.282 278.35 390.523 277.632 391.91 277.577C391.919 277.577 391.928 277.577 391.928 277.577C396.576 277.384 402.731 277.366 407.82 278.065C410.08 278.368 411.954 279.609 412.955 281.301L412.542 288.934C412.376 292.097 409.409 294.543 405.863 294.386Z" fill="#F8BE96"/>
<path d="M403.99 336.244L379.463 332.823C372.013 331.784 366.759 324.833 367.797 317.375L368.183 314.598C369.221 307.141 376.165 301.881 383.615 302.92L408.142 306.341C415.592 307.38 420.846 314.331 419.808 321.789L419.422 324.566C418.394 332.033 411.44 337.283 403.99 336.244Z" fill="#F6B07E"/>
<path d="M392.571 330.084C388.079 329.431 379.968 328.217 376.055 326.782C374.631 326.267 372.353 323.895 372.096 319.454C372.022 318.378 372.086 317.182 372.298 315.867C372.491 314.672 372.748 313.523 373.189 312.428C373.712 311.141 374.411 309.955 375.283 308.879C376.073 307.904 377.405 307.343 378.838 307.426C378.847 307.426 378.857 307.426 378.866 307.426C383.688 307.739 390.064 308.382 395.29 309.615C398.9 310.461 401.399 313.44 400.995 316.557L400.719 318.782L399.874 325.458C399.479 328.539 396.246 330.617 392.571 330.084Z" fill="#FAD1B5"/>
<path d="M392.571 330.083C388.079 329.431 379.968 328.217 376.055 326.782C374.631 326.267 372.353 323.895 372.096 319.454C372.279 318.341 372.537 317.265 372.95 316.226C373.464 314.939 374.172 313.752 375.044 312.677C375.834 311.711 377.166 311.141 378.599 311.224C378.609 311.224 378.618 311.224 378.627 311.224C383.45 311.536 389.825 312.18 395.052 313.412C398.037 314.111 400.269 316.281 400.719 318.764L399.874 325.44C399.479 328.539 396.246 330.617 392.571 330.083Z" fill="#F8BE96"/>
<path d="M434.883 265.246C434.754 265.237 434.635 265.228 434.506 265.219L412.451 261.816C402.75 260.327 395.741 251.72 396.862 242.699L397.441 238.083C398.515 229.421 406.728 223.398 415.969 224.262L423.253 225.384L438.024 227.664C447.725 229.154 454.734 237.761 453.613 246.782L453.034 251.398C451.969 259.931 443.968 265.908 434.883 265.246Z" fill="#F6B07E"/>
<path d="M428.15 255.793L416.631 256.014C416.612 256.014 416.594 256.005 416.566 256.005C416.135 255.94 415.712 255.858 415.299 255.747C415.124 255.701 414.95 255.646 414.784 255.6C414.711 255.582 414.646 255.545 414.582 255.517C413.535 255.03 413.287 253.586 414.178 252.777C415.942 251.177 417.173 248.979 417.522 246.46L417.65 245.522C417.65 245.513 417.65 245.504 417.65 245.494L418.073 242.432C418.413 239.996 417.935 237.623 416.851 235.591C416.722 235.343 416.585 235.104 416.438 234.874C415.097 232.731 416.86 229.945 419.359 230.276C419.386 230.276 419.405 230.285 419.423 230.285L430.704 233.218C433.625 233.632 435.287 236.722 434.883 239.655L434.396 243.15L433.358 250.589C432.963 253.494 431.071 256.198 428.15 255.793Z" fill="#FAD1B5"/>
<path d="M428.149 255.793L416.63 256.014C416.612 256.014 416.593 256.004 416.566 256.004C416.318 255.949 415.564 255.765 414.572 255.517C413.525 255.03 413.277 253.586 414.168 252.777C415.932 251.177 417.163 248.979 417.512 246.46L417.641 245.522C417.641 245.513 417.641 245.503 417.641 245.494L418.063 242.432C418.403 239.995 417.925 237.623 416.841 235.591C417.392 235.241 418.072 235.057 418.826 235.158C418.844 235.158 418.871 235.168 418.89 235.168L430.17 238.101C432.632 238.441 434.194 240.694 434.387 243.149L433.349 250.588C432.963 253.494 431.071 256.198 428.149 255.793Z" fill="#F8BE96"/>
<path d="M195.65 303.661C195.65 303.661 209.181 258.282 208.217 247.891C207.252 237.5 210.605 218.953 222.997 209.408C235.389 199.863 248.139 176.746 248.139 176.746C239.082 205.482 222.143 222.438 225.579 230.318C225.707 230.613 226.148 230.686 226.865 230.567L195.65 303.661Z" fill="#E49468"/>
<path d="M169.023 444.597C169.023 444.597 161.842 449.872 154.785 458.391C126.411 492.641 61.5466 593.563 19.7501 668.045L2.99973 647.5C-5.05644 647.5 -0.937308 636.546 -0.937308 628.481C-0.937308 585.364 -0.937308 618.096 -0.937308 593.563C67.5176 544.368 139.628 452.873 145.14 410.574C146.061 410.574 149.879 410.323 154.785 410.365C171.892 410.512 202.219 414.227 169.023 444.597Z" fill="#E49468"/>
<path d="M365.129 190.257C370.025 188.722 377.998 190.69 378.182 196.005C378.366 201.32 382.839 198.892 385.219 201.853C387.598 204.814 387.598 204.814 387.598 204.814C387.598 204.814 382.334 204.86 380.754 209.246C379.174 213.632 368.096 212.326 364.917 211.177C361.739 210.028 359.066 206.211 355.933 206.579C352.801 206.947 352.801 206.947 352.801 206.947C352.801 206.947 350.174 201.844 354.95 199.315C362.538 195.306 360.232 191.793 365.129 190.257Z" fill="#292952"/>
<path d="M364.972 248.455C360.939 238.662 351.073 244.455 344.845 250.395C338.617 256.336 332.214 266.984 317.829 282.772C303.444 298.561 295.957 305.154 295.957 305.154L300.835 307.94C300.835 307.94 346.425 271.094 353.269 264.869C360.112 258.644 367.7 255.067 364.972 248.455Z" fill="#292952"/>
<path d="M373.295 199.223C373.635 195.72 371.081 192.612 367.581 192.272C364.081 191.931 360.976 194.488 360.637 197.991C360.591 198.433 360.784 199.057 360.784 199.535C360.784 200.51 359.57 201.169 359.57 201.745C359.618 202.029 360.251 202.056 360.784 202.193C360.839 202.561 360.842 202.894 360.925 203.243C361.449 203.335 362.419 203.499 363.034 203.416C363.034 203.416 362.207 204.575 361.381 204.759C361.766 205.862 362.263 206.626 362.832 206.736C366.277 207.37 372.955 202.718 373.295 199.223Z" fill="#FF8B66"/>
<path d="M362.947 197.909C362.92 197.909 362.893 197.9 362.866 197.882C362.369 197.548 361.655 197.729 361.646 197.729C361.564 197.747 361.483 197.701 361.465 197.62C361.447 197.539 361.492 197.457 361.573 197.439C361.609 197.43 362.423 197.231 363.028 197.638C363.101 197.683 363.119 197.774 363.073 197.846C363.037 197.882 362.992 197.909 362.947 197.909Z" fill="#0E3944"/>
<path d="M363.073 199.509C363.154 199.87 363.055 200.205 362.856 200.25C362.657 200.295 362.422 200.033 362.341 199.671C362.26 199.31 362.359 198.975 362.558 198.93C362.757 198.894 362.992 199.147 363.073 199.509Z" fill="#1A4850"/>
<path d="M362.053 199.554C362.053 199.554 362.116 198.596 362.486 198.587C362.848 198.569 363.291 199.283 363.291 199.283L363.752 198.894L363.246 199.075C363.246 199.075 362.794 198.334 362.45 198.415C361.944 198.515 362.053 199.554 362.053 199.554Z" fill="#1A4850"/>
<path d="M353.528 233.182C353.528 233.182 347.704 233.108 345.067 232.943C342.431 232.777 337.636 234.533 338.031 234.681C338.426 234.828 344.654 234.708 345.104 235.655C345.545 236.602 341.834 236.612 341.916 237.32C341.999 238.028 346.013 239.361 350.055 236.887C354.106 234.395 353.528 233.182 353.528 233.182Z" fill="#FF8B66"/>
<path d="M338.986 259.535C338.986 259.535 325.051 275.489 332.464 283.287C339.877 291.085 356.889 310.542 356.889 310.542L361.069 307.443L342.054 276.519C342.054 276.519 355.622 262.993 355.245 259.793C354.887 256.574 343.616 250.965 338.986 259.535Z" fill="#292952"/>
<path d="M371.54 201.936C371.54 201.936 373.901 210.975 375.784 211.803C377.658 212.63 363.943 212.63 363.943 212.63C363.943 212.63 367.158 210.571 367.131 208.373C367.103 206.175 367.113 204.465 367.113 204.465C367.113 204.465 369.097 200.005 371.54 201.936Z" fill="#FF8B66"/>
<path d="M363.025 193.439C363.025 193.439 362.355 192.179 363.898 192.74C365.441 193.301 361.702 198.818 366.782 201.273C369.547 202.606 370.631 210.091 370.631 210.091C370.631 210.091 372.321 209.917 374.71 211.563C377.098 213.209 373.681 194.303 373.681 194.303L367.692 190.165L365.257 190.689C365.257 190.698 362.061 191.287 363.025 193.439Z" fill="#292952"/>
<path d="M358.138 238.966C351.974 238.699 344.387 239.655 337.846 244.281C327.935 251.297 325.454 253.108 325.454 253.108C325.454 253.108 323.654 258.092 328.706 256.842C328.706 256.842 324.361 260.391 328.431 261.862C332.5 263.333 335.21 260.897 335.21 260.897C335.21 260.897 333.538 264.731 335.348 265.384C337.157 266.037 340.722 263.232 340.722 263.232C340.722 263.232 338.636 267.6 341.512 268.124C344.387 268.648 344.387 268.648 344.387 268.648C344.387 268.648 345.829 271.729 348.291 270.57C350.753 269.412 350.211 266.662 350.211 266.662C350.211 266.662 349.77 272.134 354.078 270.111C358.386 268.088 357.844 267.122 357.844 267.122C357.844 267.122 361.023 270.699 362.878 269.835C364.725 268.97 365.671 264.575 365.671 264.575C365.671 264.575 370.218 267.343 371.403 266.396C373.929 264.363 372.983 260.952 372.983 260.952C372.983 260.952 376.74 262.607 377.649 261.485C379.257 259.508 377.172 256.069 377.172 256.069C377.172 256.069 382.252 259.701 383.721 255.619C385.191 251.545 382.362 250.524 382.362 250.524C382.362 250.524 385.559 255.131 386.156 249.209C386.753 243.288 364.908 239.26 358.138 238.966Z" fill="#D17DDF"/>
<path d="M371.77 210.056C365.781 209.366 361.721 214.534 356.439 218.589C354.326 220.207 357.082 222.405 356.08 224.879C353.086 232.281 350.109 240.511 350.109 240.511C350.109 240.511 351.221 240.244 358.211 240.18C365.202 240.115 366.782 240.125 366.782 240.125C366.782 240.125 388.186 211.931 371.77 210.056Z" fill="#2B84C1"/>
<path d="M298.337 302.956C298.337 302.956 284.631 304.639 287.02 306.524C289.408 308.409 295.985 311.214 296.582 311.434C297.189 311.655 298.511 312.446 298.98 312.096C299.448 311.756 300.826 307.912 300.826 307.912L298.337 302.956Z" fill="#FFFCFD"/>
<path d="M356.898 310.533C356.898 310.533 359.838 325.071 360.876 324.087C361.914 323.104 364.321 315.949 364.725 313.881C365.129 311.812 365.708 311.168 364.67 309.77C363.641 308.372 360.867 306.993 360.867 306.993L356.898 310.533Z" fill="#FFFCFD"/>
<path d="M396.214 212.133C396.214 212.133 388.268 216.244 373.681 210.524C366.543 207.729 361.068 220.63 370.08 224.308C386.155 230.864 396.94 215.103 396.94 215.103L396.214 212.133Z" fill="#3D9DEB"/>
<path d="M396.214 212.133C396.214 212.133 396.187 208.896 396.288 208.409C396.389 207.921 397.482 208.013 397.758 209.319C398.033 210.625 398.088 211.315 398.18 211.048C398.272 210.781 400.569 207.333 401.313 207.149C402.057 206.965 404.583 206.606 405.051 206.772C405.52 206.938 402.066 210.275 401.919 210.671C401.772 211.066 404.206 208.271 404.822 208.648C405.437 209.025 402.507 211.112 402.176 212.041C401.845 212.97 399.696 214.974 398.851 214.818C398.006 214.662 396.968 215.057 396.968 215.057L396.214 212.133Z" fill="#FF8B66"/>
<path d="M273.535 263.637C273.535 263.637 275.4 266.239 275.51 267.857C275.629 269.476 273.112 272.069 273.112 272.069L269.686 280.115C266.214 281.485 267.022 278.276 267.151 277.448C267.279 276.621 266.563 271.802 269.153 266.607C270.053 264.814 273.535 263.637 273.535 263.637Z" fill="#262647"/>
<path d="M284.596 292.97C281.215 291.747 278.349 302.193 278.138 305.274C277.927 308.354 278.184 311.37 280.085 310.478C281.978 309.586 285.937 306.736 286.433 305.347C286.938 303.949 287.37 294.653 286.911 294.037C286.451 293.421 284.596 292.97 284.596 292.97Z" fill="#262647"/>
<path d="M262.549 241.834C259.012 250.487 269.199 266.22 269.199 266.22L273.6 263.967C273.6 263.967 270.265 255.746 274.243 247.342C277.779 239.866 280.618 233.705 284.356 234.156C288.095 234.606 289.51 257.466 286.138 271.268C282.767 285.071 280.765 295.075 280.765 295.075L287.443 295.875C287.443 295.875 309.443 257.153 300.368 224.362C295.086 205.264 288.481 201.769 280.168 210.615C274.206 216.96 265.268 235.167 262.549 241.834Z" fill="#6199AF"/>
<path d="M281.26 154.377L285.182 155.342C285.182 155.342 279.496 173.476 285.008 173.292C301.552 172.74 306.917 174.91 316.369 182.377C325.822 189.844 319.061 203.609 324.94 214.745C330.819 225.88 336.413 229.697 336.413 229.697L333.813 231.913C333.813 231.913 317.435 223.067 314.532 216.161C311.629 209.255 310.903 206.064 310.903 206.064C310.903 206.064 304.262 217.623 301.129 225.053C301.129 225.053 294.525 225.871 285.109 223.315C275.693 220.759 275.179 213.421 275.179 213.421C275.179 213.421 281.903 196.032 288.489 186.487C288.489 186.487 272.634 183.683 271.422 178.294C270.604 174.598 281.26 154.377 281.26 154.377Z" fill="#292952"/>
<path d="M335.871 229.117C335.871 229.117 340.721 229.457 341.08 230.331C341.429 231.214 341.613 232.428 341.613 232.428C341.613 232.428 341.631 234.809 341.622 235.021C341.603 235.232 338.489 236.897 336.873 236.759C335.256 236.621 333.428 231.536 333.428 231.536L335.871 229.117Z" fill="#FF8B66"/>
<path d="M281.151 154.68C281.151 154.68 279.029 150.294 279.617 149.558C280.205 148.813 281.169 148.05 281.169 148.05C281.169 148.05 282.914 146.294 283.107 146.211C283.3 146.119 286.855 147.572 287.544 149.043C288.233 150.515 285.036 155.673 285.036 155.673L281.151 154.68Z" fill="#FF8B66"/>
<path d="M316.774 174.414L310.188 178.11C310.188 178.11 310.785 182.855 313.063 184.483C315.488 186.211 318.887 182.533 319.135 181.577C319.135 181.577 322.093 173.788 316.774 174.414Z" fill="#FF8B66"/>
<path d="M323.876 182.303C323.876 182.303 320.247 184.63 318.419 183.6C316.104 182.294 315.002 176.115 315.002 176.115C315.002 176.115 316.582 169.77 318.97 168.317C322.553 166.138 326.76 166.745 328.928 170.331C330.407 172.777 329.764 174.597 328.46 176.942C328.276 177.282 327.771 177.908 327.164 178.625C325.796 180.243 323.876 182.303 323.876 182.303Z" fill="#FF8B66"/>
<path d="M320.311 179.792L322.571 181.778C322.571 181.778 321.716 182.744 320.476 181.585C319.659 180.822 320.311 179.792 320.311 179.792Z" fill="#FBEAE2"/>
<path d="M317.427 171.581C317.427 171.581 317.602 171.967 317.629 173.015C317.647 173.65 318.851 172.822 318.979 172.317C319.255 171.185 321.91 170.156 322.406 170.946C323.508 172.694 325.759 175.112 327.192 175.277L326.016 172.537C326.016 172.537 326.484 174.91 329.626 176.877C331.39 177.99 333.732 177.631 333.631 175.213C333.53 172.795 331.114 175.048 329.02 170.238C327.614 167.011 324.859 165.319 322.084 165.668C320.661 165.852 318.529 165.797 317.298 168.142C316.251 170.128 315.342 175.277 315.342 175.277L317.427 171.581Z" fill="#292952"/>
<path d="M317.657 172.262C317.657 172.262 317.868 169.88 316.242 171.158C314.616 172.436 315.379 174.147 315.976 174.294C316.564 174.45 317.657 172.262 317.657 172.262Z" fill="#FF8B66"/>
<path d="M325.237 177.628V182.044C325.237 182.302 324.933 182.44 324.739 182.27L322.455 180.273L325.237 177.628Z" fill="#FF8B66"/>
<path d="M327.363 178.281C327.344 178.262 327.333 178.226 327.338 178.192C327.428 177.655 327.021 177.274 327.016 177.269C326.973 177.226 326.98 177.143 327.037 177.086C327.095 177.028 327.179 177.01 327.228 177.047C327.247 177.066 327.712 177.505 327.599 178.159C327.583 178.233 327.513 178.303 327.441 178.308C327.419 178.311 327.387 178.305 327.363 178.281Z" fill="#8B383E"/>
<path d="M323.804 174.962C323.78 174.938 323.769 174.902 323.764 174.858C323.76 174.778 323.831 174.707 323.912 174.699C324.638 174.659 325.203 175.249 325.222 175.268C325.276 175.322 325.273 175.421 325.209 175.473C325.152 175.53 325.046 175.527 325.005 175.472C324.999 175.466 324.512 174.954 323.915 174.984C323.871 175.004 323.835 174.993 323.804 174.962Z" fill="#8B383E"/>
<path d="M326.134 179.133C325.895 179.372 325.583 179.446 325.438 179.302C325.293 179.157 325.368 178.844 325.607 178.605C325.845 178.366 326.158 178.292 326.303 178.437C326.453 178.576 326.373 178.894 326.134 179.133Z" fill="#1A4850"/>
<path d="M323.746 176.771C323.465 177.052 323.09 177.134 322.913 176.956C322.735 176.779 322.817 176.404 323.098 176.123C323.379 175.841 323.754 175.76 323.931 175.938C324.116 176.108 324.028 176.49 323.746 176.771Z" fill="#1A4850"/>
<path d="M316.482 413.146L228.005 372.955C227.169 372.573 226.795 371.586 227.176 370.741L227.499 370.021C227.88 369.184 228.867 368.81 229.711 369.191L318.188 409.383C319.024 409.764 319.398 410.751 319.017 411.596L318.694 412.316C318.305 413.153 317.319 413.527 316.482 413.146Z" fill="#615EFF"/>
<path d="M316.482 413.146L280.761 396.945C279.925 396.564 279.551 395.576 279.932 394.731L280.255 394.011C280.636 393.174 281.622 392.8 282.467 393.181L318.188 409.382C319.024 409.763 319.398 410.751 319.017 411.596L318.694 412.316C318.305 413.153 317.319 413.527 316.482 413.146Z" fill="#B8B8DD"/>
<path d="M279.959 400.618C283.405 400.691 286.258 397.954 286.331 394.504C286.404 391.055 283.67 388.199 280.224 388.126C276.778 388.053 273.925 390.79 273.852 394.24C273.779 397.689 276.513 400.545 279.959 400.618Z" fill="#615EFF" stroke="#DAE8F7" stroke-width="3" stroke-miterlimit="10"/>
<path d="M397.066 460.124C397.066 460.124 410.845 422.432 433.718 406.239C433.718 406.239 444.355 482.956 458.502 480.087C472.639 477.218 440.488 395.462 440.488 395.462C440.488 395.462 496.661 340.685 523.796 334.395C523.796 334.395 505.884 418.827 518.882 412.565C531.88 406.303 554.597 319.324 554.597 319.324C554.597 319.324 601.997 292.961 631.062 308.85V397.356C608.813 406.174 574.411 419.075 577.746 424.887C581.08 430.698 608.17 431.572 631.062 425.347V486.993C625.862 493.632 619.46 498.579 611.578 500.418C574.825 508.997 556.398 490.625 533.772 496.344C511.156 502.055 497.037 513.411 510.054 515.646C523.071 517.88 559.043 501.347 581.935 510.515C604.826 519.682 622.381 524.17 591.58 542.082C560.789 559.995 500.004 575.701 479.593 554.23C479.593 554.23 479.593 554.23 479.584 554.22C478.693 553.282 477.839 552.39 477.03 551.535C477.021 551.526 477.021 551.526 477.012 551.517C478.445 553.393 479.584 554.22 479.584 554.22C474.679 559.839 471.225 579.912 469.25 595.085C469.093 597.595 468.689 601.135 467.964 605.99C467.725 608.243 467.55 610.073 467.431 611.315C466.898 621.117 468.533 632.253 471.124 643.066H461.313C458.19 618.708 462.976 600.501 462.994 600.418C469.691 561.328 459.163 532.749 459.163 532.749C459.016 532.721 383.636 518.423 397.066 460.124Z" fill="#5757DD" fill-opacity="0.6"/>
<path fillRule="evenodd" clipRule="evenodd" d="M131.446 457.186C139.289 483.88 139.944 509.276 135.289 528.515C130.541 548.141 121.151 558.706 111.074 561.667C104.402 563.628 96.1808 562.622 87.1462 557.673C84.8278 561.296 82.498 564.957 80.1628 568.647C91.7357 575.189 103.655 577.397 114.739 574.14C147.592 564.487 160.656 510.484 143.919 453.522C127.181 396.559 86.9806 358.207 54.1277 367.86C34.7823 373.544 22.2984 394.607 18.7207 422.596C24.4404 417.568 29.9453 412.578 35.1915 407.695C40.271 391.759 48.7556 382.988 57.7926 380.333C67.8698 377.372 81.4826 381.178 96.0929 395.116C110.415 408.779 123.602 430.493 131.446 457.186Z" fill="#303034"/>
<ellipse cx="120.56" cy="415.614" rx="11.1837" ry="7.68882" transform="rotate(-26.0888 120.56 415.614)" fill="#3D9DEB"/>
<path fillRule="evenodd" clipRule="evenodd" d="M130.807 415.315C124.363 412.41 116.665 415.917 115.811 417.769C112.639 418.817 111.768 414.292 112.742 411.948C110.226 414.64 109.242 417.931 110.516 420.533C112.383 424.347 118.394 425.236 123.941 422.52C127.444 420.805 129.924 418.063 130.807 415.315Z" fill="#2883CD"/>
<ellipse cx="125.502" cy="426.93" rx="13.9129" ry="11" transform="rotate(-22.0577 125.502 426.93)" fill="#615EFF"/>
<path fillRule="evenodd" clipRule="evenodd" d="M137.865 429.834C134.282 428.151 128.415 428.296 122.397 432.012C120.424 432.716 116.173 429.842 115.257 427.582C114.375 425.405 114.505 423.012 115.445 420.743C112.327 424.064 111.082 428.393 112.606 432.155C114.888 437.785 122.51 440.01 129.632 437.125C133.45 435.578 136.349 432.876 137.865 429.834Z" fill="#504EC4"/>
<ellipse cx="131.889" cy="419.96" rx="3.19655" ry="1.98499" transform="rotate(12.3274 131.889 419.96)" fill="white"/>
<ellipse cx="125.824" cy="419.184" rx="1.22233" ry="1.04817" transform="rotate(12.3274 125.824 419.184)" fill="white"/>
<ellipse cx="127.428" cy="410.611" rx="2.13411" ry="1.32524" transform="rotate(22.9628 127.428 410.611)" fill="white"/>
<path fillRule="evenodd" clipRule="evenodd" d="M140.595 443.196C142.629 440.913 143.488 438.203 142.632 435.814C141.145 431.66 135.041 430.047 129 432.211C122.959 434.374 119.267 439.495 120.755 443.648C121.754 446.44 124.84 448.084 128.59 448.205C128.767 445.984 130.764 443.709 133.703 442.657C136.309 441.723 138.952 442.003 140.595 443.196Z" fill="#3D9DEB"/>
<path fillRule="evenodd" clipRule="evenodd" d="M125.17 434.174C124.239 435.928 123.98 437.789 124.589 439.489C125.133 441.01 127.336 442.65 129.301 441.739C132.828 438.966 139.111 438.846 142.161 440.917C141.769 441.704 141.242 442.471 140.596 443.196C138.953 442.003 136.31 441.724 133.704 442.657C130.765 443.709 128.768 445.984 128.591 448.205C124.841 448.085 121.755 446.441 120.756 443.649C119.617 440.471 121.512 436.726 125.17 434.174Z" fill="#2883CD"/>
<path fillRule="evenodd" clipRule="evenodd" d="M51.6409 392.163C51.8947 392.309 52.1486 392.457 52.4023 392.608C59.8292 397.022 67.1927 403.525 74.159 411.543C77.7731 415.703 81.2804 420.272 84.634 425.168C88.2758 430.484 91.7364 436.188 94.9562 442.175C97.7503 442.415 100.03 443.656 100.947 445.731C101.582 447.167 101.467 448.782 100.756 450.344C104.058 451.186 106.693 453.219 107.737 456.127C108.796 459.077 107.992 462.298 105.871 464.954C108.447 465.6 110.407 467.076 111.06 469.167C111.706 471.235 110.941 473.485 109.203 475.382C112.134 484.372 114.459 493.666 116.109 502.891C112.549 507.521 108.871 512.426 105.1 517.601C103.758 505.195 100.98 492.165 96.938 479.704C93.6301 479.318 91.0078 477.7 90.2316 475.216C89.733 473.62 90.0744 471.917 91.0546 470.35C87.3162 469.676 84.2713 467.542 83.1294 464.362C82.1786 461.714 82.7296 458.847 84.3867 456.366C83.162 455.757 82.2169 454.854 81.7016 453.689C80.8243 451.704 81.3779 449.376 82.96 447.323C77.4168 437.165 71.2037 428.041 64.7273 420.511C55.0478 411.845 46.1029 406.964 38.1133 404.925C42.828 400.582 47.3472 396.312 51.6409 392.163Z" fill="#E49468"/>
<ellipse cx="138.458" cy="434.457" rx="1.28694" ry="0.799163" transform="rotate(12.3274 138.458 434.457)" fill="white"/>
<path d="M217.081 363.784C218.009 365.012 217.26 366.785 215.732 366.975L202.162 368.661C200.635 368.851 199.474 367.316 200.074 365.898L205.398 353.303C205.997 351.885 207.907 351.648 208.835 352.876L217.081 363.784Z" fill="#FB4C4C"/>
</g>
<defs>
<clipPath id="clip0_6033_65356">
<rect width="632" height="640" fill="white"/>
</clipPath>
</defs>
</svg>
