<svg width="348" height="108" viewBox="0 0 348 108" fill="none" xmlns="http://www.w3.org/2000/svg">
<g clip-path="url(#clip0_6559_113609)">
<rect width="348" height="108" rx="8" fill="white"/>
<rect opacity="0.16" width="348" height="108" fill="url(#paint0_linear_6559_113609)"/>
<circle opacity="0.08" cx="36.5" cy="53.5" r="216.5" fill="url(#paint1_linear_6559_113609)"/>
<circle opacity="0.08" cx="36.5" cy="53.5" r="159.5" fill="url(#paint2_linear_6559_113609)"/>
<circle opacity="0.24" cx="36.5" cy="53.5" r="106.5" fill="url(#paint3_linear_6559_113609)"/>
<circle opacity="0.8" cx="36.5" cy="53.5" r="67.5" fill="url(#paint4_linear_6559_113609)"/>
<path fillRule="evenodd" clipRule="evenodd" d="M50.5586 31.9108C57.5346 32.2786 63.9316 36.7701 66.3885 43.7703L68.4644 49.6851C69.0089 51.2366 70.2521 52.4411 71.82 52.9364L74.4102 53.7546C80.9205 55.8111 81.0652 64.9715 74.623 67.2325L64.569 70.7612C65.8669 74.4629 63.919 78.5162 60.2175 79.8153C56.516 81.1144 52.4622 79.1675 51.162 75.4667L41.1055 78.9962C34.6634 81.2572 29.0514 74.0157 32.8485 68.3416L34.3592 66.084C35.2737 64.7176 35.4914 63.0003 34.9469 61.4488L32.8709 55.534C30.4135 48.5322 32.602 41.0262 37.8205 36.3795C37.7627 33.3961 39.6035 30.5817 42.5728 29.5395C45.5427 28.4972 48.7393 29.5445 50.5586 31.9108Z" fill="#242428"/>
<path fillRule="evenodd" clipRule="evenodd" d="M50.5586 31.9108C57.5346 32.2786 63.9316 36.7701 66.3885 43.7703L68.4644 49.6851C69.0089 51.2366 70.2521 52.4411 71.82 52.9364L74.4102 53.7546C80.9205 55.8111 81.0652 64.9715 74.623 67.2325L64.569 70.7612C65.8669 74.4629 63.919 78.5162 60.2175 79.8153C56.516 81.1144 52.4622 79.1675 51.162 75.4667L41.1055 78.9962C34.6634 81.2572 29.0514 74.0157 32.8485 68.3416L34.3592 66.084C35.2737 64.7176 35.4914 63.0003 34.9469 61.4488L32.8709 55.534C30.4135 48.5322 32.602 41.0262 37.8205 36.3795C37.7627 33.3961 39.6035 30.5817 42.5728 29.5395C45.5427 28.4972 48.7393 29.5445 50.5586 31.9108Z" fill="url(#paint5_linear_6559_113609)"/>
<path fillRule="evenodd" clipRule="evenodd" d="M52.1523 29.5787C59.1283 29.9466 65.5253 34.438 67.9822 41.4382L70.0582 47.3531C70.6027 48.9045 71.8459 50.1091 73.4137 50.6044L76.004 51.4226C82.5143 53.479 82.6589 62.6395 76.2168 64.9005L66.1628 68.4292C67.4607 72.1308 65.5128 76.1842 61.8113 77.4833C58.1097 78.7824 54.056 76.8355 52.7558 73.1347L42.6993 76.6642C36.2571 78.9252 30.6451 71.6836 34.4422 66.0095L35.953 63.752C36.8674 62.3855 37.0851 60.6682 36.5406 59.1168L34.4647 53.2019C32.0072 46.2001 34.1957 38.6942 39.4143 34.0475C39.3564 31.064 41.1972 28.2496 44.1665 27.2075C47.1364 26.1651 50.3331 27.2124 52.1523 29.5787Z" fill="#242428"/>
<path fillRule="evenodd" clipRule="evenodd" d="M52.1523 29.5787C59.1283 29.9466 65.5253 34.438 67.9822 41.4382L70.0582 47.3531C70.6027 48.9045 71.8459 50.1091 73.4137 50.6044L76.004 51.4226C82.5143 53.479 82.6589 62.6395 76.2168 64.9005L66.1628 68.4292C67.4607 72.1308 65.5128 76.1842 61.8113 77.4833C58.1097 78.7824 54.056 76.8355 52.7558 73.1347L42.6993 76.6642C36.2571 78.9252 30.6451 71.6836 34.4422 66.0095L35.953 63.752C36.8674 62.3855 37.0851 60.6682 36.5406 59.1168L34.4647 53.2019C32.0072 46.2001 34.1957 38.6942 39.4143 34.0475C39.3564 31.064 41.1972 28.2496 44.1665 27.2075C47.1364 26.1651 50.3331 27.2124 52.1523 29.5787Z" fill="url(#paint6_linear_6559_113609)"/>
<path fillRule="evenodd" clipRule="evenodd" d="M15.5497 60.3006C15.7639 59.5003 16.5862 59.0252 17.3865 59.2394L28.7019 62.2681C29.5022 62.4823 29.9773 63.3046 29.7631 64.1049C29.5489 64.9052 28.7265 65.3803 27.9262 65.1661L16.6108 62.1374C15.8106 61.9232 15.3355 61.1008 15.5497 60.3006Z" fill="#242428"/>
<path fillRule="evenodd" clipRule="evenodd" d="M15.5497 60.3006C15.7639 59.5003 16.5862 59.0252 17.3865 59.2394L28.7019 62.2681C29.5022 62.4823 29.9773 63.3046 29.7631 64.1049C29.5489 64.9052 28.7265 65.3803 27.9262 65.1661L16.6108 62.1374C15.8106 61.9232 15.3355 61.1008 15.5497 60.3006Z" fill="url(#paint7_linear_6559_113609)"/>
<path fillRule="evenodd" clipRule="evenodd" d="M16.5 71C16.5 70.1716 17.1716 69.5 18 69.5L26 69.5C26.8284 69.5 27.5 70.1716 27.5 71C27.5 71.8284 26.8284 72.5 26 72.5L18 72.5C17.1716 72.5 16.5 71.8284 16.5 71Z" fill="#242428"/>
<path fillRule="evenodd" clipRule="evenodd" d="M16.5 71C16.5 70.1716 17.1716 69.5 18 69.5L26 69.5C26.8284 69.5 27.5 70.1716 27.5 71C27.5 71.8284 26.8284 72.5 26 72.5L18 72.5C17.1716 72.5 16.5 71.8284 16.5 71Z" fill="url(#paint8_linear_6559_113609)"/>
<path fillRule="evenodd" clipRule="evenodd" d="M21.5033 80.1111C21.1671 79.354 21.5083 78.4677 22.2654 78.1314L28.0011 75.5843C28.7583 75.2481 29.6446 75.5893 29.9808 76.3464C30.317 77.1035 29.9758 77.9899 29.2187 78.3261L23.483 80.8732C22.7259 81.2095 21.8396 80.8683 21.5033 80.1111Z" fill="#242428"/>
<path fillRule="evenodd" clipRule="evenodd" d="M21.5033 80.1111C21.1671 79.354 21.5083 78.4677 22.2654 78.1314L28.0011 75.5843C28.7583 75.2481 29.6446 75.5893 29.9808 76.3464C30.317 77.1035 29.9758 77.9899 29.2187 78.3261L23.483 80.8732C22.7259 81.2095 21.8396 80.8683 21.5033 80.1111Z" fill="url(#paint9_linear_6559_113609)"/>
<circle cx="67" cy="26" r="6" fill="#242428"/>
<circle cx="67" cy="26" r="6" fill="url(#paint10_linear_6559_113609)"/>
<circle cx="68" cy="25" r="6" fill="#242428"/>
<circle cx="68" cy="25" r="6" fill="url(#paint11_linear_6559_113609)"/>
</g>
<defs>
<linearGradient id="paint0_linear_6559_113609" x1="174" y1="-1.7643e-06" x2="197.873" y2="131.497" gradientUnits="userSpaceOnUse">
<stop stop-color="#0FEFEA"/>
<stop offset="1" stop-color="#03A7A3"/>
</linearGradient>
<linearGradient id="paint1_linear_6559_113609" x1="36.5" y1="-163" x2="273.848" y2="242.737" gradientUnits="userSpaceOnUse">
<stop stop-color="#0FEFEA"/>
<stop offset="1" stop-color="#03A7A3"/>
</linearGradient>
<linearGradient id="paint2_linear_6559_113609" x1="36.5" y1="-106" x2="211.359" y2="192.915" gradientUnits="userSpaceOnUse">
<stop stop-color="#0FEFEA"/>
<stop offset="1" stop-color="#03A7A3"/>
</linearGradient>
<linearGradient id="paint3_linear_6559_113609" x1="36.5" y1="-53" x2="153.256" y2="146.589" gradientUnits="userSpaceOnUse">
<stop stop-color="#0FEFEA"/>
<stop offset="1" stop-color="#03A7A3"/>
</linearGradient>
<linearGradient id="paint4_linear_6559_113609" x1="36.5" y1="-14" x2="110.5" y2="112.5" gradientUnits="userSpaceOnUse">
<stop stop-color="#0FEFEA"/>
<stop offset="1" stop-color="#03A7A3"/>
</linearGradient>
<linearGradient id="paint5_linear_6559_113609" x1="42.571" y1="29.5401" x2="86.9559" y2="64.9683" gradientUnits="userSpaceOnUse">
<stop stop-color="#63F3F0"/>
<stop offset="1" stop-color="#009E9A"/>
</linearGradient>
<linearGradient id="paint6_linear_6559_113609" x1="44.1647" y1="27.2081" x2="88.5496" y2="62.6363" gradientUnits="userSpaceOnUse">
<stop stop-color="#CAFFFD"/>
<stop offset="1" stop-color="#0BDED9"/>
</linearGradient>
<linearGradient id="paint7_linear_6559_113609" x1="23.0442" y1="60.7537" x2="22.5109" y2="64.4621" gradientUnits="userSpaceOnUse">
<stop stop-color="#CAFFFD"/>
<stop offset="1" stop-color="#0BDED9"/>
</linearGradient>
<linearGradient id="paint8_linear_6559_113609" x1="22" y1="69.5" x2="22.587" y2="73.1794" gradientUnits="userSpaceOnUse">
<stop stop-color="#CAFFFD"/>
<stop offset="1" stop-color="#0BDED9"/>
</linearGradient>
<linearGradient id="paint9_linear_6559_113609" x1="25.1333" y1="76.8579" x2="27.2416" y2="79.9073" gradientUnits="userSpaceOnUse">
<stop stop-color="#CAFFFD"/>
<stop offset="1" stop-color="#0BDED9"/>
</linearGradient>
<linearGradient id="paint10_linear_6559_113609" x1="67" y1="20" x2="73.5778" y2="31.2444" gradientUnits="userSpaceOnUse">
<stop stop-color="#63F3F0"/>
<stop offset="1" stop-color="#009E9A"/>
</linearGradient>
<linearGradient id="paint11_linear_6559_113609" x1="68" y1="19" x2="74.5778" y2="30.2444" gradientUnits="userSpaceOnUse">
<stop stop-color="#CAFFFD"/>
<stop offset="1" stop-color="#0BDED9"/>
</linearGradient>
<clipPath id="clip0_6559_113609">
<rect width="348" height="108" rx="8" fill="white"/>
</clipPath>
</defs>
</svg>
