<svg width="348" height="108" viewBox="0 0 348 108" fill="none" xmlns="http://www.w3.org/2000/svg">
<g clip-path="url(#clip0_6559_113609)">
<rect width="348" height="108" rx="8" fill="white"/>
<rect opacity="0.16" width="348" height="108" fill="url(#paint0_linear_6559_113609)"/>
<circle opacity="0.08" cx="36.5" cy="53.5" r="216.5" fill="url(#paint1_linear_6559_113609)"/>
<circle opacity="0.08" cx="36.5" cy="53.5" r="159.5" fill="url(#paint2_linear_6559_113609)"/>
<circle opacity="0.24" cx="36.5" cy="53.5" r="106.5" fill="url(#paint3_linear_6559_113609)"/>
<circle opacity="0.8" cx="36.5" cy="53.5" r="67.5" fill="url(#paint4_linear_6559_113609)"/>
<mask id="path-8-inside-1_6559_113609" fill="white">
<path fill-rule="evenodd" clip-rule="evenodd" d="M50.5586 31.9108C57.5346 32.2786 63.9316 36.7701 66.3885 43.7703L68.4644 49.6851C69.0089 51.2366 70.2521 52.4411 71.82 52.9364L74.4102 53.7546C80.9205 55.8111 81.0652 64.9715 74.623 67.2325L64.569 70.7612C65.8669 74.4629 63.919 78.5162 60.2175 79.8153C56.516 81.1144 52.4622 79.1675 51.162 75.4667L41.1055 78.9962C34.6634 81.2572 29.0514 74.0157 32.8485 68.3416L34.3592 66.084C35.2737 64.7176 35.4914 63.0003 34.9469 61.4488L32.8709 55.534C30.4135 48.5322 32.602 41.0262 37.8205 36.3795C37.7627 33.3961 39.6035 30.5817 42.5728 29.5395C45.5427 28.4972 48.7393 29.5445 50.5586 31.9108Z"/>
</mask>
<path fill-rule="evenodd" clip-rule="evenodd" d="M50.5586 31.9108C57.5346 32.2786 63.9316 36.7701 66.3885 43.7703L68.4644 49.6851C69.0089 51.2366 70.2521 52.4411 71.82 52.9364L74.4102 53.7546C80.9205 55.8111 81.0652 64.9715 74.623 67.2325L64.569 70.7612C65.8669 74.4629 63.919 78.5162 60.2175 79.8153C56.516 81.1144 52.4622 79.1675 51.162 75.4667L41.1055 78.9962C34.6634 81.2572 29.0514 74.0157 32.8485 68.3416L34.3592 66.084C35.2737 64.7176 35.4914 63.0003 34.9469 61.4488L32.8709 55.534C30.4135 48.5322 32.602 41.0262 37.8205 36.3795C37.7627 33.3961 39.6035 30.5817 42.5728 29.5395C45.5427 28.4972 48.7393 29.5445 50.5586 31.9108Z" fill="url(#paint5_linear_6559_113609)"/>
<path d="M50.5586 31.9108L49.7658 32.5203L50.0463 32.8851L50.5059 32.9094L50.5586 31.9108ZM71.82 52.9364L71.5188 53.8899L71.5188 53.8899L71.82 52.9364ZM74.4102 53.7546L74.7114 52.801L74.4102 53.7546ZM74.623 67.2325L74.2919 66.289L74.623 67.2325ZM64.569 70.7612L64.2379 69.8176L63.2946 70.1487L63.6254 71.0921L64.569 70.7612ZM51.162 75.4667L52.1055 75.1352L51.7741 74.192L50.8309 74.5231L51.162 75.4667ZM32.8485 68.3416L33.6796 68.8977L32.8485 68.3416ZM34.3592 66.084L35.1903 66.6402L35.1903 66.6402L34.3592 66.084ZM34.9469 61.4488L35.8904 61.1176L34.9469 61.4488ZM32.8709 55.534L31.9274 55.8651L32.8709 55.534ZM37.8205 36.3795L38.4855 37.1264L38.8292 36.8203L38.8203 36.3602L37.8205 36.3795ZM67.332 43.4391C64.7363 36.0433 57.978 31.3006 50.6112 30.9122L50.5059 32.9094C57.0912 33.2566 63.1269 37.4968 65.4449 44.1014L67.332 43.4391ZM69.408 49.354L67.332 43.4391L65.4449 44.1014L67.5208 50.0163L69.408 49.354ZM72.1212 51.9828C70.8535 51.5824 69.8483 50.6084 69.408 49.354L67.5208 50.0163C68.1696 51.8647 69.6508 53.2999 71.5188 53.8899L72.1212 51.9828ZM74.7114 52.801L72.1212 51.9828L71.5188 53.8899L74.109 54.7081L74.7114 52.801ZM74.9542 68.1761C82.3031 65.5968 82.1381 55.147 74.7114 52.801L74.109 54.7081C79.703 56.4752 79.8272 64.3462 74.2919 66.289L74.9542 68.1761ZM64.9002 71.7048L74.9542 68.1761L74.2919 66.289L64.2379 69.8176L64.9002 71.7048ZM60.5487 80.7589C64.7712 79.2769 66.9933 74.653 65.5127 70.4303L63.6254 71.0921C64.7405 74.2727 63.0669 77.7555 59.8863 78.8717L60.5487 80.7589ZM50.2185 75.7981C51.7018 80.0199 56.3261 82.2409 60.5487 80.7589L59.8863 78.8717C56.7058 79.988 53.2227 78.3151 52.1055 75.1352L50.2185 75.7981ZM41.4367 79.9398L51.4932 76.4103L50.8309 74.5231L40.7743 78.0527L41.4367 79.9398ZM32.0174 67.7854C27.6858 74.2582 34.0877 82.5191 41.4367 79.9398L40.7743 78.0527C35.239 79.9954 30.4169 73.7731 33.6796 68.8977L32.0174 67.7854ZM33.5281 65.5279L32.0174 67.7854L33.6796 68.8977L35.1903 66.6402L33.5281 65.5279ZM34.0033 61.78C34.4436 63.0344 34.2675 64.423 33.5281 65.5279L35.1903 66.6402C36.2798 65.0121 36.5392 62.9661 35.8904 61.1176L34.0033 61.78ZM31.9274 55.8651L34.0033 61.78L35.8904 61.1176L33.8145 55.2028L31.9274 55.8651ZM37.1555 35.6327C31.6447 40.5396 29.331 48.4676 31.9274 55.8651L33.8145 55.2028C31.496 48.5967 33.5593 41.5128 38.4855 37.1264L37.1555 35.6327ZM38.8203 36.3602C38.7706 33.7955 40.3541 31.378 42.9039 30.4831L42.2416 28.5959C38.8529 29.7853 36.7547 32.9966 36.8207 36.3989L38.8203 36.3602ZM42.9039 30.4831C45.4544 29.588 48.2019 30.4862 49.7658 32.5203L51.3513 31.3013C49.2767 28.6028 45.631 27.4064 42.2416 28.5959L42.9039 30.4831Z" fill="white" fill-opacity="0.1" mask="url(#path-8-inside-1_6559_113609)"/>
<mask id="path-10-inside-2_6559_113609" fill="white">
<path fill-rule="evenodd" clip-rule="evenodd" d="M52.3574 29.61C59.3334 29.9779 65.7304 34.4693 68.1873 41.4695L70.2632 47.3843C70.8077 48.9358 72.0509 50.1403 73.6188 50.6356L76.209 51.4538C82.7194 53.5103 82.864 62.6707 76.4219 64.9318L66.3679 68.4604C67.6657 72.1621 65.7179 76.2154 62.0163 77.5145C58.3148 78.8137 54.261 76.8668 52.9608 73.1659L42.9043 76.6954C36.4622 78.9565 30.8502 71.7149 34.6473 66.0408L36.158 63.7833C37.0725 62.4168 37.2902 60.6995 36.7457 59.148L34.6698 53.2332C32.2123 46.2314 34.4008 38.7254 39.6193 34.0788C39.5615 31.0953 41.4023 28.2809 44.3716 27.2387C47.3415 26.1964 50.5382 27.2437 52.3574 29.61Z"/>
</mask>
<path fill-rule="evenodd" clip-rule="evenodd" d="M52.3574 29.61C59.3334 29.9779 65.7304 34.4693 68.1873 41.4695L70.2632 47.3843C70.8077 48.9358 72.0509 50.1403 73.6188 50.6356L76.209 51.4538C82.7194 53.5103 82.864 62.6707 76.4219 64.9318L66.3679 68.4604C67.6657 72.1621 65.7179 76.2154 62.0163 77.5145C58.3148 78.8137 54.261 76.8668 52.9608 73.1659L42.9043 76.6954C36.4622 78.9565 30.8502 71.7149 34.6473 66.0408L36.158 63.7833C37.0725 62.4168 37.2902 60.6995 36.7457 59.148L34.6698 53.2332C32.2123 46.2314 34.4008 38.7254 39.6193 34.0788C39.5615 31.0953 41.4023 28.2809 44.3716 27.2387C47.3415 26.1964 50.5382 27.2437 52.3574 29.61Z" fill="url(#paint6_linear_6559_113609)"/>
<path d="M52.3574 29.61L51.5646 30.2195L51.8451 30.5844L52.3047 30.6086L52.3574 29.61ZM73.6188 50.6356L73.3176 51.5892L73.3176 51.5892L73.6188 50.6356ZM76.209 51.4538L76.5103 50.5002L76.209 51.4538ZM76.4219 64.9318L76.0907 63.9882L76.4219 64.9318ZM66.3679 68.4604L66.0367 67.5169L65.0934 67.8479L65.4242 68.7913L66.3679 68.4604ZM52.9608 73.1659L53.9043 72.8344L53.573 71.8913L52.6297 72.2223L52.9608 73.1659ZM42.9043 76.6954L43.2355 77.639L42.9043 76.6954ZM34.6473 66.0408L35.4784 66.5969L34.6473 66.0408ZM36.158 63.7833L36.9891 64.3394L36.9891 64.3394L36.158 63.7833ZM36.7457 59.148L37.6893 58.8169L36.7457 59.148ZM34.6698 53.2332L33.7262 53.5643L34.6698 53.2332ZM39.6193 34.0788L40.2843 34.8256L40.6281 34.5195L40.6191 34.0594L39.6193 34.0788ZM69.1309 41.1383C66.5351 33.7425 59.7768 28.9998 52.41 28.6114L52.3047 30.6086C58.89 30.9559 64.9257 35.1961 67.2437 41.8007L69.1309 41.1383ZM71.2068 47.0532L69.1309 41.1383L67.2437 41.8007L69.3197 47.7155L71.2068 47.0532ZM73.92 49.682C72.6523 49.2816 71.6471 48.3076 71.2068 47.0532L69.3197 47.7155C69.9684 49.564 71.4496 50.9991 73.3176 51.5892L73.92 49.682ZM76.5103 50.5002L73.92 49.682L73.3176 51.5892L75.9078 52.4074L76.5103 50.5002ZM76.753 65.8753C84.102 63.2961 83.937 52.8462 76.5103 50.5002L75.9078 52.4074C81.5018 54.1744 81.6261 62.0454 76.0907 63.9882L76.753 65.8753ZM66.699 69.404L76.753 65.8753L76.0907 63.9882L66.0367 67.5169L66.699 69.404ZM62.3475 78.4581C66.5701 76.9761 68.7921 72.3523 67.3115 68.1296L65.4242 68.7913C66.5394 71.9719 64.8657 75.4547 61.6852 76.571L62.3475 78.4581ZM52.0174 73.4974C53.5006 77.7192 58.125 79.9401 62.3475 78.4581L61.6852 76.571C58.5047 77.6872 55.0215 76.0144 53.9043 72.8344L52.0174 73.4974ZM43.2355 77.639L53.292 74.1095L52.6297 72.2223L42.5732 75.7519L43.2355 77.639ZM33.8162 65.4846C29.4846 71.9574 35.8866 80.2183 43.2355 77.639L42.5732 75.7519C37.0378 77.6946 32.2157 71.4724 35.4784 66.5969L33.8162 65.4846ZM35.327 63.2271L33.8162 65.4846L35.4784 66.5969L36.9891 64.3394L35.327 63.2271ZM35.8021 59.4792C36.2424 60.7337 36.0664 62.1222 35.327 63.2271L36.9891 64.3394C38.0786 62.7113 38.338 60.6653 37.6893 58.8169L35.8021 59.4792ZM33.7262 53.5643L35.8021 59.4792L37.6893 58.8169L35.6133 52.902L33.7262 53.5643ZM38.9543 33.3319C33.4435 38.2389 31.1299 46.1668 33.7262 53.5643L35.6133 52.902C33.2948 46.2959 35.3581 39.212 40.2843 34.8256L38.9543 33.3319ZM40.6191 34.0594C40.5694 31.4947 42.1529 29.0772 44.7028 28.1823L44.0404 26.2952C40.6518 27.4845 38.5536 30.6958 38.6195 34.0981L40.6191 34.0594ZM44.7028 28.1823C47.2532 27.2872 50.0008 28.1854 51.5646 30.2195L53.1502 29.0005C51.0756 26.302 47.4298 25.1056 44.0404 26.2952L44.7028 28.1823Z" fill="white" fill-opacity="0.1" mask="url(#path-10-inside-2_6559_113609)"/>
<path fill-rule="evenodd" clip-rule="evenodd" d="M15.5497 60.3006C15.7639 59.5003 16.5862 59.0252 17.3865 59.2394L28.7019 62.2681C29.5022 62.4823 29.9773 63.3046 29.7631 64.1049C29.5489 64.9052 28.7265 65.3803 27.9262 65.1661L16.6108 62.1374C15.8106 61.9232 15.3355 61.1008 15.5497 60.3006Z" fill="url(#paint7_linear_6559_113609)"/>
<path fill-rule="evenodd" clip-rule="evenodd" d="M16.5 71C16.5 70.1716 17.1716 69.5 18 69.5L26 69.5C26.8284 69.5 27.5 70.1716 27.5 71C27.5 71.8284 26.8284 72.5 26 72.5L18 72.5C17.1716 72.5 16.5 71.8284 16.5 71Z" fill="url(#paint8_linear_6559_113609)"/>
<path fill-rule="evenodd" clip-rule="evenodd" d="M21.5033 80.1111C21.1671 79.354 21.5083 78.4677 22.2654 78.1314L28.0011 75.5843C28.7583 75.2481 29.6446 75.5893 29.9808 76.3464C30.317 77.1035 29.9758 77.9899 29.2187 78.3261L23.483 80.8732C22.7259 81.2095 21.8396 80.8683 21.5033 80.1111Z" fill="url(#paint9_linear_6559_113609)"/>
<circle cx="67" cy="26" r="6" fill="url(#paint10_linear_6559_113609)"/>
<circle cx="67" cy="26" r="5.5" stroke="white" stroke-opacity="0.1"/>
<circle cx="68" cy="25" r="6" fill="url(#paint11_linear_6559_113609)"/>
<circle cx="68" cy="25" r="5.5" stroke="white" stroke-opacity="0.1"/>
</g>
<defs>
<linearGradient id="paint0_linear_6559_113609" x1="174" y1="-1.7643e-06" x2="197.873" y2="131.497" gradientUnits="userSpaceOnUse">
<stop stop-color="#0FEFEA"/>
<stop offset="1" stop-color="#03A7A3"/>
</linearGradient>
<linearGradient id="paint1_linear_6559_113609" x1="36.5" y1="-163" x2="273.848" y2="242.737" gradientUnits="userSpaceOnUse">
<stop stop-color="#0FEFEA"/>
<stop offset="1" stop-color="#03A7A3"/>
</linearGradient>
<linearGradient id="paint2_linear_6559_113609" x1="36.5" y1="-106" x2="211.359" y2="192.915" gradientUnits="userSpaceOnUse">
<stop stop-color="#0FEFEA"/>
<stop offset="1" stop-color="#03A7A3"/>
</linearGradient>
<linearGradient id="paint3_linear_6559_113609" x1="36.5" y1="-53" x2="153.256" y2="146.589" gradientUnits="userSpaceOnUse">
<stop stop-color="#0FEFEA"/>
<stop offset="1" stop-color="#03A7A3"/>
</linearGradient>
<linearGradient id="paint4_linear_6559_113609" x1="36.5" y1="-14" x2="110.5" y2="112.5" gradientUnits="userSpaceOnUse">
<stop stop-color="#0FEFEA"/>
<stop offset="1" stop-color="#03A7A3"/>
</linearGradient>
<linearGradient id="paint5_linear_6559_113609" x1="42.571" y1="29.5401" x2="86.9559" y2="64.9683" gradientUnits="userSpaceOnUse">
<stop stop-color="#63F3F0"/>
<stop offset="1" stop-color="#009E9A"/>
</linearGradient>
<linearGradient id="paint6_linear_6559_113609" x1="44.3698" y1="27.2394" x2="88.7547" y2="62.6676" gradientUnits="userSpaceOnUse">
<stop stop-color="#CAFFFD"/>
<stop offset="1" stop-color="#0BDED9"/>
</linearGradient>
<linearGradient id="paint7_linear_6559_113609" x1="23.0442" y1="60.7537" x2="22.5109" y2="64.4621" gradientUnits="userSpaceOnUse">
<stop stop-color="#CAFFFD"/>
<stop offset="1" stop-color="#0BDED9"/>
</linearGradient>
<linearGradient id="paint8_linear_6559_113609" x1="22" y1="69.5" x2="22.587" y2="73.1794" gradientUnits="userSpaceOnUse">
<stop stop-color="#CAFFFD"/>
<stop offset="1" stop-color="#0BDED9"/>
</linearGradient>
<linearGradient id="paint9_linear_6559_113609" x1="25.1333" y1="76.8579" x2="27.2416" y2="79.9073" gradientUnits="userSpaceOnUse">
<stop stop-color="#CAFFFD"/>
<stop offset="1" stop-color="#0BDED9"/>
</linearGradient>
<linearGradient id="paint10_linear_6559_113609" x1="67" y1="20" x2="73.5778" y2="31.2444" gradientUnits="userSpaceOnUse">
<stop stop-color="#63F3F0"/>
<stop offset="1" stop-color="#009E9A"/>
</linearGradient>
<linearGradient id="paint11_linear_6559_113609" x1="68" y1="19" x2="74.5778" y2="30.2444" gradientUnits="userSpaceOnUse">
<stop stop-color="#CAFFFD"/>
<stop offset="1" stop-color="#0BDED9"/>
</linearGradient>
<clipPath id="clip0_6559_113609">
<rect width="348" height="108" rx="8" fill="white"/>
</clipPath>
</defs>
</svg>
