<svg width="340" height="108" viewBox="0 0 340 108" fill="none" xmlns="http://www.w3.org/2000/svg">
<g clipPath="url(#clip0_6484_75219)">
<rect width="340" height="108" rx="8" fill="white"/>
<rect opacity="0.16" width="340" height="108" fill="url(#paint0_linear_6484_75219)"/>
<circle opacity="0.08" cx="36.5" cy="53.5" r="216.5" fill="url(#paint1_linear_6484_75219)"/>
<circle opacity="0.08" cx="36.5" cy="53.5" r="159.5" fill="url(#paint2_linear_6484_75219)"/>
<circle opacity="0.24" cx="36.5" cy="53.5" r="106.5" fill="url(#paint3_linear_6484_75219)"/>
<circle opacity="0.8" cx="36.5" cy="53.5" r="67.5" fill="url(#paint4_linear_6484_75219)"/>
<path d="M80.6152 34.8794C80.067 34.7168 79.4852 34.6962 78.9252 34.8197C78.3651 34.9432 77.8456 35.2066 77.4162 35.5848L70.2145 41.9183L69.8852 40.6892C68.4592 35.3674 62.9215 32.2096 57.5425 33.6509L19.6883 41.3668C17.1299 42.9023 13.1734 50.1812 14.5994 55.503L21.4964 81.243C22.9224 86.5648 28.4601 89.7226 33.8391 88.2813L69.6123 78.6959C74.9913 77.2547 77.5109 72.0692 79.046 66.4404L76.4529 65.2001L84.163 66.9521C86.2098 67.4639 88.7683 67.4639 90.3035 64.9053C93.3737 59.7883 92.1377 58.858 91.8386 57.7415L82.8936 37.2036C82.5944 36.0871 81.7323 35.2111 80.6152 34.8794Z" fill="url(#paint5_linear_6484_75219)"/>
<path d="M77.7464 35.9603L77.7466 35.9601C78.1125 35.6379 78.5553 35.4133 79.0328 35.308C79.5103 35.2027 80.0061 35.2203 80.4728 35.3587C81.4263 35.6418 82.1573 36.3874 82.4106 37.333L82.4203 37.369L82.4352 37.4032L91.366 57.9088C91.4103 58.0647 91.467 58.2117 91.5196 58.3443C91.5292 58.3685 91.5387 58.3923 91.548 58.4157C91.5965 58.5371 91.6414 58.6499 91.6832 58.7729C91.7781 59.0527 91.8509 59.3722 91.8349 59.8047C91.8022 60.6895 91.3956 62.1133 89.8747 64.6481C89.1788 65.808 88.2707 66.3675 87.3106 66.5934C86.3313 66.8238 85.2678 66.713 84.2843 66.4671L84.2843 66.467L84.2738 66.4646L76.5637 64.7126L76.2371 65.6512L78.4521 66.7106C76.9126 72.1596 74.4529 76.8813 69.4829 78.213L33.7097 87.7984C28.5926 89.1695 23.3326 86.1638 21.9794 81.1136L15.0824 55.3735C14.4103 52.8654 15.0003 49.8377 16.1103 47.2096C16.6621 45.9034 17.3339 44.7165 18.0187 43.7676C18.6816 42.8493 19.3336 42.1859 19.8757 41.8389L57.6423 34.1408L57.6572 34.1377L57.6719 34.1338C62.789 32.7627 68.049 35.7684 69.4022 40.8186L69.7315 42.0477L69.94 42.8255L70.5447 42.2937L77.7464 35.9603Z" stroke="white" stroke-opacity="0.14"/>
<g filter="url(#filter0_i_6484_75219)">
<path d="M82.9068 30.3278C82.3587 30.1652 81.7768 30.1446 81.2168 30.2681C80.6568 30.3916 80.1373 30.655 79.7079 31.0332L72.5062 37.3667L72.1768 36.1376C70.7509 30.8158 65.2131 27.658 59.8341 29.0992L24.061 38.6846C18.682 40.1259 15.4651 45.6296 16.8911 50.9513L23.7881 76.6914C25.2141 82.0132 30.7518 85.171 36.1308 83.7297L71.9039 74.1443C77.2829 72.7031 80.4998 67.1994 79.0739 61.8776L78.7445 60.6485L88.1472 62.5294C88.7081 62.6444 89.2902 62.6141 89.8373 62.4416C90.3845 62.269 90.8783 61.9599 91.2712 61.544C92.0728 60.6982 92.3814 59.5085 92.0823 58.392L85.1853 32.652C84.8861 31.5355 84.024 30.6595 82.9068 30.3278Z" fill="url(#paint6_linear_6484_75219)"/>
</g>
<path d="M80.0381 31.4087L80.0383 31.4085C80.4041 31.0863 80.8469 30.8617 81.3245 30.7564C81.802 30.6511 82.2978 30.6687 82.7645 30.8071C83.7179 31.0902 84.4489 31.8358 84.7023 32.7814L91.5993 58.5214C91.8527 59.467 91.5924 60.4782 90.9083 61.2001L90.9078 61.2007C90.5736 61.5544 90.1531 61.8177 89.6869 61.9647C89.2207 62.1118 88.725 62.1375 88.2477 62.0396L88.2453 62.0391L78.8426 60.1583L78.0532 60.0003L78.2616 60.778L78.5909 62.007C79.9441 67.0572 76.8917 72.2903 71.7745 73.6614L36.0014 83.2468C30.8843 84.6179 25.6243 81.6122 24.2711 76.562L17.374 50.8219C16.0208 45.7718 19.0733 40.5387 24.1904 39.1676L59.9636 29.5822C65.0807 28.2111 70.3407 31.2168 71.6939 36.267L72.0232 37.4961L72.2316 38.2739L72.8364 37.7421L80.0381 31.4087Z" stroke="white" stroke-opacity="0.15"/>
<circle opacity="0.8" cx="35.5" cy="68.5" r="4.5" fill="url(#paint7_linear_6484_75219)"/>
<rect opacity="0.8" x="26.3418" y="48.2266" width="38.2269" height="6.14043" rx="3.07021" transform="rotate(-15 26.3418 48.2266)" fill="url(#paint8_linear_6484_75219)"/>
</g>
<defs>
<filter id="filter0_i_6484_75219" x="16.5527" y="28.75" width="75.6426" height="57.3281" filterUnits="userSpaceOnUse" color-interpolation-filters="sRGB">
<feFlood flood-opacity="0" result="BackgroundImageFix"/>
<feBlend mode="normal" in="SourceGraphic" in2="BackgroundImageFix" result="shape"/>
<feColorMatrix in="SourceAlpha" type="matrix" values="0 0 0 0 0 0 0 0 0 0 0 0 0 0 0 0 0 0 127 0" result="hardAlpha"/>
<feOffset dy="2"/>
<feGaussianBlur stdDeviation="1.15"/>
<feComposite in2="hardAlpha" operator="arithmetic" k2="-1" k3="1"/>
<feColorMatrix type="matrix" values="0 0 0 0 1 0 0 0 0 1 0 0 0 0 1 0 0 0 1 0"/>
<feBlend mode="normal" in2="shape" result="effect1_innerShadow_6484_75219"/>
</filter>
<linearGradient id="paint0_linear_6484_75219" x1="322.275" y1="92.2598" x2="275.598" y2="-41.7575" gradientUnits="userSpaceOnUse">
<stop stop-color="#F8C200"/>
<stop offset="1" stop-color="#FFF8BA"/>
</linearGradient>
<linearGradient id="paint1_linear_6484_75219" x1="230.427" y1="206.894" x2="-69.5452" y2="-66.6813" gradientUnits="userSpaceOnUse">
<stop stop-color="#F8C200"/>
<stop offset="1" stop-color="#FFF8BA"/>
</linearGradient>
<linearGradient id="paint2_linear_6484_75219" x1="179.37" y1="166.508" x2="-41.6257" y2="-35.04" gradientUnits="userSpaceOnUse">
<stop stop-color="#F8C200"/>
<stop offset="1" stop-color="#FFF8BA"/>
</linearGradient>
<linearGradient id="paint3_linear_6484_75219" x1="131.896" y1="128.957" x2="-15.6654" y2="-5.6192" gradientUnits="userSpaceOnUse">
<stop stop-color="#F8C200"/>
<stop offset="1" stop-color="#FFF8BA"/>
</linearGradient>
<linearGradient id="paint4_linear_6484_75219" x1="96.9623" y1="101.325" x2="3.43741" y2="16.0301" gradientUnits="userSpaceOnUse">
<stop stop-color="#F8C200"/>
<stop offset="1" stop-color="#FFF8BA"/>
</linearGradient>
<linearGradient id="paint5_linear_6484_75219" x1="39.6448" y1="89.4672" x2="73.5937" y2="65.0559" gradientUnits="userSpaceOnUse">
<stop stop-color="#FAD036"/>
<stop offset="0.789928" stop-color="#FDE785"/>
</linearGradient>
<linearGradient id="paint6_linear_6484_75219" x1="67.2814" y1="93.0555" x2="64.1665" y2="41.661" gradientUnits="userSpaceOnUse">
<stop stop-color="#FFE47E"/>
<stop offset="0.674494" stop-color="#FFFBDF"/>
</linearGradient>
<linearGradient id="paint7_linear_6484_75219" x1="50.125" y1="77.5" x2="26.5" y2="59.5" gradientUnits="userSpaceOnUse">
<stop offset="0.235941" stop-color="#FCCC18"/>
<stop offset="0.841302" stop-color="#FFF498"/>
</linearGradient>
<linearGradient id="paint8_linear_6484_75219" x1="98.3343" y1="67.8743" x2="98.6434" y2="45.8545" gradientUnits="userSpaceOnUse">
<stop offset="0.262221" stop-color="#FCCA10"/>
<stop offset="0.808069" stop-color="#FFEF9A"/>
</linearGradient>
<clipPath id="clip0_6484_75219">
<rect width="340" height="108" rx="8" fill="white"/>
</clipPath>
</defs>
</svg>
