<svg width="842" height="661" viewBox="0 0 842 661" fill="none" xmlns="http://www.w3.org/2000/svg">
<g clip-path="url(#clip0_6755_22840)">
<rect width="842" height="661" rx="16" fill="#FBF5FC"/>
<circle opacity="0.08" cx="18.9951" cy="330.995" r="868.995" fill="url(#paint0_linear_6755_22840)"/>
<circle opacity="0.08" cx="18.9957" cy="330.994" r="640.207" fill="url(#paint1_linear_6755_22840)"/>
<circle opacity="0.24" cx="18.9962" cy="330.996" r="427.473" fill="url(#paint2_linear_6755_22840)"/>
<circle opacity="0.8" cx="18.9979" cy="330.994" r="270.933" fill="url(#paint3_linear_6755_22840)"/>
<g opacity="0.8">
<path d="M49.2933 355.501C42.4296 318.53 38.9978 300.045 47.7038 286.088C48.363 285.031 49.0686 284.004 49.8185 283.009C59.7208 269.873 78.2061 266.441 115.177 259.578C152.147 252.714 170.633 249.282 184.59 257.988C185.647 258.648 186.674 259.353 187.669 260.103C200.804 270.005 204.236 288.491 211.1 325.461C217.964 362.432 221.395 380.917 212.689 394.874C212.03 395.931 211.325 396.959 210.575 397.953C200.672 411.089 182.187 414.521 145.216 421.384C108.246 428.248 89.7606 431.68 75.8032 422.974C74.7463 422.315 73.7191 421.609 72.7244 420.859C59.5888 410.957 56.157 392.472 49.2933 355.501Z" fill="url(#paint4_linear_6755_22840)"/>
<path d="M50.4521 355.286C47.0145 336.77 44.459 322.992 43.8366 312.097C43.2159 301.232 44.5314 293.401 48.7038 286.711C49.3447 285.684 50.0306 284.685 50.7596 283.718C55.5053 277.423 62.3431 273.384 72.7066 270.064C83.0991 266.734 96.8758 264.174 115.392 260.737C133.908 257.299 147.685 254.743 158.581 254.121C169.445 253.5 177.277 254.816 183.966 258.988C184.994 259.629 185.992 260.315 186.959 261.044C193.255 265.79 197.294 272.628 200.614 282.991C203.944 293.384 206.504 307.16 209.941 325.676C213.379 344.192 215.934 357.97 216.557 368.865C217.177 379.73 215.862 387.562 211.689 394.251C211.049 395.278 210.363 396.277 209.634 397.244C204.888 403.539 198.05 407.578 187.687 410.898C177.294 414.228 163.517 416.788 145.001 420.226C126.485 423.663 112.708 426.219 101.813 426.841C90.9479 427.462 83.1161 426.146 76.427 421.974C75.3995 421.333 74.4008 420.647 73.4338 419.918C67.1386 415.172 63.0997 408.335 59.7792 397.971C56.4496 387.579 53.8896 373.802 50.4521 355.286Z" stroke="white" stroke-opacity="0.2" stroke-width="2.35714"/>
</g>
<g filter="url(#filter0_i_6755_22840)">
<path d="M53.8411 345.619C47.243 310.079 43.9439 292.309 52.3131 278.891C52.9469 277.875 53.6251 276.888 54.346 275.932C63.8653 263.304 81.6355 260.005 117.176 253.407C152.716 246.809 170.486 243.51 183.904 251.879C184.92 252.513 185.907 253.191 186.863 253.912C199.491 263.431 202.79 281.201 209.388 316.742C215.986 352.282 219.285 370.052 210.916 383.469C210.282 384.485 209.604 385.473 208.883 386.429C199.364 399.057 181.594 402.356 146.053 408.954C110.513 415.552 92.7429 418.851 79.3255 410.482C78.3095 409.848 77.322 409.17 76.3658 408.449C63.7384 398.93 60.4393 381.16 53.8411 345.619Z" fill="url(#paint5_linear_6755_22840)"/>
</g>
<path d="M54.9999 345.404C51.6951 327.603 49.2392 314.362 48.641 303.892C48.0447 293.452 49.3091 285.934 53.3131 279.515C53.9285 278.528 54.5871 277.569 55.2871 276.641C59.8413 270.6 66.4045 266.721 76.3626 263.531C86.3496 260.331 99.59 257.87 117.391 254.566C135.192 251.261 148.433 248.805 158.903 248.207C169.343 247.61 176.861 248.875 183.28 252.879C184.267 253.494 185.226 254.153 186.154 254.853L186.863 253.912L186.154 254.853C192.195 259.407 196.074 265.97 199.264 275.928C202.464 285.915 204.925 299.156 208.229 316.957C211.534 334.758 213.99 347.999 214.588 358.469C215.185 368.909 213.92 376.427 209.916 382.846C209.301 383.832 208.642 384.791 207.942 385.72C203.388 391.761 196.825 395.64 186.867 398.83C176.88 402.03 163.639 404.49 145.838 407.795C128.037 411.1 114.796 413.556 104.326 414.154C93.8864 414.75 86.3684 413.486 79.9493 409.482L79.3255 410.482L79.9493 409.482C78.9627 408.867 78.0037 408.208 77.0752 407.508C71.034 402.954 67.1554 396.39 63.9648 386.432C60.7651 376.445 58.3047 363.205 54.9999 345.404Z" stroke="white" stroke-opacity="0.15" stroke-width="2.35714"/>
<path d="M181.346 267.25C184.852 268.189 186.026 272.571 183.46 275.137L170.778 287.819C168.212 290.385 163.83 289.211 162.891 285.706L158.249 268.382C157.309 264.876 160.517 261.669 164.022 262.608L181.346 267.25Z" fill="#A6D4F9"/>
<path fill-rule="evenodd" clip-rule="evenodd" d="M104.811 279.07L104.81 279.064L100.856 282.117L100.859 282.12L99.5263 286.321L99.5296 286.33L99.5252 286.324L99.524 286.328L99.5275 286.329L99.5223 286.33L100.919 290.224L100.921 290.229L102.303 290.938L102.823 293.735L102.825 293.739L103.941 293.532L106.778 296.375L109.386 293.866L109.388 293.87L111.2 294.307L111.201 294.309L111.888 295.432L110.818 297.943L110.817 297.946L110.819 297.94L107.804 298.697L107.784 298.704L107.781 298.711L107.782 298.706L104.673 298.512L104.675 298.508L104.667 298.51L104.665 298.513L101.408 300.081L100.331 302.6L100.333 302.599L100.766 304.933L99.4863 304.785L95.6051 305.12L92.8087 304.005L92.8025 303.994L91.7798 304.184L90.5554 306.931L89.7201 307.082L89.7182 307.089L89.7172 307.093L89.7159 307.085L87.9668 313.205L88.2095 314.512L88.2105 314.51L88.2118 314.517L88.2128 314.514L88.8874 318.148L88.8897 318.152L95.6725 319.483L95.4326 325.429L95.435 325.431L95.4349 325.434L98.0727 332.399L98.075 332.404L98.0783 332.408L98.0709 332.403L98.077 332.41L98.0732 332.408L101.736 336.596L102.172 338.94L102.173 338.935L102.175 338.945L102.175 338.937L102.177 338.947L102.427 335.114L102.424 335.12L102.425 335.111L95.437 325.436L103.146 331.747L104.64 336.694L104.639 336.703L104.642 336.701L104.078 339.877L104.082 339.871L104.079 339.888L104.083 339.881L104.081 339.893L108.205 333.409L108.193 333.421L108.203 333.404L108.197 333.41L108.205 333.398L106.736 325.383L106.734 325.382L106.734 325.379L106.727 325.372L105.042 321.046L105.04 321.042L100.236 319.14L100.226 319.13L98.2485 319.279L100.532 314.543L103.147 317.242L103.682 317.433L103.685 317.434L104.082 318.128L105.852 320.408L114.817 324.153L114.808 324.146L114.811 324.147L114.82 324.154L118.256 323.516L116.396 334.52L116.401 334.512L116.392 334.528L116.324 334.888L116.328 334.887L116.327 334.892L116.798 334.843L116.799 334.85L112.23 377.557L112.229 377.561L109.585 383.521L109.586 383.527L109.039 384.729L107.21 387.295L107.033 390.507L107.035 390.508L107.035 390.512L108.255 390.865L112.983 388.341L113.249 386.167L115.902 383.251L116.083 385.052L116.085 385.057L118.094 384.298L118.098 384.3L117.66 381.932L117.66 381.921L121.18 369.821L121.197 369.787L121.199 369.792C121.199 369.792 122.02 363.748 122.595 359.488L122.592 359.488L122.592 359.483L122.582 359.482C122.876 357.26 123.111 355.551 123.131 355.452C123.172 355.154 124.935 346.52 124.935 346.52L126.178 342.546L128.787 352.272L125.415 360.527L125.419 360.544L126.062 373.837L126.062 373.84L126.06 373.836L122.894 379.06L123.362 381.58L123.364 381.584L125.186 382.597L125.906 387L125.908 387.005L128.91 388.669L128.914 388.669C128.914 388.669 133.034 388.097 132.912 387.927L132.91 387.922C132.853 387.846 132.26 387.677 131.605 387.49C130.795 387.259 129.889 387.001 129.789 386.859L129.759 386.837C129.702 386.554 129.822 384.73 129.959 382.815L129.957 382.819L129.957 382.811L130.028 381.951C130.187 380.008 130.334 378.202 130.309 378.071L129.703 374.804L129.702 374.801L133.473 357.305L135.685 351.576L135.682 351.576L135.682 351.572L135.704 350.975L135.705 350.977L136.083 341.314L137.611 344.17L137.779 337.51C138.503 339.119 139.04 340.312 139.184 340.631L139.356 341.132L139.358 341.136L139.396 339.06L143.479 344.042L143.476 344.041L152.889 360.86L153.067 361.193L153.101 361.279L153.103 361.282L153.104 361.284L153.186 361.42L153.186 361.425L156.927 368.11L156.931 368.106L161.97 377.123L161.974 377.118L161.973 377.124L163.083 376.918L163.602 379.713L163.604 379.718L168.954 380.464L171.818 379.933L171.722 377.343L171.72 377.341L171.726 377.339L171.72 377.335L171.723 377.335L168.932 375.442L169.459 373.415L163.506 361.866L163.503 361.861L163.502 361.863L163.5 361.86L160.318 355.695L160.316 355.69L160.223 355.5L160.221 355.495L156.71 348.696L156.708 348.691L153.37 342.207L153.368 342.202L152.896 341.325L144.941 326.652L143.776 324.523L144.081 322.754L144.236 322.655L144.685 322.379L144.686 322.374L144.691 322.368L144.687 322.382L149.312 316.211L152.149 310.565L152.151 310.558L154.145 315.306L154.146 315.308L154.147 315.311L159.989 325.036L159.99 325.039C159.989 325.104 159.968 326.008 159.716 326.148C159.455 326.293 158.406 329.972 158.406 329.972L159.586 332.173L162.909 331.942L166.424 334.285L166.718 334.843L168.194 337.625L173.369 339.079L171.127 335.82L170.648 334.89L170.646 334.885L168.742 331.255L168.74 331.25L164.811 324.547L164.808 324.528L164.805 324.523L164.803 324.527L162.26 319.112L162.155 318.649L162.153 318.644L162.152 318.647L158.898 305.159L158.899 305.152L158.685 304.515L158.683 304.511L157.598 301.242L157.596 301.236L157.593 301.232L157.591 301.236L154.198 300.043L154.196 300.038L151.063 301.296L151.062 301.299L151.058 301.302L151.06 301.294L142.258 309.301L142.256 309.302L139.395 311.898L139.133 311.621L134.877 306.814L136.469 305.551L137.419 302.381L137.417 302.376L133.312 294.258L133.31 294.253L128.733 288.247L128.733 288.244L126.003 287.012L123.29 287.419L120.268 288.758L118.842 288.83L118.842 288.825L118.84 288.821L116.746 288.44L115.927 288.69L114.139 287.96L114.137 287.961L113.64 287.764L113.637 287.762L112.667 282.54L112.673 282.531L109.56 279.24L109.558 279.258L109.558 279.254L104.815 279.072L104.811 279.07ZM163.502 361.863L163.498 361.866L163.494 361.866L163.496 361.864L163.502 361.863ZM168.932 375.442L168.93 375.445L168.926 375.447L168.932 375.442ZM129.957 382.811L129.957 382.819L129.957 382.808L129.957 382.811ZM125.415 360.527L125.423 360.517L125.42 360.525L125.415 360.527ZM103.147 317.242L103.147 317.239L103.154 317.241L103.147 317.242ZM100.532 314.543L100.523 314.552L100.525 314.548L100.529 314.544L100.532 314.543ZM95.437 325.436L95.4349 325.434L95.4394 325.442L95.437 325.436ZM91.7798 304.184L91.7806 304.198L91.7791 304.201L91.7798 304.184ZM100.766 304.933L100.768 304.935L100.761 304.937L100.766 304.933ZM99.5275 286.329L99.5263 286.332L99.5296 286.33L99.5275 286.329ZM100.526 314.542L100.523 314.544L100.526 314.54L100.526 314.542Z" fill="#239DFF"/>
<path d="M93.6651 328.851L94.8227 320.581L94.8233 320.597L94.825 320.585L94.8252 320.59L94.8264 320.582L94.8271 320.598L94.8287 320.587L95.3194 330.483L95.3145 330.478L95.317 330.481L95.2242 331.47L95.2275 331.56L94.8635 335.298L94.8617 335.288L94.8612 335.293L93.6651 328.851Z" fill="#239DFF"/>
<path d="M111.222 328.525L107.967 323.527L109.798 328.21L110.191 331.579L110.192 331.575L110.193 331.584L111.223 328.533L111.224 328.529L111.222 328.525Z" fill="#239DFF"/>
<path d="M124.653 382.323L123.265 381.788L122.762 387.677L122.766 387.667L122.764 387.682L124.656 382.327L124.652 382.326L124.653 382.323Z" fill="#239DFF"/>
<path d="M161.797 332.253L160.309 332.317L162.139 337.927L162.139 337.924L162.141 337.932L161.799 332.258L161.797 332.253Z" fill="#239DFF"/>
</g>
<rect x="0.5" y="0.5" width="841" height="660" rx="15.5" stroke="white"/>
<defs>
<filter id="filter0_i_6755_22840" x="47.3223" y="246.889" width="168.584" height="173.298" filterUnits="userSpaceOnUse" color-interpolation-filters="sRGB">
<feFlood flood-opacity="0" result="BackgroundImageFix"/>
<feBlend mode="normal" in="SourceGraphic" in2="BackgroundImageFix" result="shape"/>
<feColorMatrix in="SourceAlpha" type="matrix" values="0 0 0 0 0 0 0 0 0 0 0 0 0 0 0 0 0 0 127 0" result="hardAlpha"/>
<feOffset dy="4.71429"/>
<feGaussianBlur stdDeviation="2.71071"/>
<feComposite in2="hardAlpha" operator="arithmetic" k2="-1" k3="1"/>
<feColorMatrix type="matrix" values="0 0 0 0 1 0 0 0 0 1 0 0 0 0 1 0 0 0 1 0"/>
<feBlend mode="normal" in2="shape" result="effect1_innerShadow_6755_22840"/>
</filter>
<linearGradient id="paint0_linear_6755_22840" x1="797.387" y1="946.692" x2="-406.653" y2="-151.393" gradientUnits="userSpaceOnUse">
<stop stop-color="#3D9DEB"/>
<stop offset="1" stop-color="#CFE9FF"/>
</linearGradient>
<linearGradient id="paint1_linear_6755_22840" x1="592.453" y1="784.59" x2="-294.588" y2="-24.3913" gradientUnits="userSpaceOnUse">
<stop stop-color="#3D9DEB"/>
<stop offset="1" stop-color="#CFE9FF"/>
</linearGradient>
<linearGradient id="paint2_linear_6755_22840" x1="401.9" y1="633.867" x2="-190.387" y2="93.7018" gradientUnits="userSpaceOnUse">
<stop stop-color="#3D9DEB"/>
<stop offset="1" stop-color="#CFE9FF"/>
</linearGradient>
<linearGradient id="paint3_linear_6755_22840" x1="261.683" y1="522.954" x2="-113.71" y2="180.596" gradientUnits="userSpaceOnUse">
<stop stop-color="#3D9DEB"/>
<stop offset="1" stop-color="#CFE9FF"/>
</linearGradient>
<linearGradient id="paint4_linear_6755_22840" x1="80.7053" y1="417.421" x2="82.2312" y2="302.928" gradientUnits="userSpaceOnUse">
<stop stop-color="#3D9DEB"/>
<stop offset="1" stop-color="#CFE9FF"/>
</linearGradient>
<linearGradient id="paint5_linear_6755_22840" x1="161.958" y1="464.901" x2="181.742" y2="295.744" gradientUnits="userSpaceOnUse">
<stop stop-color="#76C2FF"/>
<stop offset="0.743256" stop-color="#EDF7FF"/>
</linearGradient>
<clipPath id="clip0_6755_22840">
<rect width="842" height="661" rx="16" fill="white"/>
</clipPath>
</defs>
</svg>
