<svg width="184" height="184" viewBox="0 0 184 184" fill="none" xmlns="http://www.w3.org/2000/svg">
<path d="M150.3 50.116C149.099 49.7598 147.824 49.7148 146.598 49.9853C145.371 50.2558 144.233 50.8328 143.292 51.6613L127.517 65.5345L126.796 62.8422C123.672 51.185 111.542 44.2678 99.7595 47.4249L16.8409 64.3265C11.2368 67.6901 2.57021 83.6343 5.69375 95.2914L20.8015 151.674C23.9251 163.332 36.0554 170.249 47.8379 167.092L126.198 146.095C137.981 142.938 143.5 131.579 146.862 119.25L141.182 116.533L158.071 120.371C162.555 121.492 168.159 121.492 171.522 115.887C178.247 104.678 175.54 102.641 174.884 100.195L155.291 55.2071C154.635 52.7615 152.747 50.8427 150.3 50.116Z" fill="url(#paint0_linear_6732_26902)"/>
<path d="M144.016 52.4837L144.016 52.4832C144.818 51.7775 145.788 51.2855 146.834 51.0548C147.88 50.8242 148.966 50.8627 149.988 51.166C152.076 51.7862 153.678 53.4193 154.233 55.4906L154.254 55.5695L154.286 55.6444L173.849 100.561C173.946 100.903 174.07 101.225 174.186 101.515C174.207 101.568 174.227 101.62 174.248 101.672C174.354 101.938 174.452 102.185 174.544 102.454C174.752 103.067 174.911 103.767 174.876 104.714C174.805 106.652 173.914 109.771 170.582 115.324C169.058 117.864 167.069 119.09 164.966 119.585C162.821 120.089 160.491 119.847 158.337 119.308L158.325 119.305L158.314 119.303L141.425 115.465L140.71 117.521L145.562 119.842C142.189 131.777 136.801 142.12 125.915 145.037L47.5544 166.034C36.3455 169.037 24.8236 162.453 21.8594 151.391L6.75167 95.008C5.27955 89.514 6.57179 82.8818 9.00338 77.125C10.2119 74.2638 11.6835 71.664 13.1837 69.5855C14.6357 67.5738 16.0639 66.1208 17.2514 65.3605L99.9783 48.4981L100.011 48.4915L100.043 48.4828C111.252 45.4794 122.774 52.0634 125.738 63.1257L126.459 65.818L126.916 67.5219L128.241 66.3569L144.016 52.4837Z" stroke="white" stroke-opacity="0.14" stroke-width="2.19048"/>
<g filter="url(#filter0_i_6732_26902)">
<path d="M155.32 40.1459C154.119 39.7897 152.845 39.7447 151.618 40.0152C150.392 40.2857 149.254 40.8627 148.313 41.6912L132.538 55.5644L131.816 52.8721C128.693 41.2149 116.563 34.2977 104.78 37.4548L26.4198 58.4514C14.6373 61.6085 7.59071 73.6642 10.7142 85.3214L25.822 141.704C28.9456 153.362 41.0759 160.279 52.8584 157.122L131.219 136.125C143.001 132.968 150.048 120.912 146.924 109.255L146.203 106.563L166.799 110.683C168.028 110.935 169.303 110.868 170.501 110.49C171.7 110.112 172.782 109.435 173.642 108.524C175.398 106.672 176.074 104.066 175.419 101.62L160.311 45.237C159.656 42.7914 157.767 40.8726 155.32 40.1459Z" fill="url(#paint1_linear_6732_26902)"/>
</g>
<path d="M149.036 42.5136L149.037 42.5131C149.838 41.8074 150.808 41.3154 151.854 41.0847C152.9 40.8541 153.986 40.8926 155.009 41.1959C157.097 41.8162 158.698 43.4493 159.253 45.5205L174.361 101.903C174.916 103.975 174.346 106.19 172.847 107.771L172.846 107.772C172.114 108.547 171.193 109.124 170.172 109.446C169.151 109.768 168.065 109.824 167.019 109.61L167.014 109.609L146.418 105.489L144.688 105.143L145.145 106.846L145.866 109.539C148.83 120.601 142.144 132.064 130.935 135.067L52.5749 156.064C41.366 159.067 29.8441 152.483 26.8799 141.421L11.7722 85.0379C8.80804 73.9756 15.4943 62.5127 26.7033 59.5093L105.063 38.5128C116.272 35.5093 127.794 42.0933 130.758 53.1556L131.48 55.8479L131.936 57.5518L133.261 56.3869L149.036 42.5136Z" stroke="white" stroke-opacity="0.15" stroke-width="2.19048"/>
<circle opacity="0.8" cx="51.4763" cy="123.761" r="9.85714" fill="url(#paint2_linear_6732_26902)"/>
<rect opacity="0.8" x="31.416" y="79.3535" width="83.7351" height="13.4505" rx="6.72523" transform="rotate(-15 31.416 79.3535)" fill="url(#paint3_linear_6732_26902)"/>
<defs>
<filter id="filter0_i_6732_26902" x="9.97461" y="36.6914" width="165.689" height="125.574" filterUnits="userSpaceOnUse" color-interpolation-filters="sRGB">
<feFlood flood-opacity="0" result="BackgroundImageFix"/>
<feBlend mode="normal" in="SourceGraphic" in2="BackgroundImageFix" result="shape"/>
<feColorMatrix in="SourceAlpha" type="matrix" values="0 0 0 0 0 0 0 0 0 0 0 0 0 0 0 0 0 0 127 0" result="hardAlpha"/>
<feOffset dy="4.38095"/>
<feGaussianBlur stdDeviation="2.51905"/>
<feComposite in2="hardAlpha" operator="arithmetic" k2="-1" k3="1"/>
<feColorMatrix type="matrix" values="0 0 0 0 1 0 0 0 0 1 0 0 0 0 1 0 0 0 1 0"/>
<feBlend mode="normal" in2="shape" result="effect1_innerShadow_6732_26902"/>
</filter>
<linearGradient id="paint0_linear_6732_26902" x1="60.5551" y1="169.689" x2="134.919" y2="116.217" gradientUnits="userSpaceOnUse">
<stop stop-color="#FAD036"/>
<stop offset="0.789928" stop-color="#FDE785"/>
</linearGradient>
<linearGradient id="paint1_linear_6732_26902" x1="121.093" y1="177.549" x2="114.27" y2="64.971" gradientUnits="userSpaceOnUse">
<stop stop-color="#FFE47E"/>
<stop offset="0.674494" stop-color="#FFFBDF"/>
</linearGradient>
<linearGradient id="paint2_linear_6732_26902" x1="83.512" y1="143.476" x2="31.762" y2="104.047" gradientUnits="userSpaceOnUse">
<stop offset="0.235941" stop-color="#FCCC18"/>
<stop offset="0.841302" stop-color="#FFF498"/>
</linearGradient>
<linearGradient id="paint3_linear_6732_26902" x1="189.114" y1="122.391" x2="189.791" y2="74.1576" gradientUnits="userSpaceOnUse">
<stop offset="0.262221" stop-color="#FCCA10"/>
<stop offset="0.808069" stop-color="#FFEF9A"/>
</linearGradient>
</defs>
</svg>
