<svg width="348" height="108" viewBox="0 0 348 108" fill="none" xmlns="http://www.w3.org/2000/svg">
<g clipPath="url(#clip0_6122_104705)">
<rect width="348" height="108" rx="8" fill="white"/>
<rect opacity="0.16" width="348" height="108" fill="url(#paint0_linear_6122_104705)"/>
<circle opacity="0.08" cx="36.5" cy="53.5" r="229.5" fill="url(#paint1_linear_6122_104705)"/>
<circle opacity="0.08" cx="36.5" cy="53.5" r="159.5" fill="url(#paint2_linear_6122_104705)"/>
<circle opacity="0.24" cx="36.5" cy="53.5" r="106.5" fill="url(#paint3_linear_6122_104705)"/>
<circle opacity="0.8" cx="36.5" cy="53.5" r="67.5" fill="url(#paint4_linear_6122_104705)"/>
<g opacity="0.8">
<path d="M19.7607 64.3949C16.8489 48.7104 15.3929 40.8681 19.0864 34.9468C19.3661 34.4985 19.6654 34.0626 19.9835 33.6407C24.1845 28.068 32.0268 26.6121 47.7113 23.7002C63.3958 20.7883 71.238 19.3324 77.1593 23.0259C77.6077 23.3055 78.0435 23.6049 78.4655 23.923C84.0382 28.124 85.4941 35.9663 88.406 51.6508C91.3178 67.3352 92.7737 75.1775 89.0803 81.0988C88.8006 81.5472 88.5013 81.983 88.1832 82.405C83.9822 87.9776 76.1399 89.4336 60.4554 92.3454C44.7709 95.2573 36.9287 96.7132 31.0074 93.0198C30.559 92.7401 30.1232 92.4408 29.7012 92.1226C24.1285 87.9216 22.6726 80.0794 19.7607 64.3949Z" fill="url(#paint5_linear_6122_104705)"/>
<path d="M20.2523 64.3036C18.794 56.4483 17.7098 50.6033 17.4458 45.9811C17.1824 41.3719 17.7405 38.0493 19.5106 35.2115C19.7825 34.7756 20.0735 34.3519 20.3828 33.9416C22.3961 31.2709 25.297 29.5574 29.6937 28.1488C34.1026 26.7362 39.9472 25.6502 47.8026 24.1918C55.6579 22.7335 61.5029 21.6493 66.125 21.3852C70.7343 21.1219 74.0569 21.68 76.8947 23.4501C77.3306 23.722 77.7543 24.013 78.1645 24.3223C80.8352 26.3356 82.5487 29.2365 83.9574 33.6331C85.37 38.0421 86.456 43.8867 87.9144 51.742C89.3727 59.5973 90.4569 65.4423 90.7209 70.0645C90.9843 74.6738 90.4262 77.9964 88.6561 80.8342C88.3842 81.2701 88.0932 81.6938 87.7839 82.104C85.7706 84.7747 82.8697 86.4882 78.473 87.8969C74.0641 89.3094 68.2194 90.3955 60.3641 91.8538C52.5088 93.3122 46.6638 94.3964 42.0417 94.6604C37.4324 94.9237 34.1098 94.3656 31.272 92.5955C30.8361 92.3236 30.4124 92.0326 30.0022 91.7234C27.3315 89.71 25.618 86.8092 24.2093 82.4125C22.7967 78.0036 21.7107 72.1589 20.2523 64.3036Z" stroke="white" stroke-opacity="0.2"/>
</g>
<g filter="url(#filter0_i_6122_104705)">
<path d="M21.689 60.2018C18.8898 45.1241 17.4902 37.5853 21.0408 31.893C21.3096 31.462 21.5974 31.043 21.9032 30.6374C25.9417 25.2803 33.4806 23.8807 48.5583 21.0815C63.636 18.2823 71.1749 16.8827 76.8671 20.4332C77.2981 20.7021 77.7171 20.9898 78.1227 21.2957C83.4798 25.3341 84.8794 32.873 87.6786 47.9507C90.4779 63.0285 91.8775 70.5673 88.3269 76.2595C88.058 76.6906 87.7703 77.1095 87.4645 77.5152C83.426 82.8723 75.8871 84.2719 60.8094 87.0711C45.7317 89.8703 38.1928 91.2699 32.5006 87.7194C32.0695 87.4505 31.6506 87.1627 31.2449 86.8569C25.8878 82.8184 24.4882 75.2796 21.689 60.2018Z" fill="url(#paint6_linear_6122_104705)"/>
</g>
<path d="M22.1806 60.1106C20.7786 52.5587 19.7367 46.9412 19.4829 42.4994C19.2299 38.0704 19.7664 34.8809 21.465 32.1577C21.7261 31.7391 22.0055 31.3323 22.3025 30.9384C24.2346 28.3754 27.0189 26.7299 31.2436 25.3764C35.4805 24.0189 41.0976 22.9751 48.6496 21.5731C56.2015 20.171 61.8189 19.1291 66.2608 18.8754C70.6897 18.6224 73.8792 19.1588 76.6025 20.8575C77.021 21.1185 77.4279 21.398 77.8218 21.6949C80.3847 23.627 82.0302 26.4114 83.3837 30.636C84.7412 34.873 85.785 40.4901 87.187 48.042C88.5891 55.5939 89.631 61.2114 89.8847 65.6532C90.1378 70.0822 89.6013 73.2717 87.9027 75.9949C87.6416 76.4135 87.3622 76.8203 87.0652 77.2142C85.1331 79.7771 82.3487 81.4226 78.1241 82.7762C73.8872 84.1337 68.27 85.1775 60.7181 86.5795C53.1662 87.9815 47.5487 89.0235 43.1069 89.2772C38.6779 89.5302 35.4885 88.9938 32.7652 87.2951C32.3467 87.034 31.9398 86.7546 31.5459 86.4577C28.983 84.5256 27.3375 81.7412 25.9839 77.5165C24.6265 73.2796 23.5827 67.6625 22.1806 60.1106Z" stroke="white" stroke-opacity="0.15"/>
<path d="M71.4504 56.0493L72.4004 57.4301L70.2049 56.8132L69.5781 55.6348L71.2462 55.6529L71.4504 56.0493Z" fill="#239DFF"/>
<path d="M70.4378 54.1108L71.2456 55.649L69.2804 54.0306L68.7656 51.2578L70.4378 54.1108Z" fill="#239DFF"/>
<path d="M69.2812 54.0312L71.2465 55.6497L69.5783 55.6315L69.2812 54.0312Z" fill="#239DFF"/>
<path d="M69.2829 54.0348L69.58 55.6351L69.4541 55.3963L67.9639 54.4026L67.2773 53.3418L69.2829 54.0348Z" fill="#239DFF"/>
<path d="M68.7685 51.2569L69.2833 54.0297L67.2777 53.3366L68.7685 51.2569Z" fill="#239DFF"/>
<path d="M67.6878 48.9593L68.7675 51.2585L66.7264 51.4735L67.6431 48.7627L67.6878 48.9593Z" fill="#239DFF"/>
<path d="M68.7666 51.2596L67.2758 53.3393L66.7256 51.4746L68.7666 51.2596Z" fill="#239DFF"/>
<path d="M67.6425 48.7652L65.6829 46.9573L66.2612 43.0391L67.6425 48.7652Z" fill="#239DFF"/>
<path d="M65.6826 46.957L67.6422 48.765L66.7255 51.4757L65.6826 46.957Z" fill="#239DFF"/>
<path d="M66.1709 42.7667L66.2618 43.0367L65.6836 46.9548L63.3989 45.3302L66.1709 42.7667Z" fill="#239DFF"/>
<path d="M65.7088 41.3755L66.1708 42.7649L64.672 43.0432L65.7088 41.3755Z" fill="#239DFF"/>
<path d="M66.1709 42.7667L63.3989 45.3302L64.6721 43.045L66.1709 42.7667Z" fill="#239DFF"/>
<path d="M65.7099 41.3781L64.673 43.0458L64.6215 42.7685L64.2686 40.8672L65.7099 41.3781Z" fill="#239DFF"/>
<path d="M70.7072 73.8887L71.7017 73.6631L71.7425 74.7619L70.5277 74.9875L70.7072 73.8887Z" fill="#239DFF"/>
<path d="M71.7033 73.6617L70.7088 73.8873L70.5176 72.8574L71.7033 73.6617Z" fill="#239DFF"/>
<path d="M67.2764 53.3414L67.963 54.4022L66.5531 54.5001L66.0537 53.5684L67.2764 53.3414Z" fill="#239DFF"/>
<path d="M66.7257 51.4737L67.2759 53.3384L66.0532 53.5654C66.0532 53.5654 66.4984 52.0076 66.6094 51.946C66.7204 51.8844 66.7257 51.4737 66.7257 51.4737Z" fill="#239DFF"/>
<path d="M68.216 67.0972L70.7413 71.9963L67.8268 70.759L68.216 67.0972Z" fill="#239DFF"/>
<path d="M70.7417 71.9971L70.518 72.8581L67.8271 70.7598L70.7417 71.9971Z" fill="#239DFF"/>
<path d="M65.6831 46.9567L66.726 51.4754L64.2457 47.3465L63.3984 45.332L65.6831 46.9567Z" fill="#239DFF"/>
<path d="M70.5154 72.8585L70.7066 73.8884L68.0363 73.4827L70.5154 72.8585Z" fill="#239DFF"/>
<path d="M67.8276 70.7598L70.5184 72.8581L68.0393 73.4823L67.566 73.5702L67.8276 70.7598Z" fill="#239DFF"/>
<path d="M70.7075 73.8881L70.5279 74.9869L68.0371 73.4824L70.7075 73.8881Z" fill="#239DFF"/>
<path d="M64.6199 42.7677L64.6714 43.0449L63.3983 45.3301L62.4626 43.455L64.6199 42.7677Z" fill="#239DFF"/>
<path d="M64.2674 40.8692L64.6204 42.7706L62.4631 43.4579L64.2674 40.8692Z" fill="#239DFF"/>
<path d="M64.2674 40.8692L62.4631 43.4579L62.9384 41.4028L64.2674 40.8692Z" fill="#239DFF"/>
<path d="M70.5279 74.9869L68.2577 74.6708L68.0371 73.4824L70.5279 74.9869Z" fill="#239DFF"/>
<path d="M66.8637 64.4791L68.2147 67.0967L63.8385 66.9093L63.8031 66.8503L66.8637 64.4791Z" fill="#239DFF"/>
<path d="M68.2161 67.0968L67.8269 70.7586L65.4273 69.7453L68.2161 67.0968Z" fill="#239DFF"/>
<path d="M68.2141 67.0975L65.4252 69.7461L63.8379 66.9102L68.2141 67.0975Z" fill="#239DFF"/>
<path d="M62.9372 41.402L62.4619 43.4571L59.2022 44.7999L62.9372 41.402Z" fill="#239DFF"/>
<path d="M62.4624 43.4581L63.3981 45.3332L62.1943 47.7285L60.2322 50.3464L62.4624 43.4581Z" fill="#239DFF"/>
<path d="M66.824 64.3964L66.8638 64.4792L63.8032 66.8504L63.7879 66.8122L65.1926 64.0928L66.824 64.3964Z" fill="#239DFF"/>
<path d="M65.3329 61.5098L66.8236 64.3964L65.1923 64.0928L65.3329 61.5098Z" fill="#239DFF"/>
<path d="M67.8264 70.7594L67.5647 73.5697L65.4268 69.7461L67.8264 70.7594Z" fill="#239DFF"/>
<path d="M62.4618 43.4568L60.2316 50.3451L60.0412 50.4624L59.9949 50.389L57.2927 48.8009L62.4618 43.4568Z" fill="#239DFF"/>
<path d="M62.4618 43.4568L57.2927 48.8009L56.9324 46.8599L57.9868 45.902L59.202 44.7995L62.4618 43.4568Z" fill="#239DFF"/>
<path d="M63.9163 58.757L65.3332 61.5098L63.3106 60.5495L63.7165 58.3843L63.9163 58.757Z" fill="#239DFF"/>
<path d="M65.3327 61.5094L65.192 64.0924C65.192 64.0924 63.3531 63.4176 63.2724 63.2031L65.3327 61.5094Z" fill="#239DFF"/>
<path d="M65.3332 61.5113L63.273 63.205C63.1924 62.9905 63.3107 60.5509 63.3107 60.5509L65.3332 61.5113Z" fill="#239DFF"/>
<path d="M65.193 64.0949L63.7883 66.8142L63.713 66.6725L63.2813 63.2041C63.354 63.4201 65.193 64.0949 65.193 64.0949Z" fill="#239DFF"/>
<path d="M60.3408 52.1602L63.7161 58.3848L63.3102 60.5499L60.3408 52.1602Z" fill="#239DFF"/>
<path d="M60.34 52.1587L63.3094 60.5485L59.5544 52.5422L60.34 52.1587Z" fill="#239DFF"/>
<path d="M59.5563 52.5445L63.3113 60.5508L56.7641 53.6366L59.5563 52.5445Z" fill="#239DFF"/>
<path d="M56.7639 53.6343L63.3111 60.5485L56.8925 56.0854L56.6707 56.0774L56.7639 53.6343Z" fill="#239DFF"/>
<path d="M56.8926 56.0859L63.3111 60.5491L59.7201 59.5357L56.8926 56.0859Z" fill="#239DFF"/>
<path d="M59.7197 59.5371L63.3108 60.5505C63.3108 60.5505 63.1925 62.99 63.2731 63.2045L59.7197 59.5371Z" fill="#239DFF"/>
<path d="M59.7197 59.5371L63.2731 63.2045L63.7048 66.6729L59.7197 59.5371Z" fill="#239DFF"/>
<path d="M59.9955 50.3875L60.0417 50.4609L59.5751 50.7606L58.0578 51.7306L57.6055 52.0195L56.8039 52.5371L57.2933 48.7994L59.9955 50.3875Z" fill="#239DFF"/>
<path d="M60.3411 52.1598L59.5555 52.5433L59.5755 50.7612L60.3411 52.1598Z" fill="#239DFF"/>
<path d="M58.0591 51.7299L59.5764 50.7598L59.5563 52.5419L58.0591 51.7299Z" fill="#239DFF"/>
<path d="M59.5566 52.5455L56.7644 53.6375L58.0593 51.7335L59.5566 52.5455Z" fill="#239DFF"/>
<path d="M57.8773 45.7833L57.9891 45.9019L56.9347 46.8598L56.1111 43.8739L56.0703 43.7422L57.8773 45.7833Z" fill="#239DFF"/>
<path d="M55.407 38.4151L57.1485 41.8616L53.2817 41.4732L55.407 38.4151Z" fill="#239DFF"/>
<path d="M57.149 41.8611L56.7459 43.2063L53.2822 41.4727L57.149 41.8611Z" fill="#239DFF"/>
<path d="M56.7459 43.2063L56.07 43.7415L54.0359 45.3566L53.9956 45.3149L53.2822 41.4727L56.7459 43.2063Z" fill="#239DFF"/>
<path d="M58.0593 51.7335L56.7644 53.6375L56.8054 52.5399L57.607 52.0223L58.0593 51.7335Z" fill="#239DFF"/>
<path d="M53.4645 35.8663L55.4066 38.415L53.2814 41.473L53.4645 35.8663Z" fill="#239DFF"/>
<path d="M56.9331 46.8589L57.2934 48.7999L56.8041 52.5376L55.5332 46.791L56.9331 46.8589Z" fill="#239DFF"/>
<path d="M56.11 43.8755L56.9337 46.8614L55.5338 46.7935L56.0943 43.8785L56.11 43.8755Z" fill="#239DFF"/>
<path d="M56.0706 43.7413L56.1114 43.873L56.0956 43.876L55.5351 46.791L54.0365 45.3564L56.0706 43.7413Z" fill="#239DFF"/>
<path d="M54.0135 45.3687L56.8052 52.5376C56.8052 52.5376 55.3291 51.3119 54.7488 50.9115C54.6271 50.8276 54.5443 50.7774 54.5221 50.7897L53.0258 46.1585L54.0135 45.3687Z" fill="#239DFF"/>
<path d="M56.8064 52.5367L56.7654 53.6343L56.6722 56.0774L56.5841 58.372L55.2501 53.6042L56.8064 52.5367Z" fill="#239DFF"/>
<path d="M56.8055 52.538L55.2491 53.6055C55.2491 53.6055 55.2477 53.5975 55.2462 53.5896C55.2462 53.5896 55.2462 53.5896 55.2447 53.5817C55.169 53.3499 54.7555 50.9025 54.7555 50.9025C55.3293 51.3123 56.8055 52.538 56.8055 52.538Z" fill="#239DFF"/>
<path d="M53.4649 35.8655L53.2817 41.4723L51.6305 38.9515L51.1558 35.5156L52.307 35.3429L53.4649 35.8655Z" fill="#239DFF"/>
<path d="M56.5824 58.375L56.422 62.4778L53.6475 56.4121L56.5824 58.375Z" fill="#239DFF"/>
<path d="M55.2483 53.6055L56.5823 58.3734L53.6473 56.4105L55.2483 53.6055Z" fill="#239DFF"/>
<path d="M54.0133 45.3687L53.0256 46.1585L50.3442 48.2872L50.1522 48.5277L50.1945 45.2827L53.9951 45.3147L54.0133 45.3687Z" fill="#239DFF"/>
<path d="M53.2815 41.4733L53.9948 45.3156L50.1942 45.2836L50.4657 44.9873L52.2208 42.793L53.2815 41.4733Z" fill="#239DFF"/>
<path d="M51.6296 38.9497L53.2809 41.4706L51.0627 41.3906L51.6296 38.9497Z" fill="#239DFF"/>
<path d="M53.2818 41.4716L52.2211 42.7912L52.1245 42.7108L52.0216 42.1563C52.0216 42.1563 51.4848 41.6823 51.4255 41.7588C51.3663 41.8354 49.6585 42.0869 49.6112 42.0957L51.0557 41.3931L53.2818 41.4716Z" fill="#239DFF"/>
<path d="M55.2492 53.6079L53.6482 56.4129L53.2641 50.7393C53.2641 50.7393 55.0966 53.3576 55.2384 53.5935C55.2398 53.6014 55.2398 53.6014 55.2398 53.6014C55.2477 53.5999 55.2492 53.6079 55.2492 53.6079Z" fill="#239DFF"/>
<path d="M54.7478 50.9114C54.7478 50.9114 55.1613 53.3587 55.237 53.5905C55.0953 53.3546 53.2627 50.7363 53.2627 50.7363C53.2627 50.7363 54.4102 50.8511 54.5132 50.791C54.5433 50.7772 54.6261 50.8274 54.7478 50.9114Z" fill="#239DFF"/>
<path d="M53.025 46.1613L54.5213 50.7924L50.1517 48.5304L50.3437 48.2899L53.025 46.1613Z" fill="#239DFF"/>
<path d="M50.1523 48.5312L54.522 50.7932C54.411 50.8548 53.2714 50.7386 53.2714 50.7386L50.1523 48.5312Z" fill="#239DFF"/>
<path d="M56.4216 62.4759L56.412 62.7318L54.185 61.1538L52.7003 60.1018L53.6471 56.4102L56.4216 62.4759Z" fill="#239DFF"/>
<path d="M54.1845 61.1543L56.4115 62.7323L54.8733 63.0179L53.4881 63.0292L54.1845 61.1543Z" fill="#239DFF"/>
<path d="M56.4133 62.732L55.4767 65.1596L54.875 63.0176L56.4133 62.732Z" fill="#239DFF"/>
<path d="M51.1555 35.5147L51.6302 38.9505L49.8733 36.0806L51.1555 35.5147Z" fill="#239DFF"/>
<path d="M49.8739 36.0837L51.6308 38.9537L48.9621 38.4247L49.2676 36.1143L49.8739 36.0837Z" fill="#239DFF"/>
<path d="M51.6301 38.9508L51.0632 41.3917L49.091 41.7578L51.6301 38.9508Z" fill="#239DFF"/>
<path d="M51.6287 38.9508L49.0896 41.7578L48.748 40.7969L51.6287 38.9508Z" fill="#239DFF"/>
<path d="M51.6302 38.9538L48.7495 40.7998L48.1572 39.1478L48.077 39.0234L48.1278 38.9894L48.9614 38.4248L51.6302 38.9538Z" fill="#239DFF"/>
<path d="M52.1244 42.7113L52.2209 42.7917L50.4658 44.9861L50.1943 45.2823L50.1429 45.005L50.0737 44.6327L51.409 43.2538L51.7048 42.2974L52.1244 42.7113Z" fill="#239DFF"/>
<path d="M52.0205 42.1586L52.1235 42.7132L51.7039 42.2994L51.1993 42.1308L50.3061 42.5507L49.6115 42.1059C49.6589 42.0972 51.3667 41.8457 51.4259 41.7691C51.4837 41.6846 52.0205 42.1586 52.0205 42.1586Z" fill="#239DFF"/>
<path d="M51.7048 42.2975L51.409 43.2539L51.2002 42.1289L51.7048 42.2975Z" fill="#239DFF"/>
<path d="M50.1523 48.5312L53.2714 50.7386L53.6477 56.4136L50.1523 48.5312Z" fill="#239DFF"/>
<path d="M51.2005 42.1304L51.4093 43.2554L50.3073 42.5503L51.2005 42.1304Z" fill="#239DFF"/>
<path d="M54.8732 63.0201L55.4748 65.1621L52.0573 66.5342L54.8732 63.0201Z" fill="#239DFF"/>
<path d="M55.4747 65.1593L53.8749 72.5862L53.5959 71.6546L52.0572 66.5314L55.4747 65.1593Z" fill="#239DFF"/>
<path d="M51.063 41.3936L49.6184 42.0962L49.0908 41.7598L51.063 41.3936Z" fill="#239DFF"/>
<path d="M51.4094 43.2554L50.0741 44.6343L50.1866 43.4824L51.4094 43.2554Z" fill="#239DFF"/>
<path d="M51.4094 43.2549L50.1867 43.4819L48.728 43.0971L49.0916 41.7593L49.6192 42.0957L50.3074 42.5498L51.4094 43.2549Z" fill="#239DFF"/>
<path d="M50.1518 48.5288L53.6471 56.4112L51.7771 56.6682L50.1381 49.818L50.1518 48.5288Z" fill="#239DFF"/>
<path d="M53.6483 56.4109L52.7016 60.1025L52.3804 58.9L51.7783 56.668L53.6483 56.4109Z" fill="#239DFF"/>
<path d="M54.8733 63.0176L52.0575 66.5316L53.4882 63.0289L54.8733 63.0176Z" fill="#239DFF"/>
<path d="M52.7002 60.1035L54.1849 61.1555L53.4884 63.0304L52.7002 60.1035Z" fill="#239DFF"/>
<path d="M49.268 36.1104L48.9625 38.4208L48.8681 38.1761L48.3809 35.9473L49.268 36.1104Z" fill="#239DFF"/>
<path d="M50.1877 43.4835L50.0752 44.6353L50.1443 45.0076L48.9643 44.3662L50.1877 43.4835Z" fill="#239DFF"/>
<path d="M50.1872 43.4825L48.9638 44.3652L48.7285 43.0977L50.1872 43.4825Z" fill="#239DFF"/>
<path d="M48.8685 38.18L48.9629 38.4247L48.5214 38.2444L47.5852 37.8609L48.0337 36.0567L48.8685 38.18Z" fill="#239DFF"/>
<path d="M48.9621 38.4249L48.1284 38.9895L48.5206 38.2446L48.9621 38.4249Z" fill="#239DFF"/>
<path d="M50.1428 45.0067L50.1943 45.284L50.1521 48.5289L50.1384 49.8181L48.9629 44.3652L50.1428 45.0067Z" fill="#239DFF"/>
<path d="M48.3794 35.9497L48.8666 38.1785L48.0318 36.0552L48.3794 35.9497Z" fill="#239DFF"/>
<path d="M51.7778 56.6674L52.3799 58.8995L48.1746 65.6546L51.0003 55.3366L51.7778 56.6674Z" fill="#239DFF"/>
<path d="M52.3798 58.9001L51.8526 60.5879C51.8526 60.5879 51.1045 64.2507 51.0871 64.3769C51.0787 64.4194 50.9779 65.1511 50.8522 66.1005L50.728 66.0908L48.7279 66.7899L52.3798 58.9001Z" fill="#239DFF"/>
<path d="M52.38 58.8991L48.7346 66.7796L48.1747 65.6542L52.38 58.8991Z" fill="#239DFF"/>
<path d="M48.5213 38.2438L48.1291 38.9886L48.0783 39.0227L47.5187 38.1185L47.585 37.8604L48.5213 38.2438Z" fill="#239DFF"/>
<path d="M48.0326 36.0559L47.5841 37.8602L47.5178 38.1183L48.0773 39.0225L48.1576 39.1469L48.7499 40.7989L48.0807 40.0954L47.9902 39.9155L47.3134 38.4677L46.4844 35.8926L47.2732 35.7461L48.0326 36.0559Z" fill="#239DFF"/>
<path d="M48.7488 40.7984L49.0904 41.7594L47.145 40.0717L47.2424 39.3652L47.4833 39.4762L48.0796 40.0949L48.7488 40.7984Z" fill="#239DFF"/>
<path d="M47.1455 40.0723L49.0909 41.7599L48.7272 43.0977L47.1455 40.0723Z" fill="#239DFF"/>
<path d="M50.1387 49.8174L51.7777 56.6676L51.0002 55.3368L49.9185 52.5873L49.7039 50.3325L49.5991 50.1635L50.1387 49.8174Z" fill="#239DFF"/>
<path d="M48.963 44.3633L50.1386 49.8162L47.6982 47.2207L48.963 44.3633Z" fill="#239DFF"/>
<path d="M47.6992 47.2227L50.1396 49.8182L49.6 50.1643L49.0811 50.4901L47.6992 47.2227Z" fill="#239DFF"/>
<path d="M55.237 78.1532C55.2911 78.2251 53.5409 78.4681 53.5409 78.4681L53.04 77.0449L53.9129 77.7024C53.9902 77.811 55.1828 78.0813 55.237 78.1532Z" fill="#239DFF"/>
<path d="M48.7273 43.0975L48.9626 44.3651L45.9004 42.5078L48.7273 43.0975Z" fill="#239DFF"/>
<path d="M47.1467 40.0723L48.7284 43.0978L45.9015 42.508L47.1467 40.0723Z" fill="#239DFF"/>
<path d="M48.9626 44.3651L47.6978 47.2224L47.5456 47.0622L45.9004 42.5078L48.9626 44.3651Z" fill="#239DFF"/>
<path d="M49.9168 52.5899L50.9985 55.3394L48.4009 55.6332L48.2007 55.6539L48.2295 55.5011L49.9168 52.5899Z" fill="#239DFF"/>
<path d="M50.9999 55.3352L48.1742 65.6532L48.4023 55.629L50.9999 55.3352Z" fill="#239DFF"/>
<path d="M47.0618 35.6621L47.2732 35.7458L46.4843 35.8922L45.9554 35.4167L45.5322 34.6758L47.0618 35.6621Z" fill="#239DFF"/>
<path d="M48.0804 40.096L47.4841 39.4773L47.2431 39.3663L46.3188 38.9151L46.026 38.4367L45.2334 36.4531L47.9899 39.9161L48.0804 40.096Z" fill="#239DFF"/>
<path d="M47.3126 38.4673L47.9894 39.9151L45.2329 36.4521L45.9909 35.6558L47.3126 38.4673Z" fill="#239DFF"/>
<path d="M46.8763 34.6718L47.0601 35.6621L45.5305 34.6758L46.6483 33.4439L46.8763 34.6718Z" fill="#239DFF"/>
<path d="M45.3311 32.0459L46.6507 33.44L45.533 34.6719L45.055 34.5148L45.3311 32.0459Z" fill="#239DFF"/>
<path d="M53.8755 72.586C53.8755 72.586 54.1108 73.8535 54.1328 73.9723C54.1446 74.0357 54.0608 75.0347 53.9839 75.9833L53.11 73.9574L53.5964 71.6543L53.8755 72.586Z" fill="#239DFF"/>
<path d="M49.5991 50.1627L49.704 50.3317L49.9186 52.5866L48.2312 55.4977L49.0207 50.8273L49.0802 50.4885L49.5991 50.1627Z" fill="#239DFF"/>
<path d="M52.059 66.5327L53.5977 71.656L52.3318 72.1778L52.059 66.5327Z" fill="#239DFF"/>
<path d="M53.5977 71.6558L53.1113 73.9588L52.3318 72.1777L53.5977 71.6558Z" fill="#239DFF"/>
<path d="M46.4843 35.8922L47.3133 38.4673L45.9916 35.6559L45.5322 34.6758L45.9554 35.4167L46.4843 35.8922Z" fill="#239DFF"/>
<path d="M47.2438 39.3639L47.1465 40.0703L45.7265 40.334L45.8649 39.9805L46.3195 38.9126L47.2438 39.3639Z" fill="#239DFF"/>
<path d="M53.9844 75.9849C53.9229 76.8404 53.8698 77.6534 53.9037 77.7045L53.0309 77.047L53.9844 75.9849Z" fill="#239DFF"/>
<path d="M53.1098 73.9556L53.9837 75.9815L53.0381 77.0422L51.9593 75.8902L53.1098 73.9556Z" fill="#239DFF"/>
<path d="M47.1455 40.0715L45.9003 42.5072L42.9516 43.4152L43.0167 42.8868C43.2186 43.0952 47.1455 40.0715 47.1455 40.0715Z" fill="#239DFF"/>
<path d="M47.699 47.2218L49.0809 50.4892L47.103 49.7255L45.7335 49.2503L45.464 49.161L47.699 47.2218Z" fill="#239DFF"/>
<path d="M49.0798 50.4886L49.0203 50.8275L45.0869 49.0254L45.4629 49.1605L45.7324 49.2497L47.1019 49.7249L49.0798 50.4886Z" fill="#239DFF"/>
<path d="M47.1449 40.0719L43.974 41.2342L45.7249 40.3355L47.1449 40.0719Z" fill="#239DFF"/>
<path d="M43.9749 41.234L47.1457 40.0716C47.1457 40.0716 43.2188 43.0954 43.0169 42.887C42.8475 42.7217 43.9428 41.2809 43.9749 41.234Z" fill="#239DFF"/>
<path d="M49.021 50.8274L47.5616 51.0983L44.9043 48.9609L45.0876 49.0252L49.021 50.8274Z" fill="#239DFF"/>
<path d="M45.33 32.0515L45.0539 34.5204L43.3164 31.9746L45.33 32.0515Z" fill="#239DFF"/>
<path d="M52.3308 72.1773L53.1103 73.9585L50.9878 74.3935L52.3308 72.1773Z" fill="#239DFF"/>
<path d="M53.1104 73.9581L51.9599 75.8927L51.1864 75.4626L50.9878 74.3931L53.1104 73.9581Z" fill="#239DFF"/>
<path d="M45.5337 34.6766L45.9931 35.6567L45.0557 34.5195L45.5337 34.6766Z" fill="#239DFF"/>
<path d="M45.0544 34.5205L45.9918 35.6577L45.2338 36.4541L45.0544 34.5205Z" fill="#239DFF"/>
<path d="M53.0382 77.045L53.5391 78.4681L52.2656 77.7621L51.9594 75.8931L53.0382 77.045Z" fill="#239DFF"/>
<path d="M47.5469 47.0598L47.6991 47.22L44.2033 45.5334L42.7326 44.864L44.8903 44.2667L47.5469 47.0598Z" fill="#239DFF"/>
<path d="M47.6975 47.2214L45.4625 49.1606L45.0865 49.0256L44.9032 48.9613L42.8365 48.2468L42.6094 48.166L47.6975 47.2214Z" fill="#239DFF"/>
<path d="M47.698 47.2223L42.6098 48.1669L42.7315 44.8662L44.2022 45.5356L47.698 47.2223Z" fill="#239DFF"/>
<path d="M45.2334 36.4541L46.026 38.4377L45.2572 38.2527L45.2334 36.4541Z" fill="#239DFF"/>
<path d="M45.9002 42.5098L47.5454 47.0642L44.8888 44.2711L45.9002 42.5098Z" fill="#239DFF"/>
<path d="M43.3164 31.9746L45.0539 34.5204L44.733 34.9897L43.3611 32.1712L43.3164 31.9746Z" fill="#239DFF"/>
<path d="M45.0552 34.5191L45.2346 36.4526L44.1814 35.7467L44.7343 34.9884L45.0552 34.5191Z" fill="#239DFF"/>
<path d="M50.7357 66.0806L50.8599 66.0904C50.616 67.8976 50.2679 70.4618 50.2679 70.4618L48.7356 66.7798L50.7357 66.0806Z" fill="#239DFF"/>
<path d="M45.2345 36.4517L45.2583 38.2503L43.5583 37.6644L45.2345 36.4517Z" fill="#239DFF"/>
<path d="M45.2337 36.452L43.5574 37.6647L43.3662 36.6348L45.2337 36.452Z" fill="#239DFF"/>
<path d="M45.2342 36.4521L43.3667 36.6349L44.181 35.7461L45.2342 36.4521Z" fill="#239DFF"/>
<path d="M45.8651 39.981L45.7267 40.3345L44.5782 40.3019L45.8651 39.981Z" fill="#239DFF"/>
<path d="M43.3623 32.1699L44.7343 34.9884L44.1814 35.7467L43.3623 32.1699Z" fill="#239DFF"/>
<path d="M45.7261 40.3369L43.9752 41.2356C44.1542 41.145 44.5775 40.3042 44.5775 40.3042L45.7261 40.3369Z" fill="#239DFF"/>
<path d="M45.2577 38.248L44.1499 39.3141L43.5576 37.6621L45.2577 38.248Z" fill="#239DFF"/>
<path d="M44.903 48.9614L47.5603 51.0988L44.4639 49.8051L44.903 48.9614Z" fill="#239DFF"/>
<path d="M48.4031 55.6295L48.175 65.6537L47.1111 67.7034L47.468 64.3508L48.4031 55.6295Z" fill="#239DFF"/>
<path d="M45.9008 42.507L44.8895 44.2682L42.7318 44.8655L45.9008 42.507Z" fill="#239DFF"/>
<path d="M45.9011 42.507L42.732 44.8655L41.9759 44.3093L42.9523 43.415L45.9011 42.507Z" fill="#239DFF"/>
<path d="M43.3619 32.171L44.181 35.7477L42.3422 34.3271L43.3619 32.171Z" fill="#239DFF"/>
<path d="M42.3418 34.3242L44.1805 35.7448L43.3663 36.6336L42.3418 34.3242Z" fill="#239DFF"/>
<path d="M43.3157 31.9722L43.3604 32.1688L42.3408 34.325L41.6384 33.2671L43.3157 31.9722Z" fill="#239DFF"/>
<path d="M48.7337 66.7818L50.2596 70.4732L48.7652 75.6105L48.7337 66.7818Z" fill="#239DFF"/>
<path d="M43.2559 40.2227L44.5769 40.3052C44.5769 40.3052 44.1536 41.146 43.9745 41.2366L43.2559 40.2227Z" fill="#239DFF"/>
<path d="M43.5582 37.6646L44.1505 39.3166L42.9465 38.106L43.5582 37.6646Z" fill="#239DFF"/>
<path d="M43.3665 36.6353L43.5577 37.6652L42.946 38.1066L42.414 37.2629L42.2521 37.0061L43.3665 36.6353Z" fill="#239DFF"/>
<path d="M42.3413 34.3237L43.3657 36.6331L42.5517 36.2925L42.3413 34.3237Z" fill="#239DFF"/>
<path d="M43.3659 36.636L42.2515 37.0068L42.5519 36.2954L43.3659 36.636Z" fill="#239DFF"/>
<path d="M48.1756 65.6529L48.7354 66.7782L47.1117 67.7025L48.1756 65.6529Z" fill="#239DFF"/>
<path d="M48.7349 66.7824L48.7664 75.611L46.5626 73.455L48.7349 66.7824Z" fill="#239DFF"/>
<path d="M48.7344 66.7799L46.5621 73.4526L46.4637 73.7577L47.1107 67.7042L48.7344 66.7799Z" fill="#239DFF"/>
<path d="M43.255 40.2217L43.9737 41.2356L42.4795 41.7589L43.255 40.2217Z" fill="#239DFF"/>
<path d="M43.9753 41.2355L42.2906 42.4907L41.6 42.9467L41.5412 42.6298L42.4812 41.7587L43.9753 41.2355Z" fill="#239DFF"/>
<path d="M42.2912 42.4892L43.9759 41.234C43.9423 41.273 42.8549 42.7123 43.0179 42.887L42.2912 42.4892Z" fill="#239DFF"/>
<path d="M41.6392 33.2686L42.3416 34.3265L41.073 35.0537L41.6392 33.2686Z" fill="#239DFF"/>
<path d="M42.3412 34.3243L42.5517 36.293L41.0726 35.0515L42.3412 34.3243Z" fill="#239DFF"/>
<path d="M42.4139 37.2646L42.9459 38.1083L42.4726 38.1961L42.252 37.0078L42.4139 37.2646Z" fill="#239DFF"/>
<path d="M41.0723 35.0547L42.5513 36.2962L42.2509 37.0076L41.6646 36.7067L41.0723 35.0547Z" fill="#239DFF"/>
<path d="M42.8369 48.2461L44.9036 48.9606L44.4645 49.8043L42.8369 48.2461Z" fill="#239DFF"/>
<path d="M43.2582 40.2212L42.4827 41.7584L41.8724 40.8883L43.2582 40.2212Z" fill="#239DFF"/>
<path d="M42.8369 48.2461L44.4645 49.8043L43.7569 49.5095L43.0062 48.5425L42.8369 48.2461Z" fill="#239DFF"/>
<path d="M43.0179 42.889L42.9527 43.4174L41.6006 42.9473L43.0179 42.889Z" fill="#239DFF"/>
<path d="M43.0171 42.8895L41.5998 42.9477L42.2904 42.4917L43.0171 42.8895Z" fill="#239DFF"/>
<path d="M42.9527 43.4174L41.9763 44.3117L41.6006 42.9473L42.9527 43.4174Z" fill="#239DFF"/>
<path d="M48.7657 75.6094L48.9525 76.6155L48.0218 76.1737L48.7657 75.6094Z" fill="#239DFF"/>
<path d="M41.8703 40.8887L42.4807 41.7588L41.4158 41.9565L41.8703 40.8887Z" fill="#239DFF"/>
<path d="M46.5625 73.4512L48.7662 75.6072L48.0223 76.1714L46.5625 73.4512Z" fill="#239DFF"/>
<path d="M42.482 41.7574L41.542 42.6285L41.417 41.9551L42.482 41.7574Z" fill="#239DFF"/>
<path d="M48.9528 76.6137L48.0987 76.9362L48.0221 76.1719L48.9528 76.6137Z" fill="#239DFF"/>
<path d="M41.975 44.3086L42.7311 44.8649L41.271 45.7915L41.975 44.3086Z" fill="#239DFF"/>
<path d="M42.731 44.8653L42.6094 48.166L41.499 47.0199L42.731 44.8653Z" fill="#239DFF"/>
<path d="M42.731 44.8653L41.499 47.0199L41.271 45.792L42.731 44.8653Z" fill="#239DFF"/>
<path d="M46.562 73.4512L48.0218 76.1715L45.3515 76.2493L46.4636 73.7563L46.562 73.4512Z" fill="#239DFF"/>
<path d="M48.0211 76.1712L46.8954 77.4046L45.3408 76.2836L45.3507 76.249L48.0211 76.1712Z" fill="#239DFF"/>
<path d="M41.5995 42.9459L41.9752 44.3103L40.4376 43.9401L41.5995 42.9459Z" fill="#239DFF"/>
<path d="M41.9751 44.3096L41.2712 45.7925L40.4375 43.9395L41.9751 44.3096Z" fill="#239DFF"/>
<path d="M41.5999 42.9449L40.438 43.9392L39.4111 43.0234L41.0577 42.8817L41.5999 42.9449Z" fill="#239DFF"/>
<path d="M40.4374 43.9375L41.2711 45.7906L39.4154 44.5862L40.4374 43.9375Z" fill="#239DFF"/>
<path d="M45.3423 76.2872L46.8969 77.4081L44.3331 77.8841L45.1105 76.7973L45.3423 76.2872Z" fill="#239DFF"/>
<path d="M46.8968 77.4049L46.7825 78.3276L44.333 77.8809L46.8968 77.4049Z" fill="#239DFF"/>
<path d="M39.4109 43.0249L40.4377 43.9406L39.4157 44.5893L39.4109 43.0249Z" fill="#239DFF"/>
<path d="M46.7825 78.3276L44.7776 79.3964L44.333 77.8809L46.7825 78.3276Z" fill="#239DFF"/>
<path d="M39.4107 43.0245L39.4155 44.5889L38.2207 42.5488L39.4107 43.0245Z" fill="#239DFF"/>
<path d="M38.2221 42.5459L39.4169 44.586L38.5795 44.471L37.9347 44.0744L37.9852 43.8192L38.2221 42.5459Z" fill="#239DFF"/>
<path d="M39.4167 44.5889L38.5967 46.7654L38.3937 45.6721L38.7962 44.9828L39.4167 44.5889Z" fill="#239DFF"/>
<path d="M39.4177 44.5892L38.7971 44.983L38.3947 45.6724L37.0905 45.0212L38.5803 44.4742L39.4177 44.5892Z" fill="#239DFF"/>
<path d="M38.2221 42.5459L37.9852 43.8192L37.9347 44.0744L37.7883 42.6265L38.2221 42.5459Z" fill="#239DFF"/>
<path d="M38.5792 44.472L37.0895 45.019L37.8151 44.0484L37.9344 44.0754L38.5792 44.472Z" fill="#239DFF"/>
<path d="M44.3321 77.8828L44.7767 79.3984L44.2593 79.2486L44.3321 77.8828Z" fill="#239DFF"/>
<path d="M38.393 45.6709L38.596 46.7642L38.0835 47.0806L38.393 45.6709Z" fill="#239DFF"/>
<path d="M38.3935 45.6719L38.0839 47.0816L37.4435 46.7088L37.3773 46.3523L38.3935 45.6719Z" fill="#239DFF"/>
<path d="M38.394 45.6707L37.3778 46.3511L37.0898 45.0195L38.394 45.6707Z" fill="#239DFF"/>
<path d="M37.7876 42.6304L37.934 44.0784L37.8148 44.0513L36.9139 43.858L37.2688 43.7921L37.7876 42.6304Z" fill="#239DFF"/>
<path d="M37.8154 44.0493L37.0897 45.0199L36.9144 43.856L37.8154 44.0493Z" fill="#239DFF"/>
<path d="M37.3767 46.3506L37.4428 46.7071L36.2743 47.006L37.3767 46.3506Z" fill="#239DFF"/>
<path d="M36.9138 43.8584L37.0891 45.0224L36.2747 47.0093L36.1717 46.4548L36.9138 43.8584Z" fill="#239DFF"/>
<path d="M37.0892 45.0201L37.3772 46.3516L36.2748 47.007L37.0892 45.0201Z" fill="#239DFF"/>
<path d="M37.444 46.7081L36.5623 48.5518L36.2754 47.007L37.444 46.7081Z" fill="#239DFF"/>
<path d="M59.9968 50.3889L56.8053 52.5385L56.583 58.3738L59.9968 50.3889Z" fill="#239DFF"/>
<path d="M59.9961 50.3891L58.8622 47.1822L57.2939 48.801L59.9961 50.3891Z" fill="#239DFF"/>
<path d="M36.5623 48.5518L39.4415 49.1154L37.444 46.7081L36.5623 48.5518Z" fill="#239DFF"/>
<path d="M38.5967 46.7654L39.9815 47.631L39.4167 44.5889L38.5967 46.7654Z" fill="#239DFF"/>
<path d="M41.2707 45.7923L39.9798 47.63L39.415 44.5879L41.2707 45.7923Z" fill="#239DFF"/>
<path d="M39.4398 49.1164L38.0828 47.0818L37.4424 46.709L39.4398 49.1164Z" fill="#239DFF"/>
<path d="M39.4406 49.1176L38.5961 46.7666L38.0837 47.083L39.4406 49.1176Z" fill="#239DFF"/>
<path d="M39.4421 49.1146L39.9824 47.6293L38.5977 46.7637L39.4421 49.1146Z" fill="#239DFF"/>
<path d="M56.5819 58.3745L57.2319 59.5897L57.313 56.3785L56.5819 58.3745Z" fill="#239DFF"/>
<path d="M57.3134 56.3763L57.973 58.3026L58.0335 54.9805L57.3134 56.3763Z" fill="#239DFF"/>
<path d="M58.0343 54.9824C58.0343 54.9824 58.8233 57.1224 58.8654 56.9097C58.9075 56.697 59.997 50.3893 59.997 50.3893L58.0343 54.9824Z" fill="#239DFF"/>
<path d="M54.7656 51.0898C54.8064 51.2216 57.9163 58.1265 57.9163 58.1265L58.0329 54.9743L54.7656 51.0898Z" fill="#239DFF"/>
<path d="M56.5824 58.375L55.0436 59.6687L53.6475 56.4121L56.5824 58.375Z" fill="#239DFF"/>
<path d="M41.4991 47.019L39.9802 47.6288L41.2711 45.7911L41.4991 47.019Z" fill="#239DFF"/>
<path d="M39.4412 49.1147L41.5004 47.0196L39.9815 47.6294L39.4412 49.1147Z" fill="#239DFF"/>
<path d="M39.4409 49.1143L39.3387 51.641L42.6106 54.3199L43.2459 56.4229L43.0064 57.7704L44.7562 55.0197L44.1331 51.6196L41.3724 48.9688L39.4409 49.1143Z" fill="#239DFF"/>
<path d="M39.3389 51.6426L40.4588 54.598L42.0127 56.3748L42.198 57.373L42.3042 55.747L39.3389 51.6426Z" fill="#239DFF"/>
<path d="M39.08 49.584L38.5889 53.0926L39.0963 55.8258L39.2507 54.24L39.08 49.584Z" fill="#239DFF"/>
<path d="M44.1318 51.6215L43.4145 49.7797L41.3711 48.9707L44.1318 51.6215Z" fill="#239DFF"/>
<path d="M44.6562 50.834L46.0373 52.9542L45.6002 54.2483L45.4331 52.8205L44.6562 50.834Z" fill="#239DFF"/>
<path d="M39.2872 53.7815L38.5879 53.0918L39.2872 53.7815Z" fill="#239DFF"/>
<path d="M42.0119 56.3763L42.3034 55.7485L40.458 54.5996L42.0119 56.3763Z" fill="#239DFF"/>
<path d="M45.4326 52.8223L46.0368 52.956L45.5997 54.25L45.4326 52.8223Z" fill="#239DFF"/>
<path d="M44.1326 51.6197L43.631 53.8845L44.7557 55.0198L44.1326 51.6197Z" fill="#239DFF"/>
<path d="M43.6301 53.8853L43.2445 56.4237L44.7548 55.0205L43.6301 53.8853Z" fill="#239DFF"/>
<path d="M43.2451 56.4272L43.0057 57.7747L44.7555 55.024L43.2451 56.4272Z" fill="#239DFF"/>
<path d="M43.6303 53.8878L42.7422 50.291L44.1319 51.6229L43.6303 53.8878Z" fill="#239DFF"/>
<path d="M42.743 50.2887L41.3719 48.9697L39.4404 49.1152L42.743 50.2887Z" fill="#239DFF"/>
<path d="M40.5282 49.0358L41.5004 47.0196L39.4412 49.1147L40.5282 49.0358Z" fill="#239DFF"/>
<path d="M42.7436 50.291L42.6108 54.3232L43.6317 53.8878L42.7436 50.291Z" fill="#239DFF"/>
<path d="M42.6105 54.3197L43.2458 56.4227L43.6314 53.8843L42.6105 54.3197Z" fill="#239DFF"/>
<path d="M39.4404 49.1152L42.6773 52.3087L42.743 50.2887L39.4404 49.1152Z" fill="#239DFF"/>
<path d="M39.4404 49.1152L42.6102 54.3208L42.6773 52.3087L39.4404 49.1152Z" fill="#239DFF"/>
<path d="M42.6106 54.3199L39.4409 49.1143L39.3387 51.641L42.6106 54.3199Z" fill="#239DFF"/>
<path d="M39.0953 55.825L38.5879 53.0918L39.2872 53.7815L39.0953 55.825Z" fill="#239DFF"/>
<path d="M39.2882 53.7823L38.5889 53.0926L39.08 49.584L39.2882 53.7823Z" fill="#239DFF"/>
<path d="M42.3036 55.7471L42.1975 57.3731L42.0121 56.3749L42.3036 55.7471Z" fill="#239DFF"/>
<path d="M39.3389 51.6426L40.4588 54.598L42.3042 55.747L39.3389 51.6426Z" fill="#239DFF"/>
<path d="M51.145 75.5503L51.7338 75.777L50.9315 78.0485L51.145 75.5503Z" fill="#239DFF"/>
<path d="M66.8604 54.5625L67.4918 54.5354L67.6368 56.9425L66.8604 54.5625Z" fill="#239DFF"/>
<path d="M58.8592 47.2069L56.9307 46.8848L57.291 48.8257L58.8592 47.2069Z" fill="#239DFF"/>
<path d="M55.5338 46.7911L56.8047 52.5377L53.0253 46.1586L54.0352 45.3565L55.5338 46.7911Z" fill="#239DFF"/>
<path d="M75.7832 26.9546C77.2704 27.353 77.7685 29.212 76.6798 30.3006L71.2995 35.6809C70.2109 36.7696 68.3519 36.2715 67.9535 34.7843L65.9841 27.4347C65.5857 25.9476 66.9465 24.5868 68.4336 24.9852L75.7832 26.9546Z" fill="#A6D4F9"/>
</g>
<defs>
<filter id="filter0_i_6122_104705" x="18.9238" y="18.3164" width="71.5205" height="73.5195" filterUnits="userSpaceOnUse" color-interpolation-filters="sRGB">
<feFlood flood-opacity="0" result="BackgroundImageFix"/>
<feBlend mode="normal" in="SourceGraphic" in2="BackgroundImageFix" result="shape"/>
<feColorMatrix in="SourceAlpha" type="matrix" values="0 0 0 0 0 0 0 0 0 0 0 0 0 0 0 0 0 0 127 0" result="hardAlpha"/>
<feOffset dy="2"/>
<feGaussianBlur stdDeviation="1.15"/>
<feComposite in2="hardAlpha" operator="arithmetic" k2="-1" k3="1"/>
<feColorMatrix type="matrix" values="0 0 0 0 1 0 0 0 0 1 0 0 0 0 1 0 0 0 1 0"/>
<feBlend mode="normal" in2="shape" result="effect1_innerShadow_6122_104705"/>
</filter>
<linearGradient id="paint0_linear_6122_104705" x1="329.858" y1="92.2598" x2="284.028" y2="-42.4198" gradientUnits="userSpaceOnUse">
<stop stop-color="#3D9DEB"/>
<stop offset="1" stop-color="#CFE9FF"/>
</linearGradient>
<linearGradient id="paint1_linear_6122_104705" x1="242.072" y1="216.104" x2="-75.9128" y2="-73.8977" gradientUnits="userSpaceOnUse">
<stop stop-color="#3D9DEB"/>
<stop offset="1" stop-color="#CFE9FF"/>
</linearGradient>
<linearGradient id="paint2_linear_6122_104705" x1="179.37" y1="166.508" x2="-41.6257" y2="-35.04" gradientUnits="userSpaceOnUse">
<stop stop-color="#3D9DEB"/>
<stop offset="1" stop-color="#CFE9FF"/>
</linearGradient>
<linearGradient id="paint3_linear_6122_104705" x1="131.896" y1="128.957" x2="-15.6654" y2="-5.6192" gradientUnits="userSpaceOnUse">
<stop stop-color="#3D9DEB"/>
<stop offset="1" stop-color="#CFE9FF"/>
</linearGradient>
<linearGradient id="paint4_linear_6122_104705" x1="96.9623" y1="101.325" x2="3.43741" y2="16.0301" gradientUnits="userSpaceOnUse">
<stop stop-color="#3D9DEB"/>
<stop offset="1" stop-color="#CFE9FF"/>
</linearGradient>
<linearGradient id="paint5_linear_6122_104705" x1="33.0871" y1="90.6638" x2="33.7344" y2="42.0911" gradientUnits="userSpaceOnUse">
<stop stop-color="#3D9DEB"/>
<stop offset="1" stop-color="#CFE9FF"/>
</linearGradient>
<linearGradient id="paint6_linear_6122_104705" x1="67.5566" y1="110.806" x2="75.9502" y2="39.0426" gradientUnits="userSpaceOnUse">
<stop stop-color="#76C2FF"/>
<stop offset="0.743256" stop-color="#EDF7FF"/>
</linearGradient>
<clipPath id="clip0_6122_104705">
<rect width="348" height="108" rx="8" fill="white"/>
</clipPath>
</defs>
</svg>
