<svg width="842" height="543" viewBox="0 0 842 543" fill="none" xmlns="http://www.w3.org/2000/svg">
<g clip-path="url(#clip0_6732_26824)">
<rect width="842" height="543" rx="16" fill="#FBF5FC"/>
<circle opacity="0.08" cx="18.9951" cy="271.995" r="868.995" fill="url(#paint0_linear_6732_26824)"/>
<circle opacity="0.08" cx="18.9957" cy="271.994" r="640.207" fill="url(#paint1_linear_6732_26824)"/>
<circle opacity="0.24" cx="18.9962" cy="271.996" r="427.473" fill="url(#paint2_linear_6732_26824)"/>
<circle opacity="0.8" cx="18.9979" cy="271.994" r="270.933" fill="url(#paint3_linear_6732_26824)"/>
<path d="M174.3 230.116C173.099 229.76 171.824 229.715 170.598 229.985C169.371 230.256 168.233 230.833 167.292 231.661L151.517 245.534L150.796 242.842C147.672 231.185 135.542 224.268 123.76 227.425L40.8409 244.326C35.2368 247.69 26.5702 263.634 29.6937 275.291L44.8015 331.674C47.9251 343.332 60.0554 350.249 71.8379 347.092L150.198 326.095C161.981 322.938 167.5 311.579 170.862 299.25L165.182 296.533L182.071 300.371C186.555 301.492 192.159 301.492 195.522 295.887C202.247 284.678 199.54 282.641 198.884 280.195L179.291 235.207C178.635 232.761 176.747 230.843 174.3 230.116Z" fill="url(#paint4_linear_6732_26824)"/>
<path d="M168.016 232.484L168.016 232.483C168.818 231.777 169.788 231.285 170.834 231.055C171.88 230.824 172.966 230.863 173.988 231.166C176.076 231.786 177.678 233.419 178.233 235.491L178.254 235.57L178.286 235.644L197.849 280.561C197.946 280.903 198.07 281.225 198.186 281.515C198.207 281.568 198.227 281.62 198.248 281.672C198.354 281.938 198.452 282.185 198.544 282.454C198.752 283.067 198.911 283.767 198.876 284.714C198.805 286.652 197.914 289.771 194.582 295.324C193.058 297.864 191.069 299.09 188.966 299.585C186.821 300.089 184.491 299.847 182.337 299.308L182.325 299.305L182.314 299.303L165.425 295.465L164.71 297.521L169.562 299.842C166.189 311.777 160.801 322.12 149.915 325.037L71.5544 346.034C60.3455 349.037 48.8236 342.453 45.8594 331.391L30.7517 275.008C29.2795 269.514 30.5718 262.882 33.0034 257.125C34.2119 254.264 35.6835 251.664 37.1837 249.585C38.6357 247.574 40.0639 246.121 41.2514 245.361L123.978 228.498L124.011 228.491L124.043 228.483C135.252 225.479 146.774 232.063 149.738 243.126L150.459 245.818L150.916 247.522L152.241 246.357L168.016 232.484Z" stroke="white" stroke-opacity="0.14" stroke-width="2.19048"/>
<g filter="url(#filter0_i_6732_26824)">
<path d="M179.32 220.146C178.119 219.79 176.845 219.745 175.618 220.015C174.392 220.286 173.254 220.863 172.313 221.691L156.538 235.564L155.816 232.872C152.693 221.215 140.563 214.298 128.78 217.455L50.4198 238.451C38.6373 241.609 31.5907 253.664 34.7142 265.321L49.822 321.704C52.9456 333.362 65.0759 340.279 76.8584 337.122L155.219 316.125C167.001 312.968 174.048 300.912 170.924 289.255L170.203 286.563L190.799 290.683C192.028 290.935 193.303 290.868 194.501 290.49C195.7 290.112 196.782 289.435 197.642 288.524C199.398 286.672 200.074 284.066 199.419 281.62L184.311 225.237C183.656 222.791 181.767 220.873 179.32 220.146Z" fill="url(#paint5_linear_6732_26824)"/>
</g>
<path d="M173.036 222.514L173.037 222.513C173.838 221.807 174.808 221.315 175.854 221.085C176.9 220.854 177.986 220.893 179.009 221.196C181.097 221.816 182.698 223.449 183.253 225.52L198.361 281.903C198.916 283.975 198.346 286.19 196.847 287.771L196.846 287.772C196.114 288.547 195.193 289.124 194.172 289.446C193.151 289.768 192.065 289.824 191.019 289.61L191.014 289.609L170.418 285.489L168.688 285.143L169.145 286.846L169.866 289.539C172.83 300.601 166.144 312.064 154.935 315.067L76.5749 336.064C65.366 339.067 53.8441 332.483 50.8799 321.421L35.7722 265.038C32.808 253.976 39.4943 242.513 50.7033 239.509L129.063 218.513C140.272 215.509 151.794 222.093 154.758 233.156L155.48 235.848L155.936 237.552L157.261 236.387L173.036 222.514Z" stroke="white" stroke-opacity="0.15" stroke-width="2.19048"/>
<circle opacity="0.8" cx="75.4763" cy="303.761" r="9.85714" fill="url(#paint6_linear_6732_26824)"/>
<rect opacity="0.8" x="55.416" y="259.354" width="83.7351" height="13.4505" rx="6.72523" transform="rotate(-15 55.416 259.354)" fill="url(#paint7_linear_6732_26824)"/>
</g>
<rect x="0.5" y="0.5" width="841" height="542" rx="15.5" stroke="white"/>
<defs>
<filter id="filter0_i_6732_26824" x="33.9746" y="216.691" width="165.689" height="125.574" filterUnits="userSpaceOnUse" color-interpolation-filters="sRGB">
<feFlood flood-opacity="0" result="BackgroundImageFix"/>
<feBlend mode="normal" in="SourceGraphic" in2="BackgroundImageFix" result="shape"/>
<feColorMatrix in="SourceAlpha" type="matrix" values="0 0 0 0 0 0 0 0 0 0 0 0 0 0 0 0 0 0 127 0" result="hardAlpha"/>
<feOffset dy="4.38095"/>
<feGaussianBlur stdDeviation="2.51905"/>
<feComposite in2="hardAlpha" operator="arithmetic" k2="-1" k3="1"/>
<feColorMatrix type="matrix" values="0 0 0 0 1 0 0 0 0 1 0 0 0 0 1 0 0 0 1 0"/>
<feBlend mode="normal" in2="shape" result="effect1_innerShadow_6732_26824"/>
</filter>
<linearGradient id="paint0_linear_6732_26824" x1="797.387" y1="887.692" x2="-406.653" y2="-210.393" gradientUnits="userSpaceOnUse">
<stop stop-color="#F8C200"/>
<stop offset="1" stop-color="#FFF8BA"/>
</linearGradient>
<linearGradient id="paint1_linear_6732_26824" x1="592.453" y1="725.59" x2="-294.588" y2="-83.3913" gradientUnits="userSpaceOnUse">
<stop stop-color="#F8C200"/>
<stop offset="1" stop-color="#FFF8BA"/>
</linearGradient>
<linearGradient id="paint2_linear_6732_26824" x1="401.9" y1="574.867" x2="-190.387" y2="34.7018" gradientUnits="userSpaceOnUse">
<stop stop-color="#F8C200"/>
<stop offset="1" stop-color="#FFF8BA"/>
</linearGradient>
<linearGradient id="paint3_linear_6732_26824" x1="261.683" y1="463.954" x2="-113.71" y2="121.596" gradientUnits="userSpaceOnUse">
<stop stop-color="#F8C200"/>
<stop offset="1" stop-color="#FFF8BA"/>
</linearGradient>
<linearGradient id="paint4_linear_6732_26824" x1="84.5551" y1="349.689" x2="158.919" y2="296.217" gradientUnits="userSpaceOnUse">
<stop stop-color="#FAD036"/>
<stop offset="0.789928" stop-color="#FDE785"/>
</linearGradient>
<linearGradient id="paint5_linear_6732_26824" x1="145.093" y1="357.549" x2="138.27" y2="244.971" gradientUnits="userSpaceOnUse">
<stop stop-color="#FFE47E"/>
<stop offset="0.674494" stop-color="#FFFBDF"/>
</linearGradient>
<linearGradient id="paint6_linear_6732_26824" x1="107.512" y1="323.476" x2="55.762" y2="284.047" gradientUnits="userSpaceOnUse">
<stop offset="0.235941" stop-color="#FCCC18"/>
<stop offset="0.841302" stop-color="#FFF498"/>
</linearGradient>
<linearGradient id="paint7_linear_6732_26824" x1="213.114" y1="302.391" x2="213.791" y2="254.158" gradientUnits="userSpaceOnUse">
<stop offset="0.262221" stop-color="#FCCA10"/>
<stop offset="0.808069" stop-color="#FFEF9A"/>
</linearGradient>
<clipPath id="clip0_6732_26824">
<rect width="842" height="543" rx="16" fill="white"/>
</clipPath>
</defs>
</svg>
