<svg width="31" height="23" viewBox="0 0 31 23" fill="none" xmlns="http://www.w3.org/2000/svg">
<path d="M29.8693 4.3892C29.5284 3.04081 28.5057 1.9763 27.2102 1.60372C24.875 0.947266 15.5 0.947266 15.5 0.947266C15.5 0.947266 6.125 0.947266 3.77273 1.60372C2.47727 1.95856 1.47159 3.02307 1.11364 4.3892C0.5 6.83759 0.5 11.9473 0.5 11.9473C0.5 11.9473 0.5 17.0569 1.13068 19.5053C1.47159 20.8537 2.49432 21.9182 3.78977 22.2908C6.125 22.9473 15.5 22.9473 15.5 22.9473C15.5 22.9473 24.875 22.9473 27.2273 22.2908C28.5227 21.936 29.5284 20.8715 29.8864 19.5053C30.5 17.0569 30.5 11.9473 30.5 11.9473C30.5 11.9473 30.5 6.83759 29.8693 4.3892Z" fill="#B4B4C4"/>
<path d="M12.4316 16.5956V7.29883L20.2725 11.9472L12.4316 16.5956Z" fill="white"/>
</svg>
